<?xml version="1.0" encoding="UTF-8" standalone="no"?>
<svg
   xmlns:dc="http://purl.org/dc/elements/1.1/"
   xmlns:cc="http://creativecommons.org/ns#"
   xmlns:rdf="http://www.w3.org/1999/02/22-rdf-syntax-ns#"
   xmlns:svg="http://www.w3.org/2000/svg"
   xmlns="http://www.w3.org/2000/svg"
   viewBox="0 0 450 450"
   height="450"
   width="450"
   xml:space="preserve"
   version="1.1"
   id="svg2"><metadata
     id="metadata8"><rdf:RDF><cc:Work
         rdf:about=""><dc:format>image/svg+xml</dc:format><dc:type
           rdf:resource="http://purl.org/dc/dcmitype/StillImage" /></cc:Work></rdf:RDF></metadata><defs
     id="defs6"><clipPath
       id="clipPath26"
       clipPathUnits="userSpaceOnUse"><path
         id="path28"
         d="m 14.29,352.8 345.71,0 0,7.2 -345.71,0 0,-7.2 z" /></clipPath><clipPath
       id="clipPath36"
       clipPathUnits="userSpaceOnUse"><path
         id="path38"
         d="m 14.29,54.47 345.71,0 0,298.33 -345.71,0 0,-298.33 z" /></clipPath></defs><g
     transform="matrix(1.25,0,0,-1.25,0,450)"
     id="g10"><g
       id="g12" /><g
       id="g14" /><g
       id="g16" /><g
       id="g18" /><g
       id="g20" /><g
       id="g22"><g
         clip-path="url(#clipPath26)"
         id="g24" /></g><g
       id="g30" /><g
       id="g32"><g
         clip-path="url(#clipPath36)"
         id="g34"><path
           id="path40"
           style="fill:none;stroke:#000000;stroke-width:0.75;stroke-linecap:round;stroke-linejoin:round;stroke-miterlimit:10;stroke-dasharray:none;stroke-opacity:1"
           d="m 160.57,321.55 c 0,14.62 11.96,26.58 26.57,26.58 14.62,0 26.58,-11.96 26.58,-26.58 0,-14.61 -11.96,-26.57 -26.58,-26.57 -14.61,0 -26.57,11.96 -26.57,26.57" /><path
           id="path42"
           style="fill:none;stroke:#000000;stroke-width:0.75;stroke-linecap:round;stroke-linejoin:round;stroke-miterlimit:10;stroke-dasharray:none;stroke-opacity:1"
           d="m 296.66,262.59 c 0,14.62 11.96,26.58 26.57,26.58 14.62,0 26.58,-11.96 26.58,-26.58 0,-14.61 -11.96,-26.57 -26.58,-26.57 -14.61,0 -26.57,11.96 -26.57,26.57" /><path
           id="path44"
           style="fill:none;stroke:#000000;stroke-width:0.75;stroke-linecap:round;stroke-linejoin:round;stroke-miterlimit:10;stroke-dasharray:none;stroke-opacity:1"
           d="m 296.66,144.68 c 0,14.61 11.96,26.57 26.57,26.57 14.62,0 26.58,-11.96 26.58,-26.57 0,-14.62 -11.96,-26.58 -26.58,-26.58 -14.61,0 -26.57,11.96 -26.57,26.58" /><path
           id="path46"
           style="fill:none;stroke:#000000;stroke-width:0.75;stroke-linecap:round;stroke-linejoin:round;stroke-miterlimit:10;stroke-dasharray:none;stroke-opacity:1"
           d="m 160.57,85.72 c 0,14.61 11.96,26.57 26.57,26.57 14.62,0 26.58,-11.96 26.58,-26.57 0,-14.62 -11.96,-26.58 -26.58,-26.58 -14.61,0 -26.57,11.96 -26.57,26.58" /><path
           id="path48"
           style="fill:none;stroke:#000000;stroke-width:0.75;stroke-linecap:round;stroke-linejoin:round;stroke-miterlimit:10;stroke-dasharray:none;stroke-opacity:1"
           d="m 24.48,144.68 c 0,14.61 11.96,26.57 26.57,26.57 14.62,0 26.58,-11.96 26.58,-26.57 0,-14.62 -11.96,-26.58 -26.58,-26.58 -14.61,0 -26.57,11.96 -26.57,26.58" /><path
           id="path50"
           style="fill:none;stroke:#000000;stroke-width:0.75;stroke-linecap:round;stroke-linejoin:round;stroke-miterlimit:10;stroke-dasharray:none;stroke-opacity:1"
           d="m 24.48,262.59 c 0,14.62 11.96,26.58 26.57,26.58 14.62,0 26.58,-11.96 26.58,-26.58 0,-14.61 -11.96,-26.57 -26.58,-26.57 -14.61,0 -26.57,11.96 -26.57,26.57" /><text
           id="text52"
           style="font-variant:normal;font-weight:normal;font-size:7px;font-family:Helvetica;-inkscape-font-specification:Helvetica;writing-mode:lr-tb;fill:#000000;fill-opacity:1;fill-rule:nonzero;stroke:none"
           transform="matrix(1,0,0,-1,174.34,319.04)"><tspan
             id="tspan54"
             y="0"
             x="0 3.325 7.217 9.6529999 11.207 14.707 18.599001 20.153 21.707001">varicella</tspan></text>
<text
           id="text56"
           style="font-variant:normal;font-weight:normal;font-size:7px;font-family:Helvetica;-inkscape-font-specification:Helvetica;writing-mode:lr-tb;fill:#000000;fill-opacity:1;fill-rule:nonzero;stroke:none"
           transform="matrix(1,0,0,-1,310.2,260.08)"><tspan
             id="tspan58"
             y="0"
             x="0 5.8309999 9.7229996 13.615 17.115 18.669001 22.561001">measles</tspan></text>
<text
           id="text60"
           style="font-variant:normal;font-weight:normal;font-size:7px;font-family:Helvetica;-inkscape-font-specification:Helvetica;writing-mode:lr-tb;fill:#000000;fill-opacity:1;fill-rule:nonzero;stroke:none"
           transform="matrix(1,0,0,-1,311.79,142.16)"><tspan
             id="tspan62"
             y="0"
             x="0 5.7610002 9.6529999 15.484 19.375999">mumps</tspan></text>
<text
           id="text64"
           style="font-variant:normal;font-weight:normal;font-size:7px;font-family:Helvetica;-inkscape-font-specification:Helvetica;writing-mode:lr-tb;fill:#000000;fill-opacity:1;fill-rule:nonzero;stroke:none"
           transform="matrix(1,0,0,-1,179.75,83.21)"><tspan
             id="tspan66"
             y="0"
             x="0 3.892 7.7839999 9.3380003 10.892">polio</tspan></text>
<text
           id="text68"
           style="font-variant:normal;font-weight:normal;font-size:7px;font-family:Helvetica;-inkscape-font-specification:Helvetica;writing-mode:lr-tb;fill:#000000;fill-opacity:1;fill-rule:nonzero;stroke:none"
           transform="matrix(1,0,0,-1,32.24,142.16)"><tspan
             id="tspan70"
             y="0"
             x="0 3.5 7 10.892 13.328 14.882 18.774 20.719999 22.666 24.402 28.084 31.409 35.300999">scarlet fever</tspan></text>
<text
           id="text72"
           style="font-variant:normal;font-weight:normal;font-size:7px;font-family:Helvetica;-inkscape-font-specification:Helvetica;writing-mode:lr-tb;fill:#000000;fill-opacity:1;fill-rule:nonzero;stroke:none"
           transform="matrix(1,0,0,-1,36.91,260.08)"><tspan
             id="tspan74"
             y="0"
             x="0 3.892 7.7839999 10.395 12.341 16.233 19.733 23.233 24.787001">pertussis</tspan></text>
<path
           id="path76"
           style="fill:none;stroke:#f8766d;stroke-width:1.05999994;stroke-linecap:butt;stroke-linejoin:round;stroke-miterlimit:10;stroke-dasharray:none;stroke-opacity:1"
           d="m 51.05,233.11 0,-58.95" /><path
           id="path78"
           style="fill:none;stroke:#f8766d;stroke-width:1.05999994;stroke-linecap:butt;stroke-linejoin:round;stroke-miterlimit:10;stroke-dasharray:none;stroke-opacity:1"
           d="m 47.51,180.29 3.54,-6.13 3.55,6.13" /><path
           id="path80"
           style="fill:none;stroke:#f8766d;stroke-width:1.05999994;stroke-linecap:butt;stroke-linejoin:round;stroke-miterlimit:10;stroke-dasharray:none;stroke-opacity:1"
           d="m 85.08,277.33 68.04,29.48" /><path
           id="path82"
           style="fill:none;stroke:#f8766d;stroke-width:1.05999994;stroke-linecap:butt;stroke-linejoin:round;stroke-miterlimit:10;stroke-dasharray:none;stroke-opacity:1"
           d="m 148.9,301.12 4.22,5.69 -7.04,0.81" /><path
           id="path84"
           style="fill:none;stroke:#00bfc4;stroke-width:1.05999994;stroke-linecap:butt;stroke-linejoin:round;stroke-miterlimit:10;stroke-dasharray:none;stroke-opacity:1"
           d="m 221.17,306.81 68.04,-29.48" /><path
           id="path86"
           style="fill:none;stroke:#00bfc4;stroke-width:1.05999994;stroke-linecap:butt;stroke-linejoin:round;stroke-miterlimit:10;stroke-dasharray:none;stroke-opacity:1"
           d="m 282.17,276.52 7.04,0.81 -4.22,5.69" /><path
           id="path88"
           style="fill:none;stroke:#00bfc4;stroke-width:1.05999994;stroke-linecap:butt;stroke-linejoin:round;stroke-miterlimit:10;stroke-dasharray:none;stroke-opacity:1"
           d="m 221.17,100.46 68.04,29.48" /><path
           id="path90"
           style="fill:none;stroke:#00bfc4;stroke-width:1.05999994;stroke-linecap:butt;stroke-linejoin:round;stroke-miterlimit:10;stroke-dasharray:none;stroke-opacity:1"
           d="m 284.99,124.25 4.22,5.69 -7.04,0.81" /><path
           id="path92"
           style="fill:none;stroke:#00bfc4;stroke-width:1.05999994;stroke-linecap:butt;stroke-linejoin:round;stroke-miterlimit:10;stroke-dasharray:none;stroke-opacity:1"
           d="m 187.14,115.2 0,176.87" /><path
           id="path94"
           style="fill:none;stroke:#00bfc4;stroke-width:1.05999994;stroke-linecap:butt;stroke-linejoin:round;stroke-miterlimit:10;stroke-dasharray:none;stroke-opacity:1"
           d="m 190.69,285.94 -3.55,6.13 -3.54,-6.13" /><path
           id="path96"
           style="fill:none;stroke:#00bfc4;stroke-width:1.05999994;stroke-linecap:butt;stroke-linejoin:round;stroke-miterlimit:10;stroke-dasharray:none;stroke-opacity:1"
           d="m 85.08,129.94 68.04,-29.48" /><path
           id="path98"
           style="fill:none;stroke:#00bfc4;stroke-width:1.05999994;stroke-linecap:butt;stroke-linejoin:round;stroke-miterlimit:10;stroke-dasharray:none;stroke-opacity:1"
           d="m 146.08,99.65 7.04,0.81 -4.22,5.69" /><path
           id="path100"
           style="fill:none;stroke:#00bfc4;stroke-width:1.05999994;stroke-linecap:butt;stroke-linejoin:round;stroke-miterlimit:10;stroke-dasharray:none;stroke-opacity:1"
           d="m 90.34,144.68 193.61,0" /><path
           id="path102"
           style="fill:none;stroke:#00bfc4;stroke-width:1.05999994;stroke-linecap:butt;stroke-linejoin:round;stroke-miterlimit:10;stroke-dasharray:none;stroke-opacity:1"
           d="m 277.81,141.13 6.14,3.55 -6.14,3.54" /><path
           id="path104"
           style="fill:none;stroke:#00bfc4;stroke-width:1.05999994;stroke-linecap:butt;stroke-linejoin:round;stroke-miterlimit:10;stroke-dasharray:none;stroke-opacity:1"
           d="m 90.34,262.59 193.61,0" /><path
           id="path106"
           style="fill:none;stroke:#00bfc4;stroke-width:1.05999994;stroke-linecap:butt;stroke-linejoin:round;stroke-miterlimit:10;stroke-dasharray:none;stroke-opacity:1"
           d="m 277.81,259.05 6.14,3.54 -6.14,3.55" /><path
           id="path108"
           style="fill:none;stroke:#00bfc4;stroke-width:1.05999994;stroke-linecap:butt;stroke-linejoin:round;stroke-miterlimit:10;stroke-dasharray:none;stroke-opacity:1"
           d="m 221.17,306.81 68.04,-29.48" /><path
           id="path110"
           style="fill:none;stroke:#00bfc4;stroke-width:1.05999994;stroke-linecap:butt;stroke-linejoin:round;stroke-miterlimit:10;stroke-dasharray:none;stroke-opacity:1"
           d="m 282.17,276.52 7.04,0.81 -4.22,5.69" /></g></g><g
       id="g112" /><g
       id="g114" /><g
       id="g116" /><g
       id="g118" /><g
       id="g120" /><g
       id="g122" /><g
       id="g124" /><g
       id="g126" /><g
       id="g128" /><g
       id="g130" /><g
       id="g132" /><g
       id="g134" /><g
       id="g136" /><g
       id="g138" /><g
       id="g140" /><g
       id="g142" /><g
       id="g144" /><g
       id="g146" /><g
       id="g148" /><g
       id="g150" /><g
       id="g152" /><g
       id="g154" /><g
       id="g156" /><g
       id="g158" /><g
       id="g160" /><g
       id="g162"><path
         id="path164"
         style="fill:#ffffff;fill-opacity:1;fill-rule:nonzero;stroke:none"
         d="m 120.93,7.2 132.43,0 0,25.78 -132.43,0 0,-25.78 z" /></g><g
       id="g166" /><g
       id="g168" /><g
       id="g170" /><g
       id="g172" /><g
       id="g174" /><g
       id="g176"><path
         id="path178"
         style="fill:none;stroke:#f8766d;stroke-width:1.05999994;stroke-linecap:butt;stroke-linejoin:round;stroke-miterlimit:10;stroke-dasharray:none;stroke-opacity:1"
         d="m 131.23,20.09 13.82,0" /></g><g
       id="g180" /><g
       id="g182" /><g
       id="g184" /><g
       id="g186"><path
         id="path188"
         style="fill:none;stroke:#00bfc4;stroke-width:1.05999994;stroke-linecap:butt;stroke-linejoin:round;stroke-miterlimit:10;stroke-dasharray:none;stroke-opacity:1"
         d="m 189.51,20.09 13.82,0" /></g><g
       id="g190" /><g
       id="g192"><text
         id="text194"
         style="font-variant:normal;font-weight:normal;font-size:10px;font-family:Helvetica;-inkscape-font-specification:Helvetica;writing-mode:lr-tb;fill:#000000;fill-opacity:1;fill-rule:nonzero;stroke:none"
         transform="matrix(1,0,0,-1,148.94,16.5)"><tspan
           id="tspan196"
           y="0"
           x="0 7.2199998 12.78 15 20 25.559999 31.120001">Chicago</tspan></text>
</g><g
       id="g198" /><g
       id="g200"><text
         id="text202"
         style="font-variant:normal;font-weight:normal;font-size:10px;font-family:Helvetica;-inkscape-font-specification:Helvetica;writing-mode:lr-tb;fill:#000000;fill-opacity:1;fill-rule:nonzero;stroke:none"
         transform="matrix(1,0,0,-1,207.22,16.5)"><tspan
           id="tspan204"
           y="0"
           x="0 7.2199998 12.58 19.799999 22.58 27.85 33.41 36.889999">New York</tspan></text>
</g><g
       id="g206" /><g
       id="g208" /><g
       id="g210" /><g
       id="g212" /><g
       id="g214" /><g
       id="g216" /><g
       id="g218" /><g
       id="g220" /><g
       id="g222" /><g
       id="g224" /><g
       id="g226" /><g
       id="g228" /></g></svg>