<?xml version="1.0" encoding="UTF-8" standalone="no"?>
<svg
   xmlns:dc="http://purl.org/dc/elements/1.1/"
   xmlns:cc="http://creativecommons.org/ns#"
   xmlns:rdf="http://www.w3.org/1999/02/22-rdf-syntax-ns#"
   xmlns:svg="http://www.w3.org/2000/svg"
   xmlns="http://www.w3.org/2000/svg"
   viewBox="0 0 225 225"
   height="225"
   width="225"
   xml:space="preserve"
   version="1.1"
   id="svg2"><metadata
     id="metadata8"><rdf:RDF><cc:Work
         rdf:about=""><dc:format>image/svg+xml</dc:format><dc:type
           rdf:resource="http://purl.org/dc/dcmitype/StillImage" /></cc:Work></rdf:RDF></metadata><defs
     id="defs6"><clipPath
       id="clipPath26"
       clipPathUnits="userSpaceOnUse"><path
         id="path28"
         d="m 2.99,180 177.01,0 0,0 -177.01,0 z" /></clipPath><clipPath
       id="clipPath36"
       clipPathUnits="userSpaceOnUse"><path
         id="path38"
         d="M 2.99,28.77 180,28.77 180,180 2.99,180 2.99,28.77 Z" /></clipPath></defs><g
     transform="matrix(1.25,0,0,-1.25,0,225)"
     id="g10"><g
       id="g12" /><g
       id="g14" /><g
       id="g16" /><g
       id="g18" /><g
       id="g20" /><g
       id="g22"><g
         clip-path="url(#clipPath26)"
         id="g24" /></g><g
       id="g30" /><g
       id="g32"><g
         clip-path="url(#clipPath36)"
         id="g34"><path
           id="path40"
           style="fill:none;stroke:#000000;stroke-width:0.70999998;stroke-linecap:round;stroke-linejoin:round;stroke-miterlimit:10;stroke-dasharray:none;stroke-opacity:1"
           d="m 74.07,161.67 c 0,9.58 7.84,17.43 17.42,17.43 9.59,0 17.43,-7.85 17.43,-17.43 0,-9.58 -7.84,-17.43 -17.43,-17.43 -9.58,0 -17.42,7.85 -17.42,17.43" /><path
           id="path42"
           style="fill:none;stroke:#000000;stroke-width:0.70999998;stroke-linecap:round;stroke-linejoin:round;stroke-miterlimit:10;stroke-dasharray:none;stroke-opacity:1"
           d="m 127.67,133.03 c 0,9.58 7.84,17.42 17.42,17.42 9.59,0 17.43,-7.84 17.43,-17.42 0,-9.59 -7.84,-17.43 -17.43,-17.43 -9.58,0 -17.42,7.84 -17.42,17.43" /><path
           id="path44"
           style="fill:none;stroke:#000000;stroke-width:0.70999998;stroke-linecap:round;stroke-linejoin:round;stroke-miterlimit:10;stroke-dasharray:none;stroke-opacity:1"
           d="m 127.67,75.74 c 0,9.59 7.84,17.43 17.42,17.43 9.59,0 17.43,-7.84 17.43,-17.43 0,-9.58 -7.84,-17.42 -17.43,-17.42 -9.58,0 -17.42,7.84 -17.42,17.42" /><path
           id="path46"
           style="fill:none;stroke:#000000;stroke-width:0.70999998;stroke-linecap:round;stroke-linejoin:round;stroke-miterlimit:10;stroke-dasharray:none;stroke-opacity:1"
           d="m 74.07,47.1 c 0,9.59 7.84,17.43 17.42,17.43 9.59,0 17.43,-7.84 17.43,-17.43 0,-9.58 -7.84,-17.42 -17.43,-17.42 -9.58,0 -17.42,7.84 -17.42,17.42" /><path
           id="path48"
           style="fill:none;stroke:#000000;stroke-width:0.70999998;stroke-linecap:round;stroke-linejoin:round;stroke-miterlimit:10;stroke-dasharray:none;stroke-opacity:1"
           d="m 20.47,75.74 c 0,9.59 7.84,17.43 17.42,17.43 9.59,0 17.43,-7.84 17.43,-17.43 0,-9.58 -7.84,-17.42 -17.43,-17.42 -9.58,0 -17.42,7.84 -17.42,17.42" /><path
           id="path50"
           style="fill:none;stroke:#000000;stroke-width:0.70999998;stroke-linecap:round;stroke-linejoin:round;stroke-miterlimit:10;stroke-dasharray:none;stroke-opacity:1"
           d="m 20.47,133.03 c 0,9.58 7.84,17.42 17.42,17.42 9.59,0 17.43,-7.84 17.43,-17.42 0,-9.59 -7.84,-17.43 -17.43,-17.43 -9.58,0 -17.42,7.84 -17.42,17.43" /><text
           id="text52"
           style="font-variant:normal;font-weight:normal;font-size:6px;font-family:Helvetica;-inkscape-font-specification:Helvetica;writing-mode:lr-tb;fill:#000000;fill-opacity:1;fill-rule:nonzero;stroke:none"
           transform="matrix(1,0,0,-1,80.52,159.52)"><tspan
             id="tspan54"
             y="0"
             x="0 2.8499999 6.1859999 8.2740002 9.6059999 12.606 15.942 17.274 18.606001">varicella</tspan></text>
<text
           id="text56"
           style="font-variant:normal;font-weight:normal;font-size:6px;font-family:Helvetica;-inkscape-font-specification:Helvetica;writing-mode:lr-tb;fill:#000000;fill-opacity:1;fill-rule:nonzero;stroke:none"
           transform="matrix(1,0,0,-1,133.93,130.87)"><tspan
             id="tspan58"
             y="0"
             x="0 4.9980001 8.3339996 11.67 14.67 16.002001 19.337999">measles</tspan></text>
<text
           id="text60"
           style="font-variant:normal;font-weight:normal;font-size:6px;font-family:Helvetica;-inkscape-font-specification:Helvetica;writing-mode:lr-tb;fill:#000000;fill-opacity:1;fill-rule:nonzero;stroke:none"
           transform="matrix(1,0,0,-1,135.29,73.59)"><tspan
             id="tspan62"
             y="0"
             x="0 4.9380002 8.2740002 13.272 16.608">mumps</tspan></text>
<text
           id="text64"
           style="font-variant:normal;font-weight:normal;font-size:6px;font-family:Helvetica;-inkscape-font-specification:Helvetica;writing-mode:lr-tb;fill:#000000;fill-opacity:1;fill-rule:nonzero;stroke:none"
           transform="matrix(1,0,0,-1,85.16,44.95)"><tspan
             id="tspan66"
             y="0"
             x="0 3.336 6.6719999 8.0039997 9.3360004">polio</tspan></text>
<text
           id="text68"
           style="font-variant:normal;font-weight:normal;font-size:6px;font-family:Helvetica;-inkscape-font-specification:Helvetica;writing-mode:lr-tb;fill:#000000;fill-opacity:1;fill-rule:nonzero;stroke:none"
           transform="matrix(1,0,0,-1,21.77,73.59)"><tspan
             id="tspan70"
             y="0"
             x="0 3 6 9.3360004 11.424 12.756 16.091999 17.76 19.427999 20.916 24.072001 26.922001 30.257999">scarlet fever</tspan></text>
<text
           id="text72"
           style="font-variant:normal;font-weight:normal;font-size:6px;font-family:Helvetica;-inkscape-font-specification:Helvetica;writing-mode:lr-tb;fill:#000000;fill-opacity:1;fill-rule:nonzero;stroke:none"
           transform="matrix(1,0,0,-1,25.77,130.87)"><tspan
             id="tspan74"
             y="0"
             x="0 3.336 6.6719999 8.9099998 10.578 13.914 16.914 19.914 21.246">pertussis</tspan></text>
<path
           id="path76"
           style="fill:none;stroke:#f8766d;stroke-width:1.07000005;stroke-linecap:butt;stroke-linejoin:round;stroke-miterlimit:10;stroke-dasharray:none;stroke-opacity:1"
           d="m 125.26,143.63 -13.93,7.44" /><path
           id="path78"
           style="fill:none;stroke:#f8766d;stroke-width:1.07000005;stroke-linecap:butt;stroke-linejoin:round;stroke-miterlimit:10;stroke-dasharray:none;stroke-opacity:1"
           d="m 115.58,151.21 -4.25,-0.14 2.24,-3.61" /><path
           id="path80"
           style="fill:none;stroke:#f8766d;stroke-width:1.07000005;stroke-linecap:butt;stroke-linejoin:round;stroke-miterlimit:10;stroke-dasharray:none;stroke-opacity:1"
           d="m 145.09,111.83 0,-14.89" /><path
           id="path82"
           style="fill:none;stroke:#f8766d;stroke-width:1.07000005;stroke-linecap:butt;stroke-linejoin:round;stroke-miterlimit:10;stroke-dasharray:none;stroke-opacity:1"
           d="m 142.97,100.62 2.12,-3.68 2.13,3.68" /><path
           id="path84"
           style="fill:none;stroke:#00bfc4;stroke-width:1.07000005;stroke-linecap:butt;stroke-linejoin:round;stroke-miterlimit:10;stroke-dasharray:none;stroke-opacity:1"
           d="m 122.19,131.31 -61.4,0" /><path
           id="path86"
           style="fill:none;stroke:#00bfc4;stroke-width:1.07000005;stroke-linecap:butt;stroke-linejoin:round;stroke-miterlimit:10;stroke-dasharray:none;stroke-opacity:1"
           d="m 64.48,133.44 -3.69,-2.13 3.69,-2.13" /><path
           id="path88"
           style="fill:none;stroke:#f8766d;stroke-width:1.07000005;stroke-linecap:butt;stroke-linejoin:round;stroke-miterlimit:10;stroke-dasharray:none;stroke-opacity:1"
           d="M 125.26,122.43 57.73,86.34" /><path
           id="path90"
           style="fill:none;stroke:#f8766d;stroke-width:1.07000005;stroke-linecap:butt;stroke-linejoin:round;stroke-miterlimit:10;stroke-dasharray:none;stroke-opacity:1"
           d="M 59.97,89.95 57.73,86.34 61.98,86.2" /><path
           id="path92"
           style="fill:none;stroke:#f8766d;stroke-width:1.07000005;stroke-linecap:butt;stroke-linejoin:round;stroke-miterlimit:10;stroke-dasharray:none;stroke-opacity:1"
           d="m 133.64,94.1 -30.7,49.21" /><path
           id="path94"
           style="fill:none;stroke:#f8766d;stroke-width:1.07000005;stroke-linecap:butt;stroke-linejoin:round;stroke-miterlimit:10;stroke-dasharray:none;stroke-opacity:1"
           d="m 106.7,141.32 -3.76,1.99 0.15,-4.25" /><path
           id="path96"
           style="fill:none;stroke:#00bfc4;stroke-width:1.07000005;stroke-linecap:butt;stroke-linejoin:round;stroke-miterlimit:10;stroke-dasharray:none;stroke-opacity:1"
           d="M 125.26,65.15 111.33,57.7" /><path
           id="path98"
           style="fill:none;stroke:#00bfc4;stroke-width:1.07000005;stroke-linecap:butt;stroke-linejoin:round;stroke-miterlimit:10;stroke-dasharray:none;stroke-opacity:1"
           d="m 113.57,61.31 -2.24,-3.61 4.25,-0.14" /><path
           id="path100"
           style="fill:none;stroke:#f8766d;stroke-width:1.07000005;stroke-linecap:butt;stroke-linejoin:round;stroke-miterlimit:10;stroke-dasharray:none;stroke-opacity:1"
           d="m 102.94,65.46 30.7,49.21" /><path
           id="path102"
           style="fill:none;stroke:#f8766d;stroke-width:1.07000005;stroke-linecap:butt;stroke-linejoin:round;stroke-miterlimit:10;stroke-dasharray:none;stroke-opacity:1"
           d="m 133.5,110.42 0.14,4.25 -3.75,-2" /><path
           id="path104"
           style="fill:none;stroke:#00bfc4;stroke-width:1.07000005;stroke-linecap:butt;stroke-linejoin:round;stroke-miterlimit:10;stroke-dasharray:none;stroke-opacity:1"
           d="m 91.49,140.47 0,-72.17" /><path
           id="path106"
           style="fill:none;stroke:#00bfc4;stroke-width:1.07000005;stroke-linecap:butt;stroke-linejoin:round;stroke-miterlimit:10;stroke-dasharray:none;stroke-opacity:1"
           d="m 89.37,71.98 2.12,-3.68 2.13,3.68" /><path
           id="path108"
           style="fill:none;stroke:#f8766d;stroke-width:1.07000005;stroke-linecap:butt;stroke-linejoin:round;stroke-miterlimit:10;stroke-dasharray:none;stroke-opacity:1"
           d="M 57.73,65.15 71.66,57.7" /><path
           id="path110"
           style="fill:none;stroke:#f8766d;stroke-width:1.07000005;stroke-linecap:butt;stroke-linejoin:round;stroke-miterlimit:10;stroke-dasharray:none;stroke-opacity:1"
           d="m 67.41,57.56 4.25,0.14 -2.24,3.61" /><path
           id="path112"
           style="fill:none;stroke:#00bfc4;stroke-width:1.07000005;stroke-linecap:butt;stroke-linejoin:round;stroke-miterlimit:10;stroke-dasharray:none;stroke-opacity:1"
           d="m 49.34,94.1 30.7,49.21" /><path
           id="path114"
           style="fill:none;stroke:#00bfc4;stroke-width:1.07000005;stroke-linecap:butt;stroke-linejoin:round;stroke-miterlimit:10;stroke-dasharray:none;stroke-opacity:1"
           d="m 79.9,139.06 0.14,4.25 -3.75,-1.99" /><path
           id="path116"
           style="fill:none;stroke:#00bfc4;stroke-width:1.07000005;stroke-linecap:butt;stroke-linejoin:round;stroke-miterlimit:10;stroke-dasharray:none;stroke-opacity:1"
           d="m 39.75,96.94 0,14.89" /><path
           id="path118"
           style="fill:none;stroke:#00bfc4;stroke-width:1.07000005;stroke-linecap:butt;stroke-linejoin:round;stroke-miterlimit:10;stroke-dasharray:none;stroke-opacity:1"
           d="m 41.88,108.15 -2.13,3.68 -2.12,-3.68" /><path
           id="path120"
           style="fill:none;stroke:#f8766d;stroke-width:1.07000005;stroke-linecap:butt;stroke-linejoin:round;stroke-miterlimit:10;stroke-dasharray:none;stroke-opacity:1"
           d="m 36.04,111.83 0,-14.89" /><path
           id="path122"
           style="fill:none;stroke:#f8766d;stroke-width:1.07000005;stroke-linecap:butt;stroke-linejoin:round;stroke-miterlimit:10;stroke-dasharray:none;stroke-opacity:1"
           d="m 33.91,100.62 2.13,-3.68 2.12,3.68" /><path
           id="path124"
           style="fill:none;stroke:#00bfc4;stroke-width:1.07000005;stroke-linecap:butt;stroke-linejoin:round;stroke-miterlimit:10;stroke-dasharray:none;stroke-opacity:1"
           d="m 60.79,134.75 61.4,0" /><path
           id="path126"
           style="fill:none;stroke:#00bfc4;stroke-width:1.07000005;stroke-linecap:butt;stroke-linejoin:round;stroke-miterlimit:10;stroke-dasharray:none;stroke-opacity:1"
           d="m 118.51,132.62 3.68,2.13 -3.68,2.12" /></g></g><g
       id="g128" /><g
       id="g130" /><g
       id="g132" /><g
       id="g134" /><g
       id="g136" /><g
       id="g138" /><g
       id="g140" /><g
       id="g142" /><g
       id="g144" /><g
       id="g146" /><g
       id="g148" /><g
       id="g150" /><g
       id="g152" /><g
       id="g154" /><g
       id="g156" /><g
       id="g158" /><g
       id="g160" /><g
       id="g162" /><g
       id="g164" /><g
       id="g166" /><g
       id="g168" /><g
       id="g170" /><g
       id="g172" /><g
       id="g174" /><g
       id="g176" /><g
       id="g178"><path
         id="path180"
         style="fill:#ffffff;fill-opacity:1;fill-rule:nonzero;stroke:none"
         d="m 25.28,0 132.43,0 0,25.78 -132.43,0 0,-25.78 z" /></g><g
       id="g182" /><g
       id="g184" /><g
       id="g186" /><g
       id="g188" /><g
       id="g190" /><g
       id="g192"><path
         id="path194"
         style="fill:none;stroke:#f8766d;stroke-width:1.07000005;stroke-linecap:butt;stroke-linejoin:round;stroke-miterlimit:10;stroke-dasharray:none;stroke-opacity:1"
         d="m 35.58,12.89 13.82,0" /><path
         id="path196"
         style="fill:none;stroke:#f8766d;stroke-width:1.07000005;stroke-linecap:butt;stroke-linejoin:round;stroke-miterlimit:10;stroke-dasharray:none;stroke-opacity:1"
         d="m 45.72,10.77 3.68,2.12 -3.68,2.13" /></g><g
       id="g198" /><g
       id="g200" /><g
       id="g202" /><g
       id="g204"><path
         id="path206"
         style="fill:none;stroke:#00bfc4;stroke-width:1.07000005;stroke-linecap:butt;stroke-linejoin:round;stroke-miterlimit:10;stroke-dasharray:none;stroke-opacity:1"
         d="m 93.86,12.89 13.82,0" /><path
         id="path208"
         style="fill:none;stroke:#00bfc4;stroke-width:1.07000005;stroke-linecap:butt;stroke-linejoin:round;stroke-miterlimit:10;stroke-dasharray:none;stroke-opacity:1"
         d="m 104,10.77 3.68,2.12 -3.68,2.13" /></g><g
       id="g210" /><g
       id="g212"><text
         id="text214"
         style="font-variant:normal;font-weight:normal;font-size:10px;font-family:Helvetica;-inkscape-font-specification:Helvetica;writing-mode:lr-tb;fill:#000000;fill-opacity:1;fill-rule:nonzero;stroke:none"
         transform="matrix(1,0,0,-1,53.29,9.3)"><tspan
           id="tspan216"
           y="0"
           x="0 7.2199998 12.78 15 20 25.559999 31.120001">Chicago</tspan></text>
</g><g
       id="g218" /><g
       id="g220"><text
         id="text222"
         style="font-variant:normal;font-weight:normal;font-size:10px;font-family:Helvetica;-inkscape-font-specification:Helvetica;writing-mode:lr-tb;fill:#000000;fill-opacity:1;fill-rule:nonzero;stroke:none"
         transform="matrix(1,0,0,-1,111.57,9.3)"><tspan
           id="tspan224"
           y="0"
           x="0 7.2199998 12.58 19.799999 22.58 27.85 33.41 36.889999">New York</tspan></text>
</g><g
       id="g226" /><g
       id="g228" /><g
       id="g230" /><g
       id="g232" /><g
       id="g234" /><g
       id="g236" /><g
       id="g238" /><g
       id="g240" /><g
       id="g242" /><g
       id="g244" /><g
       id="g246" /><g
       id="g248" /></g></svg>