<?xml version="1.0" encoding="UTF-8" standalone="no"?>
<svg
   xmlns:dc="http://purl.org/dc/elements/1.1/"
   xmlns:cc="http://creativecommons.org/ns#"
   xmlns:rdf="http://www.w3.org/1999/02/22-rdf-syntax-ns#"
   xmlns:svg="http://www.w3.org/2000/svg"
   xmlns="http://www.w3.org/2000/svg"
   viewBox="0 0 225 225"
   height="225"
   width="225"
   xml:space="preserve"
   version="1.1"
   id="svg2"><metadata
     id="metadata8"><rdf:RDF><cc:Work
         rdf:about=""><dc:format>image/svg+xml</dc:format><dc:type
           rdf:resource="http://purl.org/dc/dcmitype/StillImage" /></cc:Work></rdf:RDF></metadata><defs
     id="defs6"><clipPath
       id="clipPath26"
       clipPathUnits="userSpaceOnUse"><path
         id="path28"
         d="m 2.99,180 177.01,0 0,0 -177.01,0 z" /></clipPath><clipPath
       id="clipPath36"
       clipPathUnits="userSpaceOnUse"><path
         id="path38"
         d="M 2.99,28.77 180,28.77 180,180 2.99,180 2.99,28.77 Z" /></clipPath></defs><g
     transform="matrix(1.25,0,0,-1.25,0,225)"
     id="g10"><g
       id="g12" /><g
       id="g14" /><g
       id="g16" /><g
       id="g18" /><g
       id="g20" /><g
       id="g22"><g
         clip-path="url(#clipPath26)"
         id="g24" /></g><g
       id="g30" /><g
       id="g32"><g
         clip-path="url(#clipPath36)"
         id="g34"><path
           id="path40"
           style="fill:none;stroke:#000000;stroke-width:0.70999998;stroke-linecap:round;stroke-linejoin:round;stroke-miterlimit:10;stroke-dasharray:none;stroke-opacity:1"
           d="m 74.07,161.67 c 0,9.58 7.84,17.43 17.42,17.43 9.59,0 17.43,-7.85 17.43,-17.43 0,-9.58 -7.84,-17.43 -17.43,-17.43 -9.58,0 -17.42,7.85 -17.42,17.43" /><path
           id="path42"
           style="fill:none;stroke:#000000;stroke-width:0.70999998;stroke-linecap:round;stroke-linejoin:round;stroke-miterlimit:10;stroke-dasharray:none;stroke-opacity:1"
           d="m 127.67,133.03 c 0,9.58 7.84,17.42 17.42,17.42 9.59,0 17.43,-7.84 17.43,-17.42 0,-9.59 -7.84,-17.43 -17.43,-17.43 -9.58,0 -17.42,7.84 -17.42,17.43" /><path
           id="path44"
           style="fill:none;stroke:#000000;stroke-width:0.70999998;stroke-linecap:round;stroke-linejoin:round;stroke-miterlimit:10;stroke-dasharray:none;stroke-opacity:1"
           d="m 127.67,75.74 c 0,9.59 7.84,17.43 17.42,17.43 9.59,0 17.43,-7.84 17.43,-17.43 0,-9.58 -7.84,-17.42 -17.43,-17.42 -9.58,0 -17.42,7.84 -17.42,17.42" /><path
           id="path46"
           style="fill:none;stroke:#000000;stroke-width:0.70999998;stroke-linecap:round;stroke-linejoin:round;stroke-miterlimit:10;stroke-dasharray:none;stroke-opacity:1"
           d="m 74.07,47.1 c 0,9.59 7.84,17.43 17.42,17.43 9.59,0 17.43,-7.84 17.43,-17.43 0,-9.58 -7.84,-17.42 -17.43,-17.42 -9.58,0 -17.42,7.84 -17.42,17.42" /><path
           id="path48"
           style="fill:none;stroke:#000000;stroke-width:0.70999998;stroke-linecap:round;stroke-linejoin:round;stroke-miterlimit:10;stroke-dasharray:none;stroke-opacity:1"
           d="m 20.47,75.74 c 0,9.59 7.84,17.43 17.42,17.43 9.59,0 17.43,-7.84 17.43,-17.43 0,-9.58 -7.84,-17.42 -17.43,-17.42 -9.58,0 -17.42,7.84 -17.42,17.42" /><path
           id="path50"
           style="fill:none;stroke:#000000;stroke-width:0.70999998;stroke-linecap:round;stroke-linejoin:round;stroke-miterlimit:10;stroke-dasharray:none;stroke-opacity:1"
           d="m 20.47,133.03 c 0,9.58 7.84,17.42 17.42,17.42 9.59,0 17.43,-7.84 17.43,-17.42 0,-9.59 -7.84,-17.43 -17.43,-17.43 -9.58,0 -17.42,7.84 -17.42,17.43" /><text
           id="text52"
           style="font-variant:normal;font-weight:normal;font-size:6px;font-family:Helvetica;-inkscape-font-specification:Helvetica;writing-mode:lr-tb;fill:#000000;fill-opacity:1;fill-rule:nonzero;stroke:none"
           transform="matrix(1,0,0,-1,80.52,159.52)"><tspan
             id="tspan54"
             y="0"
             x="0 2.8499999 6.1859999 8.2740002 9.6059999 12.606 15.942 17.274 18.606001">varicella</tspan></text>
<text
           id="text56"
           style="font-variant:normal;font-weight:normal;font-size:6px;font-family:Helvetica;-inkscape-font-specification:Helvetica;writing-mode:lr-tb;fill:#000000;fill-opacity:1;fill-rule:nonzero;stroke:none"
           transform="matrix(1,0,0,-1,133.93,130.87)"><tspan
             id="tspan58"
             y="0"
             x="0 4.9980001 8.3339996 11.67 14.67 16.002001 19.337999">measles</tspan></text>
<text
           id="text60"
           style="font-variant:normal;font-weight:normal;font-size:6px;font-family:Helvetica;-inkscape-font-specification:Helvetica;writing-mode:lr-tb;fill:#000000;fill-opacity:1;fill-rule:nonzero;stroke:none"
           transform="matrix(1,0,0,-1,135.29,73.59)"><tspan
             id="tspan62"
             y="0"
             x="0 4.9380002 8.2740002 13.272 16.608">mumps</tspan></text>
<text
           id="text64"
           style="font-variant:normal;font-weight:normal;font-size:6px;font-family:Helvetica;-inkscape-font-specification:Helvetica;writing-mode:lr-tb;fill:#000000;fill-opacity:1;fill-rule:nonzero;stroke:none"
           transform="matrix(1,0,0,-1,85.16,44.95)"><tspan
             id="tspan66"
             y="0"
             x="0 3.336 6.6719999 8.0039997 9.3360004">polio</tspan></text>
<text
           id="text68"
           style="font-variant:normal;font-weight:normal;font-size:6px;font-family:Helvetica;-inkscape-font-specification:Helvetica;writing-mode:lr-tb;fill:#000000;fill-opacity:1;fill-rule:nonzero;stroke:none"
           transform="matrix(1,0,0,-1,21.77,73.59)"><tspan
             id="tspan70"
             y="0"
             x="0 3 6 9.3360004 11.424 12.756 16.091999 17.76 19.427999 20.916 24.072001 26.922001 30.257999">scarlet fever</tspan></text>
<text
           id="text72"
           style="font-variant:normal;font-weight:normal;font-size:6px;font-family:Helvetica;-inkscape-font-specification:Helvetica;writing-mode:lr-tb;fill:#000000;fill-opacity:1;fill-rule:nonzero;stroke:none"
           transform="matrix(1,0,0,-1,25.77,130.87)"><tspan
             id="tspan74"
             y="0"
             x="0 3.336 6.6719999 8.9099998 10.578 13.914 16.914 19.914 21.246">pertussis</tspan></text>
<path
           id="path76"
           style="fill:none;stroke:#00bfc4;stroke-width:1.07000005;stroke-linecap:butt;stroke-linejoin:round;stroke-miterlimit:10;stroke-dasharray:none;stroke-opacity:1"
           d="m 111.33,151.07 13.93,-7.44" /><path
           id="path78"
           style="fill:none;stroke:#00bfc4;stroke-width:1.07000005;stroke-linecap:butt;stroke-linejoin:round;stroke-miterlimit:10;stroke-dasharray:none;stroke-opacity:1"
           d="m 121.01,143.49 4.25,0.14 -2.24,3.61" /><path
           id="path80"
           style="fill:none;stroke:#00bfc4;stroke-width:1.07000005;stroke-linecap:butt;stroke-linejoin:round;stroke-miterlimit:10;stroke-dasharray:none;stroke-opacity:1"
           d="m 111.33,57.7 13.93,7.45" /><path
           id="path82"
           style="fill:none;stroke:#00bfc4;stroke-width:1.07000005;stroke-linecap:butt;stroke-linejoin:round;stroke-miterlimit:10;stroke-dasharray:none;stroke-opacity:1"
           d="m 123.02,61.54 2.24,3.61 -4.25,0.14" /><path
           id="path84"
           style="fill:none;stroke:#00bfc4;stroke-width:1.07000005;stroke-linecap:butt;stroke-linejoin:round;stroke-miterlimit:10;stroke-dasharray:none;stroke-opacity:1"
           d="m 91.49,68.3 0,72.17" /><path
           id="path86"
           style="fill:none;stroke:#00bfc4;stroke-width:1.07000005;stroke-linecap:butt;stroke-linejoin:round;stroke-miterlimit:10;stroke-dasharray:none;stroke-opacity:1"
           d="m 93.62,136.79 -2.13,3.68 -2.12,-3.68" /><path
           id="path88"
           style="fill:none;stroke:#00bfc4;stroke-width:1.07000005;stroke-linecap:butt;stroke-linejoin:round;stroke-miterlimit:10;stroke-dasharray:none;stroke-opacity:1"
           d="M 57.73,65.15 71.66,57.7" /><path
           id="path90"
           style="fill:none;stroke:#00bfc4;stroke-width:1.07000005;stroke-linecap:butt;stroke-linejoin:round;stroke-miterlimit:10;stroke-dasharray:none;stroke-opacity:1"
           d="m 67.41,57.56 4.25,0.14 -2.24,3.61" /><path
           id="path92"
           style="fill:none;stroke:#00bfc4;stroke-width:1.07000005;stroke-linecap:butt;stroke-linejoin:round;stroke-miterlimit:10;stroke-dasharray:none;stroke-opacity:1"
           d="m 60.79,75.74 61.4,0" /><path
           id="path94"
           style="fill:none;stroke:#00bfc4;stroke-width:1.07000005;stroke-linecap:butt;stroke-linejoin:round;stroke-miterlimit:10;stroke-dasharray:none;stroke-opacity:1"
           d="m 118.51,73.62 3.68,2.12 -3.68,2.13" /><path
           id="path96"
           style="fill:none;stroke:#f8766d;stroke-width:1.07000005;stroke-linecap:butt;stroke-linejoin:round;stroke-miterlimit:10;stroke-dasharray:none;stroke-opacity:1"
           d="m 37.89,111.83 0,-14.89" /><path
           id="path98"
           style="fill:none;stroke:#f8766d;stroke-width:1.07000005;stroke-linecap:butt;stroke-linejoin:round;stroke-miterlimit:10;stroke-dasharray:none;stroke-opacity:1"
           d="m 35.77,100.62 2.12,-3.68 2.13,3.68" /><path
           id="path100"
           style="fill:none;stroke:#00bfc4;stroke-width:1.07000005;stroke-linecap:butt;stroke-linejoin:round;stroke-miterlimit:10;stroke-dasharray:none;stroke-opacity:1"
           d="m 60.79,133.03 61.4,0" /><path
           id="path102"
           style="fill:none;stroke:#00bfc4;stroke-width:1.07000005;stroke-linecap:butt;stroke-linejoin:round;stroke-miterlimit:10;stroke-dasharray:none;stroke-opacity:1"
           d="m 118.51,130.9 3.68,2.13 -3.68,2.12" /><path
           id="path104"
           style="fill:none;stroke:#f8766d;stroke-width:1.07000005;stroke-linecap:butt;stroke-linejoin:round;stroke-miterlimit:10;stroke-dasharray:none;stroke-opacity:1"
           d="m 57.73,143.63 13.93,7.44" /><path
           id="path106"
           style="fill:none;stroke:#f8766d;stroke-width:1.07000005;stroke-linecap:butt;stroke-linejoin:round;stroke-miterlimit:10;stroke-dasharray:none;stroke-opacity:1"
           d="m 69.42,147.46 2.24,3.61 -4.25,0.14" /><path
           id="path108"
           style="fill:none;stroke:#00bfc4;stroke-width:1.07000005;stroke-linecap:butt;stroke-linejoin:round;stroke-miterlimit:10;stroke-dasharray:none;stroke-opacity:1"
           d="m 111.33,151.07 13.93,-7.44" /><path
           id="path110"
           style="fill:none;stroke:#00bfc4;stroke-width:1.07000005;stroke-linecap:butt;stroke-linejoin:round;stroke-miterlimit:10;stroke-dasharray:none;stroke-opacity:1"
           d="m 121.01,143.49 4.25,0.14 -2.24,3.61" /></g></g><g
       id="g112" /><g
       id="g114" /><g
       id="g116" /><g
       id="g118" /><g
       id="g120" /><g
       id="g122" /><g
       id="g124" /><g
       id="g126" /><g
       id="g128" /><g
       id="g130" /><g
       id="g132" /><g
       id="g134" /><g
       id="g136" /><g
       id="g138" /><g
       id="g140" /><g
       id="g142" /><g
       id="g144" /><g
       id="g146" /><g
       id="g148" /><g
       id="g150" /><g
       id="g152" /><g
       id="g154" /><g
       id="g156" /><g
       id="g158" /><g
       id="g160" /><g
       id="g162"><path
         id="path164"
         style="fill:#ffffff;fill-opacity:1;fill-rule:nonzero;stroke:none"
         d="m 25.28,0 132.43,0 0,25.78 -132.43,0 0,-25.78 z" /></g><g
       id="g166" /><g
       id="g168" /><g
       id="g170" /><g
       id="g172" /><g
       id="g174" /><g
       id="g176"><path
         id="path178"
         style="fill:none;stroke:#f8766d;stroke-width:1.07000005;stroke-linecap:butt;stroke-linejoin:round;stroke-miterlimit:10;stroke-dasharray:none;stroke-opacity:1"
         d="m 35.58,12.89 13.82,0" /><path
         id="path180"
         style="fill:none;stroke:#f8766d;stroke-width:1.07000005;stroke-linecap:butt;stroke-linejoin:round;stroke-miterlimit:10;stroke-dasharray:none;stroke-opacity:1"
         d="m 45.72,10.77 3.68,2.12 -3.68,2.13" /></g><g
       id="g182" /><g
       id="g184" /><g
       id="g186" /><g
       id="g188"><path
         id="path190"
         style="fill:none;stroke:#00bfc4;stroke-width:1.07000005;stroke-linecap:butt;stroke-linejoin:round;stroke-miterlimit:10;stroke-dasharray:none;stroke-opacity:1"
         d="m 93.86,12.89 13.82,0" /><path
         id="path192"
         style="fill:none;stroke:#00bfc4;stroke-width:1.07000005;stroke-linecap:butt;stroke-linejoin:round;stroke-miterlimit:10;stroke-dasharray:none;stroke-opacity:1"
         d="m 104,10.77 3.68,2.12 -3.68,2.13" /></g><g
       id="g194" /><g
       id="g196"><text
         id="text198"
         style="font-variant:normal;font-weight:normal;font-size:10px;font-family:Helvetica;-inkscape-font-specification:Helvetica;writing-mode:lr-tb;fill:#000000;fill-opacity:1;fill-rule:nonzero;stroke:none"
         transform="matrix(1,0,0,-1,53.29,9.3)"><tspan
           id="tspan200"
           y="0"
           x="0 7.2199998 12.78 15 20 25.559999 31.120001">Chicago</tspan></text>
</g><g
       id="g202" /><g
       id="g204"><text
         id="text206"
         style="font-variant:normal;font-weight:normal;font-size:10px;font-family:Helvetica;-inkscape-font-specification:Helvetica;writing-mode:lr-tb;fill:#000000;fill-opacity:1;fill-rule:nonzero;stroke:none"
         transform="matrix(1,0,0,-1,111.57,9.3)"><tspan
           id="tspan208"
           y="0"
           x="0 7.2199998 12.58 19.799999 22.58 27.85 33.41 36.889999">New York</tspan></text>
</g><g
       id="g210" /><g
       id="g212" /><g
       id="g214" /><g
       id="g216" /><g
       id="g218" /><g
       id="g220" /><g
       id="g222" /><g
       id="g224" /><g
       id="g226" /><g
       id="g228" /><g
       id="g230" /><g
       id="g232" /></g></svg>