<?xml version="1.0" encoding="UTF-8" standalone="no"?>
<svg
   xmlns:dc="http://purl.org/dc/elements/1.1/"
   xmlns:cc="http://creativecommons.org/ns#"
   xmlns:rdf="http://www.w3.org/1999/02/22-rdf-syntax-ns#"
   xmlns:svg="http://www.w3.org/2000/svg"
   xmlns="http://www.w3.org/2000/svg"
   viewBox="0 0 630 270"
   height="270"
   width="630"
   xml:space="preserve"
   version="1.1"
   id="svg2"><metadata
     id="metadata8"><rdf:RDF><cc:Work
         rdf:about=""><dc:format>image/svg+xml</dc:format><dc:type
           rdf:resource="http://purl.org/dc/dcmitype/StillImage" /></cc:Work></rdf:RDF></metadata><defs
     id="defs6"><clipPath
       id="clipPath22"
       clipPathUnits="userSpaceOnUse"><path
         id="path24"
         d="M 0,0 504,0 504,216 0,216 0,0 Z" /></clipPath><clipPath
       id="clipPath38"
       clipPathUnits="userSpaceOnUse"><path
         id="path40"
         d="m 55.12,37.28 374.25,0 0,164.32 -374.25,0 0,-164.32 z" /></clipPath></defs><g
     transform="matrix(1.25,0,0,-1.25,0,270)"
     id="g10"><g
       id="g12" /><g
       id="g14" /><g
       id="g16" /><g
       id="g18"><g
         clip-path="url(#clipPath22)"
         id="g20"><path
           id="path26"
           style="fill:#ffffff;fill-opacity:1;fill-rule:nonzero;stroke:#ffffff;stroke-width:1.05999994;stroke-linecap:round;stroke-linejoin:round;stroke-miterlimit:10;stroke-dasharray:none;stroke-opacity:1"
           d="M 0,0 504,0 504,216 0,216 0,0 Z" /></g></g><g
       id="g28" /><g
       id="g30" /><g
       id="g32" /><g
       id="g34"><g
         clip-path="url(#clipPath38)"
         id="g36"><path
           id="path42"
           style="fill:#ffffff;fill-opacity:1;fill-rule:nonzero;stroke:none"
           d="m 55.12,37.28 374.25,0 0,164.32 -374.25,0 0,-164.32 z" /><path
           id="path44"
           style="fill:none;stroke:#f8766d;stroke-width:0.85000002;stroke-linecap:butt;stroke-linejoin:round;stroke-miterlimit:1;stroke-dasharray:none;stroke-opacity:1"
           d="m 72.13,61.01 0.29,8.85 0.28,5.3 0.29,-0.41 0.28,-6.8 0.28,-10.41 0.29,-6.24 0.28,-3.05 0.28,-0.9 0.29,-0.4 0.28,1.23 0.29,2.98 0.28,6.5 0.28,11.52 0.29,13.18 0.28,5.65 0.28,-12.63 0.29,-12.91 0.28,-8.8 0.29,-3.56 0.28,-1.49 0.28,-0.09 0.29,1.26 0.28,4.53 0.28,9.99 0.29,18.55 0.28,24.68 0.29,8.4 0.28,-11.18 0.28,-26.42 0.29,-15.83 0.28,-8.15 0.28,-3.5 0.29,-0.27 0.28,1.79 0.29,4.78 0.28,10.34 0.28,18.32 0.29,11.51 0.28,-4.83 0.28,-12.63 0.29,-16.54 0.28,-9.26 0.29,-4.93 0.28,-1.17 0.28,-0.69 0.29,1.29 0.28,3.02 0.28,5.1 0.29,9.25 0.28,10.63 0.29,1.35 0.28,-9.39 0.28,-9.41 0.29,-7.17 0.28,-3.73 0.28,-1.15 0.29,-0.04 0.28,1.12 0.29,2.95 0.28,7.79 0.28,13.7 0.29,21.09 0.28,5.53 0.28,-15.13 0.29,-17.26 0.28,-9.5 0.29,-5.44 0.28,-2.36 0.28,-0.4 0.29,1.68 0.28,3.98 0.28,8.46 0.29,22.86 0.28,18 0.29,5.59 0.28,-14.19 0.28,-20.11 0.29,-14.72 0.28,-7.62 0.28,-2.35 0.29,-0.45 0.28,1.31 0.29,5.5 0.28,12.59 0.28,20.31 0.29,14.32 0.28,-4.46 0.28,-18.8 0.29,-17.34 0.28,-9.55 0.29,-4.34 0.28,-1.63 0.28,-0.69 0.29,0.81 0.28,1.86 0.28,5.21 0.29,7.8 0.28,7.15 0.29,0.74 0.28,-6.03 0.28,-8.54 0.29,-5.81 0.28,-2.98 0.28,-1.08 0.29,0.02 0.28,1.12 0.29,2.77 0.28,7.63 0.28,14.16 0.29,13.55 0.28,6.64 0.28,-5.12 0.29,-15.41 0.28,-13.51 0.29,-5.94 0.28,-2.44 0.28,-0.27 0.29,3.1 0.28,6.22 0.28,14.46 0.29,31.15 0.28,14.97 0.29,8.23 0.28,-25.9 0.28,-26.07 0.29,-15.66 0.28,-8.73 0.28,-2.7 0.29,-0.55 0.28,0.3 0.29,3.7 0.28,5.47 0.28,10.75 0.29,8.65 0.28,0.6 0.28,-10.4 0.29,-11.22 0.28,-5.36 0.29,-3.13 0.28,-1.07 0.28,0.12 0.29,1.16 0.28,2.8 0.28,6.14 0.29,10.65 0.28,13.17 0.29,4.23 0.28,-7.4 0.28,-12.43 0.29,-9.38 0.28,-5.09 0.28,-1.82 0.29,0.06 0.28,2.61 0.29,7.11 0.28,11.96 0.28,21.35 0.29,29.17 0.28,5.13 0.28,-23.32 0.29,-25.78 0.28,-16.58 0.29,-7.1 0.28,-2.76 0.28,0.2 0.29,1.62 0.28,5.17 0.28,9.68 0.29,15.05 0.28,11.35 0.29,-3.63 0.28,-12.25 0.28,-15.57 0.29,-9.96 0.28,-3.55 0.28,-1.69 0.29,-0.04 0.28,0.42 0.29,1.72 0.28,4.65 0.28,7.03 0.29,6.37 0.28,1.66 0.29,-5.1 0.28,-7.51 0.28,-4.66 0.29,-2.84 0.28,-1.12 0.28,0.1 0.29,1.24 0.28,4.41 0.29,10.75 0.28,15.54 0.28,18.09 0.29,14.13 0.28,-13.85 0.28,-23.21 0.29,-14.91 0.28,-6.53 0.29,-2.66 0.28,-0.08 0.28,3.22 0.29,7.76 0.28,15.26 0.28,25.14 0.29,16.77 0.28,-1.26 0.29,-21.08 0.28,-22.45 0.28,-16.1 0.29,-6.96 0.28,-2.14 0.28,-0.93 0.29,0.97 0.28,1.91 0.29,4.93 0.28,10.9 0.28,6.92 0.29,-0.17 0.28,-6.92 0.28,-10.06 0.29,-6.02 0.28,-2.55 0.29,-1.07 0.28,-0.06 0.28,1.31 0.29,2.51 0.28,5.78 0.28,11.02 0.29,11.94 0.28,2.39 0.29,-8.87 0.28,-10.8 0.28,-8.17 0.29,-4.04 0.28,-1.7 0.28,0.11 0.29,1.87 0.28,5.68 0.29,11.35 0.28,22.87 0.28,25.96 0.29,4.38 0.28,-16.97 0.28,-25.48 0.29,-15.89 0.28,-8.03 0.29,-3.88 0.28,0.11 0.28,2.06 0.29,3.76 0.28,9.39 0.28,13.28 0.29,24.08 0.28,5.29 0.29,-17.73 0.28,-19.97 0.28,-14.04 0.29,-5.91 0.28,-2.19 0.28,-0.26 0.29,1.06 0.28,3.36 0.29,6.75 0.28,7.74 0.28,9.94 0.29,-1.21 0.28,-8.37 0.28,-10.52 0.29,-5.5 0.28,-3.28 0.29,-1.13 0.28,0.01 0.28,0.94 0.29,2.52 0.28,5.85 0.28,9.77 0.29,10.06 0.28,2.24 0.29,-5.32 0.28,-10.04 0.28,-7.58 0.29,-4.54 0.28,-1.24 0.28,-0.14 0.29,2.63 0.28,5.62 0.29,13.98 0.28,28.29 0.28,38.67 0.29,-4.33 0.28,-20.53 0.28,-32.6 0.29,-18.95 0.28,-8.52 0.29,-2.77 0.28,-0.74 0.28,2.21 0.29,4.95 0.28,10.54 0.28,13.72 0.29,14.86 0.28,-3.64 0.29,-14.13 0.28,-16.37 0.28,-8.12 0.29,-4.89 0.28,-1.34 0.28,-0.37 0.29,0.72 0.28,2.64 0.29,4.17 0.28,11.54 0.28,11.42 0.29,0.46 0.28,-9.51 0.28,-10.28 0.29,-6.95 0.28,-3.6 0.29,-0.89 0.28,0.05 0.28,1.24 0.29,3.7 0.28,8.87 0.28,14.14 0.29,19.37 0.28,1.68 0.29,-13.28 0.28,-15.57 0.28,-9.8 0.29,-5.17 0.28,-2.83 0.28,0.05 0.29,2.23 0.28,6.31 0.29,15.13 0.28,26.98 0.28,22.35 0.29,-1.32 0.28,-16.93 0.28,-25.79 0.29,-18.15 0.28,-8.25 0.29,-3.06 0.28,-0.19 0.28,0.71 0.29,2.88 0.28,6.96 0.28,10.6 0.29,9.25 0.28,-2.36 0.29,-10.2 0.28,-10.47 0.28,-5.46 0.29,-3.05 0.28,-1.24 0.28,-0.11 0.29,0.85 0.28,1.85 0.29,4.8 0.28,8.04 0.28,9.13 0.29,3.27 0.28,-7.23 0.29,-7.41 0.28,-6.7 0.28,-3.49 0.29,-0.86 0.28,-0.28 0.28,1.42 0.29,5 0.28,8.77 0.29,21.23 0.28,30.42 0.28,20.22 0.29,-26.95 0.28,-25.6 0.28,-16.41 0.29,-10.9 0.28,-3.29 0.29,-0.62 0.28,1.3 0.28,5.63 0.29,12.32 0.28,23.94 0.28,24.72 0.29,0.93 0.28,-24.65 0.29,-26.24 0.28,-13.34 0.28,-6.16 0.29,-2.42 0.28,-0.53 0.28,0.88 0.29,1.98 0.28,4.57 0.29,6.95 0.28,5.4 0.28,0.76 0.29,-6.21 0.28,-6.43 0.28,-5.12 0.29,-2.57 0.28,-0.98 0.29,-0.08 0.28,0.93 0.28,2.18 0.29,4.87 0.28,9.87 0.28,11.76 0.29,1.46 0.28,-6.42 0.29,-10.11 0.28,-7.04 0.28,-3.45 0.29,-1.78 0.28,0.18 0.28,2.44 0.29,6.57 0.28,13.87 0.29,21.77 0.28,28.85 0.28,-1.24 0.29,-22.17 0.28,-27 0.28,-13.36 0.29,-5.65 0.28,-3.53 0.29,-0.51 0.28,1.3 0.28,4.76 0.29,7.72 0.28,12.48 0.28,13.74 0.29,4.24 0.28,-12.73 0.29,-14.81 0.28,-10.24 0.28,-4.58 0.29,-1.74 0.28,-0.37 0.28,1.49 0.29,3.43 0.28,8.46 0.29,15.52 0.28,16.46 0.28,2.8 0.29,-13.73 0.28,-16.77 0.28,-10.31 0.29,-5.04 0.28,-1.9 0.29,-0.1 0.28,1.95 0.28,4.56 0.29,10.24 0.28,16.79 0.28,13.77 0.29,-1.32 0.28,-14.6 0.29,-17.26 0.28,-9.96 0.28,-4.09 0.29,-1.84 0.28,-0.3 0.28,0.9 0.29,3.22 0.28,6.91 0.29,7.8 0.28,12.65 0.28,3.61 0.29,-4.7 0.28,-13.15 0.28,-8.19 0.29,-5.02 0.28,-2.13 0.29,-0.25 0.28,1.3 0.28,3.9 0.29,9.81 0.28,20.33 0.28,23.25 0.29,6.15 0.28,-20.03 0.29,-22.16 0.28,-13.17 0.28,-5.72 0.29,-2.33 0.28,0.24 0.28,2.62 0.29,5.88 0.28,13.51 0.29,23.68 0.28,20.64 0.28,2.01 0.29,-24.69 0.28,-24.82 0.28,-12.89 0.29,-5.93 0.28,-2.37 0.29,-0.42 0.28,0.65 0.28,1.88 0.29,4.66 0.28,5.63 0.28,5.61 0.29,-0.57 0.28,-5.74 0.29,-5.7 0.28,-4.32 0.28,-2.25 0.29,-1 0.28,0.05 0.28,0.84 0.29,2.03 0.28,4.92 0.29,9.21 0.28,10.49 0.28,4.27 0.29,-6.39 0.28,-10.04 0.28,-7.21 0.29,-3.66 0.28,-1.79 0.29,0.05 0.28,2.16 0.28,6.79 0.29,16.68 0.28,31.08 0.28,33.01 0.29,8.24 0.28,-22.24 0.29,-34.63 0.28,-21.77 0.28,-11.15 0.29,-4.8 0.28,-1.16 0.28,1.5 0.29,5.34 0.28,11.9 0.29,17.09 0.28,13.55 0.28,-7.14 0.29,-14.54 0.28,-16.5 0.28,-9.26 0.29,-4.34 0.28,-1.48 0.29,-0.71 0.28,0.52 0.28,1.34 0.29,3.17 0.28,4.49 0.29,3.1 0.28,1.3 0.28,-3.82 0.29,-5.17 0.28,-3.19 0.28,-1.58 0.29,-0.82 0.28,-0.24 0.29,0.65 0.28,1.91 0.28,5.07 0.29,8.65 0.28,10.47 0.28,6.4 0.29,-3.84 0.28,-10.53 0.29,-7.04 0.28,-5.16 0.28,-1.73 0.29,0.69 0.28,4.11 0.28,10.34 0.29,23.53 0.28,41.41 0.29,41.08 0.28,12.05 0.28,-44.52 0.29,-44.4 0.28,-29.48 0.28,-12.35 0.29,-4.16 0.28,-1.04 0.29,-0.26 0.28,1.03 0.28,2.31 0.29,2.63 0.28,2.14 0.28,-0.96 0.29,-3.41 0.28,-3.11 0.29,-2 0.28,-1.03 0.28,-0.22 0.29,-0.06 0.28,0.26 0.28,0.78 0.29,1.3 0.28,3.27 0.29,4.95 0.28,2.34 0.28,-1.76 0.29,-3.85 0.28,-3.36 0.28,-1.62 0.29,-0.79 0.28,0.37 0.29,1.95 0.28,4.72 0.28,9.46 0.29,19.89 0.28,27.29 0.28,17.69 0.29,-13.79 0.28,-31.42 0.29,-19.17 0.28,-9.2 0.28,-2.49 0.29,0.02 0.28,2.66 0.28,6.77 0.29,11.06 0.28,24.6 0.29,26.68 0.28,-4.1 0.28,-26.98 0.29,-22.05 0.28,-13.14 0.28,-5.91 0.29,-2.43 0.28,-0.4 0.29,1.61 0.28,3.95 0.28,7.41 0.29,17.38 0.28,16.05 0.28,0.94 0.29,-12.81 0.28,-15.85 0.29,-11.52 0.28,-5.25 0.28,-1.9 0.29,-0.04 0.28,0.92 0.28,3.17 0.29,9.89 0.28,15.49 0.29,13.71 0.28,0.74 0.28,-12.39 0.29,-15.64 0.28,-9.06 0.28,-4.81 0.29,-2.33 0.28,-0.4 0.29,1.26 0.28,3.31 0.28,7.9 0.29,13.26 0.28,15.41 0.28,-2.27 0.29,-10.37 0.28,-13.41 0.29,-9.49 0.28,-3.52 0.28,-1.63 0.29,-0.42 0.28,0.83 0.28,2.79 0.29,8.05 0.28,13.79 0.29,16 0.28,2.66 0.28,-10.31 0.29,-13.01 0.28,-11.18 0.28,-5.09 0.29,-2.41 0.28,-0.92 0.29,2.17 0.28,3.95 0.28,11.27 0.29,21.6 0.28,22.84 0.28,4.01 0.29,-22.02 0.28,-21.4 0.29,-13.54 0.28,-5.9 0.28,-2.09 0.29,-0.62 0.28,0.99 0.28,3.48 0.29,6.78 0.28,13.75 0.29,10.05 0.28,1.24 0.28,-11.26 0.29,-14.16 0.28,-7.05 0.28,-4.17 0.29,-1.71 0.28,-0.01 0.29,0.98 0.28,2.86 0.28,5.34 0.29,9.16 0.28,9.9 0.28,0.15 0.29,-5.6 0.28,-8.57 0.29,-7.52 0.28,-3.33 0.28,-1.01 0.29,0.36 0.28,2.39 0.28,7.54 0.29,17.16 0.28,32.2 0.29,37.93 0.28,-0.46 0.28,-30.76 0.29,-34.65 0.28,-19.36 0.28,-8.25 0.29,-3.63 0.28,-0.78 0.29,0.55 0.28,2.66 0.28,4.68 0.29,6.74 0.28,5.96 0.28,-1.33 0.29,-6.69 0.28,-8.28 0.29,-4.19 0.28,-2.24 0.28,-0.96 0.29,0.05 0.28,0.66 0.29,2.11 0.28,4.55 0.28,7.62 0.29,7.07 0.28,1.33 0.28,-5.29 0.29,-7.26 0.28,-5.62 0.29,-2.63 0.28,-0.99 0.28,0.56 0.29,1.7 0.28,5.44 0.28,13.98 0.29,25.26 0.28,30.45 0.29,17.51 0.28,-27.93 0.28,-31.37 0.29,-19.87 0.28,-8.51 0.28,-3.72 0.29,-0.87 0.28,1.29 0.29,4.69 0.28,9.16 0.28,13.02 0.29,13.39 0.28,-0.57 0.28,-16.17 0.29,-12.88 0.28,-9.25 0.29,-4.3 0.28,-1.54 0.28,-0.32 0.29,0.48 0.28,2.31 0.28,5.47 0.29,8.19 0.28,7.86 0.29,1.82 0.28,-4.64 0.28,-9.02 0.29,-6.5 0.28,-3.69 0.28,-1.15 0.29,-0.15 0.28,2.07 0.29,4.34 0.28,9.66 0.28,15.79 0.29,17.5 0.28,6.32 0.28,-14 0.29,-19.67 0.28,-10.92 0.29,-6.89 0.28,-2.23 0.28,-0.61 0.29,1.72 0.28,5.15 0.28,11.63 0.29,20.03 0.28,15.58 0.29,1.37 0.28,-11.05 0.28,-22.97 0.29,-14.48 0.28,-5.95 0.28,-1.92 0.29,-0.31 0.28,1.09 0.29,3.34 0.28,7.54 0.28,12.88 0.29,15.49 0.28,3.66 0.28,-11.21 0.29,-14.45 0.28,-10.28 0.29,-5.4 0.28,-1.55 0.28,-0.65 0.29,2.13 0.28,4.95 0.28,10.36 0.29,16.66 0.28,18.7 0.29,7.62 0.28,-16.65 0.28,-21.14 0.29,-13.22 0.28,-6.36 0.28,-2.39 0.29,-0.54 0.28,1.25 0.29,3.77 0.28,8.77 0.28,11.3 0.29,9.78 0.28,1.43 0.28,-9.09 0.29,-13.39 0.28,-8.68 0.29,-4.31 0.28,-1.35 0.28,-0.4 0.29,1.7 0.28,4.61 0.28,8.89 0.29,16.01 0.28,20.14 0.29,3.91 0.28,-14.86 0.28,-20.07 0.29,-12.58 0.28,-4.83 0.28,-2.05 0.29,0.19 0.28,1.38 0.29,3.91 0.28,9.73 0.28,17.35 0.29,17.99 0.28,3.11 0.28,-15.64 0.29,-18.09 0.28,-11.85 0.29,-5.4 0.28,-2.16 0.28,-0.06 0.29,1.65 0.28,5.15 0.28,10.76 0.29,18.62 0.28,13.45 0.29,-1.14 0.28,-13.34 0.28,-18.99 0.29,-8.95 0.28,-4.96 0.28,-2.13 0.29,-0.46 0.28,0.94 0.29,2.92 0.28,7.75 0.28,12.4 0.29,15.02 0.28,-5.11 0.28,-9.62 0.29,-12.31 0.28,-7.91 0.29,-3.92 0.28,-1.49 0.28,-0.27 0.29,0.71 0.28,2.44 0.28,4.54 0.29,8.87 0.28,12.63 0.29,4.12 0.28,-9.25 0.28,-9.23 0.29,-7.12 0.28,-3.67 0.28,-1.99 0.29,0.27 0.28,1.51 0.29,6.14 0.28,12.62 0.28,29.46 0.29,25.6 0.28,2.9 0.28,-23.61 0.29,-26.21 0.28,-16.77 0.29,-7.61 0.28,-2.95 0.28,-0.31 0.29,1.88 0.28,4.8 0.28,12.19 0.29,19.7 0.28,16.58 0.29,-2.07 0.28,-14.91 0.28,-21.8 0.29,-10.81 0.28,-5.74 0.29,-2.39 0.28,-0.33 0.28,0.86 0.29,2.52 0.28,4.57 0.28,8.15 0.29,10.95 0.28,1.97 0.29,-10.25 0.28,-8.31 0.28,-6.32 0.29,-3.01 0.28,-1.34 0.28,0.14 0.29,1.18 0.28,2.53 0.29,7.24 0.28,11.11 0.28,14.28 0.29,6.62 0.28,-10.03 0.28,-13.49 0.29,-8.92 0.28,-4.8 0.29,-2.34 0.28,0.25 0.28,2.73 0.29,7.38 0.28,20.56 0.28,33.9 0.29,37.56 0.28,-9.27 0.29,-33.71 0.28,-34.22 0.28,-16.75 0.29,-6.76 0.28,-2.86 0.28,-0.81 0.29,1.31 0.28,2.41 0.29,5.27 0.28,6.86 0.28,6.81 0.29,0.72 0.28,-8.12 0.28,-8.68 0.29,-5.84 0.28,-1.93 0.29,-1.02 0.28,-0.24 0.28,0.59 0.29,1.69 0.28,3.97 0.28,4.96 0.29,6.8 0.28,3.31 0.29,-3.97 0.28,-7.68 0.28,-4.77 0.29,-3 0.28,-0.8 0.28,0.62 0.29,2.11 0.28,5.24 0.29,12.24 0.28,28.29 0.28,23.8 0.29,8.12 0.28,-21.47 0.28,-26.56 0.29,-16.63 0.28,-7.87 0.29,-3.84 0.28,-0.09 0.28,1.92 0.29,4.94 0.28,12.35 0.28,18.52 0.29,18.06 0.28,-0.61 0.29,-15.14 0.28,-23.44 0.28,-11.99 0.29,-5.46 0.28,-2.28 0.28,-0.19 0.29,1.35 0.28,2.22 0.29,6.68 0.28,12.6 0.28,10.41 0.29,-0.11 0.28,-10.59 0.28,-10.25 0.29,-7.27 0.28,-4.04 0.29,-1.26 0.28,0.07 0.28,0.98 0.29,3.46 0.28,7.25 0.28,13.77 0.29,13.5 0.28,14.03 0.29,-13.81 0.28,-17.96 0.28,-11.37 0.29,-6.1 0.28,-1.65 0.28,-0.28 0.29,1.58 0.28,4.22 0.29,9.68 0.28,16.43 0.28,17.94 0.29,2.53 0.28,-15.15 0.28,-17.78 0.29,-13.25 0.28,-5.19 0.29,-1.63 0.28,-0.19 0.28,1.56 0.29,5.65 0.28,10.61 0.28,17 0.29,16.97 0.28,-2.82 0.29,-13.56 0.28,-18.02 0.28,-10.92 0.29,-4.66 0.28,-1.44 0.28,-0.53 0.29,1.31 0.28,3.61 0.29,6.87 0.28,13.16 0.28,11.01 0.29,4.71 0.28,-11.88 0.28,-14.25 0.29,-9.04 0.28,-4.79 0.29,-1.7 0.28,0 0.28,1.31 0.29,3.58 0.28,8.43 0.28,13.91 0.29,14.24 0.28,5.49 0.29,-12.41 0.28,-15.35 0.28,-11.27 0.29,-4.75 0.28,-2.04 0.28,-0.11 0.29,1.64 0.28,4.64 0.29,10.67 0.28,21.37 0.28,21.01 0.29,0.77 0.28,-17.97 0.28,-20.78 0.29,-11.38 0.28,-6.36 0.29,-3.05 0.28,-0.73 0.28,1.73 0.29,4.08 0.28,8.85 0.28,16.98 0.29,13.88 0.28,2.44 0.29,-15.28 0.28,-15.3 0.28,-10.67 0.29,-4.54 0.28,-1.94 0.28,-0.18 0.29,1.09 0.28,3.2 0.29,6.26 0.28,8.83 0.28,9.79 0.29,-0.27 0.28,-10.41 0.29,-7.22 0.28,-6.19 0.28,-4.49 0.29,-1.32 0.28,-0.19 0.28,1.55 0.29,3.04 0.28,7.64 0.29,15.81 0.28,8.51 0.28,9.46 0.29,-10.91 0.28,-13.88 0.28,-10.93 0.29,-5.7 0.28,-2.17 0.29,0.11 0.28,2.85 0.28,6.42 0.29,14.21 0.28,23.98 0.28,27.42 0.29,-4.99 0.28,-17.29 0.29,-27.25 0.28,-15.84 0.28,-7.68 0.29,-2.49 0.28,-0.54 0.28,0.95 0.29,3.91 0.28,7.25 0.29,12.05 0.28,11.57 0.28,0.75 0.29,-11.36 0.28,-11.86 0.28,-9.26 0.29,-3.84 0.28,-1.57 0.29,-0.36 0.28,1.34 0.28,2.62 0.29,4.95 0.28,10.65 0.28,10.26 0.29,4.35 0.28,-7.15 0.29,-12.43 0.28,-7.51 0.28,-4.08 0.29,-1.4 0.28,-0.47 0.28,1.17 0.29,4.46 0.28,10.12 0.29,15.87 0.28,15.35 0.28,5.82 0.29,-8.91 0.28,-22.01 0.28,-12.56 0.29,-5.89 0.28,-2.13 0.29,-0.46 0.28,2 0.28,4.88 0.29,12.24 0.28,17.82 0.28,11.14 0.29,6 0.28,-14.01 0.29,-18.09 0.28,-13.48 0.28,-6.05 0.29,-2.04 0.28,0.17 0.28,1.75 0.29,4.42" /><path
           id="path46"
           style="fill:none;stroke:#00bfc4;stroke-width:0.85000002;stroke-linecap:butt;stroke-linejoin:round;stroke-miterlimit:1;stroke-dasharray:1.7, 1.7;stroke-dashoffset:0;stroke-opacity:1"
           d="m 72.13,71.67 0.29,20.61 0.28,14.89 0.29,-1.45 0.28,-21.44 0.28,-17.46 0.29,-10.66 0.28,-5.87 0.28,-2.3 0.29,-0.51 0.28,0.9 0.29,2.54 0.28,6.43 0.28,11.35 0.29,11.69 0.28,3.94 0.28,-8.84 0.29,-11.41 0.28,-8.1 0.29,-5.01 0.28,-1.76 0.28,0.76 0.29,2.58 0.28,7.29 0.28,18.47 0.29,29.9 0.28,35.8 0.29,4.6 0.28,-24.1 0.28,-31.8 0.29,-23.89 0.28,-11.46 0.28,-3.99 0.29,-0.08 0.28,1.65 0.29,6.09 0.28,12.48 0.28,18.46 0.29,16.25 0.28,-2.34 0.28,-15.12 0.29,-22.67 0.28,-11.89 0.29,-5.23 0.28,-2.06 0.28,-0.51 0.29,1.05 0.28,3.29 0.28,8.39 0.29,15.03 0.28,15.6 0.29,5.7 0.28,-12.38 0.28,-15.09 0.29,-11.97 0.28,-5.97 0.28,-1.74 0.29,0.02 0.28,1.92 0.29,5.96 0.28,14.23 0.28,25.85 0.29,23.96 0.28,2.56 0.28,-24.1 0.29,-24.81 0.28,-16.05 0.29,-7.18 0.28,-2.81 0.28,0 0.29,1.24 0.28,5.24 0.28,9.83 0.29,17.8 0.28,10.46 0.29,6.17 0.28,-13.36 0.28,-17.14 0.29,-12.25 0.28,-6.02 0.28,-2.13 0.29,0 0.28,2.2 0.29,6.43 0.28,13.81 0.28,23.6 0.29,24.65 0.28,10.8 0.28,-22.07 0.29,-27.27 0.28,-18.74 0.29,-8.97 0.28,-3.51 0.28,-0.26 0.29,2.01 0.28,5.92 0.28,11.29 0.29,19.58 0.28,19.54 0.29,11.18 0.28,-20.02 0.28,-23.04 0.29,-17.34 0.28,-7.39 0.28,-2.58 0.29,-0.32 0.28,1.36 0.29,4.89 0.28,9.81 0.28,17.13 0.29,12.79 0.28,4.23 0.28,-13.63 0.29,-16.85 0.28,-11.33 0.29,-5.12 0.28,-2.4 0.28,-1.03 0.29,1.03 0.28,5.13 0.28,10.42 0.29,23.89 0.28,24.66 0.29,3.45 0.28,-14.03 0.28,-24.46 0.29,-16.9 0.28,-7.39 0.28,-2.63 0.29,-1.23 0.28,2.49 0.29,7.24 0.28,11.46 0.28,20.62 0.29,22.04 0.28,1.01 0.28,-17.26 0.29,-22.6 0.28,-15.06 0.29,-6.88 0.28,-2.71 0.28,-0.86 0.29,1.58 0.28,5.12 0.28,10.13 0.29,20.72 0.28,17.67 0.29,0.51 0.28,-17.63 0.28,-19.72 0.29,-10.93 0.28,-6.42 0.28,-1.7 0.29,-0.46 0.28,1.84 0.29,4.97 0.28,11.4 0.28,20.58 0.29,22.35 0.28,11.98 0.28,-17.55 0.29,-26.09 0.28,-16.74 0.29,-6.71 0.28,-3.71 0.28,-0.11 0.29,2.24 0.28,6.6 0.28,14.72 0.29,25.67 0.28,26.15 0.29,-2 0.28,-24.97 0.28,-23.46 0.29,-15.81 0.28,-7.14 0.28,-2.92 0.29,-0.6 0.28,1.06 0.29,3.46 0.28,9.77 0.28,15.99 0.29,14.88 0.28,1.83 0.29,-15.45 0.28,-14.65 0.28,-10.75 0.29,-5.4 0.28,-1.27 0.28,-0.37 0.29,1.99 0.28,4.68 0.29,9.98 0.28,19.04 0.28,23.58 0.29,3.08 0.28,-15.46 0.28,-21.91 0.29,-14.11 0.28,-6.31 0.29,-3.05 0.28,-0.08 0.28,2.24 0.29,7.11 0.28,15.72 0.28,26.02 0.29,29.18 0.28,-1.13 0.29,-19.07 0.28,-26.95 0.28,-18.55 0.29,-9.68 0.28,-3.75 0.28,-1.24 0.29,2.38 0.28,4.75 0.29,11.17 0.28,18.08 0.28,9.89 0.29,-0.76 0.28,-10.91 0.28,-15.25 0.29,-12.74 0.28,-5.2 0.29,-2.34 0.28,-0.29 0.28,2.18 0.29,5.92 0.28,8.81 0.28,18.18 0.29,22.68 0.28,6.74 0.29,-18.79 0.28,-22.31 0.28,-14.2 0.29,-6.43 0.28,-2 0.28,-0.38 0.29,1.9 0.28,4.65 0.29,10.71 0.28,22.49 0.28,22.59 0.29,3.88 0.28,-15.32 0.28,-24.22 0.29,-15.58 0.28,-7.33 0.29,-2.81 0.28,-0.06 0.28,2.16 0.29,5.47 0.28,12.45 0.28,25.91 0.29,30.46 0.28,4.23 0.29,-21.41 0.28,-26.72 0.28,-19.34 0.29,-9.51 0.28,-3.44 0.28,-0.37 0.29,1.89 0.28,6.44 0.29,10.24 0.28,16.95 0.28,13.82 0.29,2.53 0.28,-16.05 0.28,-15.63 0.29,-12.1 0.28,-7 0.29,-2.47 0.28,0.17 0.28,0.91 0.29,4.53 0.28,8.83 0.28,14.06 0.29,14.33 0.28,1.01 0.29,-11.68 0.28,-15.09 0.28,-9.7 0.29,-5.09 0.28,-1.67 0.28,0.29 0.29,1.69 0.28,7.27 0.29,15.75 0.28,29.89 0.28,33.74 0.29,-4.9 0.28,-28.92 0.28,-23.77 0.29,-17.29 0.28,-8.66 0.29,-3 0.28,-0.98 0.28,2.14 0.29,5.03 0.28,13.31 0.28,15.09 0.29,23.52 0.28,3.99 0.29,-19.36 0.28,-22.09 0.28,-14 0.29,-6.02 0.28,-2.79 0.28,-0.55 0.29,1.85 0.28,4.55 0.29,9.66 0.28,21.48 0.28,19.76 0.29,1.7 0.28,-15.25 0.28,-22.58 0.29,-10.87 0.28,-6.45 0.29,-2.67 0.28,-0.23 0.28,2.69 0.29,5.66 0.28,11.11 0.28,19.52 0.29,21.6 0.28,5.82 0.29,-18.25 0.28,-24.74 0.28,-14.3 0.29,-5.8 0.28,-2.83 0.28,-0.16 0.29,1.86 0.28,5.41 0.29,11.33 0.28,19.59 0.28,15.89 0.29,3.53 0.28,-15.57 0.28,-21.29 0.29,-10.95 0.28,-6 0.29,-3.05 0.28,-0.06 0.28,1.19 0.29,5.67 0.28,11.85 0.28,18.23 0.29,23.05 0.28,3.52 0.29,-17.51 0.28,-20.65 0.28,-15.34 0.29,-7.16 0.28,-3.28 0.28,-0.63 0.29,2.41 0.28,5.42 0.29,10.9 0.28,17.63 0.28,19.52 0.29,2.36 0.28,-14 0.29,-21.55 0.28,-13.93 0.28,-5.63 0.29,-2.5 0.28,-0.07 0.28,1.87 0.29,5.08 0.28,11.32 0.29,19.67 0.28,20.56 0.28,5.6 0.29,-14.87 0.28,-18 0.28,-17.81 0.29,-8.95 0.28,-2.88 0.29,-0.2 0.28,2.21 0.28,7.42 0.29,15.92 0.28,25.19 0.28,25.78 0.29,-3.32 0.28,-22.57 0.29,-30.17 0.28,-14.27 0.28,-6.62 0.29,-2.64 0.28,-0.84 0.28,1.21 0.29,3.16 0.28,7.53 0.29,13.26 0.28,15.27 0.28,-0.04 0.29,-11.36 0.28,-14.2 0.28,-8.46 0.29,-4.1 0.28,-1.42 0.29,0.1 0.28,1.99 0.28,6.64 0.29,14.76 0.28,21.87 0.28,37.41 0.29,13.22 0.28,-23.66 0.29,-32.9 0.28,-18.95 0.28,-11.4 0.29,-4.79 0.28,-0.7 0.28,2.45 0.29,5.98 0.28,12.24 0.29,23.24 0.28,18.36 0.28,4.75 0.29,-21.93 0.28,-23.91 0.28,-14.67 0.29,-7.52 0.28,-2.13 0.29,-0.71 0.28,1.22 0.28,3.12 0.29,6.13 0.28,14.48 0.28,11.76 0.29,-0.16 0.28,-8.15 0.29,-13.45 0.28,-9.11 0.28,-4.72 0.29,-1.26 0.28,0.11 0.28,1.71 0.29,5.34 0.28,10.44 0.29,21.85 0.28,23.1 0.28,10.93 0.29,-24.43 0.28,-21.73 0.28,-14.89 0.29,-7.41 0.28,-2.27 0.29,0.62 0.28,3.44 0.28,7.3 0.29,18.19 0.28,37.85 0.28,37.9 0.29,4.32 0.28,-31.25 0.29,-37.85 0.28,-24.42 0.28,-12.14 0.29,-4.16 0.28,-1.55 0.28,0.84 0.29,3.53 0.28,6.45 0.29,9.42 0.28,8.69 0.28,-0.34 0.29,-7.4 0.28,-10.68 0.28,-6.93 0.29,-3.78 0.28,-1.64 0.29,-0.32 0.28,1.52 0.28,3.41 0.29,5.96 0.28,12.32 0.28,14.2 0.29,7.9 0.28,-11.41 0.29,-13.07 0.28,-10.57 0.28,-5.4 0.29,-1.46 0.28,0.76 0.28,4.2 0.29,9 0.28,22.36 0.29,39.04 0.28,44.95 0.28,6.37 0.29,-34.61 0.28,-45.89 0.28,-27.06 0.29,-12.85 0.28,-5.08 0.29,-1.11 0.28,1.44 0.28,4.15 0.29,9.53 0.28,12.04 0.28,12.43 0.29,1.4 0.28,-12.81 0.29,-14.21 0.28,-10.25 0.28,-5.29 0.29,-1.72 0.28,-0.3 0.28,0.87 0.29,3.54 0.28,6.4 0.29,11.31 0.28,14.3 0.28,6.88 0.29,-10.14 0.28,-12.03 0.28,-10.75 0.29,-6.22 0.28,-1.72 0.29,-0.06 0.28,2.86 0.28,5.26 0.29,13.15 0.28,23.21 0.28,24.65 0.29,7.56 0.28,-19.71 0.29,-22.15 0.28,-17.64 0.28,-9.5 0.29,-3.25 0.28,-0.48 0.28,3.67 0.29,11.25 0.28,17.91 0.29,34.31 0.28,27.96 0.28,-5.43 0.29,-31.3 0.28,-31.2 0.28,-19.45 0.29,-8.24 0.28,-3.5 0.29,-1.08 0.28,0.33 0.28,2.23 0.29,5.18 0.28,9.23 0.29,5.73 0.28,-0.29 0.28,-8.18 0.29,-7.62 0.28,-4.86 0.28,-2.61 0.29,-0.96 0.28,-0.1 0.29,0.66 0.28,2.72 0.28,6.28 0.29,11.89 0.28,12.74 0.28,4.87 0.29,-5.72 0.28,-13.66 0.29,-9.25 0.28,-4.79 0.28,-2.14 0.29,0.63 0.28,3.05 0.28,8.8 0.29,20.15 0.28,45.41 0.29,58.09 0.28,7.91 0.28,-34.86 0.29,-53.54 0.28,-33.11 0.28,-14.68 0.29,-5.21 0.28,-1.88 0.29,0.53 0.28,3.63 0.28,6.01 0.29,11.48 0.28,10.33 0.28,-2.86 0.29,-9.31 0.28,-12.06 0.29,-7.3 0.28,-2.91 0.28,-1.15 0.29,0.3 0.28,1.04 0.28,3.04 0.29,6.71 0.28,11.98 0.29,10.27 0.28,8.98 0.28,-6.51 0.29,-13.68 0.28,-10.94 0.28,-5.11 0.29,-2.77 0.28,0.34 0.29,3.22 0.28,10.27 0.28,24.07 0.29,43.58 0.28,54.24 0.28,-6.08 0.29,-35.32 0.28,-49.89 0.29,-26.73 0.28,-13.75 0.28,-4.04 0.29,-0.58 0.28,0 0.28,1.73 0.29,5.59 0.28,9.85 0.29,6.31 0.28,-1.12 0.28,-8.24 0.29,-8.55 0.28,-5.89 0.28,-1.96 0.29,-0.78 0.28,-0.18 0.29,0.78 0.28,2.76 0.28,6.94 0.29,11.44 0.28,13.61 0.28,6.31 0.29,-5.82 0.28,-15.19 0.29,-9.85 0.28,-5.36 0.28,-2.23 0.29,0.29 0.28,4.78 0.28,8.89 0.29,19.48 0.28,41.52 0.29,42.45 0.28,1.99 0.28,-29.61 0.29,-47.01 0.28,-25.98 0.28,-11.08 0.29,-3.41 0.28,-1.9 0.29,1.3 0.28,3.43 0.28,7.88 0.29,12.47 0.28,9.51 0.28,4.44 0.29,-12.99 0.28,-14.12 0.29,-8.19 0.28,-4.76 0.28,-1.48 0.29,-0.02 0.28,1.13 0.28,3.22 0.29,7.52 0.28,12.65 0.29,16.54 0.28,11.98 0.28,-11.96 0.29,-19.36 0.28,-11.34 0.28,-5.66 0.29,-2.1 0.28,0.31 0.29,2.26 0.28,8.28 0.28,19.73 0.29,31.59 0.28,28.9 0.28,3.08 0.29,-32.1 0.28,-28.45 0.29,-20.54 0.28,-8.46 0.28,-3.87 0.29,-1 0.28,1.05 0.28,4.16 0.29,10.79 0.28,16.75 0.29,15.14 0.28,7.86 0.28,-12.38 0.29,-23.52 0.28,-13.19 0.28,-5.9 0.29,-2.37 0.28,-0.4 0.29,1.05 0.28,3.28 0.28,7.8 0.29,17.82 0.28,16 0.28,8.82 0.29,-14.71 0.28,-12.92 0.29,-15.77 0.28,-7.26 0.28,-2.16 0.29,-0.15 0.28,2.53 0.28,6.23 0.29,17.97 0.28,26.31 0.29,33.15 0.28,-2.13 0.28,-24.6 0.29,-28.73 0.28,-19.61 0.28,-7.09 0.29,-3.8 0.28,-0.32 0.29,1.46 0.28,5.41 0.28,11.55 0.29,17.16 0.28,17.35 0.28,3.3 0.29,-14.08 0.28,-19.18 0.29,-13.46 0.28,-7.06 0.28,-2.2 0.29,-0.33 0.28,2.04 0.29,5.25 0.28,12.48 0.28,21.27 0.29,11.52 0.28,3.22 0.28,-17.78 0.29,-17.52 0.28,-11.53 0.29,-6.1 0.28,-2.53 0.28,0.25 0.29,1.94 0.28,5.38 0.28,13.51 0.29,22.04 0.28,24.26 0.29,0.55 0.28,-15.76 0.28,-24.34 0.29,-17.22 0.28,-7.42 0.28,-2.53 0.29,0.14 0.28,1.94 0.29,5.84 0.28,16.01 0.28,25.84 0.29,25.23 0.28,1.95 0.28,-19.76 0.29,-29.3 0.28,-16.83 0.29,-7.7 0.28,-3.64 0.28,-0.69 0.29,1.27 0.28,4.27 0.28,9.52 0.29,13.51 0.28,13.12 0.29,-1.99 0.28,-9.26 0.28,-15.14 0.29,-9.72 0.28,-4.56 0.28,-1.62 0.29,-0.64 0.28,1.77 0.29,3.81 0.28,11.73 0.28,20.17 0.29,16.22 0.28,4.84 0.28,-11.65 0.29,-20.68 0.28,-13.85 0.29,-6.33 0.28,-2.94 0.28,-0.12 0.29,2.66 0.28,7.77 0.28,16.55 0.29,30.04 0.28,31.46 0.29,1.04 0.28,-23.13 0.28,-34.74 0.29,-18.74 0.28,-10.41 0.28,-4.37 0.29,-0.39 0.28,0.97 0.29,3.5 0.28,7.41 0.28,11.19 0.29,9.65 0.28,0.9 0.28,-9.84 0.29,-10.75 0.28,-7.76 0.29,-4.32 0.28,-1.47 0.28,0.51 0.29,1.56 0.28,4.79 0.28,12.05 0.29,18.47 0.28,25.37 0.29,7.77 0.28,-18.24 0.28,-21.38 0.29,-15.7 0.28,-8.63 0.28,-3.88 0.29,-0.07 0.28,2.13 0.29,7.46 0.28,14.83 0.28,24.87 0.29,19.95 0.28,-5.13 0.28,-18.06 0.29,-24.51 0.28,-13.64 0.29,-6.28 0.28,-2.99 0.28,0.22 0.29,1.46 0.28,4.29 0.28,9.74 0.29,20.08 0.28,21.41 0.29,2.24 0.28,-14.77 0.28,-21.58 0.29,-15.32 0.28,-6.15 0.28,-2.23 0.29,-0.07 0.28,1.63 0.29,4.4 0.28,10.27 0.28,19.55 0.29,19.06 0.28,5.14 0.28,-18.11 0.29,-18.41 0.28,-13.82 0.29,-5.98 0.28,-3.02 0.28,-0.42 0.29,2.29 0.28,4.61 0.28,12.43 0.29,22.78 0.28,21.02 0.29,6.74 0.28,-20.42 0.28,-26.2 0.29,-13.22 0.28,-5.77 0.28,-2.01 0.29,-0.12 0.28,3.98 0.29,8.57 0.28,15.08 0.28,35.98 0.29,20.52 0.28,3.38 0.28,-31.06 0.29,-31.61 0.28,-16.18 0.29,-7.59 0.28,-3.29 0.28,-1.21 0.29,1 0.28,2.66 0.28,6.57 0.29,11.49 0.28,9.85 0.29,1.41 0.28,-12.21 0.28,-9.16 0.29,-7.36 0.28,-3.81 0.28,-1.09 0.29,-0.24 0.28,1.1 0.29,4.93 0.28,8.18 0.28,15.37 0.29,13.48 0.28,5.63 0.28,-8.16 0.29,-16.28 0.28,-10.89 0.29,-6.22 0.28,-2.35 0.28,0.64 0.29,3.37 0.28,8.88 0.28,24.73 0.29,39.61 0.28,45.97 0.29,5.68 0.28,-45.65 0.28,-43.13 0.29,-24.07 0.28,-11.33 0.29,-4.06 0.28,-1.49 0.28,1.49 0.29,2.76 0.28,8.23 0.28,9.25 0.29,10.36 0.28,-1.26 0.29,-11.27 0.28,-11.27 0.28,-7.28 0.29,-3.79 0.28,-1.45 0.28,-0.12 0.29,1.11 0.28,2.77 0.29,7.47 0.28,10.76 0.28,10.45 0.29,6.59 0.28,-10.87 0.28,-8.72 0.29,-10.45 0.28,-4.69 0.29,-1.69 0.28,0.15 0.28,2.15 0.29,6.31 0.28,17.1 0.28,32.15 0.29,30.62 0.28,15.63 0.29,-27.34 0.28,-35.42 0.28,-24.87 0.29,-10.53 0.28,-3.64 0.28,-1.03 0.29,1.09 0.28,3.86 0.29,9.5 0.28,13.37 0.28,15.72 0.29,2.76 0.28,-17.46 0.28,-13.42 0.29,-10.43 0.28,-5.02 0.29,-1.89 0.28,-0.6 0.28,1.89 0.29,4.19 0.28,10.25 0.28,17.14 0.29,16.05 0.28,6.69 0.29,-11.86 0.28,-18.06 0.28,-13.48 0.29,-7.14 0.28,-2.73 0.28,-0.04 0.29,2.24 0.28,7.33 0.29,15.35 0.28,26.44 0.28,22.89 0.29,3.06 0.28,-30.92 0.28,-20.94 0.29,-15.19 0.28,-7.55 0.29,-3.09 0.28,-0.41 0.28,2.2 0.29,5.12 0.28,13.71 0.28,18.89 0.29,17.61 0.28,0.63 0.29,-15.99 0.28,-23.06 0.28,-10.11 0.29,-6.83 0.28,-2.37 0.28,-0.14 0.29,1.71 0.28,5.07 0.29,9.41 0.28,13.06 0.28,22.38 0.29,8.53 0.28,-14.93 0.28,-22.73 0.29,-12.7 0.28,-6.92 0.29,-2.68 0.28,-0.58 0.28,2.57 0.29,7.83 0.28,17.1 0.28,30.33 0.29,27.08 0.28,6.59 0.29,-34.54 0.28,-29.26 0.28,-18.07 0.29,-6.77 0.28,-3.12 0.28,-0.84 0.29,0.88 0.28,3.12 0.29,8.04 0.28,14.12 0.28,13.59 0.29,3.45 0.28,-7.73 0.28,-15.41 0.29,-11.74 0.28,-5.43 0.29,-1.77 0.28,0.36 0.28,2.34 0.29,6.63 0.28,13.86 0.28,21.72 0.29,20.7 0.28,8.22 0.29,-22.91 0.28,-27.63 0.28,-14.83 0.29,-7.05 0.28,-2.71 0.28,0.14 0.29,1.37 0.28,4.53 0.29,10.63 0.28,12.87 0.28,16.9 0.29,9.83 0.28,-10.38 0.28,-21.64 0.29,-12.23 0.28,-7.74 0.29,-2.71 0.28,-0.5 0.28,1.85 0.29,7.01 0.28,16.29 0.28,26.6 0.29,23.82 0.28,4.69 0.29,-26.76 0.28,-26.8 0.28,-14.84 0.29,-8.06 0.28,-2.95 0.28,-0.68 0.29,1.45 0.28,5.23 0.29,10.73 0.28,15.86 0.28,21.61 0.29,0.81 0.28,-11.73 0.28,-21.04 0.29,-12.21 0.28,-7.7 0.29,-2.62 0.28,-0.28 0.28,1.88 0.29,5.88 0.28,12.56 0.28,26.21 0.29,29.78 0.28,1.94 0.29,-22.5 0.28,-27.35 0.28,-17.17 0.29,-8.87 0.28,-2.15 0.28,-0.14 0.29,2.2 0.28,4.79 0.29,10.2 0.28,19.09 0.28,23.73 0.29,5.17 0.28,-20.3 0.29,-22.9 0.28,-13.86 0.28,-5.7 0.29,-1.5 0.28,-0.28 0.28,1.43 0.29,7.04 0.28,9.86 0.29,20.57 0.28,20.46 0.28,-0.4 0.29,-13.79 0.28,-20.73 0.28,-16.19 0.29,-6.46 0.28,-2.49 0.29,-0.52 0.28,2.15 0.28,5.27 0.29,12.16 0.28,27.12 0.28,25.64 0.29,-0.43 0.28,-18.77 0.29,-21.74 0.28,-18.24 0.28,-8.77 0.29,-3.18 0.28,-0.78 0.28,1.74 0.29,3.99 0.28,9.8 0.29,16.61 0.28,12.98 0.28,3.99 0.29,-13.59 0.28,-17.15 0.28,-11.03 0.29,-4.67 0.28,-2.21 0.29,-0.21 0.28,2.54 0.28,5.33 0.29,14.2 0.28,27.08 0.28,26.32 0.29,8.09 0.28,-29.14 0.29,-27.53 0.28,-16.57 0.28,-7.94 0.29,-2.99 0.28,-0.78 0.28,1.9 0.29,4.31 0.28,8.5 0.29,17.37 0.28,14.68 0.28,0.7 0.29,-12.03 0.28,-16.14 0.28,-11.89 0.29,-4.91 0.28,-2.21 0.29,-0.22 0.28,2.18 0.28,4 0.29,9.27 0.28,15.01 0.28,17.45 0.29,10.52 0.28,-14.97 0.29,-14.44 0.28,-16.13 0.28,-7.66 0.29,-2.6 0.28,0.26 0.28,1.79 0.29,7.2" /></g></g><g
       id="g48" /><g
       id="g50"><path
         id="path52"
         style="fill:none;stroke:#000000;stroke-width:1.05999994;stroke-linecap:butt;stroke-linejoin:round;stroke-miterlimit:10;stroke-dasharray:none;stroke-opacity:1"
         d="m 55.12,37.28 0,164.32" /></g><g
       id="g54"><text
         id="text56"
         style="font-variant:normal;font-weight:normal;font-size:10px;font-family:Helvetica;-inkscape-font-specification:Helvetica;writing-mode:lr-tb;fill:#000000;fill-opacity:1;fill-rule:nonzero;stroke:none"
         transform="matrix(1,0,0,-1,23.02,40.4)"><tspan
           id="tspan58"
           y="0"
           x="0 5.5599999 8.3400002 13.9 19.459999">0.000</tspan></text>
<text
         id="text60"
         style="font-variant:normal;font-weight:normal;font-size:10px;font-family:Helvetica;-inkscape-font-specification:Helvetica;writing-mode:lr-tb;fill:#000000;fill-opacity:1;fill-rule:nonzero;stroke:none"
         transform="matrix(1,0,0,-1,23.02,92.96)"><tspan
           id="tspan62"
           y="0"
           x="0 5.5599999 8.3400002 13.9 19.459999">0.002</tspan></text>
<text
         id="text64"
         style="font-variant:normal;font-weight:normal;font-size:10px;font-family:Helvetica;-inkscape-font-specification:Helvetica;writing-mode:lr-tb;fill:#000000;fill-opacity:1;fill-rule:nonzero;stroke:none"
         transform="matrix(1,0,0,-1,23.02,145.53)"><tspan
           id="tspan66"
           y="0"
           x="0 5.5599999 8.3400002 13.9 19.459999">0.004</tspan></text>
</g><g
       id="g68" /><g
       id="g70"><path
         id="path72"
         style="fill:none;stroke:#000000;stroke-width:1.05999994;stroke-linecap:butt;stroke-linejoin:round;stroke-miterlimit:10;stroke-dasharray:none;stroke-opacity:1"
         d="m 50.87,43.99 4.25,0" /><path
         id="path74"
         style="fill:none;stroke:#000000;stroke-width:1.05999994;stroke-linecap:butt;stroke-linejoin:round;stroke-miterlimit:10;stroke-dasharray:none;stroke-opacity:1"
         d="m 50.87,96.55 4.25,0" /><path
         id="path76"
         style="fill:none;stroke:#000000;stroke-width:1.05999994;stroke-linecap:butt;stroke-linejoin:round;stroke-miterlimit:10;stroke-dasharray:none;stroke-opacity:1"
         d="m 50.87,149.12 4.25,0" /></g><g
       id="g78" /><g
       id="g80" /><g
       id="g82" /><g
       id="g84" /><g
       id="g86"><path
         id="path88"
         style="fill:none;stroke:#000000;stroke-width:1.05999994;stroke-linecap:butt;stroke-linejoin:round;stroke-miterlimit:10;stroke-dasharray:none;stroke-opacity:1"
         d="m 55.12,37.28 374.25,0" /></g><g
       id="g90"><path
         id="path92"
         style="fill:none;stroke:#000000;stroke-width:1.05999994;stroke-linecap:butt;stroke-linejoin:round;stroke-miterlimit:10;stroke-dasharray:none;stroke-opacity:1"
         d="m 71.85,33.03 0,4.25" /><path
         id="path94"
         style="fill:none;stroke:#000000;stroke-width:1.05999994;stroke-linecap:butt;stroke-linejoin:round;stroke-miterlimit:10;stroke-dasharray:none;stroke-opacity:1"
         d="m 156.98,33.03 0,4.25" /><path
         id="path96"
         style="fill:none;stroke:#000000;stroke-width:1.05999994;stroke-linecap:butt;stroke-linejoin:round;stroke-miterlimit:10;stroke-dasharray:none;stroke-opacity:1"
         d="m 242.1,33.03 0,4.25" /><path
         id="path98"
         style="fill:none;stroke:#000000;stroke-width:1.05999994;stroke-linecap:butt;stroke-linejoin:round;stroke-miterlimit:10;stroke-dasharray:none;stroke-opacity:1"
         d="m 327.23,33.03 0,4.25" /><path
         id="path100"
         style="fill:none;stroke:#000000;stroke-width:1.05999994;stroke-linecap:butt;stroke-linejoin:round;stroke-miterlimit:10;stroke-dasharray:none;stroke-opacity:1"
         d="m 412.36,33.03 0,4.25" /></g><g
       id="g102" /><g
       id="g104"><text
         id="text106"
         style="font-variant:normal;font-weight:normal;font-size:10px;font-family:Helvetica;-inkscape-font-specification:Helvetica;writing-mode:lr-tb;fill:#000000;fill-opacity:1;fill-rule:nonzero;stroke:none"
         transform="matrix(1,0,0,-1,69.07,23.02)"><tspan
           id="tspan108"
           y="0"
           x="0">0</tspan></text>
<text
         id="text110"
         style="font-variant:normal;font-weight:normal;font-size:10px;font-family:Helvetica;-inkscape-font-specification:Helvetica;writing-mode:lr-tb;fill:#000000;fill-opacity:1;fill-rule:nonzero;stroke:none"
         transform="matrix(1,0,0,-1,151.42,23.02)"><tspan
           id="tspan112"
           y="0"
           x="0 5.5599999">25</tspan></text>
<text
         id="text114"
         style="font-variant:normal;font-weight:normal;font-size:10px;font-family:Helvetica;-inkscape-font-specification:Helvetica;writing-mode:lr-tb;fill:#000000;fill-opacity:1;fill-rule:nonzero;stroke:none"
         transform="matrix(1,0,0,-1,236.54,23.02)"><tspan
           id="tspan116"
           y="0"
           x="0 5.5599999">50</tspan></text>
<text
         id="text118"
         style="font-variant:normal;font-weight:normal;font-size:10px;font-family:Helvetica;-inkscape-font-specification:Helvetica;writing-mode:lr-tb;fill:#000000;fill-opacity:1;fill-rule:nonzero;stroke:none"
         transform="matrix(1,0,0,-1,321.67,23.02)"><tspan
           id="tspan120"
           y="0"
           x="0 5.5599999">75</tspan></text>
<text
         id="text122"
         style="font-variant:normal;font-weight:normal;font-size:10px;font-family:Helvetica;-inkscape-font-specification:Helvetica;writing-mode:lr-tb;fill:#000000;fill-opacity:1;fill-rule:nonzero;stroke:none"
         transform="matrix(1,0,0,-1,404.02,23.02)"><tspan
           id="tspan124"
           y="0"
           x="0 5.5599999 11.12">100</tspan></text>
</g><g
       id="g126" /><g
       id="g128" /><g
       id="g130" /><g
       id="g132" /><g
       id="g134"><text
         id="text136"
         style="font-variant:normal;font-weight:normal;font-size:12px;font-family:Helvetica;-inkscape-font-specification:Helvetica;writing-mode:lr-tb;fill:#000000;fill-opacity:1;fill-rule:nonzero;stroke:none"
         transform="matrix(1,0,0,-1,210.7,10.8)"><tspan
           id="tspan138"
           y="0"
           x="0 3.336 6 15.996 22.667999 26.004 30 35.759998 42.431999 49.104 53.099998 59.099998">time (years)</tspan></text>
</g><g
       id="g140" /><g
       id="g142"><text
         id="text144"
         style="font-variant:normal;font-weight:normal;font-size:12px;font-family:Helvetica;-inkscape-font-specification:Helvetica;writing-mode:lr-tb;fill:#000000;fill-opacity:1;fill-rule:nonzero;stroke:none"
         transform="matrix(0,1,1,0,19.42,71.42)"><tspan
           id="tspan146"
           y="0"
           x="0 9.9960003 16.667999 23.34 26.676001 33.348 36.012001 42.012001 45.348 48.012001 54.683998 60.683998 63.348 70.019997 76.692001 83.363998 89.363998">monthly incidence</tspan></text>
</g><g
       id="g148" /><g
       id="g150" /><g
       id="g152" /><g
       id="g154" /><g
       id="g156" /><g
       id="g158"><path
         id="path160"
         style="fill:#ffffff;fill-opacity:1;fill-rule:nonzero;stroke:none"
         d="m 439.4,95.75 40.16,0 0,47.38 -40.16,0 0,-47.38 z" /></g><g
       id="g162" /><g
       id="g164" /><g
       id="g166" /><g
       id="g168" /><g
       id="g170" /><g
       id="g172"><path
         id="path174"
         style="fill:none;stroke:#f8766d;stroke-width:0.85000002;stroke-linecap:butt;stroke-linejoin:round;stroke-miterlimit:10;stroke-dasharray:none;stroke-opacity:1"
         d="m 445.38,125.92 13.83,0" /></g><g
       id="g176" /><g
       id="g178" /><g
       id="g180" /><g
       id="g182"><path
         id="path184"
         style="fill:none;stroke:#00bfc4;stroke-width:0.85000002;stroke-linecap:butt;stroke-linejoin:round;stroke-miterlimit:10;stroke-dasharray:1.7, 1.7;stroke-dashoffset:0;stroke-opacity:1"
         d="m 445.38,108.64 13.83,0" /></g><g
       id="g186" /><g
       id="g188"><text
         id="text190"
         style="font-style:oblique;font-variant:normal;font-size:10px;font-family:Helvetica;-inkscape-font-specification:Helvetica-Oblique;writing-mode:lr-tb;fill:#000000;fill-opacity:1;fill-rule:nonzero;stroke:none"
         transform="matrix(1,0,0,-1,463.1,123.15)"><tspan
           id="tspan192"
           y="0"
           x="0">C</tspan></text>
<text
         id="text194"
         style="font-variant:normal;font-weight:normal;font-size:7px;font-family:Helvetica;-inkscape-font-specification:Helvetica;writing-mode:lr-tb;fill:#000000;fill-opacity:1;fill-rule:nonzero;stroke:none"
         transform="matrix(1,0,0,-1,471.42,121.32)"><tspan
           id="tspan196"
           y="0"
           x="0">1</tspan></text>
</g><g
       id="g198" /><g
       id="g200"><text
         id="text202"
         style="font-style:oblique;font-variant:normal;font-size:10px;font-family:Helvetica;-inkscape-font-specification:Helvetica-Oblique;writing-mode:lr-tb;fill:#000000;fill-opacity:1;fill-rule:nonzero;stroke:none"
         transform="matrix(1,0,0,-1,463.1,105.87)"><tspan
           id="tspan204"
           y="0"
           x="0">C</tspan></text>
<text
         id="text206"
         style="font-variant:normal;font-weight:normal;font-size:7px;font-family:Helvetica;-inkscape-font-specification:Helvetica;writing-mode:lr-tb;fill:#000000;fill-opacity:1;fill-rule:nonzero;stroke:none"
         transform="matrix(1,0,0,-1,471.42,104.04)"><tspan
           id="tspan208"
           y="0"
           x="0">2</tspan></text>
</g><g
       id="g210" /><g
       id="g212" /><g
       id="g214" /><g
       id="g216" /><g
       id="g218" /><g
       id="g220" /><g
       id="g222" /><g
       id="g224" /><g
       id="g226" /><g
       id="g228" /><g
       id="g230" /><g
       id="g232" /></g></svg>