<?xml version="1.0" encoding="UTF-8" standalone="no"?>
<svg
   xmlns:dc="http://purl.org/dc/elements/1.1/"
   xmlns:cc="http://creativecommons.org/ns#"
   xmlns:rdf="http://www.w3.org/1999/02/22-rdf-syntax-ns#"
   xmlns:svg="http://www.w3.org/2000/svg"
   xmlns="http://www.w3.org/2000/svg"
   viewBox="0 0 540 225"
   height="225"
   width="540"
   xml:space="preserve"
   version="1.1"
   id="svg2"><metadata
     id="metadata8"><rdf:RDF><cc:Work
         rdf:about=""><dc:format>image/svg+xml</dc:format><dc:type
           rdf:resource="http://purl.org/dc/dcmitype/StillImage" /></cc:Work></rdf:RDF></metadata><defs
     id="defs6"><clipPath
       id="clipPath46"
       clipPathUnits="userSpaceOnUse"><path
         id="path48"
         d="m 52.17,34.33 316.69,0 0,139.7 -316.69,0 0,-139.7 z" /></clipPath></defs><g
     transform="matrix(1.25,0,0,-1.25,0,225)"
     id="g10"><g
       id="g12" /><g
       id="g14" /><g
       id="g16" /><g
       id="g18" /><g
       id="g20" /><g
       id="g22" /><g
       id="g24" /><g
       id="g26" /><g
       id="g28" /><g
       id="g30" /><g
       id="g32"><path
         id="path34"
         style="fill:#ffffff;fill-opacity:1;fill-rule:nonzero;stroke:#ffffff;stroke-width:1.07000005;stroke-linecap:round;stroke-linejoin:round;stroke-miterlimit:10;stroke-dasharray:none;stroke-opacity:1"
         d="M 0,0 432,0 432,180 0,180 0,0 Z" /></g><g
       id="g36" /><g
       id="g38" /><g
       id="g40" /><g
       id="g42"><g
         clip-path="url(#clipPath46)"
         id="g44"><path
           id="path50"
           style="fill:#ffffff;fill-opacity:1;fill-rule:nonzero;stroke:none"
           d="m 52.17,34.33 316.69,0 0,139.7 -316.69,0 0,-139.7 z" /><path
           id="path52"
           style="fill:none;stroke:#f8766d;stroke-width:0.85000002;stroke-linecap:butt;stroke-linejoin:round;stroke-miterlimit:1;stroke-dasharray:none;stroke-opacity:1"
           d="m 66.56,58.62 0.96,11.02 0.97,6.59 0.96,-0.5 0.96,-8.48 0.97,-12.96 0.96,-7.77 0.96,-3.79 0.96,-1.12 0.97,-0.49 0.96,1.52 0.96,3.72 0.97,8.08 0.96,14.35 0.96,16.4 0.96,7.04 0.97,-15.73 0.96,-16.06 0.96,-10.96 0.97,-4.43 0.96,-1.85 0.96,-0.12 0.96,1.57 0.97,5.64 0.96,12.43 0.96,23.1 0.97,30.72 0.96,10.46 0.96,-13.92 0.96,-32.89 0.97,-19.71 0.96,-10.14 0.96,-4.36 0.97,-0.33 0.96,2.22 0.96,5.96 0.96,12.87 0.97,22.8 0.96,14.33 0.96,-6.02 0.97,-15.71 0.96,-20.6 0.96,-11.53 0.96,-6.13 0.97,-1.46 0.96,-0.85 0.96,1.6 0.97,3.76 0.96,6.35 0.96,11.52 0.96,13.22 0.97,1.69 0.96,-11.7 0.96,-11.71 0.97,-8.93 0.96,-4.63 0.96,-1.44 0.96,-0.04 0.97,1.39 0.96,3.67 0.96,9.7 0.97,17.05 0.96,26.25 0.96,6.89 0.96,-18.84 0.97,-21.48 0.96,-11.83 0.96,-6.77 0.97,-2.94 0.96,-0.49 0.96,2.09 0.96,4.95 0.97,10.53 0.96,28.46 0.96,22.41 0.97,6.95 0.96,-17.65 0.96,-25.04 0.96,-18.33 0.97,-9.48 0.96,-2.93 0.96,-0.55 0.97,1.63 0.96,6.84 0.96,15.67 0.96,25.29 0.97,17.82 0.96,-5.55 0.96,-23.4 0.97,-21.59 0.96,-11.89 0.96,-5.4 0.97,-2.03 0.96,-0.85 0.96,1 0.96,2.31 0.97,6.49 0.96,9.71 0.96,8.9 0.97,0.92 0.96,-7.5 0.96,-10.63 0.96,-7.24 0.97,-3.71 0.96,-1.34 0.96,0.02 0.97,1.4 0.96,3.44 0.96,9.51 0.96,17.63 0.97,16.86 0.96,8.26 0.96,-6.37 0.97,-19.19 0.96,-16.81 0.96,-7.39 0.96,-3.04 0.97,-0.34 0.96,3.87 0.96,7.73 0.97,18 0.96,38.79 0.96,18.63 0.96,10.25 0.97,-32.25 0.96,-32.45 0.96,-19.5 0.97,-10.86 0.96,-3.36 0.96,-0.69 0.96,0.37 0.97,4.61 0.96,6.8 0.96,13.39 0.97,10.76 0.96,0.76 0.96,-12.96 0.96,-13.96 0.97,-6.67 0.96,-3.9 0.96,-1.33 0.97,0.15 0.96,1.44 0.96,3.49 0.96,7.65 0.97,13.24 0.96,16.4 0.96,5.27 0.97,-9.21 0.96,-15.48 0.96,-11.67 0.96,-6.34 0.97,-2.27 0.96,0.08 0.96,3.25 0.97,8.85 0.96,14.89 0.96,26.58 0.96,36.32 0.97,6.38 0.96,-29.04 0.96,-32.09 0.97,-20.64 0.96,-8.83 0.96,-3.44 0.96,0.25 0.97,2.01 0.96,6.44 0.96,12.05 0.97,18.74 0.96,14.12 0.96,-4.52 0.96,-15.24 0.97,-19.39 0.96,-12.4 0.96,-4.41 0.97,-2.1 0.96,-0.06 0.96,0.53 0.96,2.14 0.97,5.78 0.96,8.75 0.96,7.94 0.97,2.06 0.96,-6.34 0.96,-9.35 0.96,-5.81 0.97,-3.53 0.96,-1.39 0.96,0.12 0.97,1.55 0.96,5.48 0.96,13.39 0.96,19.34 0.97,22.52 0.96,17.59 0.96,-17.24 0.97,-28.9 0.96,-18.56 0.96,-8.13 0.96,-3.31 0.97,-0.09 0.96,4 0.96,9.67 0.97,19 0.96,31.29 0.96,20.87 0.96,-1.56 0.97,-26.25 0.96,-27.95 0.96,-20.04 0.97,-8.67 0.96,-2.66 0.96,-1.15 0.96,1.2 0.97,2.38 0.96,6.14 0.96,13.57 0.97,8.61 0.96,-0.22 0.96,-8.6 0.96,-12.53 0.97,-7.49 0.96,-3.18 0.96,-1.33 0.97,-0.07 0.96,1.63 0.96,3.13 0.96,7.19 0.97,13.71 0.96,14.87 0.96,2.98 0.97,-11.04 0.96,-13.45 0.96,-10.18 0.96,-5.02 0.97,-2.11 0.96,0.13 0.96,2.33 0.97,7.06 0.96,14.14 0.96,28.47 0.96,32.31 0.97,5.46 0.96,-21.12 0.96,-31.73 0.97,-19.78 0.96,-9.99 0.96,-4.84 0.96,0.14 0.97,2.57 0.96,4.68 0.96,11.69 0.97,16.53 0.96,29.98 0.96,6.58 0.97,-22.07 0.96,-24.87 0.96,-17.47 0.96,-7.36 0.97,-2.72 0.96,-0.33 0.96,1.33 0.97,4.17 0.96,8.41 0.96,9.64 0.96,12.37 0.97,-1.51 0.96,-10.42 0.96,-13.09 0.97,-6.85 0.96,-4.09 0.96,-1.4 0.96,0.02 0.97,1.16 0.96,3.14 0.96,7.28 0.97,12.16 0.96,12.53 0.96,2.79 0.96,-6.63 0.97,-12.5 0.96,-9.43 0.96,-5.65 0.97,-1.55 0.96,-0.17 0.96,3.27 0.96,7 0.97,17.4 0.96,35.22 0.96,48.14 0.97,-5.4 0.96,-25.54 0.96,-40.59 0.96,-23.59 0.97,-10.61 0.96,-3.45 0.96,-0.92 0.97,2.75 0.96,6.17" /><path
           id="path54"
           style="fill:none;stroke:#00bfc4;stroke-width:0.85000002;stroke-linecap:butt;stroke-linejoin:round;stroke-miterlimit:1;stroke-dasharray:none;stroke-opacity:1"
           d="m 66.56,71.88 0.96,25.67 0.97,18.54 0.96,-1.82 0.96,-26.68 0.97,-21.74 0.96,-13.27 0.96,-7.31 0.96,-2.87 0.97,-0.63 0.96,1.12 0.96,3.17 0.97,7.99 0.96,14.14 0.96,14.55 0.96,4.9 0.97,-10.99 0.96,-14.21 0.96,-10.09 0.97,-6.23 0.96,-2.2 0.96,0.96 0.96,3.21 0.97,9.07 0.96,22.99 0.96,37.22 0.97,44.56 0.96,5.74 0.96,-30.01 0.96,-39.58 0.97,-29.74 0.96,-14.27 0.96,-4.96 0.97,-0.1 0.96,2.04 0.96,7.59 0.96,15.54 0.97,22.98 0.96,20.23 0.96,-2.92 0.97,-18.82 0.96,-28.22 0.96,-14.8 0.96,-6.51 0.97,-2.56 0.96,-0.64 0.96,1.31 0.97,4.1 0.96,10.43 0.96,18.71 0.96,19.42 0.97,7.1 0.96,-15.41 0.96,-18.79 0.97,-14.89 0.96,-7.44 0.96,-2.16 0.96,0.02 0.97,2.39 0.96,7.42 0.96,17.71 0.97,32.18 0.96,29.83 0.96,3.19 0.96,-30 0.97,-30.89 0.96,-19.98 0.96,-8.93 0.97,-3.51 0.96,0.01 0.96,1.54 0.96,6.52 0.97,12.24 0.96,22.15 0.96,13.03 0.97,7.68 0.96,-16.63 0.96,-21.34 0.96,-15.25 0.97,-7.5 0.96,-2.65 0.96,0 0.97,2.74 0.96,8.01 0.96,17.19 0.96,29.38 0.97,30.69 0.96,13.44 0.96,-27.48 0.97,-33.95 0.96,-23.32 0.96,-11.17 0.97,-4.37 0.96,-0.32 0.96,2.5 0.96,7.38 0.97,14.05 0.96,24.37 0.96,24.32 0.97,13.93 0.96,-24.92 0.96,-28.69 0.96,-21.58 0.97,-9.21 0.96,-3.2 0.96,-0.4 0.97,1.69 0.96,6.09 0.96,12.2 0.96,21.33 0.97,15.92 0.96,5.27 0.96,-16.97 0.97,-20.98 0.96,-14.1 0.96,-6.37 0.96,-2.98 0.97,-1.29 0.96,1.28 0.96,6.38 0.97,12.98 0.96,29.74 0.96,30.69 0.96,4.3 0.97,-17.46 0.96,-30.46 0.96,-21.03 0.97,-9.2 0.96,-3.27 0.96,-1.54 0.96,3.1 0.97,9.02 0.96,14.26 0.96,25.67 0.97,27.44 0.96,1.26 0.96,-21.49 0.96,-28.13 0.97,-18.75 0.96,-8.57 0.96,-3.37 0.97,-1.07 0.96,1.96 0.96,6.38 0.96,12.61 0.97,25.79 0.96,21.99 0.96,0.65 0.97,-21.95 0.96,-24.55 0.96,-13.61 0.96,-7.99 0.97,-2.12 0.96,-0.56 0.96,2.28 0.97,6.19 0.96,14.19 0.96,25.62 0.96,27.83 0.97,14.9 0.96,-21.84 0.96,-32.48 0.97,-20.84 0.96,-8.35 0.96,-4.62 0.96,-0.13 0.97,2.78 0.96,8.22 0.96,18.33 0.97,31.95 0.96,32.55 0.96,-2.49 0.96,-31.09 0.97,-29.19 0.96,-19.7 0.96,-8.88 0.97,-3.63 0.96,-0.75 0.96,1.32 0.96,4.3 0.97,12.17 0.96,19.9 0.96,18.53 0.97,2.27 0.96,-19.22 0.96,-18.25 0.96,-13.38 0.97,-6.72 0.96,-1.58 0.96,-0.45 0.97,2.46 0.96,5.84 0.96,12.42 0.96,23.7 0.97,29.36 0.96,3.82 0.96,-19.24 0.97,-27.27 0.96,-17.57 0.96,-7.85 0.96,-3.8 0.97,-0.1 0.96,2.79 0.96,8.84 0.97,19.57 0.96,32.4 0.96,36.32 0.96,-1.4 0.97,-23.74 0.96,-33.55 0.96,-23.09 0.97,-12.05 0.96,-4.67 0.96,-1.55 0.96,2.97 0.97,5.91 0.96,13.9 0.96,22.51 0.97,12.32 0.96,-0.95 0.96,-13.58 0.96,-18.99 0.97,-15.86 0.96,-6.48 0.96,-2.91 0.97,-0.36 0.96,2.72 0.96,7.37 0.96,10.96 0.97,22.64 0.96,28.23 0.96,8.39 0.97,-23.39 0.96,-27.77 0.96,-17.68 0.96,-8 0.97,-2.49 0.96,-0.48 0.96,2.37 0.97,5.79 0.96,13.33 0.96,28 0.96,28.12 0.97,4.82 0.96,-19.06 0.96,-30.15 0.97,-19.4 0.96,-9.12 0.96,-3.5 0.96,-0.07 0.97,2.68 0.96,6.81 0.96,15.5 0.97,32.26 0.96,37.91 0.96,5.27 0.97,-26.65 0.96,-33.27 0.96,-24.07 0.96,-11.84 0.97,-4.28 0.96,-0.46 0.96,2.35 0.97,8.02 0.96,12.75 0.96,21.1 0.96,17.21 0.97,3.15 0.96,-19.99 0.96,-19.46 0.97,-15.07 0.96,-8.7 0.96,-3.08 0.96,0.21 0.97,1.14 0.96,5.63 0.96,10.99 0.97,17.5 0.96,17.85 0.96,1.26 0.96,-14.54 0.97,-18.79 0.96,-12.08 0.96,-6.33 0.97,-2.08 0.96,0.36 0.96,2.1 0.96,9.06 0.97,19.6 0.96,37.22 0.96,41.99 0.97,-6.09 0.96,-36.01 0.96,-29.59 0.96,-21.52 0.97,-10.79 0.96,-3.73 0.96,-1.22 0.97,2.67 0.96,6.26" /></g></g><g
       id="g56" /><g
       id="g58" /><g
       id="g60"><path
         id="path62"
         style="fill:none;stroke:#000000;stroke-width:1.07000005;stroke-linecap:butt;stroke-linejoin:round;stroke-miterlimit:10;stroke-dasharray:none;stroke-opacity:1"
         d="m 52.17,34.33 0,139.69" /></g><g
       id="g64" /><g
       id="g66" /><g
       id="g68"><text
         id="text70"
         style="font-variant:normal;font-weight:normal;font-size:10px;font-family:Helvetica;-inkscape-font-specification:Helvetica;writing-mode:lr-tb;fill:#000000;fill-opacity:1;fill-rule:nonzero;stroke:none"
         transform="matrix(1,0,0,-1,21.77,33.84)"><tspan
           id="tspan72"
           y="0"
           x="0 5.5599999 8.3400002 13.9 19.459999">0.000</tspan></text>
<text
         id="text74"
         style="font-variant:normal;font-weight:normal;font-size:10px;font-family:Helvetica;-inkscape-font-specification:Helvetica;writing-mode:lr-tb;fill:#000000;fill-opacity:1;fill-rule:nonzero;stroke:none"
         transform="matrix(1,0,0,-1,21.77,66.55)"><tspan
           id="tspan76"
           y="0"
           x="0 5.5599999 8.3400002 13.9 19.459999">0.001</tspan></text>
<text
         id="text78"
         style="font-variant:normal;font-weight:normal;font-size:10px;font-family:Helvetica;-inkscape-font-specification:Helvetica;writing-mode:lr-tb;fill:#000000;fill-opacity:1;fill-rule:nonzero;stroke:none"
         transform="matrix(1,0,0,-1,21.77,99.27)"><tspan
           id="tspan80"
           y="0"
           x="0 5.5599999 8.3400002 13.9 19.459999">0.002</tspan></text>
<text
         id="text82"
         style="font-variant:normal;font-weight:normal;font-size:10px;font-family:Helvetica;-inkscape-font-specification:Helvetica;writing-mode:lr-tb;fill:#000000;fill-opacity:1;fill-rule:nonzero;stroke:none"
         transform="matrix(1,0,0,-1,21.77,131.99)"><tspan
           id="tspan84"
           y="0"
           x="0 5.5599999 8.3400002 13.9 19.459999">0.003</tspan></text>
<text
         id="text86"
         style="font-variant:normal;font-weight:normal;font-size:10px;font-family:Helvetica;-inkscape-font-specification:Helvetica;writing-mode:lr-tb;fill:#000000;fill-opacity:1;fill-rule:nonzero;stroke:none"
         transform="matrix(1,0,0,-1,21.77,164.71)"><tspan
           id="tspan88"
           y="0"
           x="0 5.5599999 8.3400002 13.9 19.459999">0.004</tspan></text>
</g><g
       id="g90" /><g
       id="g92" /><g
       id="g94"><path
         id="path96"
         style="fill:none;stroke:#000000;stroke-width:1.07000005;stroke-linecap:butt;stroke-linejoin:round;stroke-miterlimit:10;stroke-dasharray:none;stroke-opacity:1"
         d="m 49.18,37.43 2.99,0" /><path
         id="path98"
         style="fill:none;stroke:#000000;stroke-width:1.07000005;stroke-linecap:butt;stroke-linejoin:round;stroke-miterlimit:10;stroke-dasharray:none;stroke-opacity:1"
         d="m 49.18,70.14 2.99,0" /><path
         id="path100"
         style="fill:none;stroke:#000000;stroke-width:1.07000005;stroke-linecap:butt;stroke-linejoin:round;stroke-miterlimit:10;stroke-dasharray:none;stroke-opacity:1"
         d="m 49.18,102.86 2.99,0" /><path
         id="path102"
         style="fill:none;stroke:#000000;stroke-width:1.07000005;stroke-linecap:butt;stroke-linejoin:round;stroke-miterlimit:10;stroke-dasharray:none;stroke-opacity:1"
         d="m 49.18,135.58 2.99,0" /><path
         id="path104"
         style="fill:none;stroke:#000000;stroke-width:1.07000005;stroke-linecap:butt;stroke-linejoin:round;stroke-miterlimit:10;stroke-dasharray:none;stroke-opacity:1"
         d="m 49.18,168.3 2.99,0" /></g><g
       id="g106" /><g
       id="g108" /><g
       id="g110" /><g
       id="g112" /><g
       id="g114" /><g
       id="g116"><path
         id="path118"
         style="fill:none;stroke:#000000;stroke-width:1.07000005;stroke-linecap:butt;stroke-linejoin:round;stroke-miterlimit:10;stroke-dasharray:none;stroke-opacity:1"
         d="m 52.17,34.33 316.68,0" /></g><g
       id="g120" /><g
       id="g122" /><g
       id="g124"><path
         id="path126"
         style="fill:none;stroke:#000000;stroke-width:1.07000005;stroke-linecap:butt;stroke-linejoin:round;stroke-miterlimit:10;stroke-dasharray:none;stroke-opacity:1"
         d="m 65.6,31.34 0,2.99" /><path
         id="path128"
         style="fill:none;stroke:#000000;stroke-width:1.07000005;stroke-linecap:butt;stroke-linejoin:round;stroke-miterlimit:10;stroke-dasharray:none;stroke-opacity:1"
         d="m 123.37,31.34 0,2.99" /><path
         id="path130"
         style="fill:none;stroke:#000000;stroke-width:1.07000005;stroke-linecap:butt;stroke-linejoin:round;stroke-miterlimit:10;stroke-dasharray:none;stroke-opacity:1"
         d="m 181.14,31.34 0,2.99" /><path
         id="path132"
         style="fill:none;stroke:#000000;stroke-width:1.07000005;stroke-linecap:butt;stroke-linejoin:round;stroke-miterlimit:10;stroke-dasharray:none;stroke-opacity:1"
         d="m 238.91,31.34 0,2.99" /><path
         id="path134"
         style="fill:none;stroke:#000000;stroke-width:1.07000005;stroke-linecap:butt;stroke-linejoin:round;stroke-miterlimit:10;stroke-dasharray:none;stroke-opacity:1"
         d="m 296.69,31.34 0,2.99" /><path
         id="path136"
         style="fill:none;stroke:#000000;stroke-width:1.07000005;stroke-linecap:butt;stroke-linejoin:round;stroke-miterlimit:10;stroke-dasharray:none;stroke-opacity:1"
         d="m 354.46,31.34 0,2.99" /></g><g
       id="g138" /><g
       id="g140"><text
         id="text142"
         style="font-variant:normal;font-weight:normal;font-size:10px;font-family:Helvetica;-inkscape-font-specification:Helvetica;writing-mode:lr-tb;fill:#000000;fill-opacity:1;fill-rule:nonzero;stroke:none"
         transform="matrix(1,0,0,-1,62.82,21.77)"><tspan
           id="tspan144"
           y="0"
           x="0">0</tspan></text>
<text
         id="text146"
         style="font-variant:normal;font-weight:normal;font-size:10px;font-family:Helvetica;-inkscape-font-specification:Helvetica;writing-mode:lr-tb;fill:#000000;fill-opacity:1;fill-rule:nonzero;stroke:none"
         transform="matrix(1,0,0,-1,120.59,21.77)"><tspan
           id="tspan148"
           y="0"
           x="0">5</tspan></text>
<text
         id="text150"
         style="font-variant:normal;font-weight:normal;font-size:10px;font-family:Helvetica;-inkscape-font-specification:Helvetica;writing-mode:lr-tb;fill:#000000;fill-opacity:1;fill-rule:nonzero;stroke:none"
         transform="matrix(1,0,0,-1,175.58,21.77)"><tspan
           id="tspan152"
           y="0"
           x="0 5.5599999">10</tspan></text>
<text
         id="text154"
         style="font-variant:normal;font-weight:normal;font-size:10px;font-family:Helvetica;-inkscape-font-specification:Helvetica;writing-mode:lr-tb;fill:#000000;fill-opacity:1;fill-rule:nonzero;stroke:none"
         transform="matrix(1,0,0,-1,233.35,21.77)"><tspan
           id="tspan156"
           y="0"
           x="0 5.5599999">15</tspan></text>
<text
         id="text158"
         style="font-variant:normal;font-weight:normal;font-size:10px;font-family:Helvetica;-inkscape-font-specification:Helvetica;writing-mode:lr-tb;fill:#000000;fill-opacity:1;fill-rule:nonzero;stroke:none"
         transform="matrix(1,0,0,-1,291.13,21.77)"><tspan
           id="tspan160"
           y="0"
           x="0 5.5599999">20</tspan></text>
<text
         id="text162"
         style="font-variant:normal;font-weight:normal;font-size:10px;font-family:Helvetica;-inkscape-font-specification:Helvetica;writing-mode:lr-tb;fill:#000000;fill-opacity:1;fill-rule:nonzero;stroke:none"
         transform="matrix(1,0,0,-1,348.9,21.77)"><tspan
           id="tspan164"
           y="0"
           x="0 5.5599999">25</tspan></text>
</g><g
       id="g166" /><g
       id="g168" /><g
       id="g170" /><g
       id="g172" /><g
       id="g174" /><g
       id="g176"><text
         id="text178"
         style="font-variant:normal;font-weight:normal;font-size:12px;font-family:Helvetica;-inkscape-font-specification:Helvetica;writing-mode:lr-tb;fill:#000000;fill-opacity:1;fill-rule:nonzero;stroke:none"
         transform="matrix(1,0,0,-1,178.96,8.37)"><tspan
           id="tspan180"
           y="0"
           x="0 3.336 6 15.996 22.667999 26.004 30 35.759998 42.431999 49.104 53.099998 59.099998">time (years)</tspan></text>
</g><g
       id="g182" /><g
       id="g184" /><g
       id="g186"><text
         id="text188"
         style="font-variant:normal;font-weight:normal;font-size:12px;font-family:Helvetica;-inkscape-font-specification:Helvetica;writing-mode:lr-tb;fill:#000000;fill-opacity:1;fill-rule:nonzero;stroke:none"
         transform="matrix(0,1,1,0,16.98,56.16)"><tspan
           id="tspan190"
           y="0"
           x="0 9.9960003 16.667999 23.34 26.676001 33.348 36.012001 42.012001 45.348 48.012001 54.683998 60.683998 63.348 70.019997 76.692001 83.363998 89.363998">monthly incidence</tspan></text>
</g><g
       id="g192" /><g
       id="g194" /><g
       id="g196" /><g
       id="g198" /><g
       id="g200" /><g
       id="g202" /><g
       id="g204"><path
         id="path206"
         style="fill:#ffffff;fill-opacity:1;fill-rule:nonzero;stroke:none"
         d="m 377.36,80.48 40.16,0 0,47.38 -40.16,0 0,-47.38 z" /></g><g
       id="g208" /><g
       id="g210" /><g
       id="g212" /><g
       id="g214" /><g
       id="g216" /><g
       id="g218"><path
         id="path220"
         style="fill:none;stroke:#f8766d;stroke-width:0.85000002;stroke-linecap:butt;stroke-linejoin:round;stroke-miterlimit:10;stroke-dasharray:none;stroke-opacity:1"
         d="m 383.34,110.65 13.82,0" /></g><g
       id="g222" /><g
       id="g224" /><g
       id="g226" /><g
       id="g228"><path
         id="path230"
         style="fill:none;stroke:#00bfc4;stroke-width:0.85000002;stroke-linecap:butt;stroke-linejoin:round;stroke-miterlimit:10;stroke-dasharray:none;stroke-opacity:1"
         d="m 383.34,93.37 13.82,0" /></g><g
       id="g232" /><g
       id="g234"><text
         id="text236"
         style="font-style:oblique;font-variant:normal;font-size:10px;font-family:Helvetica;-inkscape-font-specification:Helvetica-Oblique;writing-mode:lr-tb;fill:#000000;fill-opacity:1;fill-rule:nonzero;stroke:none"
         transform="matrix(1,0,0,-1,401.05,107.88)"><tspan
           id="tspan238"
           y="0"
           x="0">C</tspan></text>
<text
         id="text240"
         style="font-variant:normal;font-weight:normal;font-size:7px;font-family:Helvetica;-inkscape-font-specification:Helvetica;writing-mode:lr-tb;fill:#000000;fill-opacity:1;fill-rule:nonzero;stroke:none"
         transform="matrix(1,0,0,-1,409.37,106.05)"><tspan
           id="tspan242"
           y="0"
           x="0">1</tspan></text>
</g><g
       id="g244" /><g
       id="g246"><text
         id="text248"
         style="font-style:oblique;font-variant:normal;font-size:10px;font-family:Helvetica;-inkscape-font-specification:Helvetica-Oblique;writing-mode:lr-tb;fill:#000000;fill-opacity:1;fill-rule:nonzero;stroke:none"
         transform="matrix(1,0,0,-1,401.05,90.6)"><tspan
           id="tspan250"
           y="0"
           x="0">C</tspan></text>
<text
         id="text252"
         style="font-variant:normal;font-weight:normal;font-size:7px;font-family:Helvetica;-inkscape-font-specification:Helvetica;writing-mode:lr-tb;fill:#000000;fill-opacity:1;fill-rule:nonzero;stroke:none"
         transform="matrix(1,0,0,-1,409.37,88.77)"><tspan
           id="tspan254"
           y="0"
           x="0">2</tspan></text>
</g><g
       id="g256" /><g
       id="g258" /><g
       id="g260" /><g
       id="g262" /><g
       id="g264" /><g
       id="g266" /><g
       id="g268" /><g
       id="g270" /><g
       id="g272" /><g
       id="g274" /><g
       id="g276" /><g
       id="g278" /></g></svg>