<?xml version="1.0" encoding="UTF-8" standalone="no"?>
<svg
   xmlns:dc="http://purl.org/dc/elements/1.1/"
   xmlns:cc="http://creativecommons.org/ns#"
   xmlns:rdf="http://www.w3.org/1999/02/22-rdf-syntax-ns#"
   xmlns:svg="http://www.w3.org/2000/svg"
   xmlns="http://www.w3.org/2000/svg"
   viewBox="0 0 540 225"
   height="225"
   width="540"
   xml:space="preserve"
   version="1.1"
   id="svg2"><metadata
     id="metadata8"><rdf:RDF><cc:Work
         rdf:about=""><dc:format>image/svg+xml</dc:format><dc:type
           rdf:resource="http://purl.org/dc/dcmitype/StillImage" /></cc:Work></rdf:RDF></metadata><defs
     id="defs6"><clipPath
       id="clipPath46"
       clipPathUnits="userSpaceOnUse"><path
         id="path48"
         d="m 46.61,34.33 322.25,0 0,139.7 -322.25,0 0,-139.7 z" /></clipPath></defs><g
     transform="matrix(1.25,0,0,-1.25,0,225)"
     id="g10"><g
       id="g12" /><g
       id="g14" /><g
       id="g16" /><g
       id="g18" /><g
       id="g20" /><g
       id="g22" /><g
       id="g24" /><g
       id="g26" /><g
       id="g28" /><g
       id="g30" /><g
       id="g32"><path
         id="path34"
         style="fill:#ffffff;fill-opacity:1;fill-rule:nonzero;stroke:#ffffff;stroke-width:1.07000005;stroke-linecap:round;stroke-linejoin:round;stroke-miterlimit:10;stroke-dasharray:none;stroke-opacity:1"
         d="M 0,0 432,0 432,180 0,180 0,0 Z" /></g><g
       id="g36" /><g
       id="g38" /><g
       id="g40" /><g
       id="g42"><g
         clip-path="url(#clipPath46)"
         id="g44"><path
           id="path50"
           style="fill:#ffffff;fill-opacity:1;fill-rule:nonzero;stroke:none"
           d="m 46.61,34.33 322.25,0 0,139.7 -322.25,0 0,-139.7 z" /><path
           id="path52"
           style="fill:none;stroke:#f8766d;stroke-width:0.85000002;stroke-linecap:butt;stroke-linejoin:round;stroke-miterlimit:1;stroke-dasharray:none;stroke-opacity:1"
           d="m 61.25,40.77 0.98,0.29 0.98,0.95 0.98,1.87 0.98,2.58 0.98,1.88 0.98,0.21 0.98,0.07 0.98,1.72 0.98,4.36 0.98,12.06 0.98,16.77 0.98,2.87 0.98,-19.03 0.98,-16.09 0.98,-7.68 0.98,-2.28 0.98,-0.52 0.98,-0.1 0.98,-0.02 0.98,0 0.98,0 0.98,0 0.98,0 0.98,0 0.98,0 0.98,0 0.98,0 0.98,0 0.98,0 0.98,0 0.98,0 0.98,0 0.98,0 0.98,0 0.98,0 0.98,0 0.98,0 0.98,0 0.98,0 0.97,0 0.98,0 0.98,0 0.98,0 0.98,0 0.98,0 0.98,0 0.98,0 0.98,0 0.98,0 0.98,0 0.98,0 0.98,0 0.98,0 0.98,0 0.98,0 0.98,0 0.98,0 0.98,0 0.98,0 0.98,0 0.98,0 0.98,0.02 0.98,0.04 0.98,0.05 0.98,0.05 0.98,0.03 0.98,0.08 0.98,0.15 0.98,0.68 0.98,2.57 0.98,14.34 0.98,51.05 0.98,23.23 0.98,-58.9 0.98,-26.39 0.98,-5.7 0.98,-1.1 0.98,-0.17 0.98,-0.03 0.98,0 0.98,0 0.98,0 0.98,0 0.97,0 0.98,0 0.98,0 0.98,0 0.98,0 0.98,0 0.98,0 0.98,0 0.98,0 0.98,0 0.98,0 0.98,0 0.98,0 0.98,0 0.98,0 0.98,0 0.98,0 0.98,0 0.98,0 0.98,0 0.98,0 0.98,0 0.98,0 0.98,0 0.98,0 0.98,0 0.98,0 0.98,0 0.98,0 0.98,0 0.98,0 0.98,0 0.98,0 0.98,0 0.98,0 0.98,0 0.98,0 0.98,0 0.98,0 0.98,0 0.98,0 0.98,0 0.98,0 0.97,0 0.98,0 0.98,0 0.98,0 0.98,0 0.98,0 0.98,0.02 0.98,0.09 0.98,0.23 0.98,0.37 0.98,0.42 0.98,0.47 0.98,0.64 0.98,1.8 0.98,7.47 0.98,25.91 0.98,51.84 0.98,-22.16 0.98,-44.08 0.98,-17.5 0.98,-4.39 0.98,-0.93 0.98,-0.17 0.98,-0.03 0.98,0 0.98,0 0.98,0 0.98,0 0.98,0 0.98,0 0.98,0 0.98,0 0.98,0 0.98,0 0.98,0 0.98,0 0.98,0 0.98,0 0.98,0 0.98,0 0.98,0 0.98,0 0.98,0 0.98,0 0.97,0 0.98,0 0.98,0 0.98,0 0.98,0 0.98,0 0.98,0 0.98,0 0.98,0 0.98,0 0.98,0 0.98,0 0.98,0 0.98,0 0.98,0 0.98,0 0.98,0 0.98,0 0.98,0 0.98,0 0.98,0 0.98,0 0.98,0 0.98,0 0.98,0 0.98,0 0.98,0 0.98,0 0.98,0 0.98,0 0.98,0 0.98,0 0.98,0 0.98,0 0.98,0.02 0.98,0.09 0.98,0.22 0.98,0.37 0.98,0.46 0.98,0.4 0.98,0.98 0.98,2.16 0.98,7.54 0.98,25.79 0.97,47.09 0.98,-17.84 0.98,-43.83 0.98,-17.7 0.98,-4.65 0.98,-0.91 0.98,-0.17 0.98,-0.02 0.98,0 0.98,0 0.98,0 0.98,0 0.98,0 0.98,0 0.98,0 0.98,0 0.98,0 0.98,0 0.98,0 0.98,0 0.98,0 0.98,0 0.98,0 0.98,0 0.98,0 0.98,0 0.98,0 0.98,0 0.98,0 0.98,0 0.98,0 0.98,0 0.98,0 0.98,0 0.98,0 0.98,0 0.98,0 0.98,0 0.98,0 0.98,0 0.98,0 0.98,0 0.98,0 0.97,0 0.98,0 0.98,0 0.98,0 0.98,0 0.98,0 0.98,0 0.98,0 0.98,0 0.98,0 0.98,0 0.98,0 0.98,0 0.98,0 0.98,0 0.98,0 0.98,0 0.98,0 0.98,0 0.98,0 0.98,0.01 0.98,0.02 0.98,0.04 0.98,0.05 0.98,0.06 0.98,0.1 0.98,0.33 0.98,1.28 0.98,6.09 0.98,35.44 0.98,83.57 0.98,-59.5 0.98,-52.52 0.98,-12.59 0.98,-2.08 0.98,-0.26 0.98,-0.04 0.98,0 0.98,0 0.98,0 0.98,0 0.98,0" /><path
           id="path54"
           style="fill:none;stroke:#00bfc4;stroke-width:0.85000002;stroke-linecap:butt;stroke-linejoin:round;stroke-miterlimit:1;stroke-dasharray:none;stroke-opacity:1"
           d="m 61.25,43.09 0.98,2.2 0.98,1.43 0.98,-0.21 0.98,-1.27 0.98,-1.98 0.98,-1.35 0.98,-0.56 0.98,-0.2 0.98,-0.08 0.98,0.15 0.98,0.39 0.98,0.84 0.98,1.25 0.98,1.85 0.98,0.16 0.98,-1.26 0.98,-1.75 0.98,-1.03 0.98,-0.45 0.98,-0.15 0.98,-0.01 0.98,0.1 0.98,0.35 0.98,0.86 0.98,1.56 0.98,1.65 0.98,0.34 0.98,-0.87 0.98,-1.6 0.98,-1.27 0.98,-0.65 0.98,-0.24 0.98,-0.03 0.98,0.25 0.98,0.48 0.98,1.04 0.98,2.35 0.98,2.26 0.98,-0.1 0.97,-2.19 0.98,-1.96 0.98,-1.42 0.98,-0.56 0.98,-0.23 0.98,-0.03 0.98,0.1 0.98,0.37 0.98,0.86 0.98,1.33 0.98,1.66 0.98,0.47 0.98,-1.07 0.98,-1.8 0.98,-1.16 0.98,-0.47 0.98,-0.2 0.98,-0.01 0.98,0.13 0.98,0.41 0.98,1.09 0.98,1.67 0.98,1.6 0.98,0.67 0.98,-1.65 0.98,-2.12 0.98,-1.2 0.98,-0.54 0.98,-0.17 0.98,-0.09 0.98,0.07 0.98,0.25 0.98,0.71 0.98,0.95 0.98,0.88 0.98,0.36 0.98,-0.55 0.98,-1.06 0.98,-0.93 0.98,-0.44 0.98,-0.16 0.98,-0.02 0.98,0.16 0.98,0.4 0.97,1.18 0.98,2.44 0.98,2.5 0.98,0.72 0.98,-1.87 0.98,-2.15 0.98,-1.81 0.98,-0.99 0.98,-0.34 0.98,-0.05 0.98,0.18 0.98,0.53 0.98,1.16 0.98,1.48 0.98,1.66 0.98,-0.08 0.98,-1.78 0.98,-1.62 0.98,-0.93 0.98,-0.53 0.98,-0.26 0.98,-0.02 0.98,0.12 0.98,0.41 0.98,0.82 0.98,1.23 0.98,1.34 0.98,0.14 0.98,-0.91 0.98,-1.5 0.98,-0.95 0.98,-0.51 0.98,-0.14 0.98,-0.03 0.98,0.14 0.98,0.36 0.98,0.94 0.98,1.45 0.98,1.69 0.98,0.01 0.98,-1.1 0.98,-1.59 0.98,-1.11 0.97,-0.44 0.98,-0.22 0.98,0.02 0.98,0.23 0.98,0.61 0.98,1.32 0.98,2.3 0.98,2.11 0.98,0.45 0.98,-1.89 0.98,-2.47 0.98,-1.33 0.98,-0.91 0.98,-0.31 0.98,-0.06 0.98,0.17 0.98,0.57 0.98,0.82 0.98,1.31 0.98,1.2 0.98,0.24 0.98,-1.36 0.98,-1.49 0.98,-1.07 0.98,-0.44 0.98,-0.19 0.98,-0.06 0.98,0.09 0.98,0.29 0.98,0.65 0.98,1.14 0.98,0.97 0.98,0.13 0.98,-0.71 0.98,-1.13 0.98,-0.76 0.98,-0.33 0.98,-0.19 0.98,-0.03 0.98,0.17 0.98,0.47 0.98,1.29 0.98,2.51 0.98,2.3 0.97,0.72 0.98,-2.77 0.98,-2.33 0.98,-1.46 0.98,-0.61 0.98,-0.27 0.98,-0.01 0.98,0.14 0.98,0.34 0.98,0.83 0.98,1.32 0.98,1.04 0.98,0.3 0.98,-1.04 0.98,-1.48 0.98,-0.77 0.98,-0.48 0.98,-0.12 0.98,-0.01 0.98,0.21 0.98,0.53 0.98,0.94 0.98,1.45 0.98,2.52 0.98,0.04 0.98,-0.96 0.98,-1.98 0.98,-1.66 0.98,-0.74 0.98,-0.28 0.98,-0.01 0.98,0.08 0.98,0.52 0.98,1.13 0.98,2.06 0.98,1.49 0.98,0.49 0.98,-2.1 0.98,-1.99 0.98,-1.12 0.98,-0.51 0.98,-0.21 0.98,-0.05 0.98,0.09 0.97,0.26 0.98,0.66 0.98,1.08 0.98,0.86 0.98,0.23 0.98,-0.65 0.98,-1.18 0.98,-0.69 0.98,-0.4 0.98,-0.2 0.98,0.05 0.98,0.19 0.98,0.49 0.98,1.14 0.98,2.29 0.98,2.09 0.98,-0.19 0.98,-1.68 0.98,-1.91 0.98,-1.34 0.98,-0.61 0.98,-0.29 0.98,-0.03 0.98,0.21 0.98,0.48 0.98,1.14 0.98,2.14 0.98,2.32 0.98,0.23 0.98,-2.13 0.98,-2.24 0.98,-1.29 0.98,-0.72 0.98,-0.22 0.98,-0.06 0.98,0.12 0.98,0.42 0.98,0.93 0.98,1.67 0.98,1.67 0.98,-0.26 0.98,-1.36 0.98,-1.48 0.97,-1.13 0.98,-0.51 0.98,-0.18 0.98,0.01 0.98,0.11 0.98,0.38 0.98,0.82 0.98,1.19 0.98,1.75 0.98,-0.03 0.98,-1.36 0.98,-1.49 0.98,-0.78 0.98,-0.4 0.98,-0.18 0.98,-0.03 0.98,0.15 0.98,0.49 0.98,0.98 0.98,1.39 0.98,1.27 0.98,0.33 0.98,-0.73 0.98,-1.56 0.98,-1.16 0.98,-0.63 0.98,-0.23 0.98,-0.02 0.98,0.18 0.98,0.56 0.98,1.1 0.98,2.49 0.98,2.9 0.98,-0.57 0.98,-2.46 0.98,-2.09 0.98,-1.53 0.98,-0.58 0.98,-0.22 0.98,-0.06 0.98,0.09 0.98,0.23" /></g></g><g
       id="g56" /><g
       id="g58" /><g
       id="g60"><path
         id="path62"
         style="fill:none;stroke:#000000;stroke-width:1.07000005;stroke-linecap:butt;stroke-linejoin:round;stroke-miterlimit:10;stroke-dasharray:none;stroke-opacity:1"
         d="m 46.61,34.33 0,139.69" /></g><g
       id="g64" /><g
       id="g66" /><g
       id="g68"><text
         id="text70"
         style="font-variant:normal;font-weight:normal;font-size:10px;font-family:Helvetica;-inkscape-font-specification:Helvetica;writing-mode:lr-tb;fill:#000000;fill-opacity:1;fill-rule:nonzero;stroke:none"
         transform="matrix(1,0,0,-1,21.77,37.09)"><tspan
           id="tspan72"
           y="0"
           x="0 5.5599999 8.3400002 13.9">0.00</tspan></text>
<text
         id="text74"
         style="font-variant:normal;font-weight:normal;font-size:10px;font-family:Helvetica;-inkscape-font-specification:Helvetica;writing-mode:lr-tb;fill:#000000;fill-opacity:1;fill-rule:nonzero;stroke:none"
         transform="matrix(1,0,0,-1,21.77,79.28)"><tspan
           id="tspan76"
           y="0"
           x="0 5.5599999 8.3400002 13.9">0.02</tspan></text>
<text
         id="text78"
         style="font-variant:normal;font-weight:normal;font-size:10px;font-family:Helvetica;-inkscape-font-specification:Helvetica;writing-mode:lr-tb;fill:#000000;fill-opacity:1;fill-rule:nonzero;stroke:none"
         transform="matrix(1,0,0,-1,21.77,121.47)"><tspan
           id="tspan80"
           y="0"
           x="0 5.5599999 8.3400002 13.9">0.04</tspan></text>
<text
         id="text82"
         style="font-variant:normal;font-weight:normal;font-size:10px;font-family:Helvetica;-inkscape-font-specification:Helvetica;writing-mode:lr-tb;fill:#000000;fill-opacity:1;fill-rule:nonzero;stroke:none"
         transform="matrix(1,0,0,-1,21.77,163.66)"><tspan
           id="tspan84"
           y="0"
           x="0 5.5599999 8.3400002 13.9">0.06</tspan></text>
</g><g
       id="g86" /><g
       id="g88" /><g
       id="g90"><path
         id="path92"
         style="fill:none;stroke:#000000;stroke-width:1.07000005;stroke-linecap:butt;stroke-linejoin:round;stroke-miterlimit:10;stroke-dasharray:none;stroke-opacity:1"
         d="m 43.62,40.68 2.99,0" /><path
         id="path94"
         style="fill:none;stroke:#000000;stroke-width:1.07000005;stroke-linecap:butt;stroke-linejoin:round;stroke-miterlimit:10;stroke-dasharray:none;stroke-opacity:1"
         d="m 43.62,82.87 2.99,0" /><path
         id="path96"
         style="fill:none;stroke:#000000;stroke-width:1.07000005;stroke-linecap:butt;stroke-linejoin:round;stroke-miterlimit:10;stroke-dasharray:none;stroke-opacity:1"
         d="m 43.62,125.06 2.99,0" /><path
         id="path98"
         style="fill:none;stroke:#000000;stroke-width:1.07000005;stroke-linecap:butt;stroke-linejoin:round;stroke-miterlimit:10;stroke-dasharray:none;stroke-opacity:1"
         d="m 43.62,167.25 2.99,0" /></g><g
       id="g100" /><g
       id="g102" /><g
       id="g104" /><g
       id="g106" /><g
       id="g108" /><g
       id="g110"><path
         id="path112"
         style="fill:none;stroke:#000000;stroke-width:1.07000005;stroke-linecap:butt;stroke-linejoin:round;stroke-miterlimit:10;stroke-dasharray:none;stroke-opacity:1"
         d="m 46.61,34.33 322.24,0" /></g><g
       id="g114" /><g
       id="g116" /><g
       id="g118"><path
         id="path120"
         style="fill:none;stroke:#000000;stroke-width:1.07000005;stroke-linecap:butt;stroke-linejoin:round;stroke-miterlimit:10;stroke-dasharray:none;stroke-opacity:1"
         d="m 60.27,31.34 0,2.99" /><path
         id="path122"
         style="fill:none;stroke:#000000;stroke-width:1.07000005;stroke-linecap:butt;stroke-linejoin:round;stroke-miterlimit:10;stroke-dasharray:none;stroke-opacity:1"
         d="m 119.06,31.34 0,2.99" /><path
         id="path124"
         style="fill:none;stroke:#000000;stroke-width:1.07000005;stroke-linecap:butt;stroke-linejoin:round;stroke-miterlimit:10;stroke-dasharray:none;stroke-opacity:1"
         d="m 177.85,31.34 0,2.99" /><path
         id="path126"
         style="fill:none;stroke:#000000;stroke-width:1.07000005;stroke-linecap:butt;stroke-linejoin:round;stroke-miterlimit:10;stroke-dasharray:none;stroke-opacity:1"
         d="m 236.63,31.34 0,2.99" /><path
         id="path128"
         style="fill:none;stroke:#000000;stroke-width:1.07000005;stroke-linecap:butt;stroke-linejoin:round;stroke-miterlimit:10;stroke-dasharray:none;stroke-opacity:1"
         d="m 295.42,31.34 0,2.99" /><path
         id="path130"
         style="fill:none;stroke:#000000;stroke-width:1.07000005;stroke-linecap:butt;stroke-linejoin:round;stroke-miterlimit:10;stroke-dasharray:none;stroke-opacity:1"
         d="m 354.21,31.34 0,2.99" /></g><g
       id="g132" /><g
       id="g134"><text
         id="text136"
         style="font-variant:normal;font-weight:normal;font-size:10px;font-family:Helvetica;-inkscape-font-specification:Helvetica;writing-mode:lr-tb;fill:#000000;fill-opacity:1;fill-rule:nonzero;stroke:none"
         transform="matrix(1,0,0,-1,57.49,21.77)"><tspan
           id="tspan138"
           y="0"
           x="0">0</tspan></text>
<text
         id="text140"
         style="font-variant:normal;font-weight:normal;font-size:10px;font-family:Helvetica;-inkscape-font-specification:Helvetica;writing-mode:lr-tb;fill:#000000;fill-opacity:1;fill-rule:nonzero;stroke:none"
         transform="matrix(1,0,0,-1,116.28,21.77)"><tspan
           id="tspan142"
           y="0"
           x="0">5</tspan></text>
<text
         id="text144"
         style="font-variant:normal;font-weight:normal;font-size:10px;font-family:Helvetica;-inkscape-font-specification:Helvetica;writing-mode:lr-tb;fill:#000000;fill-opacity:1;fill-rule:nonzero;stroke:none"
         transform="matrix(1,0,0,-1,172.29,21.77)"><tspan
           id="tspan146"
           y="0"
           x="0 5.5599999">10</tspan></text>
<text
         id="text148"
         style="font-variant:normal;font-weight:normal;font-size:10px;font-family:Helvetica;-inkscape-font-specification:Helvetica;writing-mode:lr-tb;fill:#000000;fill-opacity:1;fill-rule:nonzero;stroke:none"
         transform="matrix(1,0,0,-1,231.07,21.77)"><tspan
           id="tspan150"
           y="0"
           x="0 5.5599999">15</tspan></text>
<text
         id="text152"
         style="font-variant:normal;font-weight:normal;font-size:10px;font-family:Helvetica;-inkscape-font-specification:Helvetica;writing-mode:lr-tb;fill:#000000;fill-opacity:1;fill-rule:nonzero;stroke:none"
         transform="matrix(1,0,0,-1,289.86,21.77)"><tspan
           id="tspan154"
           y="0"
           x="0 5.5599999">20</tspan></text>
<text
         id="text156"
         style="font-variant:normal;font-weight:normal;font-size:10px;font-family:Helvetica;-inkscape-font-specification:Helvetica;writing-mode:lr-tb;fill:#000000;fill-opacity:1;fill-rule:nonzero;stroke:none"
         transform="matrix(1,0,0,-1,348.65,21.77)"><tspan
           id="tspan158"
           y="0"
           x="0 5.5599999">25</tspan></text>
</g><g
       id="g160" /><g
       id="g162" /><g
       id="g164" /><g
       id="g166" /><g
       id="g168" /><g
       id="g170"><text
         id="text172"
         style="font-variant:normal;font-weight:normal;font-size:12px;font-family:Helvetica;-inkscape-font-specification:Helvetica;writing-mode:lr-tb;fill:#000000;fill-opacity:1;fill-rule:nonzero;stroke:none"
         transform="matrix(1,0,0,-1,176.18,8.37)"><tspan
           id="tspan174"
           y="0"
           x="0 3.336 6 15.996 22.667999 26.004 30 35.759998 42.431999 49.104 53.099998 59.099998">time (years)</tspan></text>
</g><g
       id="g176" /><g
       id="g178" /><g
       id="g180"><text
         id="text182"
         style="font-variant:normal;font-weight:normal;font-size:12px;font-family:Helvetica;-inkscape-font-specification:Helvetica;writing-mode:lr-tb;fill:#000000;fill-opacity:1;fill-rule:nonzero;stroke:none"
         transform="matrix(0,1,1,0,16.98,56.16)"><tspan
           id="tspan184"
           y="0"
           x="0 9.9960003 16.667999 23.34 26.676001 33.348 36.012001 42.012001 45.348 48.012001 54.683998 60.683998 63.348 70.019997 76.692001 83.363998 89.363998">monthly incidence</tspan></text>
</g><g
       id="g186" /><g
       id="g188" /><g
       id="g190" /><g
       id="g192" /><g
       id="g194" /><g
       id="g196" /><g
       id="g198"><path
         id="path200"
         style="fill:#ffffff;fill-opacity:1;fill-rule:nonzero;stroke:none"
         d="m 377.36,80.48 40.16,0 0,47.38 -40.16,0 0,-47.38 z" /></g><g
       id="g202" /><g
       id="g204" /><g
       id="g206" /><g
       id="g208" /><g
       id="g210" /><g
       id="g212"><path
         id="path214"
         style="fill:none;stroke:#f8766d;stroke-width:0.85000002;stroke-linecap:butt;stroke-linejoin:round;stroke-miterlimit:10;stroke-dasharray:none;stroke-opacity:1"
         d="m 383.34,110.65 13.82,0" /></g><g
       id="g216" /><g
       id="g218" /><g
       id="g220" /><g
       id="g222"><path
         id="path224"
         style="fill:none;stroke:#00bfc4;stroke-width:0.85000002;stroke-linecap:butt;stroke-linejoin:round;stroke-miterlimit:10;stroke-dasharray:none;stroke-opacity:1"
         d="m 383.34,93.37 13.82,0" /></g><g
       id="g226" /><g
       id="g228"><text
         id="text230"
         style="font-style:oblique;font-variant:normal;font-size:10px;font-family:Helvetica;-inkscape-font-specification:Helvetica-Oblique;writing-mode:lr-tb;fill:#000000;fill-opacity:1;fill-rule:nonzero;stroke:none"
         transform="matrix(1,0,0,-1,401.05,107.88)"><tspan
           id="tspan232"
           y="0"
           x="0">C</tspan></text>
<text
         id="text234"
         style="font-variant:normal;font-weight:normal;font-size:7px;font-family:Helvetica;-inkscape-font-specification:Helvetica;writing-mode:lr-tb;fill:#000000;fill-opacity:1;fill-rule:nonzero;stroke:none"
         transform="matrix(1,0,0,-1,409.37,106.05)"><tspan
           id="tspan236"
           y="0"
           x="0">1</tspan></text>
</g><g
       id="g238" /><g
       id="g240"><text
         id="text242"
         style="font-style:oblique;font-variant:normal;font-size:10px;font-family:Helvetica;-inkscape-font-specification:Helvetica-Oblique;writing-mode:lr-tb;fill:#000000;fill-opacity:1;fill-rule:nonzero;stroke:none"
         transform="matrix(1,0,0,-1,401.05,90.6)"><tspan
           id="tspan244"
           y="0"
           x="0">C</tspan></text>
<text
         id="text246"
         style="font-variant:normal;font-weight:normal;font-size:7px;font-family:Helvetica;-inkscape-font-specification:Helvetica;writing-mode:lr-tb;fill:#000000;fill-opacity:1;fill-rule:nonzero;stroke:none"
         transform="matrix(1,0,0,-1,409.37,88.77)"><tspan
           id="tspan248"
           y="0"
           x="0">2</tspan></text>
</g><g
       id="g250" /><g
       id="g252" /><g
       id="g254" /><g
       id="g256" /><g
       id="g258" /><g
       id="g260" /><g
       id="g262" /><g
       id="g264" /><g
       id="g266" /><g
       id="g268" /><g
       id="g270" /><g
       id="g272" /></g></svg>