<?xml version="1.0" encoding="UTF-8" standalone="no"?>
<svg
   xmlns:dc="http://purl.org/dc/elements/1.1/"
   xmlns:cc="http://creativecommons.org/ns#"
   xmlns:rdf="http://www.w3.org/1999/02/22-rdf-syntax-ns#"
   xmlns:svg="http://www.w3.org/2000/svg"
   xmlns="http://www.w3.org/2000/svg"
   viewBox="0 0 630 270"
   height="270"
   width="630"
   xml:space="preserve"
   version="1.1"
   id="svg2"><metadata
     id="metadata8"><rdf:RDF><cc:Work
         rdf:about=""><dc:format>image/svg+xml</dc:format><dc:type
           rdf:resource="http://purl.org/dc/dcmitype/StillImage" /></cc:Work></rdf:RDF></metadata><defs
     id="defs6"><clipPath
       id="clipPath22"
       clipPathUnits="userSpaceOnUse"><path
         id="path24"
         d="M 0,0 504,0 504,216 0,216 0,0 Z" /></clipPath><clipPath
       id="clipPath38"
       clipPathUnits="userSpaceOnUse"><path
         id="path40"
         d="m 49.56,37.28 379.81,0 0,164.32 -379.81,0 0,-164.32 z" /></clipPath></defs><g
     transform="matrix(1.25,0,0,-1.25,0,270)"
     id="g10"><g
       id="g12" /><g
       id="g14" /><g
       id="g16" /><g
       id="g18"><g
         clip-path="url(#clipPath22)"
         id="g20"><path
           id="path26"
           style="fill:#ffffff;fill-opacity:1;fill-rule:nonzero;stroke:#ffffff;stroke-width:1.05999994;stroke-linecap:round;stroke-linejoin:round;stroke-miterlimit:10;stroke-dasharray:none;stroke-opacity:1"
           d="M 0,0 504,0 504,216 0,216 0,0 Z" /></g></g><g
       id="g28" /><g
       id="g30" /><g
       id="g32" /><g
       id="g34"><g
         clip-path="url(#clipPath38)"
         id="g36"><path
           id="path42"
           style="fill:#ffffff;fill-opacity:1;fill-rule:nonzero;stroke:none"
           d="m 49.56,37.28 379.81,0 0,164.32 -379.81,0 0,-164.32 z" /><path
           id="path44"
           style="fill:none;stroke:#f8766d;stroke-width:0.85000002;stroke-linecap:butt;stroke-linejoin:round;stroke-miterlimit:1;stroke-dasharray:none;stroke-opacity:1"
           d="m 66.83,44.86 0.28,0.35 0.29,1.11 0.29,2.19 0.29,3.04 0.29,2.21 0.28,0.25 0.29,0.09 0.29,2.01 0.29,5.14 0.29,14.18 0.28,19.73 0.29,3.37 0.29,-22.38 0.29,-18.93 0.29,-9.03 0.28,-2.68 0.29,-0.62 0.29,-0.11 0.29,-0.02 0.29,-0.01 0.28,0 0.29,0 0.29,0 0.29,0 0.29,0 0.28,0 0.29,0 0.29,0 0.29,0 0.29,0 0.28,0 0.29,0 0.29,0 0.29,0 0.29,0 0.28,0 0.29,0 0.29,0 0.29,0 0.29,0 0.28,0 0.29,0 0.29,0 0.29,0 0.29,0 0.28,0 0.29,0 0.29,0 0.29,0 0.29,0 0.28,0 0.29,0 0.29,0 0.29,0 0.29,0 0.28,0 0.29,0 0.29,0 0.29,0 0.28,0 0.29,0.01 0.29,0.02 0.29,0.05 0.29,0.06 0.28,0.05 0.29,0.04 0.29,0.1 0.29,0.17 0.29,0.8 0.28,3.03 0.29,16.86 0.29,60.05 0.29,27.33 0.29,-69.29 0.28,-31.04 0.29,-6.7 0.29,-1.3 0.29,-0.2 0.29,-0.03 0.28,-0.01 0.29,0 0.29,0 0.29,0 0.29,0 0.28,0 0.29,0 0.29,0 0.29,0 0.29,0 0.28,0 0.29,0 0.29,0 0.29,0 0.29,0 0.28,0 0.29,0 0.29,0 0.29,0 0.29,0 0.28,0 0.29,0 0.29,0 0.29,0 0.29,0 0.28,0 0.29,0 0.29,0 0.29,0 0.29,0 0.28,0 0.29,0 0.29,0 0.29,0 0.29,0 0.28,0 0.29,0 0.29,0 0.29,0 0.29,0 0.28,0 0.29,0 0.29,0 0.29,0 0.29,0 0.28,0 0.29,0 0.29,0 0.29,0 0.28,0 0.29,0 0.29,0 0.29,0.01 0.29,0.02 0.28,0.11 0.29,0.27 0.29,0.43 0.29,0.49 0.29,0.56 0.28,0.75 0.29,2.12 0.29,8.78 0.29,30.49 0.29,60.97 0.28,-26.07 0.29,-51.85 0.29,-20.58 0.29,-5.16 0.29,-1.1 0.28,-0.2 0.29,-0.03 0.29,-0.01 0.29,0 0.29,0 0.28,0 0.29,0 0.29,0 0.29,0 0.29,0 0.28,0 0.29,0 0.29,0 0.29,0 0.29,0 0.28,0 0.29,0 0.29,0 0.29,0 0.29,0 0.28,0 0.29,0 0.29,0 0.29,0 0.29,0 0.28,0 0.29,0 0.29,0 0.29,0 0.29,0 0.28,0 0.29,0 0.29,0 0.29,0 0.29,0 0.28,0 0.29,0 0.29,0 0.29,0 0.29,0 0.28,0 0.29,0 0.29,0 0.29,0 0.29,0 0.28,0 0.29,0 0.29,0 0.29,0 0.29,0 0.28,0 0.29,0 0.29,0 0.29,0 0.28,0 0.29,0.01 0.29,0.02 0.29,0.11 0.29,0.25 0.28,0.44 0.29,0.54 0.29,0.47 0.29,1.16 0.29,2.53 0.28,8.87 0.29,30.34 0.29,55.39 0.29,-20.99 0.29,-51.55 0.28,-20.82 0.29,-5.47 0.29,-1.07 0.29,-0.2 0.29,-0.02 0.28,-0.01 0.29,0 0.29,0 0.29,0 0.29,0 0.28,0 0.29,0 0.29,0 0.29,0 0.29,0 0.28,0 0.29,0 0.29,0 0.29,0 0.29,0 0.28,0 0.29,0 0.29,0 0.29,0 0.29,0 0.28,0 0.29,0 0.29,0 0.29,0 0.29,0 0.28,0 0.29,0 0.29,0 0.29,0 0.29,0 0.28,0 0.29,0 0.29,0 0.29,0 0.29,0 0.28,0 0.29,0 0.29,0 0.29,0 0.29,0 0.28,0 0.29,0 0.29,0 0.29,0 0.29,0 0.28,0 0.29,0 0.29,0 0.29,0 0.29,0 0.28,0 0.29,0 0.29,0 0.29,0 0.28,0 0.29,0.01 0.29,0.03 0.29,0.04 0.29,0.06 0.28,0.08 0.29,0.12 0.29,0.39 0.29,1.5 0.29,7.16 0.28,41.69 0.29,98.3 0.29,-69.98 0.29,-61.78 0.29,-14.82 0.28,-2.44 0.29,-0.31 0.29,-0.04 0.29,-0.01 0.29,0 0.28,0 0.29,0 0.29,0 0.29,0 0.29,0 0.28,0 0.29,0 0.29,0 0.29,0 0.29,0 0.28,0 0.29,0 0.29,0 0.29,0 0.29,0 0.28,0 0.29,0 0.29,0 0.29,0 0.29,0 0.28,0 0.29,0 0.29,0 0.29,0 0.29,0 0.28,0 0.29,0 0.29,0 0.29,0 0.29,0 0.28,0 0.29,0 0.29,0 0.29,0 0.29,0 0.28,0 0.29,0 0.29,0 0.29,0 0.29,0 0.28,0 0.29,0 0.29,0 0.29,0 0.29,0 0.28,0 0.29,0 0.29,0 0.29,0 0.28,0 0.29,0 0.29,0 0.29,0 0.29,0 0.28,0 0.29,0 0.29,0 0.29,0 0.29,0 0.28,0 0.29,0 0.29,0.01 0.29,0.04 0.29,0.33 0.28,2.05 0.29,10.06 0.29,25.58 0.29,16.37 0.29,-18.72 0.28,-19.6 0.29,-9.22 0.29,-3.43 0.29,-1.24 0.29,-0.23 0.28,0.26 0.29,0.84 0.29,1.18 0.29,0.45 0.29,-0.83 0.28,-1.64 0.29,-1.14 0.29,-0.58 0.29,-0.28 0.29,-0.09 0.28,-0.02 0.29,0.05 0.29,0.12 0.29,0.35 0.29,0.61 0.28,0.8 0.29,0.66 0.29,-0.17 0.29,-0.77 0.29,-0.6 0.28,-0.37 0.29,-0.01 0.29,0.2 0.29,0.64 0.29,1.8 0.28,4.84 0.29,11.9 0.29,8.96 0.29,-3.32 0.29,-12.76 0.28,-8.05 0.29,-3.19 0.29,-1.18 0.29,-0.35 0.29,-0.11 0.28,-0.03 0.29,0.05 0.29,0.07 0.29,0.08 0.29,0.07 0.28,-0.06 0.29,-0.12 0.29,-0.12 0.29,-0.06 0.29,-0.03 0.28,-0.01 0.29,0 0.29,0.02 0.29,0.08 0.28,0.19 0.29,0.38 0.29,0.71 0.29,0.71 0.29,0.19 0.28,-0.37 0.29,-0.39 0.29,-0.18 0.29,-0.02 0.29,0.54 0.28,1.77 0.29,5.97 0.29,13.73 0.29,20.15 0.29,-0.39 0.28,-21.56 0.29,-15.1 0.29,-4.62 0.29,-1.38 0.29,-0.33 0.28,-0.09 0.29,-0.02 0.29,-0.01 0.29,0 0.29,0 0.28,0 0.29,0 0.29,-0.01 0.29,0 0.29,-0.01 0.28,0 0.29,0 0.29,0 0.29,0 0.29,0 0.28,0 0.29,0 0.29,0.01 0.29,0 0.29,0 0.28,0 0.29,0 0.29,0 0.29,0 0.29,0 0.28,0 0.29,0 0.29,0.02 0.29,0.05 0.29,0.15 0.28,0.34 0.29,0.56 0.29,0.52 0.29,0.3 0.29,0.07 0.28,0.36 0.29,0.77 0.29,2.69 0.29,8.66 0.29,19.63 0.28,27.82 0.29,-7.74 0.29,-28.68 0.29,-17.88 0.29,-5.83 0.28,-1.44 0.29,-0.3 0.29,-0.06 0.29,-0.01 0.29,-0.01 0.28,0 0.29,0 0.29,0 0.29,0 0.28,0 0.29,0 0.29,0 0.29,0 0.29,0 0.28,0 0.29,0 0.29,0 0.29,0 0.29,0 0.28,0 0.29,0 0.29,0 0.29,0 0.29,0 0.28,0 0.29,0 0.29,0 0.29,0 0.29,0 0.28,0 0.29,0 0.29,0 0.29,0 0.29,0 0.28,0 0.29,0 0.29,0 0.29,0 0.29,0 0.28,0 0.29,0 0.29,0.01 0.29,0 0.29,0.05 0.28,0.17 0.29,0.62 0.29,1.16 0.29,1.21 0.29,1.17 0.28,0.5 0.29,0.6 0.29,1.84 0.29,7.86 0.29,19.83 0.28,32.26 0.29,-0.74 0.29,-35.26 0.29,-21.35 0.29,-7.36 0.28,-2.07 0.29,-0.41 0.29,-0.07 0.29,-0.02 0.29,0 0.28,0 0.29,0 0.29,0 0.29,0 0.29,0 0.28,0 0.29,0 0.29,0 0.29,0 0.29,0 0.28,0 0.29,0 0.29,0 0.29,0 0.28,0 0.29,0 0.29,0 0.29,0 0.29,0 0.28,0 0.29,0 0.29,0 0.29,0 0.29,0 0.28,0 0.29,0 0.29,0 0.29,0 0.29,0 0.28,0 0.29,0 0.29,0 0.29,0 0.29,0 0.28,0 0.29,0 0.29,0 0.29,0 0.29,0 0.28,0 0.29,0 0.29,0 0.29,0 0.29,0.01 0.28,0 0.29,0 0.29,0 0.29,0.01 0.29,0.02 0.28,0.1 0.29,0.59 0.29,2.91 0.29,15.18 0.29,34.35 0.28,8.65 0.29,-30.2 0.29,-22.47 0.29,-6.51 0.29,-1.8 0.28,-0.51 0.29,-0.15 0.29,-0.05 0.29,0 0.29,0.02 0.28,0.01 0.29,0 0.29,-0.03 0.29,-0.05 0.29,-0.04 0.28,-0.02 0.29,-0.01 0.29,0 0.29,0 0.29,0 0.28,0 0.29,0.01 0.29,0.03 0.29,0.04 0.29,0.01 0.28,0.01 0.29,-0.01 0.29,-0.03 0.29,-0.01 0.29,0 0.28,0.03 0.29,0.12 0.29,0.41 0.29,1.45 0.28,4.61 0.29,11.02 0.29,8.79 0.29,-4.67 0.29,-10.25 0.28,-6.33 0.29,-2.79 0.29,-0.95 0.29,-0.29 0.29,0.24 0.28,0.97 0.29,1.5 0.29,1.69 0.29,2.11 0.29,-0.57 0.28,-2.72 0.29,-2.19 0.29,-1.19 0.29,-0.53 0.29,-0.18 0.28,-0.03 0.29,0.09 0.29,0.3 0.29,0.88 0.29,1.52 0.28,2.1 0.29,1.64 0.29,-0.56 0.29,-2.12 0.29,-1.79 0.28,-0.98 0.29,-0.18 0.29,0.05 0.29,1.02 0.29,2.06 0.28,4.94 0.29,7.66 0.29,7.23 0.29,-5.69 0.29,-8.14 0.28,-6.41 0.29,-2.43 0.29,-0.86 0.29,-0.31 0.29,-0.09 0.28,-0.02 0.29,0.08 0.29,0.17 0.29,0.39 0.29,0.18 0.28,-0.03 0.29,-0.28 0.29,-0.29 0.29,-0.2 0.29,-0.09 0.28,-0.03 0.29,0.01 0.29,0.06 0.29,0.18 0.29,0.47 0.28,1.04 0.29,1.72 0.29,1.33 0.29,0.19 0.29,-0.77 0.28,-1.25 0.29,-0.85 0.29,-0.13 0.29,0.75 0.28,2.75 0.29,5.14 0.29,14.24 0.29,15.9 0.29,-4.88 0.28,-17.16 0.29,-12.98 0.29,-4.34 0.29,-1.13 0.29,-0.29 0.28,-0.08 0.29,-0.02 0.29,0 0.29,-0.01 0.29,0 0.28,0.01 0.29,0 0.29,-0.01 0.29,0 0.29,-0.01 0.28,0 0.29,0 0.29,0 0.29,0 0.29,0 0.28,0 0.29,0 0.29,0 0.29,0 0.29,0.01 0.28,0 0.29,-0.01 0.29,0 0.29,0 0.29,0 0.28,0 0.29,0.01 0.29,0.01 0.29,0.03 0.29,0.11 0.28,0.27 0.29,0.38 0.29,0.41 0.29,0.21 0.29,0.24 0.28,0.08 0.29,0.37 0.29,1.95 0.29,6.73 0.29,19.43 0.28,42.12 0.29,-7.82 0.29,-37.43 0.29,-19.6 0.29,-5.77 0.28,-1.39 0.29,-0.28 0.29,-0.05 0.29,-0.01 0.29,0 0.28,0 0.29,0 0.29,0 0.29,0 0.29,0 0.28,0 0.29,0 0.29,0 0.29,0 0.29,0 0.28,0 0.29,0 0.29,0 0.29,0 0.28,0 0.29,0 0.29,0 0.29,0 0.29,0 0.28,0 0.29,0 0.29,0 0.29,0 0.29,0 0.28,0 0.29,0 0.29,0 0.29,0 0.29,0 0.28,0 0.29,0 0.29,0 0.29,0 0.29,0 0.28,0 0.29,0 0.29,0 0.29,0 0.29,0 0.28,0 0.29,0.01 0.29,0.02 0.29,0.01 0.29,0.01 0.28,0.01 0.29,0.02 0.29,0.04 0.29,0.19 0.29,0.92 0.28,5.09 0.29,23.67 0.29,55.94 0.29,-7.82 0.29,-50.34 0.28,-21.48 0.29,-5.11 0.29,-0.98 0.29,-0.16 0.29,-0.03 0.28,0 0.29,-0.01 0.29,0 0.29,0 0.29,0 0.28,0 0.29,0 0.29,0 0.29,0 0.29,0 0.28,0 0.29,0 0.29,0 0.29,0 0.29,0 0.28,0 0.29,0 0.29,0 0.29,0 0.29,0 0.28,0 0.29,0 0.29,0 0.29,0 0.29,0 0.28,0 0.29,0 0.29,0 0.29,0 0.28,0 0.29,0 0.29,0 0.29,0 0.29,0 0.28,0 0.29,0 0.29,0 0.29,0 0.29,0 0.28,0.01 0.29,0.01 0.29,0.04 0.29,0.06 0.29,0.07 0.28,0.06 0.29,0.04 0.29,0.11 0.29,0.35 0.29,1.1 0.28,4.23 0.29,20.58 0.29,63.42 0.29,4.49 0.29,-59.02 0.28,-28.29 0.29,-6.06 0.29,-1.04 0.29,-0.13 0.29,-0.02 0.28,-0.01 0.29,0 0.29,0 0.29,0 0.29,0 0.28,0 0.29,0 0.29,0 0.29,0 0.29,0 0.28,0 0.29,0 0.29,0 0.29,0 0.29,0 0.28,0 0.29,0 0.29,0 0.29,0 0.29,0 0.28,0 0.29,0 0.29,0 0.29,0 0.29,0 0.28,0 0.29,0 0.29,0 0.29,0 0.29,0 0.28,0 0.29,0 0.29,0 0.29,0 0.29,0 0.28,0 0.29,0 0.29,0 0.29,0 0.28,0 0.29,0 0.29,0 0.29,0 0.29,0 0.28,0 0.29,0 0.29,0 0.29,0 0.29,0 0.28,0 0.29,0 0.29,0 0.29,0.01 0.29,0.03 0.28,0.09 0.29,0.26 0.29,0.45 0.29,0.47 0.29,0.57 0.28,1.25 0.29,2.47 0.29,8.61 0.29,25.76 0.29,49.26 0.28,-11.57 0.29,-42.91 0.29,-25.07 0.29,-7.62 0.29,-1.67 0.28,-0.33 0.29,-0.05 0.29,-0.01 0.29,0 0.29,0 0.28,0 0.29,0 0.29,0 0.29,0 0.29,0 0.28,0 0.29,0 0.29,0 0.29,0 0.29,0 0.28,0 0.29,0 0.29,0 0.29,0 0.29,0 0.28,0 0.29,0 0.29,0 0.29,0 0.29,0 0.28,0 0.29,0 0.29,0 0.29,0 0.29,0 0.28,0 0.29,0 0.29,0 0.29,0 0.29,0 0.28,0 0.29,0 0.29,0 0.29,0 0.29,0 0.28,0 0.29,0 0.29,0 0.29,0 0.28,0 0.29,0 0.29,0 0.29,0 0.29,0 0.28,0 0.29,0 0.29,0 0.29,0 0.29,0 0.28,0.01 0.29,0.06 0.29,0.26 0.29,1.06 0.29,3.11 0.28,4.6 0.29,3.95 0.29,1.08 0.29,0.81 0.29,3.3 0.28,7.22 0.29,10.03 0.29,11.68 0.29,-6.85 0.29,-18.36 0.28,-13.92 0.29,-5.42 0.29,-1.95 0.29,-0.52 0.29,-0.12 0.28,-0.02 0.29,-0.01 0.29,0 0.29,0 0.29,0 0.28,0 0.29,0 0.29,0 0.29,0 0.29,0 0.28,0 0.29,0 0.29,0 0.29,0 0.29,0 0.28,0 0.29,0 0.29,0 0.29,0 0.29,0 0.28,0 0.29,0 0.29,0 0.29,0 0.29,0 0.28,0 0.29,0 0.29,0 0.29,0 0.29,0 0.28,0 0.29,0 0.29,0 0.29,0 0.29,0 0.28,0 0.29,0 0.29,0 0.29,0 0.29,0.01 0.28,0.01 0.29,0.05 0.29,0.22 0.29,0.76 0.28,1.43 0.29,1.92 0.29,1.05 0.29,0.34 0.29,0.64 0.28,1.64 0.29,5.66 0.29,17.83 0.29,22.34 0.29,5.73 0.28,-19.38 0.29,-25.13 0.29,-10.81 0.29,-3.42 0.29,-0.73 0.28,-0.13 0.29,-0.02 0.29,-0.01 0.29,0 0.29,0 0.28,0 0.29,0 0.29,0 0.29,0 0.29,0 0.28,0 0.29,0 0.29,0 0.29,0 0.29,0 0.28,0 0.29,0 0.29,0 0.29,0 0.29,0 0.28,0 0.29,0 0.29,0 0.29,0 0.29,0 0.28,0 0.29,0 0.29,0 0.29,0 0.29,0 0.28,0 0.29,0 0.29,0 0.29,0 0.29,0 0.28,0 0.29,0 0.29,0 0.29,0 0.29,0 0.28,0 0.29,0 0.29,0 0.29,0 0.29,0.01 0.28,0.01 0.29,0.01 0.29,0.01 0.29,0.01 0.29,0.01 0.28,0.04 0.29,0.16 0.29,0.65 0.29,4.33 0.28,23.71 0.29,62.87 0.29,-15.41 0.29,-49.59 0.29,-20.23 0.28,-5.38 0.29,-1 0.29,-0.16 0.29,-0.04 0.29,0 0.28,-0.01 0.29,0 0.29,0 0.29,0 0.29,0 0.28,0 0.29,0 0.29,0 0.29,0 0.29,0 0.28,0 0.29,0 0.29,0 0.29,0 0.29,0 0.28,0 0.29,0 0.29,0 0.29,0 0.29,0 0.28,0 0.29,0 0.29,0 0.29,0 0.29,0 0.28,0 0.29,0 0.29,0 0.29,0 0.29,0 0.28,0 0.29,0 0.29,0 0.29,0 0.29,0 0.28,0 0.29,0 0.29,0 0.29,0 0.29,0.01 0.28,0.03 0.29,0.04 0.29,0.05 0.29,0.04 0.29,0.03 0.28,0.06 0.29,0.22 0.29,0.6 0.29,2.45 0.29,11.37" /><path
           id="path46"
           style="fill:none;stroke:#00bfc4;stroke-width:0.85000002;stroke-linecap:butt;stroke-linejoin:round;stroke-miterlimit:1;stroke-dasharray:1.7, 1.7;stroke-dashoffset:0;stroke-opacity:1"
           d="m 66.83,47.59 0.28,2.59 0.29,1.68 0.29,-0.25 0.29,-1.49 0.29,-2.33 0.28,-1.59 0.29,-0.66 0.29,-0.23 0.29,-0.09 0.29,0.17 0.28,0.46 0.29,0.98 0.29,1.48 0.29,2.18 0.29,0.18 0.28,-1.48 0.29,-2.06 0.29,-1.21 0.29,-0.53 0.29,-0.17 0.28,-0.02 0.29,0.12 0.29,0.41 0.29,1.02 0.29,1.83 0.28,1.94 0.29,0.4 0.29,-1.03 0.29,-1.88 0.29,-1.49 0.28,-0.76 0.29,-0.28 0.29,-0.04 0.29,0.29 0.29,0.57 0.28,1.23 0.29,2.76 0.29,2.66 0.29,-0.12 0.29,-2.58 0.28,-2.3 0.29,-1.67 0.29,-0.67 0.29,-0.27 0.29,-0.03 0.28,0.12 0.29,0.43 0.29,1.01 0.29,1.57 0.29,1.95 0.28,0.55 0.29,-1.25 0.29,-2.13 0.29,-1.36 0.29,-0.55 0.28,-0.23 0.29,-0.01 0.29,0.14 0.29,0.49 0.28,1.28 0.29,1.97 0.29,1.88 0.29,0.78 0.29,-1.94 0.28,-2.49 0.29,-1.42 0.29,-0.63 0.29,-0.19 0.29,-0.11 0.28,0.08 0.29,0.29 0.29,0.84 0.29,1.12 0.29,1.03 0.28,0.42 0.29,-0.64 0.29,-1.25 0.29,-1.09 0.29,-0.52 0.28,-0.19 0.29,-0.02 0.29,0.18 0.29,0.48 0.29,1.39 0.28,2.87 0.29,2.93 0.29,0.86 0.29,-2.2 0.29,-2.53 0.28,-2.14 0.29,-1.16 0.29,-0.4 0.29,-0.06 0.29,0.22 0.28,0.62 0.29,1.36 0.29,1.74 0.29,1.96 0.29,-0.1 0.28,-2.1 0.29,-1.9 0.29,-1.09 0.29,-0.63 0.29,-0.31 0.28,-0.02 0.29,0.15 0.29,0.48 0.29,0.96 0.29,1.45 0.28,1.58 0.29,0.16 0.29,-1.08 0.29,-1.75 0.29,-1.12 0.28,-0.6 0.29,-0.16 0.29,-0.04 0.29,0.16 0.29,0.43 0.28,1.1 0.29,1.71 0.29,1.99 0.29,0.01 0.29,-1.3 0.28,-1.87 0.29,-1.3 0.29,-0.52 0.29,-0.25 0.28,0.02 0.29,0.26 0.29,0.72 0.29,1.55 0.29,2.71 0.28,2.48 0.29,0.53 0.29,-2.23 0.29,-2.9 0.29,-1.56 0.28,-1.07 0.29,-0.36 0.29,-0.07 0.29,0.19 0.29,0.67 0.28,0.96 0.29,1.55 0.29,1.41 0.29,0.29 0.29,-1.61 0.28,-1.75 0.29,-1.26 0.29,-0.51 0.29,-0.23 0.29,-0.07 0.28,0.11 0.29,0.34 0.29,0.77 0.29,1.33 0.29,1.15 0.28,0.15 0.29,-0.84 0.29,-1.33 0.29,-0.89 0.29,-0.38 0.28,-0.23 0.29,-0.03 0.29,0.19 0.29,0.55 0.29,1.52 0.28,2.95 0.29,2.71 0.29,0.85 0.29,-3.27 0.29,-2.73 0.28,-1.72 0.29,-0.72 0.29,-0.31 0.29,-0.02 0.29,0.16 0.28,0.4 0.29,0.98 0.29,1.55 0.29,1.22 0.29,0.37 0.28,-1.23 0.29,-1.74 0.29,-0.9 0.29,-0.57 0.29,-0.14 0.28,-0.01 0.29,0.24 0.29,0.62 0.29,1.11 0.29,1.71 0.28,2.97 0.29,0.04 0.29,-1.13 0.29,-2.33 0.29,-1.96 0.28,-0.86 0.29,-0.33 0.29,-0.02 0.29,0.1 0.28,0.62 0.29,1.32 0.29,2.43 0.29,1.75 0.29,0.58 0.28,-2.48 0.29,-2.34 0.29,-1.32 0.29,-0.59 0.29,-0.25 0.28,-0.06 0.29,0.1 0.29,0.31 0.29,0.78 0.29,1.27 0.28,1.01 0.29,0.27 0.29,-0.77 0.29,-1.39 0.29,-0.8 0.28,-0.47 0.29,-0.24 0.29,0.06 0.29,0.23 0.29,0.56 0.28,1.35 0.29,2.69 0.29,2.46 0.29,-0.22 0.29,-1.98 0.28,-2.24 0.29,-1.58 0.29,-0.71 0.29,-0.36 0.29,-0.02 0.28,0.24 0.29,0.57 0.29,1.34 0.29,2.52 0.29,2.72 0.28,0.28 0.29,-2.51 0.29,-2.64 0.29,-1.52 0.29,-0.84 0.28,-0.26 0.29,-0.07 0.29,0.15 0.29,0.48 0.29,1.09 0.28,1.97 0.29,1.96 0.29,-0.29 0.29,-1.61 0.29,-1.74 0.28,-1.32 0.29,-0.61 0.29,-0.21 0.29,0.01 0.29,0.13 0.28,0.45 0.29,0.96 0.29,1.41 0.29,2.05 0.29,-0.03 0.28,-1.6 0.29,-1.76 0.29,-0.91 0.29,-0.47 0.29,-0.21 0.28,-0.04 0.29,0.17 0.29,0.58 0.29,1.16 0.28,1.64 0.29,1.49 0.29,0.38 0.29,-0.86 0.29,-1.84 0.28,-1.35 0.29,-0.75 0.29,-0.27 0.29,-0.03 0.29,0.22 0.28,0.66 0.29,1.29 0.29,2.93 0.29,3.42 0.29,-0.68 0.28,-2.89 0.29,-2.46 0.29,-1.8 0.29,-0.68 0.29,-0.26 0.28,-0.07 0.29,0.1 0.29,0.28 0.29,0.82 0.29,1.3 0.28,1.02 0.29,0.16 0.29,-0.86 0.29,-1.37 0.29,-0.83 0.28,-0.43 0.29,-0.13 0.29,-0.03 0.29,0.1 0.29,0.32 0.28,0.9 0.29,1.74 0.29,2.05 0.29,0.47 0.29,-0.8 0.28,-2.06 0.29,-1.45 0.29,-0.71 0.29,-0.29 0.29,0.06 0.28,0.19 0.29,0.66 0.29,1.41 0.29,2.52 0.29,2.98 0.28,0.17 0.29,-2.47 0.29,-3.03 0.29,-1.53 0.29,-0.75 0.28,-0.33 0.29,-0.07 0.29,0.15 0.29,0.28 0.29,0.98 0.28,1.16 0.29,1.25 0.29,0.27 0.29,-1.14 0.29,-1.38 0.28,-1.02 0.29,-0.46 0.29,-0.18 0.29,-0.04 0.28,0.17 0.29,0.46 0.29,1.14 0.29,1.71 0.29,2.88 0.28,0.65 0.29,-1.47 0.29,-2.34 0.29,-1.7 0.29,-0.89 0.28,-0.34 0.29,0 0.29,0.28 0.29,0.71 0.29,1.45 0.28,2.23 0.29,1.83 0.29,0.08 0.29,-1.83 0.29,-2.41 0.28,-1.44 0.29,-0.73 0.29,-0.24 0.29,-0.08 0.29,0.18 0.28,0.4 0.29,1 0.29,1.73 0.29,1.62 0.29,-0.07 0.28,-1.64 0.29,-1.39 0.29,-1.03 0.29,-0.54 0.29,-0.3 0.28,0 0.29,0.18 0.29,0.41 0.29,0.97 0.29,1.7 0.28,2.06 0.29,-0.41 0.29,-1.17 0.29,-1.78 0.29,-0.95 0.28,-0.58 0.29,-0.24 0.29,-0.01 0.29,0.2 0.29,0.68 0.28,1.52 0.29,2.8 0.29,2.28 0.29,0.28 0.29,-1.48 0.28,-2.93 0.29,-2.05 0.29,-0.87 0.29,-0.31 0.29,-0.07 0.28,0.23 0.29,0.48 0.29,1.35 0.29,2.06 0.29,1.73 0.28,0.38 0.29,-1.86 0.29,-2.37 0.29,-1.42 0.29,-0.58 0.28,-0.27 0.29,-0.01 0.29,0.12 0.29,0.31 0.28,0.74 0.29,1.35 0.29,1.43 0.29,0.46 0.29,-1.03 0.28,-1.68 0.29,-1 0.29,-0.49 0.29,-0.16 0.29,0.01 0.28,0.15 0.29,0.5 0.29,1.1 0.29,1.77 0.29,2.51 0.28,0.29 0.29,-1.28 0.29,-2.24 0.29,-1.46 0.29,-0.72 0.28,-0.31 0.29,-0.09 0.29,0.18 0.29,0.65 0.29,1.48 0.28,2.59 0.29,1.96 0.29,0 0.29,-2.01 0.29,-2.6 0.28,-1.34 0.29,-0.75 0.29,-0.28 0.29,0 0.29,0.09 0.28,0.46 0.29,1.27 0.29,1.61 0.29,1.8 0.29,-0.32 0.28,-1.53 0.29,-1.76 0.29,-1.04 0.29,-0.58 0.29,-0.16 0.28,-0.02 0.29,0.16 0.29,0.34 0.29,0.96 0.29,1.8 0.28,1.55 0.29,0.68 0.29,-1.41 0.29,-1.52 0.29,-1.31 0.28,-0.69 0.29,-0.31 0.29,-0.01 0.29,0.22 0.29,0.56 0.28,1.44 0.29,2.38 0.29,2.96 0.29,0.53 0.29,-1.71 0.28,-2.71 0.29,-2.18 0.29,-1 0.29,-0.38 0.29,-0.04 0.28,0.04 0.29,0.51 0.29,1.03 0.29,2 0.28,1.09 0.29,-0.33 0.29,-1.57 0.29,-1.5 0.29,-0.99 0.28,-0.38 0.29,-0.24 0.29,-0.04 0.29,0.14 0.29,0.37 0.28,0.63 0.29,1.49 0.29,1.27 0.29,0.63 0.29,-0.88 0.28,-1.57 0.29,-1.05 0.29,-0.56 0.29,-0.19 0.29,0.06 0.28,0.24 0.29,0.52 0.29,1.2 0.29,2.68 0.29,2.81 0.28,0.58 0.29,-2.69 0.29,-2.47 0.29,-1.7 0.29,-0.73 0.28,-0.31 0.29,-0.04 0.29,0.15 0.29,0.67 0.29,1.34 0.28,2.23 0.29,2.74 0.29,0.14 0.29,-2.2 0.29,-2.37 0.28,-1.69 0.29,-0.94 0.29,-0.33 0.29,-0.12 0.29,0.11 0.28,0.25 0.29,0.69 0.29,1.23 0.29,0.86 0.29,0.3 0.28,-1.05 0.29,-1.15 0.29,-0.73 0.29,-0.36 0.29,-0.14 0.28,-0.01 0.29,0.13 0.29,0.38 0.29,0.99 0.29,1.92 0.28,1.77 0.29,1.27 0.29,-1.61 0.29,-2.19 0.29,-1.34 0.28,-0.69 0.29,-0.23 0.29,-0.03 0.29,0.25 0.28,0.71 0.29,1.44 0.29,2.1 0.29,2.37 0.29,-0.03 0.28,-1.93 0.29,-2.54 0.29,-1.61 0.29,-0.58 0.29,-0.28 0.28,-0.07 0.29,0.21 0.29,0.48 0.29,1.24 0.29,1.37 0.28,2.22 0.29,0.04 0.29,-1.55 0.29,-1.93 0.29,-1.46 0.28,-0.53 0.29,-0.21 0.29,0.01 0.29,0.15 0.29,0.41 0.28,0.85 0.29,1.65 0.29,2.12 0.29,0.86 0.29,-1.97 0.28,-1.6 0.29,-1.21 0.29,-0.74 0.29,-0.31 0.29,-0.02 0.28,0.14 0.29,0.49 0.29,1.1 0.29,1.72 0.29,1.63 0.28,0.16 0.29,-1.52 0.29,-1.73 0.29,-1.15 0.29,-0.66 0.28,-0.25 0.29,-0.04 0.29,0.19 0.29,0.64 0.29,1.16 0.28,2.38 0.29,2.76 0.29,0.95 0.29,-2.23 0.29,-3.01 0.28,-1.67 0.29,-0.77 0.29,-0.33 0.29,-0.07 0.29,0.1 0.28,0.48 0.29,0.96 0.29,1.65 0.29,1.23 0.29,-0.13 0.28,-1.1 0.29,-1.46 0.29,-1.1 0.29,-0.56 0.29,-0.16 0.28,-0.01 0.29,0.16 0.29,0.34 0.29,0.96 0.28,1.63 0.29,1.95 0.29,0.97 0.29,-1.2 0.29,-2.03 0.28,-1.52 0.29,-0.74 0.29,-0.28 0.29,-0.01 0.29,0.33 0.28,0.91 0.29,2.05 0.29,3.2 0.29,3.9 0.29,-0.89 0.28,-2.9 0.29,-3.57 0.29,-2.06 0.29,-0.69 0.29,-0.39 0.28,-0.09 0.29,0.11 0.29,0.32 0.29,0.75 0.29,0.94 0.28,0.89 0.29,0.03 0.29,-1.07 0.29,-1.03 0.29,-0.69 0.28,-0.31 0.29,-0.12 0.29,0.01 0.29,0.11 0.29,0.35 0.28,0.75 0.29,1.49 0.29,1.69 0.29,0.54 0.29,-1.16 0.28,-1.51 0.29,-1.19 0.29,-0.53 0.29,-0.18 0.29,0.03 0.28,0.44 0.29,1.17 0.29,2.79 0.29,4.02 0.29,2.66 0.28,-0.78 0.29,-3.5 0.29,-3.75 0.29,-2.05 0.29,-0.93 0.28,-0.3 0.29,-0.09 0.29,0.09 0.29,0.2 0.29,0.49 0.28,0.69 0.29,0.68 0.29,-0.14 0.29,-0.53 0.29,-0.86 0.28,-0.45 0.29,-0.22 0.29,-0.08 0.29,-0.01 0.28,0.09 0.29,0.34 0.29,0.79 0.29,1.53 0.29,2.27 0.28,0.73 0.29,-1.62 0.29,-1.65 0.29,-1.18 0.29,-0.58 0.28,-0.26 0.29,0 0.29,0.37 0.29,0.97 0.29,2.21 0.28,3.76 0.29,4.56 0.29,-1.19 0.29,-3.4 0.29,-3.91 0.28,-2.16 0.29,-0.92 0.29,-0.4 0.29,-0.08 0.29,0.09 0.28,0.37 0.29,0.94 0.29,1 0.29,1 0.29,-0.27 0.28,-0.82 0.29,-1.24 0.29,-0.7 0.29,-0.3 0.29,-0.22 0.28,0 0.29,0.07 0.29,0.35 0.29,0.74 0.29,1.26 0.28,1.21 0.29,0.75 0.29,-0.61 0.29,-1.3 0.29,-1.28 0.28,-0.61 0.29,-0.28 0.29,0.03 0.29,0.35 0.29,0.68 0.28,1.41 0.29,2.82 0.29,3.43 0.29,-0.16 0.29,-2.11 0.28,-2.94 0.29,-2.19 0.29,-0.92 0.29,-0.41 0.29,-0.05 0.28,0.16 0.29,0.35 0.29,0.99 0.29,1.38 0.29,1.69 0.28,0.41 0.29,-1.6 0.29,-1.6 0.29,-1.18 0.29,-0.58 0.28,-0.2 0.29,-0.04 0.29,0.19 0.29,0.52 0.28,1.16 0.29,1.61 0.29,2.06 0.29,0.57 0.29,-1.75 0.28,-1.83 0.29,-1.38 0.29,-0.66 0.29,-0.3 0.29,-0.01 0.28,0.13 0.29,0.4 0.29,0.91 0.29,1.79 0.29,1.54 0.28,0.55 0.29,-1.46 0.29,-1.56 0.29,-1.37 0.29,-0.56 0.28,-0.33 0.29,-0.02 0.29,0.17 0.29,0.42 0.29,1.16 0.28,1.68 0.29,1.77 0.29,0.26 0.29,-1.33 0.29,-1.88 0.28,-1.21 0.29,-0.72 0.29,-0.23 0.29,-0.06 0.29,0.18 0.28,0.68 0.29,1.38 0.29,2.03 0.29,2.56 0.29,0.52 0.28,-1.55 0.29,-2.89 0.29,-1.7 0.29,-0.9 0.29,-0.32 0.28,-0.06 0.29,0.16 0.29,0.42 0.29,0.99 0.29,1.51 0.28,1.7 0.29,0.14 0.29,-1.21 0.29,-1.83 0.29,-1.17 0.28,-0.57 0.29,-0.12 0.29,-0.05 0.29,0.17 0.29,0.47 0.28,1.16 0.29,2.01 0.29,2.24 0.29,0.72 0.29,-1.63 0.28,-2.56 0.29,-1.53 0.29,-0.7 0.29,-0.28 0.29,-0.08 0.28,0.19 0.29,0.52 0.29,0.9 0.29,1.91 0.28,1.86 0.29,0.31 0.29,-1.5 0.29,-1.92 0.29,-1.28 0.28,-0.7 0.29,-0.23 0.29,-0.06 0.29,0.08 0.29,0.4 0.28,0.72 0.29,1.19 0.29,1.57 0.29,0.35 0.29,-1.11 0.28,-1.16 0.29,-1.13 0.29,-0.5 0.29,-0.24 0.29,-0.01 0.28,0.22 0.29,0.72 0.29,1.82 0.29,2.73 0.29,3.06 0.28,0.38 0.29,-2.29 0.29,-3.51 0.29,-1.92 0.29,-0.84 0.28,-0.37 0.29,-0.14 0.29,0.08 0.29,0.38 0.29,0.97 0.28,1.7 0.29,1.48 0.29,1.01 0.29,-1.75 0.29,-1.85 0.28,-1.27 0.29,-0.63 0.29,-0.21 0.29,0.03 0.29,0.19 0.28,0.36 0.29,1.03 0.29,1.8 0.29,1.55 0.29,0.28 0.28,-1.3 0.29,-1.74 0.29,-1.16 0.29,-0.67 0.29,-0.2 0.28,0 0.29,0.2 0.29,0.46 0.29,1.06 0.29,2.01 0.28,2.3 0.29,-0.78 0.29,-1.5 0.29,-1.97 0.29,-1.07 0.28,-0.57 0.29,-0.26 0.29,0.03 0.29,0.29 0.28,0.57 0.29,1.29 0.29,2.36 0.29,3.03 0.29,0.36 0.28,-1.75 0.29,-2.81 0.29,-1.83 0.29,-0.9 0.29,-0.37 0.28,-0.09 0.29,0.12 0.29,0.4 0.29,0.82 0.29,1.72 0.28,2.39 0.29,0.45 0.29,-1.69 0.29,-1.89 0.29,-1.54 0.28,-0.55 0.29,-0.23 0.29,-0.03 0.29,0.15 0.29,0.55 0.28,0.87 0.29,1.51 0.29,0.98 0.29,0.12 0.29,-0.87 0.28,-1.57 0.29,-1.05 0.29,-0.61 0.29,-0.22 0.29,0.01 0.28,0.18 0.29,0.5 0.29,1.05 0.29,1.62 0.29,1.2 0.28,0.78 0.29,-1.49 0.29,-1.55 0.29,-1.31 0.29,-0.62 0.28,-0.26 0.29,-0.04 0.29,0.21 0.29,0.57 0.29,1.48 0.28,1.91 0.29,3.16 0.29,1.11 0.29,-2.07 0.29,-2.5 0.28,-1.91 0.29,-1.16 0.29,-0.42 0.29,-0.11 0.29,0.09 0.28,0.52 0.29,1.22 0.29,1.47 0.29,1.53 0.29,0.07 0.28,-1.8 0.29,-1.55 0.29,-1.18 0.29,-0.54 0.29,-0.21 0.28,-0.05 0.29,0.16 0.29,0.39 0.29,0.87 0.28,1.06 0.29,1.76 0.29,0.28 0.29,-1.09 0.29,-1.49 0.28,-1.21 0.29,-0.52 0.29,-0.19 0.29,0.04 0.29,0.19 0.28,0.59 0.29,1.34 0.29,2.56 0.29,2.51 0.29,-0.08 0.28,-1.33 0.29,-2.91 0.29,-1.61 0.29,-0.81 0.29,-0.36 0.28,-0.03 0.29,0.14 0.29,0.41 0.29,1.01 0.29,2.01 0.28,2.32 0.29,0.36 0.29,-2.14 0.29,-1.75 0.29,-1.42 0.28,-0.62 0.29,-0.26 0.29,-0.02 0.29,0.16 0.29,0.52 0.28,1.29 0.29,1.76 0.29,2.49 0.29,0.89 0.29,-1.98 0.28,-2.57 0.29,-1.65 0.29,-0.64 0.29,-0.24 0.29,-0.04 0.28,0.18 0.29,0.41 0.29,0.85 0.29,1.52 0.29,1.35 0.28,0.05 0.29,-1.45 0.29,-1.49 0.29,-0.88 0.29,-0.45 0.28,-0.21 0.29,-0.02 0.29,0.14 0.29,0.41 0.29,0.91 0.28,1.62 0.29,1.63 0.29,0.68 0.29,-1.02 0.29,-1.6 0.28,-1.38 0.29,-0.79 0.29,-0.21 0.29,-0.02 0.29,0.23 0.28,0.76 0.29,2.25 0.29,3.44 0.29,2.69 0.28,0.08 0.29,-3.65 0.29,-2.73 0.29,-1.77 0.29,-1.04 0.28,-0.36 0.29,-0.03 0.29,0.09 0.29,0.39 0.29,0.78 0.28,1.34 0.29,0.95 0.29,0.35 0.29,-1.13 0.29,-1.38 0.28,-1.03 0.29,-0.44 0.29,-0.18 0.29,-0.03 0.29,0.14 0.28,0.38 0.29,0.87 0.29,1.54 0.29,1.64 0.29,1.13 0.28,-1.66 0.29,-1.58 0.29,-1.14 0.29,-0.78 0.29,-0.23 0.28,-0.06 0.29,0.28 0.29,0.68 0.29,1.71 0.29,2.47 0.28,2.2 0.29,0.02 0.29,-1.47 0.29,-2.92 0.29,-1.8 0.28,-0.91 0.29,-0.25 0.29,-0.04 0.29,0.13 0.29,0.55 0.28,0.97 0.29,1.56 0.29,1.76 0.29,0.09 0.29,-1.53 0.28,-1.72 0.29,-1.27 0.29,-0.47 0.29,-0.21 0.29,-0.01 0.28,0.07 0.29,0.41 0.29,0.87 0.29,1.4 0.29,1.38 0.28,0.42 0.29,-1.07 0.29,-1.74 0.29,-1.01 0.29,-0.53 0.28,-0.16 0.29,-0.01 0.29,0.19 0.29,0.55 0.28,1.1 0.29,2.32 0.29,2.72 0.29,1.34 0.29,-1.97 0.28,-2.86 0.29,-1.57 0.29,-1.08 0.29,-0.41 0.29,-0.05 0.28,0.22 0.29,0.67 0.29,1.17 0.29,2.12 0.29,2.79 0.28,-0.05 0.29,-2.26 0.29,-2.5 0.29,-1.41 0.29,-0.71 0.28,-0.25 0.29,-0.06 0.29,0.11 0.29,0.29 0.29,0.61 0.28,0.91 0.29,1.51 0.29,0.08 0.29,-0.81 0.29,-1.43 0.28,-0.73 0.29,-0.42 0.29,-0.11 0.29,0.02 0.29,0.16 0.28,0.67 0.29,1.39 0.29,2.55 0.29,2.1 0.29,0.83 0.28,-2.54 0.29,-2.35 0.29,-1.74 0.29,-0.69 0.29,-0.27 0.28,-0.03 0.29,0.23 0.29,0.59 0.29,1.09 0.29,1.79 0.28,2.14 0.29,-0.5 0.29,-1.63 0.29,-1.84 0.29,-1.02 0.28,-0.65 0.29,-0.26 0.29,-0.02 0.29,0.14 0.29,0.44" /></g></g><g
       id="g48" /><g
       id="g50"><path
         id="path52"
         style="fill:none;stroke:#000000;stroke-width:1.05999994;stroke-linecap:butt;stroke-linejoin:round;stroke-miterlimit:10;stroke-dasharray:none;stroke-opacity:1"
         d="m 49.56,37.28 0,164.32" /></g><g
       id="g54"><text
         id="text56"
         style="font-variant:normal;font-weight:normal;font-size:10px;font-family:Helvetica;-inkscape-font-specification:Helvetica;writing-mode:lr-tb;fill:#000000;fill-opacity:1;fill-rule:nonzero;stroke:none"
         transform="matrix(1,0,0,-1,23.02,41.16)"><tspan
           id="tspan58"
           y="0"
           x="0 5.5599999 8.3400002 13.9">0.00</tspan></text>
<text
         id="text60"
         style="font-variant:normal;font-weight:normal;font-size:10px;font-family:Helvetica;-inkscape-font-specification:Helvetica;writing-mode:lr-tb;fill:#000000;fill-opacity:1;fill-rule:nonzero;stroke:none"
         transform="matrix(1,0,0,-1,23.02,90.79)"><tspan
           id="tspan62"
           y="0"
           x="0 5.5599999 8.3400002 13.9">0.02</tspan></text>
<text
         id="text64"
         style="font-variant:normal;font-weight:normal;font-size:10px;font-family:Helvetica;-inkscape-font-specification:Helvetica;writing-mode:lr-tb;fill:#000000;fill-opacity:1;fill-rule:nonzero;stroke:none"
         transform="matrix(1,0,0,-1,23.02,140.42)"><tspan
           id="tspan66"
           y="0"
           x="0 5.5599999 8.3400002 13.9">0.04</tspan></text>
<text
         id="text68"
         style="font-variant:normal;font-weight:normal;font-size:10px;font-family:Helvetica;-inkscape-font-specification:Helvetica;writing-mode:lr-tb;fill:#000000;fill-opacity:1;fill-rule:nonzero;stroke:none"
         transform="matrix(1,0,0,-1,23.02,190.04)"><tspan
           id="tspan70"
           y="0"
           x="0 5.5599999 8.3400002 13.9">0.06</tspan></text>
</g><g
       id="g72" /><g
       id="g74"><path
         id="path76"
         style="fill:none;stroke:#000000;stroke-width:1.05999994;stroke-linecap:butt;stroke-linejoin:round;stroke-miterlimit:10;stroke-dasharray:none;stroke-opacity:1"
         d="m 45.31,44.75 4.25,0" /><path
         id="path78"
         style="fill:none;stroke:#000000;stroke-width:1.05999994;stroke-linecap:butt;stroke-linejoin:round;stroke-miterlimit:10;stroke-dasharray:none;stroke-opacity:1"
         d="m 45.31,94.38 4.25,0" /><path
         id="path80"
         style="fill:none;stroke:#000000;stroke-width:1.05999994;stroke-linecap:butt;stroke-linejoin:round;stroke-miterlimit:10;stroke-dasharray:none;stroke-opacity:1"
         d="m 45.31,144.01 4.25,0" /><path
         id="path82"
         style="fill:none;stroke:#000000;stroke-width:1.05999994;stroke-linecap:butt;stroke-linejoin:round;stroke-miterlimit:10;stroke-dasharray:none;stroke-opacity:1"
         d="m 45.31,193.63 4.25,0" /></g><g
       id="g84" /><g
       id="g86" /><g
       id="g88" /><g
       id="g90" /><g
       id="g92"><path
         id="path94"
         style="fill:none;stroke:#000000;stroke-width:1.05999994;stroke-linecap:butt;stroke-linejoin:round;stroke-miterlimit:10;stroke-dasharray:none;stroke-opacity:1"
         d="m 49.56,37.28 379.81,0" /></g><g
       id="g96"><path
         id="path98"
         style="fill:none;stroke:#000000;stroke-width:1.05999994;stroke-linecap:butt;stroke-linejoin:round;stroke-miterlimit:10;stroke-dasharray:none;stroke-opacity:1"
         d="m 66.54,33.03 0,4.25" /><path
         id="path100"
         style="fill:none;stroke:#000000;stroke-width:1.05999994;stroke-linecap:butt;stroke-linejoin:round;stroke-miterlimit:10;stroke-dasharray:none;stroke-opacity:1"
         d="m 152.93,33.03 0,4.25" /><path
         id="path102"
         style="fill:none;stroke:#000000;stroke-width:1.05999994;stroke-linecap:butt;stroke-linejoin:round;stroke-miterlimit:10;stroke-dasharray:none;stroke-opacity:1"
         d="m 239.32,33.03 0,4.25" /><path
         id="path104"
         style="fill:none;stroke:#000000;stroke-width:1.05999994;stroke-linecap:butt;stroke-linejoin:round;stroke-miterlimit:10;stroke-dasharray:none;stroke-opacity:1"
         d="m 325.71,33.03 0,4.25" /><path
         id="path106"
         style="fill:none;stroke:#000000;stroke-width:1.05999994;stroke-linecap:butt;stroke-linejoin:round;stroke-miterlimit:10;stroke-dasharray:none;stroke-opacity:1"
         d="m 412.11,33.03 0,4.25" /></g><g
       id="g108" /><g
       id="g110"><text
         id="text112"
         style="font-variant:normal;font-weight:normal;font-size:10px;font-family:Helvetica;-inkscape-font-specification:Helvetica;writing-mode:lr-tb;fill:#000000;fill-opacity:1;fill-rule:nonzero;stroke:none"
         transform="matrix(1,0,0,-1,63.76,23.02)"><tspan
           id="tspan114"
           y="0"
           x="0">0</tspan></text>
<text
         id="text116"
         style="font-variant:normal;font-weight:normal;font-size:10px;font-family:Helvetica;-inkscape-font-specification:Helvetica;writing-mode:lr-tb;fill:#000000;fill-opacity:1;fill-rule:nonzero;stroke:none"
         transform="matrix(1,0,0,-1,147.37,23.02)"><tspan
           id="tspan118"
           y="0"
           x="0 5.5599999">25</tspan></text>
<text
         id="text120"
         style="font-variant:normal;font-weight:normal;font-size:10px;font-family:Helvetica;-inkscape-font-specification:Helvetica;writing-mode:lr-tb;fill:#000000;fill-opacity:1;fill-rule:nonzero;stroke:none"
         transform="matrix(1,0,0,-1,233.76,23.02)"><tspan
           id="tspan122"
           y="0"
           x="0 5.5599999">50</tspan></text>
<text
         id="text124"
         style="font-variant:normal;font-weight:normal;font-size:10px;font-family:Helvetica;-inkscape-font-specification:Helvetica;writing-mode:lr-tb;fill:#000000;fill-opacity:1;fill-rule:nonzero;stroke:none"
         transform="matrix(1,0,0,-1,320.15,23.02)"><tspan
           id="tspan126"
           y="0"
           x="0 5.5599999">75</tspan></text>
<text
         id="text128"
         style="font-variant:normal;font-weight:normal;font-size:10px;font-family:Helvetica;-inkscape-font-specification:Helvetica;writing-mode:lr-tb;fill:#000000;fill-opacity:1;fill-rule:nonzero;stroke:none"
         transform="matrix(1,0,0,-1,403.77,23.02)"><tspan
           id="tspan130"
           y="0"
           x="0 5.5599999 11.12">100</tspan></text>
</g><g
       id="g132" /><g
       id="g134" /><g
       id="g136" /><g
       id="g138" /><g
       id="g140"><text
         id="text142"
         style="font-variant:normal;font-weight:normal;font-size:12px;font-family:Helvetica;-inkscape-font-specification:Helvetica;writing-mode:lr-tb;fill:#000000;fill-opacity:1;fill-rule:nonzero;stroke:none"
         transform="matrix(1,0,0,-1,207.92,10.8)"><tspan
           id="tspan144"
           y="0"
           x="0 3.336 6 15.996 22.667999 26.004 30 35.759998 42.431999 49.104 53.099998 59.099998">time (years)</tspan></text>
</g><g
       id="g146" /><g
       id="g148"><text
         id="text150"
         style="font-variant:normal;font-weight:normal;font-size:12px;font-family:Helvetica;-inkscape-font-specification:Helvetica;writing-mode:lr-tb;fill:#000000;fill-opacity:1;fill-rule:nonzero;stroke:none"
         transform="matrix(0,1,1,0,19.42,71.42)"><tspan
           id="tspan152"
           y="0"
           x="0 9.9960003 16.667999 23.34 26.676001 33.348 36.012001 42.012001 45.348 48.012001 54.683998 60.683998 63.348 70.019997 76.692001 83.363998 89.363998">monthly incidence</tspan></text>
</g><g
       id="g154" /><g
       id="g156" /><g
       id="g158" /><g
       id="g160" /><g
       id="g162" /><g
       id="g164"><path
         id="path166"
         style="fill:#ffffff;fill-opacity:1;fill-rule:nonzero;stroke:none"
         d="m 439.4,95.75 40.16,0 0,47.38 -40.16,0 0,-47.38 z" /></g><g
       id="g168" /><g
       id="g170" /><g
       id="g172" /><g
       id="g174" /><g
       id="g176" /><g
       id="g178"><path
         id="path180"
         style="fill:none;stroke:#f8766d;stroke-width:0.85000002;stroke-linecap:butt;stroke-linejoin:round;stroke-miterlimit:10;stroke-dasharray:none;stroke-opacity:1"
         d="m 445.38,125.92 13.83,0" /></g><g
       id="g182" /><g
       id="g184" /><g
       id="g186" /><g
       id="g188"><path
         id="path190"
         style="fill:none;stroke:#00bfc4;stroke-width:0.85000002;stroke-linecap:butt;stroke-linejoin:round;stroke-miterlimit:10;stroke-dasharray:1.7, 1.7;stroke-dashoffset:0;stroke-opacity:1"
         d="m 445.38,108.64 13.83,0" /></g><g
       id="g192" /><g
       id="g194"><text
         id="text196"
         style="font-style:oblique;font-variant:normal;font-size:10px;font-family:Helvetica;-inkscape-font-specification:Helvetica-Oblique;writing-mode:lr-tb;fill:#000000;fill-opacity:1;fill-rule:nonzero;stroke:none"
         transform="matrix(1,0,0,-1,463.1,123.15)"><tspan
           id="tspan198"
           y="0"
           x="0">C</tspan></text>
<text
         id="text200"
         style="font-variant:normal;font-weight:normal;font-size:7px;font-family:Helvetica;-inkscape-font-specification:Helvetica;writing-mode:lr-tb;fill:#000000;fill-opacity:1;fill-rule:nonzero;stroke:none"
         transform="matrix(1,0,0,-1,471.42,121.32)"><tspan
           id="tspan202"
           y="0"
           x="0">1</tspan></text>
</g><g
       id="g204" /><g
       id="g206"><text
         id="text208"
         style="font-style:oblique;font-variant:normal;font-size:10px;font-family:Helvetica;-inkscape-font-specification:Helvetica-Oblique;writing-mode:lr-tb;fill:#000000;fill-opacity:1;fill-rule:nonzero;stroke:none"
         transform="matrix(1,0,0,-1,463.1,105.87)"><tspan
           id="tspan210"
           y="0"
           x="0">C</tspan></text>
<text
         id="text212"
         style="font-variant:normal;font-weight:normal;font-size:7px;font-family:Helvetica;-inkscape-font-specification:Helvetica;writing-mode:lr-tb;fill:#000000;fill-opacity:1;fill-rule:nonzero;stroke:none"
         transform="matrix(1,0,0,-1,471.42,104.04)"><tspan
           id="tspan214"
           y="0"
           x="0">2</tspan></text>
</g><g
       id="g216" /><g
       id="g218" /><g
       id="g220" /><g
       id="g222" /><g
       id="g224" /><g
       id="g226" /><g
       id="g228" /><g
       id="g230" /><g
       id="g232" /><g
       id="g234" /><g
       id="g236" /><g
       id="g238" /></g></svg>