<?xml version="1.0" encoding="UTF-8" standalone="no"?>
<svg
   xmlns:dc="http://purl.org/dc/elements/1.1/"
   xmlns:cc="http://creativecommons.org/ns#"
   xmlns:rdf="http://www.w3.org/1999/02/22-rdf-syntax-ns#"
   xmlns:svg="http://www.w3.org/2000/svg"
   xmlns="http://www.w3.org/2000/svg"
   viewBox="0 0 540 180"
   height="180"
   width="540"
   xml:space="preserve"
   version="1.1"
   id="svg2"><metadata
     id="metadata8"><rdf:RDF><cc:Work
         rdf:about=""><dc:format>image/svg+xml</dc:format><dc:type
           rdf:resource="http://purl.org/dc/dcmitype/StillImage" /></cc:Work></rdf:RDF></metadata><defs
     id="defs6"><clipPath
       id="clipPath44"
       clipPathUnits="userSpaceOnUse"><path
         id="path46"
         d="m 57.53,28.35 374.47,0 0,107.15 -374.47,0 0,-107.15 z" /></clipPath></defs><g
     transform="matrix(1.25,0,0,-1.25,0,180)"
     id="g10"><g
       id="g12" /><g
       id="g14" /><g
       id="g16" /><g
       id="g18" /><g
       id="g20" /><g
       id="g22" /><g
       id="g24" /><g
       id="g26" /><g
       id="g28" /><g
       id="g30" /><g
       id="g32" /><g
       id="g34" /><g
       id="g36" /><g
       id="g38" /><g
       id="g40"><g
         clip-path="url(#clipPath44)"
         id="g42"><path
           id="path48"
           style="fill:none;stroke:#f8766d;stroke-width:0.63999999;stroke-linecap:butt;stroke-linejoin:round;stroke-miterlimit:1;stroke-dasharray:none;stroke-opacity:1"
           d="m 74.55,66.25 0.28,32.98 0.29,23.64 0.28,-12.79 0.28,-32.99 0.29,-24.57 0.28,-11.25 0.28,-4.16 0.29,-1.45 0.28,-0.25 0.29,0.63 0.28,1.76 0.28,3.48 0.29,5.09 0.28,3.65 0.28,-0.78 0.29,-4.7 0.28,-4.56 0.29,-2.79 0.28,-1.26 0.28,-0.34 0.29,0.62 0.28,2.48 0.28,7.2 0.29,18.33 0.28,32.49 0.28,27.36 0.29,-11.93 0.28,-33.25 0.29,-25.11 0.28,-11.78 0.28,-4.44 0.29,-1.57 0.28,-0.23 0.28,0.67 0.29,2.03 0.28,4.02 0.29,5.85 0.28,4.33 0.28,-1 0.29,-5.31 0.28,-5.52 0.28,-3.29 0.29,-1.53 0.28,-0.35 0.29,0.64 0.28,2.43 0.28,6.92 0.29,16.7 0.28,29.4 0.28,23.07 0.29,-10.67 0.28,-28.95 0.28,-22.26 0.29,-10.9 0.28,-4.38 0.29,-1.5 0.28,-0.17 0.28,0.86 0.29,2.56 0.28,5.36 0.28,7.96 0.29,6.1 0.28,-1.39 0.29,-7.31 0.28,-7.05 0.28,-4.33 0.29,-1.96 0.28,-0.52 0.28,0.72 0.29,2.81 0.28,7.64 0.28,18.26 0.29,31.06 0.28,22.04 0.29,-13.43 0.28,-31.5 0.28,-22.64 0.29,-10.32 0.28,-3.94 0.28,-1.37 0.29,-0.24 0.28,0.62 0.29,1.78 0.28,3.63 0.28,5.25 0.29,3.83 0.28,-0.64 0.28,-4.64 0.29,-4.83 0.28,-3.01 0.28,-1.35 0.29,-0.24 0.28,0.74 0.29,2.65 0.28,7.72 0.28,18.93 0.29,33.91 0.28,25.17 0.28,-13.21 0.29,-33.87 0.28,-24.76 0.29,-11.49 0.28,-4.32 0.28,-1.52 0.29,-0.26 0.28,0.61 0.28,1.89 0.29,3.66 0.28,5.23 0.29,3.87 0.28,-1.02 0.28,-4.85 0.29,-4.83 0.28,-2.87 0.28,-1.32 0.29,-0.33 0.28,0.64 0.28,2.41 0.29,6.93 0.28,17.47 0.29,31.27 0.28,23.84 0.28,-10.64 0.29,-29.96 0.28,-23.61 0.28,-11.42 0.29,-4.6 0.28,-1.6 0.29,-0.22 0.28,0.92 0.28,2.48 0.29,5.13 0.28,7.67 0.28,6.25 0.29,-1.27 0.28,-7.36 0.28,-7.19 0.29,-4.19 0.28,-1.93 0.29,-0.53 0.28,0.53 0.28,2.3 0.29,6.58 0.28,15.79 0.28,26.73 0.29,20.25 0.28,-8.36 0.29,-26.32 0.28,-21.2 0.28,-10.27 0.29,-4.18 0.28,-1.43 0.28,-0.11 0.29,1.09 0.28,3.11 0.28,6.33 0.29,9.2 0.28,7.04 0.29,-1.72 0.28,-8.6 0.28,-8.38 0.29,-5.14 0.28,-2.33 0.28,-0.63 0.29,0.52 0.28,2.39 0.29,6.47 0.28,15.52 0.28,26.08 0.29,20.36 0.28,-9.08 0.28,-26.9 0.29,-20.72 0.28,-9.79 0.28,-3.89 0.29,-1.29 0.28,-0.12 0.29,0.93 0.28,2.48 0.28,5.04 0.29,7.99 0.28,6.43 0.28,-1.54 0.29,-7.35 0.28,-6.96 0.29,-4.25 0.28,-1.87 0.28,-0.51 0.29,0.69 0.28,2.71 0.28,7.78 0.29,18.27 0.28,30.84 0.29,20.73 0.28,-13.43 0.28,-29.89 0.29,-22.28 0.28,-10.32 0.28,-4.02 0.29,-1.41 0.28,-0.17 0.28,0.76 0.29,2.16 0.28,4.5 0.29,6.73 0.28,4.97 0.28,-0.79 0.29,-6.18 0.28,-6.15 0.28,-3.7 0.29,-1.71 0.28,-0.44 0.29,0.57 0.28,2.37 0.28,6.55 0.29,15.47 0.28,26.81 0.28,21.23 0.29,-7.74 0.28,-26.71 0.28,-21.5 0.29,-10.68 0.28,-4.27 0.29,-1.49 0.28,-0.09 0.28,1.12 0.29,2.99 0.28,6.51 0.28,9.51 0.29,7.89 0.28,-2.13 0.29,-8.81 0.28,-8.81 0.28,-5.15 0.29,-2.43 0.28,-0.65 0.28,0.65 0.29,2.5 0.28,7.1 0.28,16.43 0.29,26.83 0.28,19.88 0.29,-11.62 0.28,-26.92 0.28,-20.41 0.29,-9.88 0.28,-3.83 0.28,-1.29 0.29,-0.17 0.28,0.74 0.29,2.22 0.28,4.55 0.28,6.88 0.29,5.48 0.28,-1.2 0.28,-6.3 0.29,-6.09 0.28,-3.74 0.29,-1.75 0.28,-0.42 0.28,0.7 0.29,2.7 0.28,7.69 0.28,18.92 0.29,32.29 0.28,23.3 0.28,-13.09 0.29,-32.54 0.28,-23.85 0.29,-10.95 0.28,-4.13 0.28,-1.4 0.29,-0.21 0.28,0.6 0.28,1.82 0.29,3.7 0.28,5.41 0.29,4.11 0.28,-0.85 0.28,-4.82 0.29,-4.96 0.28,-3.07 0.28,-1.41 0.29,-0.3 0.28,0.67 0.28,2.72 0.29,7.73 0.28,19.24 0.29,33.71 0.28,23.72 0.28,-14.31 0.29,-33 0.28,-23.71 0.28,-11.06 0.29,-4.22 0.28,-1.4 0.29,-0.26 0.28,0.63 0.28,1.95 0.29,3.86 0.28,5.59 0.28,4.43 0.29,-1.19 0.28,-5.31 0.28,-5.01 0.29,-3.11 0.28,-1.44 0.29,-0.35 0.28,0.61 0.28,2.5 0.29,6.97 0.28,17.75 0.28,30.74 0.29,24.07 0.28,-10.19 0.29,-31.31 0.28,-23.59 0.28,-11.15 0.29,-4.35 0.28,-1.48 0.28,-0.18 0.29,0.92 0.28,2.55 0.28,5.31 0.29,7.58 0.28,5.96 0.29,-1.55 0.28,-7.2 0.28,-6.94 0.29,-4.24 0.28,-1.89 0.28,-0.55 0.29,0.56 0.28,2.26 0.29,6.4 0.28,15.48 0.28,25.08 0.29,18.79 0.28,-5.87 0.28,-25.49 0.29,-20.69 0.28,-10.48 0.29,-4.12 0.28,-1.44 0.28,-0.06 0.29,1.17 0.28,3.25 0.28,6.98 0.29,10.49 0.28,8.05 0.28,-2.7 0.29,-9.63 0.28,-9.15 0.29,-5.39 0.28,-2.42 0.28,-0.75 0.29,0.54 0.28,2.21 0.28,6.28 0.29,14.69 0.28,24.24 0.29,17.01 0.28,-8.83 0.28,-23.59 0.29,-18.24 0.28,-9.39 0.28,-3.73 0.29,-1.3 0.28,-0.04 0.28,1.06 0.29,3.08 0.28,6.44 0.29,9.93 0.28,7.83 0.28,-1.57 0.29,-8.89 0.28,-8.98 0.28,-5.31 0.29,-2.4 0.28,-0.73 0.29,0.65 0.28,2.68 0.28,7.45 0.29,17.91 0.28,28.42 0.28,17.8 0.29,-12.23 0.28,-28.63 0.28,-20.6 0.29,-9.39 0.28,-3.72 0.29,-1.27 0.28,-0.21 0.28,0.71 0.29,2.02 0.28,4.13 0.28,6.2 0.29,5 0.28,-0.91 0.29,-5.58 0.28,-5.59 0.28,-3.48 0.29,-1.53 0.28,-0.32 0.28,0.8 0.29,2.94 0.28,8.57 0.29,21.06 0.28,36.41 0.28,23.37 0.29,-17.4 0.28,-35.88 0.28,-24.7 0.29,-10.67 0.28,-3.87 0.28,-1.29 0.29,-0.26 0.28,0.47 0.29,1.4 0.28,2.73 0.28,4.08 0.29,2.97 0.28,-0.69 0.28,-3.67 0.29,-3.7 0.28,-2.34 0.29,-1.04 0.28,-0.22 0.28,0.54 0.29,2.06 0.28,5.96 0.28,15.52 0.29,29.89 0.28,25.89 0.28,-6.3 0.29,-28.37 0.28,-23.98 0.29,-12.56 0.28,-5.18 0.28,-1.77 0.29,-0.09 0.28,1.29 0.28,3.5 0.29,7.21 0.28,10.57 0.29,7.58 0.28,-3.39 0.28,-10.18 0.29,-9.26 0.28,-5.21 0.28,-2.26 0.29,-0.7 0.28,0.38 0.28,1.95 0.29,5.34 0.28,12.32 0.29,20.7 0.28,16.22 0.28,-4.4 0.29,-19.77 0.28,-17.45 0.28,-9.4 0.29,-3.89 0.28,-1.29 0.29,0.06 0.28,1.5 0.28,4.05 0.29,8.68 0.28,13.35 0.28,10.04 0.29,-3.47 0.28,-12.49 0.28,-11.44 0.29,-6.47 0.28,-2.91 0.29,-0.86 0.28,0.47 0.28,2.21 0.29,6.25 0.28,13.86 0.28,22.44 0.29,15.38 0.28,-8.6 0.29,-21.89 0.28,-17.29 0.28,-8.57 0.29,-3.59 0.28,-1.26 0.28,0.03 0.29,1.18 0.28,3.22 0.29,7.01 0.28,10.44 0.28,8.4 0.29,-1.58 0.28,-10.3 0.28,-9.38 0.29,-5.55 0.28,-2.41 0.28,-0.66 0.29,0.57 0.28,2.5 0.29,6.83 0.28,15.22 0.28,24.61 0.29,17.17 0.28,-9.43 0.28,-24.03 0.29,-19.22 0.28,-9.47 0.29,-3.77 0.28,-1.35 0.28,-0.07 0.29,1.1 0.28,3.01 0.28,6.39 0.29,9.55 0.28,7.65 0.28,-1.63 0.29,-8.86 0.28,-8.75 0.29,-5.17 0.28,-2.27 0.28,-0.65 0.29,0.63 0.28,2.56 0.28,7.22 0.29,17.05 0.28,26.74 0.29,19.25 0.28,-10.08 0.28,-27.77 0.29,-21.03 0.28,-10.01 0.28,-3.92 0.29,-1.28 0.28,-0.15 0.28,0.71 0.29,2.18 0.28,4.56 0.29,6.74 0.28,5.45 0.28,-0.92 0.29,-6.43 0.28,-6.07 0.28,-3.77 0.29,-1.72 0.28,-0.39 0.29,0.63 0.28,2.7 0.28,7.41 0.29,17.91 0.28,30.18 0.28,22.54 0.29,-11.89 0.28,-30.23 0.29,-22.4 0.28,-10.93 0.28,-4.32 0.29,-1.49 0.28,-0.19 0.28,0.84 0.29,2.42 0.28,4.87 0.28,7.26 0.29,5.54 0.28,-1.52 0.29,-6.56 0.28,-6.45 0.28,-3.93 0.29,-1.79 0.28,-0.44 0.28,0.69 0.29,2.59 0.28,7.43 0.29,17.83 0.28,29.29 0.28,21.85 0.29,-11.72 0.28,-31 0.28,-21.87 0.29,-10.23 0.28,-3.94 0.28,-1.38 0.29,-0.21 0.28,0.67 0.29,1.95 0.28,4.16 0.28,6.1 0.29,4.9 0.28,-0.21 0.28,-5.42 0.29,-5.76 0.28,-3.65 0.29,-1.68 0.28,-0.37 0.28,0.83 0.29,2.98 0.28,8.41 0.28,20.57 0.29,33.89 0.28,24.08 0.28,-15.89 0.29,-35.07 0.28,-24.12 0.29,-10.8 0.28,-4.03 0.28,-1.38 0.29,-0.26 0.28,0.5 0.28,1.61 0.29,3.31 0.28,4.72 0.29,3.68 0.28,-0.54 0.28,-4.33 0.29,-4.43 0.28,-2.78 0.28,-1.28 0.29,-0.27 0.28,0.62 0.28,2.39 0.29,6.95 0.28,17 0.29,29.57 0.28,22.14 0.28,-8.28 0.29,-29.59 0.28,-22.97 0.28,-11.22 0.29,-4.39 0.28,-1.49 0.29,-0.13 0.28,1.01 0.28,2.73 0.29,5.6 0.28,8.06 0.28,6.09 0.29,-1.43 0.28,-7.61 0.29,-7.39 0.28,-4.42 0.28,-2.02 0.29,-0.55 0.28,0.66 0.28,2.54 0.29,7.16 0.28,17.48 0.28,29.08 0.29,20.59 0.28,-11.52 0.29,-28.68 0.28,-21.71 0.28,-10.35 0.29,-4.1 0.28,-1.41 0.28,-0.17 0.29,0.79 0.28,2.32 0.29,4.72 0.28,6.63 0.28,5.32 0.29,-0.96 0.28,-6.25 0.28,-6.23 0.29,-3.84 0.28,-1.77 0.28,-0.46 0.29,0.63 0.28,2.62 0.29,7.2 0.28,17.11 0.28,30.53 0.29,21.63 0.28,-11.76 0.28,-29.46 0.29,-22.12 0.28,-10.75 0.29,-4.19 0.28,-1.45 0.28,-0.17 0.29,0.8 0.28,2.31 0.28,4.64 0.29,6.88 0.28,5.09 0.28,-1.01 0.29,-6.42 0.28,-6.26 0.29,-3.71 0.28,-1.75 0.28,-0.46 0.29,0.68 0.28,2.52 0.28,7.28 0.29,17.44 0.28,29.95 0.29,21.52 0.28,-10.87 0.28,-29.8 0.29,-22.27 0.28,-10.89 0.28,-4.2 0.29,-1.42 0.28,-0.19 0.29,0.76 0.28,2.25 0.28,4.63 0.29,6.48 0.28,5.26 0.28,-0.98 0.29,-5.96 0.28,-6.07 0.28,-3.81 0.29,-1.84 0.28,-0.44 0.29,0.66 0.28,2.67 0.28,7.58 0.29,18.81 0.28,32.92 0.28,24.85 0.29,-14.56 0.28,-33.19 0.29,-23.24 0.28,-11.22 0.28,-4.18 0.29,-1.4 0.28,-0.2 0.28,0.68 0.29,1.79 0.28,3.79 0.28,5.51 0.29,4.01 0.28,-1.09 0.29,-5.11 0.28,-4.96 0.28,-2.96 0.29,-1.35 0.28,-0.34 0.28,0.6 0.29,2.23 0.28,6.31 0.29,15.66 0.28,28.57 0.28,24.79 0.29,-7.33 0.28,-28.15 0.28,-23.6 0.29,-11.7 0.28,-4.66 0.28,-1.67 0.29,-0.14 0.28,1.16 0.29,3.06 0.28,6.33 0.28,9.2 0.29,6.58 0.28,-1.98 0.28,-8.52 0.29,-8.36 0.28,-4.85 0.29,-2.16 0.28,-0.68 0.28,0.49 0.29,2.2 0.28,5.97 0.28,14.43 0.29,23.74 0.28,19.03 0.28,-6.35 0.29,-23.84 0.28,-19.76 0.29,-10.04 0.28,-4.19 0.28,-1.42 0.29,-0.03 0.28,1.2 0.28,3.35 0.29,7.02 0.28,10.96 0.29,8.68 0.28,-1.99 0.28,-10.3 0.29,-9.84 0.28,-5.8 0.28,-2.56 0.29,-0.77 0.28,0.51 0.29,2.17 0.28,6.39 0.28,15.13 0.29,22.94 0.28,15.91 0.28,-9.08 0.29,-22.99 0.28,-17.85 0.28,-8.7 0.29,-3.58 0.28,-1.17 0.29,-0.01 0.28,1.03 0.28,3.01 0.29,6.17 0.28,10.32 0.28,8.35 0.29,-1.2 0.28,-9.06 0.29,-9.23 0.28,-5.55 0.28,-2.46 0.29,-0.76 0.28,0.7 0.28,2.9 0.29,7.94 0.28,18.81 0.28,29.81 0.29,18.07 0.28,-13.48 0.29,-29.92 0.28,-21.25 0.28,-9.7 0.29,-3.73 0.28,-1.3 0.28,-0.19 0.29,0.59 0.28,1.59 0.29,3.28 0.28,4.88 0.28,4.01 0.29,-0.53 0.28,-4.33 0.28,-4.7 0.29,-2.86 0.28,-1.31 0.28,-0.26 0.29,0.72 0.28,2.59 0.29,7.34 0.28,18.79 0.28,34.22 0.29,26.47 0.28,-10.66 0.28,-35.22 0.29,-25.72 0.28,-12.1 0.29,-4.64 0.28,-1.49 0.28,-0.25 0.29,0.65 0.28,1.93 0.28,3.94 0.29,5.6 0.28,4.33 0.29,-1.04 0.28,-5.37 0.28,-5.12 0.29,-3.16 0.28,-1.46 0.28,-0.38 0.29,0.59 0.28,2.25 0.28,6.42 0.29,16.13 0.28,28.24 0.29,23.25 0.28,-8.33 0.28,-28.66 0.29,-22.24 0.28,-11.11 0.28,-4.34 0.29,-1.49 0.28,-0.08 0.29,1.06 0.28,2.89 0.28,5.95 0.29,8.58 0.28,6.82 0.28,-1.8 0.29,-8.18 0.28,-7.92 0.28,-4.73 0.29,-2.06 0.28,-0.58 0.29,0.56 0.28,2.46 0.28,7.18 0.29,16.87 0.28,28.45 0.28,19.93 0.29,-11.29 0.28,-28.44 0.29,-20.92 0.28,-10.08 0.28,-3.81 0.29,-1.28 0.28,-0.18 0.28,0.8 0.29,2.17 0.28,4.74 0.28,6.9 0.29,5.69 0.28,-1.27 0.29,-6.32 0.28,-6.25 0.28,-3.81 0.29,-1.81 0.28,-0.44 0.28,0.64 0.29,2.62 0.28,7.32 0.29,18.2 0.28,31.32 0.28,23.19 0.29,-12.42 0.28,-31.66 0.28,-23.29 0.29,-10.71 0.28,-4.17 0.28,-1.37 0.29,-0.19 0.28,0.71 0.29,2.01 0.28,4.19 0.28,6.33 0.29,4.72 0.28,-1.05 0.28,-5.43 0.29,-5.68 0.28,-3.51 0.29,-1.57 0.28,-0.41 0.28,0.71 0.29,2.59 0.28,7.28 0.28,18.2 0.29,31.11 0.28,22.63 0.29,-12.69 0.28,-30.73 0.28,-22.64 0.29,-10.85 0.28,-4.18 0.28,-1.44 0.29,-0.2 0.28,0.74 0.28,2.16 0.29,4.54 0.28,6.56 0.29,5.19 0.28,-0.92 0.28,-6.28 0.29,-6.01 0.28,-3.68 0.28,-1.7 0.29,-0.38 0.28,0.65 0.29,2.53 0.28,7.21 0.28,17.8 0.29,29.88 0.28,22.11 0.28,-12.32 0.29,-29.35 0.28,-22.38 0.28,-10.59 0.29,-4.15 0.28,-1.44 0.29,-0.16 0.28,0.79 0.28,2.22 0.29,4.49 0.28,6.44 0.28,5.13 0.29,-0.66 0.28,-6.05 0.29,-6.02 0.28,-3.72 0.28,-1.78 0.29,-0.39 0.28,0.85 0.28,2.96 0.29,8.42 0.28,20.57 0.28,34.12 0.29,23 0.28,-15.74 0.29,-34.45 0.28,-24.13 0.28,-10.92 0.29,-4.01 0.28,-1.36 0.28,-0.27 0.29,0.48 0.28,1.44 0.29,2.95 0.28,4.23 0.28,3.18 0.29,-0.55 0.28,-3.98 0.28,-3.94 0.29,-2.46 0.28,-1.09 0.29,-0.24 0.28,0.58 0.28,2.05 0.29,6.15 0.28,16.02 0.28,30.21 0.29,26.88 0.28,-6.24 0.28,-30.75 0.29,-24.7 0.28,-12.28 0.29,-4.88 0.28,-1.66 0.28,-0.17 0.29,1.02 0.28,3.02 0.28,6.37 0.29,8.99 0.28,7.26 0.29,-2.06 0.28,-8.81 0.28,-8.34 0.29,-4.86 0.28,-2.22 0.28,-0.64 0.29,0.52 0.28,2.32 0.28,6.32 0.29,14.38 0.28,24.36 0.29,19.06 0.28,-8.48 0.28,-24.39 0.29,-19.36 0.28,-9.62 0.28,-3.81 0.29,-1.33 0.28,-0.07 0.29,1.07 0.28,2.91 0.28,6.38 0.29,9.75 0.28,7.39 0.28,-1.58 0.29,-8.73 0.28,-8.57 0.28,-5.12 0.29,-2.31 0.28,-0.7 0.29,0.63 0.28,2.62 0.28,7.48 0.29,17.7 0.28,28.4 0.28,19.3 0.29,-13.7 0.28,-27.78 0.29,-20.47 0.28,-9.81 0.28,-3.84 0.29,-1.33 0.28,-0.15 0.28,0.85 0.29,2.18 0.28,4.5 0.28,6.6 0.29,5.09 0.28,-1.17 0.29,-6.13 0.28,-5.98 0.28,-3.64 0.29,-1.65 0.28,-0.37 0.28,0.59 0.29,2.48 0.28,6.79 0.29,17.2 0.28,29.77 0.28,24.25 0.29,-11.23 0.28,-29.42 0.28,-23.33 0.29,-11.14 0.28,-4.31 0.29,-1.53 0.28,-0.12 0.28,0.91 0.29,2.47 0.28,5.06 0.28,7.38 0.29,5.5 0.28,-1.44 0.28,-6.77 0.29,-6.48 0.28,-4.01 0.29,-1.86 0.28,-0.52 0.28,0.67 0.29,2.67 0.28,7.86 0.28,18.81 0.29,30.36 0.28,20 0.29,-12.68 0.28,-30.33 0.28,-22.36 0.29,-10.31 0.28,-3.88 0.28,-1.38 0.29,-0.21 0.28,0.61 0.28,1.81 0.29,3.69 0.28,5.58 0.29,4.54 0.28,-0.69 0.28,-4.99 0.29,-5.04 0.28,-3.16 0.28,-1.4 0.29,-0.29 0.28,0.78 0.29,2.87 0.28,8.42 0.28,20.65 0.29,35.84 0.28,25.33 0.28,-16.61 0.29,-36.24 0.28,-24.84 0.28,-11.22 0.29,-4.08 0.28,-1.38 0.29,-0.24 0.28,0.51 0.28,1.56 0.29,3.16 0.28,4.42 0.28,3.33 0.29,-0.59 0.28,-4.16 0.29,-4.33 0.28,-2.56 0.28,-1.13 0.29,-0.27 0.28,0.56 0.28,2.17 0.29,6.21 0.28,15.28 0.29,29.26 0.28,26 0.28,-6.37 0.29,-29.54 0.28,-23.83 0.28,-12 0.29,-4.71 0.28,-1.61 0.28,-0.17 0.29,1.13 0.28,3.06 0.29,6.36 0.28,9.1 0.28,6.22 0.29,-2.51 0.28,-8.52 0.28,-8.01 0.29,-4.62 0.28,-2.05 0.29,-0.59 0.28,0.53 0.28,2.31 0.29,6.33 0.28,15.52 0.28,25.89 0.29,19.04 0.28,-8.43 0.28,-25.47 0.29,-20.11 0.28,-10.03 0.29,-4.01 0.28,-1.41 0.28,-0.09 0.29,1.07 0.28,2.91 0.28,6.23 0.29,9.48 0.28,7.01 0.29,-1.41 0.28,-8.78 0.28,-8.53 0.29,-4.97 0.28,-2.17 0.28,-0.66 0.29,0.56 0.28,2.48 0.28,6.94" /><path
           id="path50"
           style="fill:none;stroke:#00bfc4;stroke-width:0.63999999;stroke-linecap:butt;stroke-linejoin:round;stroke-miterlimit:1;stroke-dasharray:1.28, 1.28;stroke-dashoffset:0;stroke-opacity:1"
           d="m 74.55,47.51 0.28,9.97 0.29,7.38 0.28,-1.82 0.28,-9.25 0.29,-9 0.28,-5.41 0.28,-2.55 0.29,-0.88 0.28,0.13 0.29,1.24 0.28,3.24 0.28,6.47 0.29,9.23 0.28,7.23 0.28,-1.97 0.29,-9.11 0.28,-8.51 0.29,-5.08 0.28,-2.22 0.28,-0.8 0.29,0.2 0.28,1.22 0.28,3.17 0.29,6.51 0.28,9.91 0.28,7.34 0.29,-1.95 0.28,-8.86 0.29,-8.93 0.28,-5.27 0.28,-2.42 0.29,-0.84 0.28,0.17 0.28,1.26 0.29,3.29 0.28,6.66 0.29,9.71 0.28,7.36 0.28,-2.14 0.29,-8.83 0.28,-8.8 0.28,-5.32 0.29,-2.51 0.28,-0.84 0.29,0.13 0.28,1.33 0.28,3.29 0.29,6.8 0.28,9.64 0.28,6.83 0.29,-1.85 0.28,-8.74 0.28,-8.82 0.29,-5.32 0.28,-2.51 0.29,-0.83 0.28,0.1 0.28,1.22 0.29,3.05 0.28,6.07 0.28,8.76 0.29,6.97 0.28,-1.72 0.29,-8.1 0.28,-8.08 0.28,-5.05 0.29,-2.31 0.28,-0.8 0.28,0.17 0.29,1.3 0.28,3.35 0.28,6.61 0.29,9.48 0.28,7.27 0.29,-1.77 0.28,-8.72 0.28,-8.8 0.29,-5.49 0.28,-2.5 0.28,-0.83 0.29,0.21 0.28,1.32 0.29,3.43 0.28,6.85 0.28,9.94 0.29,6.92 0.28,-2.52 0.28,-9.05 0.29,-8.85 0.28,-5.22 0.28,-2.32 0.29,-0.78 0.28,0.15 0.29,1.25 0.28,3.27 0.28,6.45 0.29,9.43 0.28,6.78 0.28,-1.62 0.29,-8.63 0.28,-8.7 0.29,-5.26 0.28,-2.36 0.28,-0.83 0.29,0.16 0.28,1.27 0.28,3.22 0.29,6.51 0.28,9.67 0.29,6.86 0.28,-1.97 0.28,-8.77 0.29,-8.63 0.28,-5.21 0.28,-2.34 0.29,-0.82 0.28,0.16 0.28,1.23 0.29,3.21 0.28,6.56 0.29,9.75 0.28,6.92 0.28,-2.1 0.29,-8.52 0.28,-8.8 0.28,-5.17 0.29,-2.34 0.28,-0.79 0.29,0.2 0.28,1.32 0.28,3.51 0.29,6.83 0.28,9.79 0.28,7.85 0.29,-2.1 0.28,-9.33 0.28,-9.24 0.29,-5.48 0.28,-2.5 0.29,-0.88 0.28,0.16 0.28,1.26 0.29,3.16 0.28,6.34 0.28,9.4 0.29,7.37 0.28,-2.13 0.29,-9.09 0.28,-8.4 0.28,-5 0.29,-2.37 0.28,-0.83 0.28,0.15 0.29,1.2 0.28,3 0.28,6.12 0.29,9.45 0.28,7.24 0.29,-1.76 0.28,-8.43 0.28,-8.57 0.29,-5.16 0.28,-2.34 0.28,-0.81 0.29,0.2 0.28,1.33 0.29,3.46 0.28,7.05 0.28,10.03 0.29,7.39 0.28,-2.26 0.28,-9.33 0.29,-9.19 0.28,-5.29 0.28,-2.47 0.29,-0.87 0.28,0.18 0.29,1.3 0.28,3.29 0.28,6.74 0.29,9.91 0.28,7.12 0.28,-2.08 0.29,-9.19 0.28,-9.06 0.29,-5.16 0.28,-2.35 0.28,-0.83 0.29,0.12 0.28,1.17 0.28,3.02 0.29,6.35 0.28,8.78 0.29,6.22 0.28,-1.79 0.28,-8.42 0.29,-7.75 0.28,-4.67 0.28,-2.21 0.29,-0.74 0.28,0.23 0.28,1.34 0.29,3.42 0.28,7.25 0.29,10.54 0.28,8.26 0.28,-1.4 0.29,-9.71 0.28,-10.1 0.28,-5.84 0.29,-2.77 0.28,-0.91 0.29,0.21 0.28,1.38 0.28,3.32 0.29,6.61 0.28,9.39 0.28,6.72 0.29,-2.45 0.28,-8.74 0.28,-8.77 0.29,-5.11 0.28,-2.33 0.29,-0.76 0.28,0.11 0.28,1.11 0.29,2.87 0.28,5.67 0.28,8.58 0.29,6.75 0.28,-1.55 0.29,-8.01 0.28,-7.79 0.28,-4.69 0.29,-2.16 0.28,-0.76 0.28,0.2 0.29,1.27 0.28,3.29 0.28,6.66 0.29,10.07 0.28,7.25 0.29,-1.93 0.28,-9.06 0.28,-8.88 0.29,-5.3 0.28,-2.44 0.28,-0.85 0.29,0.23 0.28,1.44 0.29,3.55 0.28,7.07 0.28,10.36 0.29,7.57 0.28,-2.37 0.28,-9.59 0.29,-9.39 0.28,-5.56 0.29,-2.53 0.28,-0.89 0.28,0.15 0.29,1.29 0.28,3.19 0.28,6.32 0.29,9.39 0.28,7.38 0.28,-2.06 0.29,-9.14 0.28,-8.61 0.29,-4.99 0.28,-2.33 0.28,-0.83 0.29,0.15 0.28,1.2 0.28,3.05 0.29,6.06 0.28,8.58 0.29,7 0.28,-1.15 0.28,-8.27 0.29,-8.25 0.28,-4.98 0.28,-2.31 0.29,-0.8 0.28,0.21 0.28,1.39 0.29,3.5 0.28,7.28 0.29,10.59 0.28,7.73 0.28,-2.35 0.29,-9.8 0.28,-9.5 0.28,-5.58 0.29,-2.58 0.28,-0.9 0.29,0.15 0.28,1.25 0.28,3.13 0.29,6.38 0.28,9.02 0.28,6.76 0.29,-2.31 0.28,-8.34 0.28,-8.2 0.29,-5 0.28,-2.26 0.29,-0.77 0.28,0.14 0.28,1.23 0.29,3.21 0.28,6.42 0.28,9.3 0.29,6.74 0.28,-1.23 0.29,-8.65 0.28,-8.8 0.28,-5.17 0.29,-2.3 0.28,-0.81 0.28,0.17 0.29,1.27 0.28,3.24 0.28,6.94 0.29,10.09 0.28,7.43 0.29,-1.81 0.28,-9.32 0.28,-8.99 0.29,-5.48 0.28,-2.51 0.28,-0.87 0.29,0.14 0.28,1.24 0.29,3.3 0.28,6.67 0.28,9.71 0.29,6.77 0.28,-2.25 0.28,-9.17 0.29,-8.46 0.28,-5.05 0.29,-2.31 0.28,-0.8 0.28,0.16 0.29,1.26 0.28,3.23 0.28,6.26 0.29,9.12 0.28,7.13 0.28,-1.87 0.29,-8.36 0.28,-8.62 0.29,-5.08 0.28,-2.38 0.28,-0.76 0.29,0.16 0.28,1.28 0.28,3.52 0.29,7.19 0.28,10.34 0.29,7.93 0.28,-2.24 0.28,-9.92 0.29,-9.47 0.28,-5.4 0.28,-2.48 0.29,-0.87 0.28,0.14 0.28,1.3 0.29,3.15 0.28,6.31 0.29,8.72 0.28,6.35 0.28,-1.96 0.29,-8.21 0.28,-8.03 0.28,-4.92 0.29,-2.22 0.28,-0.75 0.29,0.21 0.28,1.34 0.28,3.53 0.29,7.24 0.28,9.87 0.28,7.74 0.29,-2.1 0.28,-9.4 0.28,-9.38 0.29,-5.51 0.28,-2.55 0.29,-0.89 0.28,0.16 0.28,1.24 0.29,3.2 0.28,6.45 0.28,9.55 0.29,6.88 0.28,-2.29 0.29,-8.77 0.28,-8.59 0.28,-4.94 0.29,-2.32 0.28,-0.77 0.28,0.16 0.29,1.21 0.28,3.12 0.29,6.34 0.28,9.64 0.28,7.89 0.29,-1.82 0.28,-9.06 0.28,-8.79 0.29,-5.24 0.28,-2.43 0.28,-0.81 0.29,0.22 0.28,1.33 0.29,3.45 0.28,7.06 0.28,9.74 0.29,7.23 0.28,-1.79 0.28,-9.44 0.29,-9.15 0.28,-5.38 0.29,-2.47 0.28,-0.83 0.28,0.17 0.29,1.23 0.28,3.11 0.28,6.27 0.29,9.3 0.28,6.75 0.28,-1.74 0.29,-8.79 0.28,-8.44 0.29,-4.93 0.28,-2.29 0.28,-0.78 0.29,0.2 0.28,1.31 0.28,3.3 0.29,6.58 0.28,9.21 0.29,7.26 0.28,-1.57 0.28,-8.94 0.29,-8.81 0.28,-5.14 0.28,-2.35 0.29,-0.82 0.28,0.2 0.28,1.41 0.29,3.46 0.28,7.29 0.29,10.16 0.28,7.57 0.28,-2.16 0.29,-9.4 0.28,-9.61 0.28,-5.51 0.29,-2.6 0.28,-0.93 0.29,0.1 0.28,1.19 0.28,3.03 0.29,5.84 0.28,8.83 0.28,6.28 0.29,-1.31 0.28,-8.26 0.28,-8.14 0.29,-4.76 0.28,-2.16 0.29,-0.77 0.28,0.16 0.28,1.22 0.29,3.17 0.28,6.33 0.28,8.96 0.29,6.82 0.28,-1.5 0.29,-8.36 0.28,-8.27 0.28,-5.12 0.29,-2.33 0.28,-0.8 0.28,0.18 0.29,1.45 0.28,3.63 0.29,7.27 0.28,10.7 0.28,7.98 0.29,-1.89 0.28,-10.5 0.28,-9.7 0.29,-5.81 0.28,-2.52 0.28,-0.86 0.29,0.16 0.28,1.22 0.29,3.15 0.28,6.08 0.28,8.54 0.29,6.24 0.28,-1.85 0.28,-8.31 0.29,-7.79 0.28,-4.71 0.29,-2.14 0.28,-0.75 0.28,0.16 0.29,1.3 0.28,3.32 0.28,6.6 0.29,9.53 0.28,6.56 0.28,-2.04 0.29,-8.74 0.28,-8.36 0.29,-5.11 0.28,-2.3 0.28,-0.79 0.29,0.18 0.28,1.23 0.28,3.28 0.29,6.63 0.28,9.45 0.29,7.47 0.28,-1.87 0.28,-8.71 0.29,-8.69 0.28,-5.44 0.28,-2.48 0.29,-0.86 0.28,0.2 0.28,1.42 0.29,3.53 0.28,7.06 0.29,10.27 0.28,7.44 0.28,-2.01 0.29,-9.75 0.28,-9.56 0.28,-5.57 0.29,-2.42 0.28,-0.85 0.29,0.14 0.28,1.14 0.28,3.1 0.29,6.17 0.28,8.91 0.28,6.37 0.29,-2.1 0.28,-8.1 0.29,-8.08 0.28,-4.77 0.28,-2.15 0.29,-0.75 0.28,0.19 0.28,1.23 0.29,3.28 0.28,6.41 0.28,9.4 0.29,7.16 0.28,-1.58 0.29,-8.73 0.28,-8.51 0.28,-5.26 0.29,-2.46 0.28,-0.79 0.28,0.18 0.29,1.37 0.28,3.56 0.29,7.01 0.28,10.49 0.28,7.63 0.29,-2.06 0.28,-9.97 0.28,-9.25 0.29,-5.57 0.28,-2.61 0.28,-0.9 0.29,0.12 0.28,1.17 0.29,3.08 0.28,6.33 0.28,9.24 0.29,6.59 0.28,-2.15 0.28,-8.31 0.29,-8.12 0.28,-5.01 0.29,-2.34 0.28,-0.8 0.28,0.13 0.29,1.23 0.28,3.07 0.28,6.2 0.29,8.97 0.28,6.77 0.28,-1.7 0.29,-8.57 0.28,-8.16 0.29,-4.89 0.28,-2.23 0.28,-0.78 0.29,0.18 0.28,1.26 0.28,3.29 0.29,6.94 0.28,10.26 0.29,7.01 0.28,-1.87 0.28,-8.96 0.29,-8.9 0.28,-5.44 0.28,-2.55 0.29,-0.88 0.28,0.21 0.28,1.4 0.29,3.67 0.28,7.25 0.29,10.78 0.28,8.19 0.28,-2.66 0.29,-10.13 0.28,-9.82 0.28,-5.59 0.29,-2.63 0.28,-0.91 0.29,0.14 0.28,1.18 0.28,3.03 0.29,5.87 0.28,8.41 0.28,5.58 0.29,-1.65 0.28,-7.68 0.29,-7.72 0.28,-4.63 0.28,-2.06 0.29,-0.72 0.28,0.19 0.28,1.24 0.29,3.17 0.28,6.57 0.28,9.86 0.29,7.46 0.28,-1.7 0.29,-9.08 0.28,-8.67 0.28,-5.36 0.29,-2.47 0.28,-0.88 0.28,0.2 0.29,1.41 0.28,3.47 0.29,6.99 0.28,10.22 0.28,7.36 0.29,-2.59 0.28,-9.49 0.28,-9.13 0.29,-5.32 0.28,-2.43 0.28,-0.81 0.29,0.14 0.28,1.26 0.29,3.14 0.28,6.32 0.28,8.67 0.29,6.52 0.28,-1.9 0.28,-8.2 0.29,-8.07 0.28,-4.9 0.29,-2.25 0.28,-0.74 0.28,0.23 0.29,1.36 0.28,3.42 0.28,6.89 0.29,9.86 0.28,7.43 0.28,-2.36 0.29,-8.94 0.28,-8.96 0.29,-5.46 0.28,-2.48 0.28,-0.84 0.29,0.18 0.28,1.41 0.28,3.47 0.29,7.06 0.28,9.64 0.29,7.28 0.28,-2.12 0.28,-9.51 0.29,-9.07 0.28,-5.32 0.28,-2.38 0.29,-0.82 0.28,0.16 0.29,1.26 0.28,3.2 0.28,6.39 0.29,9.51 0.28,6.65 0.28,-1.98 0.29,-9.02 0.28,-8.35 0.28,-4.89 0.29,-2.21 0.28,-0.72 0.29,0.15 0.28,1.31 0.28,3.2 0.29,6.45 0.28,9.58 0.28,6.86 0.29,-2.05 0.28,-8.93 0.29,-8.4 0.28,-5 0.28,-2.36 0.29,-0.8 0.28,0.17 0.28,1.25 0.29,3.39 0.28,6.6 0.28,10.35 0.29,7.12 0.28,-2.34 0.29,-8.9 0.28,-9 0.28,-5.28 0.29,-2.42 0.28,-0.83 0.28,0.15 0.29,1.25 0.28,3.29 0.29,6.71 0.28,9.77 0.28,7.23 0.29,-2.08 0.28,-9.14 0.28,-8.8 0.29,-5.21 0.28,-2.39 0.28,-0.82 0.29,0.2 0.28,1.41 0.29,3.41 0.28,6.67 0.28,9.65 0.29,6.92 0.28,-2.24 0.28,-9.15 0.29,-8.78 0.28,-5.09 0.29,-2.32 0.28,-0.79 0.28,0.18 0.29,1.21 0.28,3.13 0.28,6.04 0.29,8.74 0.28,6.42 0.28,-1.9 0.29,-8.26 0.28,-7.89 0.29,-4.74 0.28,-2.13 0.28,-0.76 0.29,0.17 0.28,1.31 0.28,3.3 0.29,6.66 0.28,9.9 0.29,7.44 0.28,-1.69 0.28,-9.06 0.29,-8.85 0.28,-5.4 0.28,-2.57 0.29,-0.87 0.28,0.23 0.29,1.37 0.28,3.59 0.28,7.2 0.29,10.64 0.28,7.79 0.28,-2.05 0.29,-10.41 0.28,-9.53 0.28,-5.57 0.29,-2.56 0.28,-0.92 0.29,0.08 0.28,1.21 0.28,3 0.29,5.88 0.28,8.32 0.28,6.08 0.29,-1.86 0.28,-7.81 0.29,-7.73 0.28,-4.64 0.28,-2.06 0.29,-0.7 0.28,0.18 0.28,1.3 0.29,3.26 0.28,6.58 0.28,9.99 0.29,7.13 0.28,-2.05 0.29,-9.04 0.28,-8.61 0.28,-5.25 0.29,-2.39 0.28,-0.81 0.28,0.18 0.29,1.39 0.28,3.62 0.29,6.92 0.28,10.35 0.28,7.63 0.29,-2.22 0.28,-9.92 0.28,-9.31 0.29,-5.46 0.28,-2.49 0.28,-0.87 0.29,0.13 0.28,1.15 0.29,2.93 0.28,6.04 0.28,8.75 0.29,6.86 0.28,-1.62 0.28,-8.42 0.29,-7.97 0.28,-4.86 0.29,-2.21 0.28,-0.78 0.28,0.24 0.29,1.33 0.28,3.5 0.28,6.96 0.29,10.43 0.28,8 0.29,-2.02 0.28,-9.8 0.28,-9.58 0.29,-5.52 0.28,-2.46 0.28,-0.85 0.29,0.13 0.28,1.24 0.28,3.19 0.29,6.41 0.28,9.5 0.29,7.09 0.28,-1.99 0.28,-8.57 0.29,-8.65 0.28,-5.22 0.28,-2.48 0.29,-0.84 0.28,0.07 0.29,1.16 0.28,2.96 0.28,6.17 0.29,8.64 0.28,6.53 0.28,-1.86 0.29,-7.99 0.28,-7.98 0.28,-4.84 0.29,-2.22 0.28,-0.76 0.29,0.2 0.28,1.35 0.28,3.44 0.29,6.85 0.28,10.1 0.28,7.58 0.29,-1.55 0.28,-9.63 0.29,-9.19 0.28,-5.46 0.28,-2.48 0.29,-0.86 0.28,0.13 0.28,1.34 0.29,3.41 0.28,6.68 0.28,10.19 0.29,7.06 0.28,-2.91 0.29,-9.29 0.28,-8.52 0.28,-5.16 0.29,-2.38 0.28,-0.85 0.28,0.11 0.29,1.22 0.28,3.04 0.29,6.24 0.28,9.21 0.28,6.89 0.29,-1.57 0.28,-8.48 0.28,-8.48 0.29,-5.04 0.28,-2.28 0.28,-0.79 0.29,0.21 0.28,1.31 0.29,3.34 0.28,6.71 0.28,9.5 0.29,7.12 0.28,-2.38 0.28,-8.76 0.29,-8.61 0.28,-5.13 0.29,-2.4 0.28,-0.79 0.28,0.14 0.29,1.28 0.28,3.38 0.28,6.68 0.29,9.79 0.28,6.74 0.29,-2.46 0.28,-9.03 0.28,-8.42 0.29,-5.12 0.28,-2.26 0.28,-0.82 0.29,0.12 0.28,1.23 0.28,3.25 0.29,6.48 0.28,9.58 0.29,7.51 0.28,-1.51 0.28,-8.98 0.29,-8.83 0.28,-5.37 0.28,-2.47 0.29,-0.87 0.28,0.22 0.29,1.45 0.28,3.54 0.28,7.05 0.29,10.32 0.28,7.91 0.28,-2.24 0.29,-10.34 0.28,-9.45 0.28,-5.42 0.29,-2.45 0.28,-0.82 0.29,0.14 0.28,1.15 0.28,2.96 0.29,6.1 0.28,8.79 0.28,6.14 0.29,-1.71 0.28,-7.88 0.29,-8.09 0.28,-4.75 0.28,-2.19 0.29,-0.74 0.28,0.21 0.28,1.23 0.29,3.01 0.28,6.22 0.28,9.24 0.29,7.13 0.28,-1.52 0.29,-8.55 0.28,-8.43 0.28,-5.05 0.29,-2.36 0.28,-0.8 0.28,0.21 0.29,1.44 0.28,3.68 0.29,7.47 0.28,11.1 0.28,8.22 0.29,-2.54 0.28,-10.69 0.28,-9.8 0.29,-5.72 0.28,-2.55 0.29,-0.93 0.28,0.09 0.28,1.19 0.29,3.01 0.28,6.04 0.28,9.13 0.29,6.24 0.28,-1.95 0.28,-8.19 0.29,-8.03 0.28,-4.79 0.29,-2.23 0.28,-0.75 0.28,0.2 0.29,1.19 0.28,3.09 0.28,6.34 0.29,9.54 0.28,7.07 0.29,-1.66 0.28,-8.88 0.28,-8.49 0.29,-5.01 0.28,-2.35 0.28,-0.77 0.29,0.22 0.28,1.43 0.28,3.63 0.29,7.39 0.28,10.6 0.29,7.47 0.28,-2.28 0.28,-10.07 0.29,-9.45 0.28,-5.56 0.28,-2.59 0.29,-0.87 0.28,0.13 0.29,1.21 0.28,3.03 0.28,5.93 0.29,8.67 0.28,6.93 0.28,-1.8 0.29,-8.49 0.28,-7.93 0.28,-4.84 0.29,-2.24 0.28,-0.79 0.29,0.15 0.28,1.19 0.28,3.17 0.29,6.44 0.28,9.27 0.28,7.4 0.29,-1.45 0.28,-8.64 0.29,-8.7 0.28,-5.27 0.28,-2.45 0.29,-0.81 0.28,0.23 0.28,1.39 0.29,3.67 0.28,7.17 0.28,10.71 0.29,7.37 0.28,-2.27 0.29,-9.69 0.28,-9.58 0.28,-5.64 0.29,-2.53 0.28,-0.87 0.28,0.12 0.29,1.28 0.28,3.17 0.29,6.41 0.28,9.01 0.28,6.09 0.29,-2.39 0.28,-8.43 0.28,-7.96 0.29,-4.79 0.28,-2.13 0.29,-0.72 0.28,0.11 0.28,1.1 0.29,2.98 0.28,6.07 0.28,8.49 0.29,7.47 0.28,-1.36 0.28,-8.12 0.29,-8.28 0.28,-4.96 0.29,-2.27 0.28,-0.74 0.28,0.24 0.29,1.46 0.28,3.86 0.28,8.04 0.29,11.83 0.28,9.18 0.29,-2.77 0.28,-11.18 0.28,-10.64 0.29,-6.32 0.28,-2.76 0.28,-1 0.29,0.09 0.28,1.12 0.28,2.97 0.29,6.05 0.28,8.19 0.29,5.73 0.28,-1.87 0.28,-7.92 0.29,-7.62 0.28,-4.47 0.28,-2.06 0.29,-0.74 0.28,0.13 0.29,1.1 0.28,2.84 0.28,5.86 0.29,8.69 0.28,6.74 0.28,-1.13 0.29,-7.8 0.28,-7.97 0.28,-4.95 0.29,-2.31 0.28,-0.78 0.29,0.19 0.28,1.38 0.28,3.58 0.29,7.19 0.28,10.53 0.28,7.71 0.29,-1.97 0.28,-9.61 0.29,-9.64 0.28,-5.77 0.28,-2.51 0.29,-0.9 0.28,0.16 0.28,1.37 0.29,3.48 0.28,6.63 0.29,9.73 0.28,6.89 0.28,-2.36 0.29,-9.23 0.28,-8.67 0.28,-5.08 0.29,-2.35 0.28,-0.81 0.28,0.16 0.29,1.23 0.28,3.29 0.29,6.63 0.28,9.38 0.28,7.17 0.29,-1.95 0.28,-9.05 0.28,-8.66 0.29,-5.14 0.28,-2.31 0.29,-0.82 0.28,0.16 0.28,1.18 0.29,3.07 0.28,6.4 0.28,8.99 0.29,7.17 0.28,-1.62 0.28,-8.93 0.29,-8.29 0.28,-4.99 0.29,-2.31 0.28,-0.82 0.28,0.2 0.29,1.28 0.28,3.24 0.28,6.84 0.29,10.17 0.28,7.18 0.29,-1.81 0.28,-9.42 0.28,-9.11 0.29,-5.27 0.28,-2.38 0.28,-0.86 0.29,0.14 0.28,1.27 0.28,3.17" /></g></g><g
       id="g52" /><g
       id="g54" /><g
       id="g56" /><g
       id="g58" /><g
       id="g60" /><g
       id="g62"><text
         id="text64"
         style="font-variant:normal;font-weight:normal;font-size:10px;font-family:Helvetica;-inkscape-font-specification:Helvetica;writing-mode:lr-tb;fill:#000000;fill-opacity:1;fill-rule:nonzero;stroke:none"
         transform="matrix(1,0,0,-1,27.13,29.63)"><tspan
           id="tspan66"
           y="0"
           x="0 5.5599999 8.3400002 13.9 19.459999">0.000</tspan></text>
<text
         id="text68"
         style="font-variant:normal;font-weight:normal;font-size:10px;font-family:Helvetica;-inkscape-font-specification:Helvetica;writing-mode:lr-tb;fill:#000000;fill-opacity:1;fill-rule:nonzero;stroke:none"
         transform="matrix(1,0,0,-1,27.13,49.11)"><tspan
           id="tspan70"
           y="0"
           x="0 5.5599999 8.3400002 13.9 19.459999">0.005</tspan></text>
<text
         id="text72"
         style="font-variant:normal;font-weight:normal;font-size:10px;font-family:Helvetica;-inkscape-font-specification:Helvetica;writing-mode:lr-tb;fill:#000000;fill-opacity:1;fill-rule:nonzero;stroke:none"
         transform="matrix(1,0,0,-1,27.13,68.59)"><tspan
           id="tspan74"
           y="0"
           x="0 5.5599999 8.3400002 13.9 19.459999">0.010</tspan></text>
<text
         id="text76"
         style="font-variant:normal;font-weight:normal;font-size:10px;font-family:Helvetica;-inkscape-font-specification:Helvetica;writing-mode:lr-tb;fill:#000000;fill-opacity:1;fill-rule:nonzero;stroke:none"
         transform="matrix(1,0,0,-1,27.13,88.07)"><tspan
           id="tspan78"
           y="0"
           x="0 5.5599999 8.3400002 13.9 19.459999">0.015</tspan></text>
<text
         id="text80"
         style="font-variant:normal;font-weight:normal;font-size:10px;font-family:Helvetica;-inkscape-font-specification:Helvetica;writing-mode:lr-tb;fill:#000000;fill-opacity:1;fill-rule:nonzero;stroke:none"
         transform="matrix(1,0,0,-1,27.13,107.55)"><tspan
           id="tspan82"
           y="0"
           x="0 5.5599999 8.3400002 13.9 19.459999">0.020</tspan></text>
<text
         id="text84"
         style="font-variant:normal;font-weight:normal;font-size:10px;font-family:Helvetica;-inkscape-font-specification:Helvetica;writing-mode:lr-tb;fill:#000000;fill-opacity:1;fill-rule:nonzero;stroke:none"
         transform="matrix(1,0,0,-1,27.13,127.04)"><tspan
           id="tspan86"
           y="0"
           x="0 5.5599999 8.3400002 13.9 19.459999">0.025</tspan></text>
</g><g
       id="g88" /><g
       id="g90" /><g
       id="g92"><path
         id="path94"
         style="fill:none;stroke:#000000;stroke-width:1.07000005;stroke-linecap:butt;stroke-linejoin:round;stroke-miterlimit:10;stroke-dasharray:none;stroke-opacity:1"
         d="m 54.54,33.22 2.99,0" /><path
         id="path96"
         style="fill:none;stroke:#000000;stroke-width:1.07000005;stroke-linecap:butt;stroke-linejoin:round;stroke-miterlimit:10;stroke-dasharray:none;stroke-opacity:1"
         d="m 54.54,52.7 2.99,0" /><path
         id="path98"
         style="fill:none;stroke:#000000;stroke-width:1.07000005;stroke-linecap:butt;stroke-linejoin:round;stroke-miterlimit:10;stroke-dasharray:none;stroke-opacity:1"
         d="m 54.54,72.18 2.99,0" /><path
         id="path100"
         style="fill:none;stroke:#000000;stroke-width:1.07000005;stroke-linecap:butt;stroke-linejoin:round;stroke-miterlimit:10;stroke-dasharray:none;stroke-opacity:1"
         d="m 54.54,91.66 2.99,0" /><path
         id="path102"
         style="fill:none;stroke:#000000;stroke-width:1.07000005;stroke-linecap:butt;stroke-linejoin:round;stroke-miterlimit:10;stroke-dasharray:none;stroke-opacity:1"
         d="m 54.54,111.14 2.99,0" /><path
         id="path104"
         style="fill:none;stroke:#000000;stroke-width:1.07000005;stroke-linecap:butt;stroke-linejoin:round;stroke-miterlimit:10;stroke-dasharray:none;stroke-opacity:1"
         d="m 54.54,130.63 2.99,0" /></g><g
       id="g106" /><g
       id="g108" /><g
       id="g110" /><g
       id="g112" /><g
       id="g114" /><g
       id="g116" /><g
       id="g118" /><g
       id="g120" /><g
       id="g122"><path
         id="path124"
         style="fill:none;stroke:#000000;stroke-width:1.07000005;stroke-linecap:butt;stroke-linejoin:round;stroke-miterlimit:10;stroke-dasharray:none;stroke-opacity:1"
         d="m 74.55,25.36 0,2.99" /><path
         id="path126"
         style="fill:none;stroke:#000000;stroke-width:1.07000005;stroke-linecap:butt;stroke-linejoin:round;stroke-miterlimit:10;stroke-dasharray:none;stroke-opacity:1"
         d="m 159.66,25.36 0,2.99" /><path
         id="path128"
         style="fill:none;stroke:#000000;stroke-width:1.07000005;stroke-linecap:butt;stroke-linejoin:round;stroke-miterlimit:10;stroke-dasharray:none;stroke-opacity:1"
         d="m 244.76,25.36 0,2.99" /><path
         id="path130"
         style="fill:none;stroke:#000000;stroke-width:1.07000005;stroke-linecap:butt;stroke-linejoin:round;stroke-miterlimit:10;stroke-dasharray:none;stroke-opacity:1"
         d="m 329.87,25.36 0,2.99" /><path
         id="path132"
         style="fill:none;stroke:#000000;stroke-width:1.07000005;stroke-linecap:butt;stroke-linejoin:round;stroke-miterlimit:10;stroke-dasharray:none;stroke-opacity:1"
         d="m 414.98,25.36 0,2.99" /></g><g
       id="g134" /><g
       id="g136"><text
         id="text138"
         style="font-variant:normal;font-weight:normal;font-size:10px;font-family:Helvetica;-inkscape-font-specification:Helvetica;writing-mode:lr-tb;fill:#000000;fill-opacity:1;fill-rule:nonzero;stroke:none"
         transform="matrix(1,0,0,-1,71.77,15.79)"><tspan
           id="tspan140"
           y="0"
           x="0">0</tspan></text>
<text
         id="text142"
         style="font-variant:normal;font-weight:normal;font-size:10px;font-family:Helvetica;-inkscape-font-specification:Helvetica;writing-mode:lr-tb;fill:#000000;fill-opacity:1;fill-rule:nonzero;stroke:none"
         transform="matrix(1,0,0,-1,154.1,15.79)"><tspan
           id="tspan144"
           y="0"
           x="0 5.5599999">25</tspan></text>
<text
         id="text146"
         style="font-variant:normal;font-weight:normal;font-size:10px;font-family:Helvetica;-inkscape-font-specification:Helvetica;writing-mode:lr-tb;fill:#000000;fill-opacity:1;fill-rule:nonzero;stroke:none"
         transform="matrix(1,0,0,-1,239.2,15.79)"><tspan
           id="tspan148"
           y="0"
           x="0 5.5599999">50</tspan></text>
<text
         id="text150"
         style="font-variant:normal;font-weight:normal;font-size:10px;font-family:Helvetica;-inkscape-font-specification:Helvetica;writing-mode:lr-tb;fill:#000000;fill-opacity:1;fill-rule:nonzero;stroke:none"
         transform="matrix(1,0,0,-1,324.31,15.79)"><tspan
           id="tspan152"
           y="0"
           x="0 5.5599999">75</tspan></text>
<text
         id="text154"
         style="font-variant:normal;font-weight:normal;font-size:10px;font-family:Helvetica;-inkscape-font-specification:Helvetica;writing-mode:lr-tb;fill:#000000;fill-opacity:1;fill-rule:nonzero;stroke:none"
         transform="matrix(1,0,0,-1,406.64,15.79)"><tspan
           id="tspan156"
           y="0"
           x="0 5.5599999 11.12">100</tspan></text>
</g><g
       id="g158" /><g
       id="g160" /><g
       id="g162" /><g
       id="g164" /><g
       id="g166" /><g
       id="g168"><text
         id="text170"
         style="font-variant:normal;font-weight:normal;font-size:12px;font-family:Helvetica;-inkscape-font-specification:Helvetica;writing-mode:lr-tb;fill:#000000;fill-opacity:1;fill-rule:nonzero;stroke:none"
         transform="matrix(1,0,0,-1,213.22,2.39)"><tspan
           id="tspan172"
           y="0"
           x="0 3.336 6 15.996 22.667999 26.004 30 35.759998 42.431999 49.104 53.099998 59.099998">time (years)</tspan></text>
</g><g
       id="g174" /><g
       id="g176" /><g
       id="g178"><text
         id="text180"
         style="font-variant:normal;font-weight:normal;font-size:12px;font-family:Helvetica;-inkscape-font-specification:Helvetica;writing-mode:lr-tb;fill:#000000;fill-opacity:1;fill-rule:nonzero;stroke:none"
         transform="matrix(0,1,1,0,22.35,33.9)"><tspan
           id="tspan182"
           y="0"
           x="0 9.9960003 16.667999 23.34 26.676001 33.348 36.012001 42.012001 45.348 48.012001 54.683998 60.683998 63.348 70.019997 76.692001 83.363998 89.363998">monthly incidence</tspan></text>
</g><g
       id="g184" /><g
       id="g186" /><g
       id="g188" /><g
       id="g190" /><g
       id="g192" /></g></svg>