<?xml version="1.0" encoding="UTF-8" standalone="no"?>
<svg
   xmlns:dc="http://purl.org/dc/elements/1.1/"
   xmlns:cc="http://creativecommons.org/ns#"
   xmlns:rdf="http://www.w3.org/1999/02/22-rdf-syntax-ns#"
   xmlns:svg="http://www.w3.org/2000/svg"
   xmlns="http://www.w3.org/2000/svg"
   viewBox="0 0 540 180"
   height="180"
   width="540"
   xml:space="preserve"
   version="1.1"
   id="svg2"><metadata
     id="metadata8"><rdf:RDF><cc:Work
         rdf:about=""><dc:format>image/svg+xml</dc:format><dc:type
           rdf:resource="http://purl.org/dc/dcmitype/StillImage" /></cc:Work></rdf:RDF></metadata><defs
     id="defs6"><clipPath
       id="clipPath44"
       clipPathUnits="userSpaceOnUse"><path
         id="path46"
         d="m 57.53,28.35 374.47,0 0,64.36 -374.47,0 0,-64.36 z" /></clipPath></defs><g
     transform="matrix(1.25,0,0,-1.25,0,180)"
     id="g10"><g
       id="g12" /><g
       id="g14" /><g
       id="g16" /><g
       id="g18" /><g
       id="g20" /><g
       id="g22" /><g
       id="g24" /><g
       id="g26" /><g
       id="g28" /><g
       id="g30" /><g
       id="g32" /><g
       id="g34" /><g
       id="g36" /><g
       id="g38" /><g
       id="g40"><g
         clip-path="url(#clipPath44)"
         id="g42"><path
           id="path48"
           style="fill:none;stroke:#f8766d;stroke-width:0.63999999;stroke-linecap:butt;stroke-linejoin:round;stroke-miterlimit:1;stroke-dasharray:none;stroke-opacity:1"
           d="m 74.55,51.12 0.28,19.8 0.29,14.2 0.28,-7.68 0.28,-19.82 0.29,-14.75 0.28,-6.76 0.28,-2.5 0.29,-0.87 0.28,-0.15 0.29,0.38 0.28,1.06 0.28,2.09 0.29,3.05 0.28,2.19 0.28,-0.46 0.29,-2.83 0.28,-2.73 0.29,-1.68 0.28,-0.76 0.28,-0.2 0.29,0.37 0.28,1.49 0.28,4.32 0.29,11.01 0.28,19.52 0.28,16.43 0.29,-7.16 0.28,-19.97 0.29,-15.09 0.28,-7.07 0.28,-2.67 0.29,-0.94 0.28,-0.14 0.28,0.4 0.29,1.22 0.28,2.42 0.29,3.51 0.28,2.6 0.28,-0.6 0.29,-3.19 0.28,-3.31 0.28,-1.98 0.29,-0.92 0.28,-0.21 0.29,0.39 0.28,1.45 0.28,4.16 0.29,10.03 0.28,17.66 0.28,13.86 0.29,-6.41 0.28,-17.39 0.28,-13.37 0.29,-6.55 0.28,-2.63 0.29,-0.9 0.28,-0.1 0.28,0.51 0.29,1.54 0.28,3.22 0.28,4.78 0.29,3.67 0.28,-0.84 0.29,-4.39 0.28,-4.23 0.28,-2.6 0.29,-1.18 0.28,-0.31 0.28,0.43 0.29,1.69 0.28,4.58 0.28,10.97 0.29,18.66 0.28,13.24 0.29,-8.07 0.28,-18.92 0.28,-13.6 0.29,-6.19 0.28,-2.37 0.28,-0.83 0.29,-0.14 0.28,0.37 0.29,1.07 0.28,2.18 0.28,3.15 0.29,2.31 0.28,-0.39 0.28,-2.79 0.29,-2.9 0.28,-1.81 0.28,-0.81 0.29,-0.14 0.28,0.45 0.29,1.58 0.28,4.64 0.28,11.37 0.29,20.37 0.28,15.12 0.28,-7.94 0.29,-20.34 0.28,-14.87 0.29,-6.9 0.28,-2.6 0.28,-0.91 0.29,-0.16 0.28,0.37 0.28,1.14 0.29,2.19 0.28,3.14 0.29,2.33 0.28,-0.61 0.28,-2.91 0.29,-2.91 0.28,-1.72 0.28,-0.79 0.29,-0.2 0.28,0.38 0.28,1.45 0.29,4.16 0.28,10.5 0.29,18.78 0.28,14.31 0.28,-6.39 0.29,-17.99 0.28,-14.18 0.28,-6.86 0.29,-2.76 0.28,-0.96 0.29,-0.14 0.28,0.56 0.28,1.49 0.29,3.08 0.28,4.6 0.28,3.76 0.29,-0.76 0.28,-4.43 0.28,-4.31 0.29,-2.52 0.28,-1.16 0.29,-0.32 0.28,0.32 0.28,1.38 0.29,3.96 0.28,9.48 0.28,16.05 0.29,12.17 0.28,-5.02 0.29,-15.82 0.28,-12.73 0.28,-6.17 0.29,-2.51 0.28,-0.85 0.28,-0.07 0.29,0.66 0.28,1.86 0.28,3.8 0.29,5.53 0.28,4.23 0.29,-1.04 0.28,-5.16 0.28,-5.03 0.29,-3.09 0.28,-1.4 0.28,-0.38 0.29,0.31 0.28,1.44 0.29,3.88 0.28,9.33 0.28,15.66 0.29,12.23 0.28,-5.46 0.28,-16.15 0.29,-12.45 0.28,-5.88 0.28,-2.33 0.29,-0.78 0.28,-0.07 0.29,0.56 0.28,1.49 0.28,3.03 0.29,4.79 0.28,3.87 0.28,-0.93 0.29,-4.41 0.28,-4.18 0.29,-2.56 0.28,-1.12 0.28,-0.31 0.29,0.42 0.28,1.62 0.28,4.68 0.29,10.97 0.28,18.53 0.29,12.45 0.28,-8.07 0.28,-17.95 0.29,-13.39 0.28,-6.19 0.28,-2.42 0.29,-0.84 0.28,-0.1 0.28,0.45 0.29,1.3 0.28,2.7 0.29,4.04 0.28,2.99 0.28,-0.48 0.29,-3.71 0.28,-3.69 0.28,-2.22 0.29,-1.03 0.28,-0.26 0.29,0.34 0.28,1.42 0.28,3.93 0.29,9.3 0.28,16.1 0.28,12.75 0.29,-4.65 0.28,-16.04 0.28,-12.91 0.29,-6.42 0.28,-2.57 0.29,-0.89 0.28,-0.05 0.28,0.67 0.29,1.79 0.28,3.91 0.28,5.72 0.29,4.73 0.28,-1.27 0.29,-5.29 0.28,-5.29 0.28,-3.1 0.29,-1.46 0.28,-0.39 0.28,0.39 0.29,1.5 0.28,4.27 0.28,9.86 0.29,16.12 0.28,11.94 0.29,-6.98 0.28,-16.17 0.28,-12.26 0.29,-5.93 0.28,-2.3 0.28,-0.78 0.29,-0.1 0.28,0.45 0.29,1.33 0.28,2.73 0.28,4.14 0.29,3.29 0.28,-0.73 0.28,-3.78 0.29,-3.65 0.28,-2.25 0.29,-1.06 0.28,-0.24 0.28,0.42 0.29,1.62 0.28,4.62 0.28,11.36 0.29,19.39 0.28,14 0.28,-7.86 0.29,-19.55 0.28,-14.33 0.29,-6.57 0.28,-2.48 0.28,-0.84 0.29,-0.13 0.28,0.36 0.28,1.1 0.29,2.22 0.28,3.25 0.29,2.47 0.28,-0.52 0.28,-2.89 0.29,-2.98 0.28,-1.84 0.28,-0.85 0.29,-0.18 0.28,0.4 0.28,1.64 0.29,4.64 0.28,11.56 0.29,20.24 0.28,14.25 0.28,-8.59 0.29,-19.83 0.28,-14.24 0.28,-6.64 0.29,-2.53 0.28,-0.85 0.29,-0.15 0.28,0.37 0.28,1.18 0.29,2.32 0.28,3.36 0.28,2.66 0.29,-0.72 0.28,-3.19 0.28,-3.01 0.29,-1.87 0.28,-0.86 0.29,-0.21 0.28,0.37 0.28,1.5 0.29,4.18 0.28,10.66 0.28,18.46 0.29,14.47 0.28,-6.13 0.29,-18.8 0.28,-14.17 0.28,-6.7 0.29,-2.61 0.28,-0.89 0.28,-0.11 0.29,0.55 0.28,1.54 0.28,3.19 0.29,4.55 0.28,3.58 0.29,-0.94 0.28,-4.32 0.28,-4.16 0.29,-2.55 0.28,-1.14 0.28,-0.32 0.29,0.33 0.28,1.36 0.29,3.84 0.28,9.3 0.28,15.06 0.29,11.28 0.28,-3.52 0.28,-15.31 0.29,-12.43 0.28,-6.29 0.29,-2.48 0.28,-0.86 0.28,-0.03 0.29,0.7 0.28,1.95 0.28,4.19 0.29,6.3 0.28,4.84 0.28,-1.62 0.29,-5.79 0.28,-5.49 0.29,-3.24 0.28,-1.45 0.28,-0.46 0.29,0.33 0.28,1.33 0.28,3.77 0.29,8.82 0.28,14.56 0.29,10.22 0.28,-5.31 0.28,-14.17 0.29,-10.95 0.28,-5.64 0.28,-2.24 0.29,-0.78 0.28,-0.03 0.28,0.64 0.29,1.85 0.28,3.87 0.29,5.96 0.28,4.71 0.28,-0.95 0.29,-5.34 0.28,-5.39 0.28,-3.19 0.29,-1.44 0.28,-0.44 0.29,0.39 0.28,1.61 0.28,4.47 0.29,10.76 0.28,17.07 0.28,10.69 0.29,-7.34 0.28,-17.2 0.28,-12.37 0.29,-5.64 0.28,-2.24 0.29,-0.76 0.28,-0.12 0.28,0.42 0.29,1.22 0.28,2.48 0.28,3.72 0.29,3.01 0.28,-0.55 0.29,-3.35 0.28,-3.36 0.28,-2.09 0.29,-0.92 0.28,-0.2 0.28,0.49 0.29,1.76 0.28,5.15 0.29,12.65 0.28,21.87 0.28,14.04 0.29,-10.45 0.28,-21.55 0.28,-14.84 0.29,-6.41 0.28,-2.32 0.28,-0.78 0.29,-0.16 0.28,0.28 0.29,0.85 0.28,1.64 0.28,2.45 0.29,1.78 0.28,-0.42 0.28,-2.2 0.29,-2.22 0.28,-1.4 0.29,-0.63 0.28,-0.13 0.28,0.32 0.29,1.24 0.28,3.58 0.28,9.32 0.29,17.96 0.28,15.54 0.28,-3.78 0.29,-17.04 0.28,-14.4 0.29,-7.55 0.28,-3.11 0.28,-1.06 0.29,-0.05 0.28,0.77 0.28,2.1 0.29,4.33 0.28,6.35 0.29,4.55 0.28,-2.03 0.28,-6.11 0.29,-5.57 0.28,-3.13 0.28,-1.35 0.29,-0.43 0.28,0.23 0.28,1.17 0.29,3.21 0.28,7.4 0.29,12.44 0.28,9.74 0.28,-2.65 0.29,-11.87 0.28,-10.48 0.28,-5.65 0.29,-2.33 0.28,-0.78 0.29,0.04 0.28,0.89 0.28,2.44 0.29,5.22 0.28,8.01 0.28,6.03 0.29,-2.08 0.28,-7.5 0.28,-6.88 0.29,-3.88 0.28,-1.75 0.29,-0.52 0.28,0.29 0.28,1.33 0.29,3.75 0.28,8.32 0.28,13.48 0.29,9.24 0.28,-5.16 0.29,-13.15 0.28,-10.39 0.28,-5.15 0.29,-2.16 0.28,-0.75 0.28,0.02 0.29,0.71 0.28,1.93 0.29,4.21 0.28,6.27 0.28,5.05 0.29,-0.95 0.28,-6.19 0.28,-5.63 0.29,-3.33 0.28,-1.45 0.28,-0.4 0.29,0.35 0.28,1.49 0.29,4.1 0.28,9.15 0.28,14.78 0.29,10.31 0.28,-5.66 0.28,-14.43 0.29,-11.55 0.28,-5.69 0.29,-2.26 0.28,-0.81 0.28,-0.04 0.29,0.66 0.28,1.81 0.28,3.83 0.29,5.74 0.28,4.59 0.28,-0.97 0.29,-5.32 0.28,-5.26 0.29,-3.11 0.28,-1.36 0.28,-0.39 0.29,0.38 0.28,1.54 0.28,4.33 0.29,10.24 0.28,16.06 0.29,11.56 0.28,-6.05 0.28,-16.68 0.29,-12.63 0.28,-6.01 0.28,-2.35 0.29,-0.78 0.28,-0.09 0.28,0.43 0.29,1.31 0.28,2.74 0.29,4.05 0.28,3.27 0.28,-0.55 0.29,-3.86 0.28,-3.65 0.28,-2.27 0.29,-1.03 0.28,-0.23 0.29,0.38 0.28,1.62 0.28,4.45 0.29,10.76 0.28,18.12 0.28,13.54 0.29,-7.14 0.28,-18.15 0.29,-13.46 0.28,-6.57 0.28,-2.59 0.29,-0.9 0.28,-0.11 0.28,0.51 0.29,1.45 0.28,2.93 0.28,4.35 0.29,3.33 0.28,-0.91 0.29,-3.94 0.28,-3.88 0.28,-2.35 0.29,-1.08 0.28,-0.26 0.28,0.41 0.29,1.55 0.28,4.47 0.29,10.71 0.28,17.59 0.28,13.13 0.29,-7.05 0.28,-18.62 0.28,-13.13 0.29,-6.15 0.28,-2.36 0.28,-0.83 0.29,-0.13 0.28,0.41 0.29,1.17 0.28,2.5 0.28,3.66 0.29,2.94 0.28,-0.13 0.28,-3.25 0.29,-3.46 0.28,-2.19 0.29,-1.01 0.28,-0.22 0.28,0.49 0.29,1.8 0.28,5.05 0.28,12.35 0.29,20.35 0.28,14.47 0.28,-9.55 0.29,-21.06 0.28,-14.48 0.29,-6.49 0.28,-2.43 0.28,-0.82 0.29,-0.16 0.28,0.3 0.28,0.97 0.29,1.99 0.28,2.83 0.29,2.21 0.28,-0.32 0.28,-2.6 0.29,-2.66 0.28,-1.67 0.28,-0.77 0.29,-0.16 0.28,0.37 0.28,1.43 0.29,4.18 0.28,10.21 0.29,17.76 0.28,13.3 0.28,-4.98 0.29,-17.77 0.28,-13.79 0.28,-6.74 0.29,-2.64 0.28,-0.9 0.29,-0.07 0.28,0.6 0.28,1.64 0.29,3.37 0.28,4.84 0.28,3.66 0.29,-0.86 0.28,-4.58 0.29,-4.43 0.28,-2.66 0.28,-1.21 0.29,-0.33 0.28,0.39 0.28,1.53 0.29,4.3 0.28,10.5 0.28,17.47 0.29,12.36 0.28,-6.92 0.29,-17.22 0.28,-13.04 0.28,-6.22 0.29,-2.46 0.28,-0.85 0.28,-0.1 0.29,0.48 0.28,1.39 0.29,2.83 0.28,3.99 0.28,3.19 0.29,-0.57 0.28,-3.76 0.28,-3.74 0.29,-2.31 0.28,-1.06 0.28,-0.28 0.29,0.38 0.28,1.57 0.29,4.33 0.28,10.27 0.28,18.34 0.29,12.99 0.28,-7.06 0.28,-17.69 0.29,-13.29 0.28,-6.46 0.29,-2.52 0.28,-0.86 0.28,-0.11 0.29,0.49 0.28,1.38 0.28,2.79 0.29,4.13 0.28,3.06 0.28,-0.61 0.29,-3.85 0.28,-3.76 0.29,-2.23 0.28,-1.05 0.28,-0.28 0.29,0.41 0.28,1.51 0.28,4.37 0.29,10.48 0.28,17.99 0.29,12.93 0.28,-6.54 0.28,-17.89 0.29,-13.38 0.28,-6.54 0.28,-2.52 0.29,-0.85 0.28,-0.12 0.29,0.46 0.28,1.35 0.28,2.78 0.29,3.89 0.28,3.16 0.28,-0.59 0.29,-3.58 0.28,-3.65 0.28,-2.28 0.29,-1.11 0.28,-0.26 0.29,0.39 0.28,1.61 0.28,4.55 0.29,11.3 0.28,19.77 0.28,14.93 0.29,-8.75 0.28,-19.94 0.29,-13.95 0.28,-6.74 0.28,-2.51 0.29,-0.84 0.28,-0.12 0.28,0.4 0.29,1.08 0.28,2.28 0.28,3.31 0.29,2.4 0.28,-0.65 0.29,-3.07 0.28,-2.98 0.28,-1.77 0.29,-0.81 0.28,-0.21 0.28,0.36 0.29,1.34 0.28,3.79 0.29,9.4 0.28,17.16 0.28,14.9 0.29,-4.41 0.28,-16.91 0.28,-14.17 0.29,-7.03 0.28,-2.8 0.28,-1 0.29,-0.09 0.28,0.7 0.29,1.84 0.28,3.8 0.28,5.53 0.29,3.95 0.28,-1.19 0.28,-5.11 0.29,-5.03 0.28,-2.91 0.29,-1.3 0.28,-0.4 0.28,0.29 0.29,1.32 0.28,3.59 0.28,8.66 0.29,14.26 0.28,11.43 0.28,-3.81 0.29,-14.32 0.28,-11.87 0.29,-6.03 0.28,-2.51 0.28,-0.86 0.29,-0.01 0.28,0.71 0.28,2.01 0.29,4.22 0.28,6.58 0.29,5.22 0.28,-1.19 0.28,-6.2 0.29,-5.9 0.28,-3.49 0.28,-1.53 0.29,-0.47 0.28,0.31 0.29,1.3 0.28,3.84 0.28,9.09 0.29,13.78 0.28,9.55 0.28,-5.45 0.29,-13.81 0.28,-10.72 0.28,-5.23 0.29,-2.15 0.28,-0.7 0.29,-0.01 0.28,0.63 0.28,1.8 0.29,3.71 0.28,6.2 0.28,5.01 0.29,-0.72 0.28,-5.44 0.29,-5.55 0.28,-3.33 0.28,-1.47 0.29,-0.46 0.28,0.42 0.28,1.74 0.29,4.77 0.28,11.29 0.28,17.91 0.29,10.85 0.28,-8.09 0.29,-17.97 0.28,-12.77 0.28,-5.82 0.29,-2.24 0.28,-0.78 0.28,-0.12 0.29,0.36 0.28,0.95 0.29,1.97 0.28,2.93 0.28,2.41 0.29,-0.32 0.28,-2.6 0.28,-2.82 0.29,-1.72 0.28,-0.79 0.28,-0.15 0.29,0.43 0.28,1.56 0.29,4.4 0.28,11.29 0.28,20.55 0.29,15.9 0.28,-6.4 0.28,-21.15 0.29,-15.45 0.28,-7.27 0.29,-2.79 0.28,-0.89 0.28,-0.15 0.29,0.39 0.28,1.16 0.28,2.36 0.29,3.37 0.28,2.6 0.29,-0.63 0.28,-3.22 0.28,-3.08 0.29,-1.89 0.28,-0.88 0.28,-0.23 0.29,0.36 0.28,1.34 0.28,3.86 0.29,9.69 0.28,16.96 0.29,13.96 0.28,-5 0.28,-17.21 0.29,-13.36 0.28,-6.67 0.28,-2.61 0.29,-0.89 0.28,-0.05 0.29,0.63 0.28,1.74 0.28,3.58 0.29,5.15 0.28,4.09 0.28,-1.08 0.29,-4.91 0.28,-4.75 0.28,-2.85 0.29,-1.24 0.28,-0.34 0.29,0.33 0.28,1.48 0.28,4.31 0.29,10.14 0.28,17.08 0.28,11.98 0.29,-6.79 0.28,-17.08 0.29,-12.56 0.28,-6.06 0.28,-2.28 0.29,-0.78 0.28,-0.11 0.28,0.49 0.29,1.3 0.28,2.85 0.28,4.14 0.29,3.42 0.28,-0.76 0.29,-3.8 0.28,-3.76 0.28,-2.28 0.29,-1.09 0.28,-0.26 0.28,0.38 0.29,1.58 0.28,4.39 0.29,10.93 0.28,18.81 0.28,13.93 0.29,-7.46 0.28,-19.01 0.28,-13.99 0.29,-6.43 0.28,-2.51 0.28,-0.82 0.29,-0.12 0.28,0.43 0.29,1.21 0.28,2.52 0.28,3.8 0.29,2.83 0.28,-0.63 0.28,-3.26 0.29,-3.41 0.28,-2.11 0.29,-0.94 0.28,-0.25 0.28,0.43 0.29,1.55 0.28,4.38 0.28,10.92 0.29,18.69 0.28,13.59 0.29,-7.62 0.28,-18.45 0.28,-13.6 0.29,-6.52 0.28,-2.51 0.28,-0.87 0.29,-0.12 0.28,0.45 0.28,1.3 0.29,2.72 0.28,3.94 0.29,3.12 0.28,-0.55 0.28,-3.77 0.29,-3.61 0.28,-2.22 0.28,-1.01 0.29,-0.23 0.28,0.39 0.29,1.52 0.28,4.33 0.28,10.69 0.29,17.94 0.28,13.28 0.28,-7.4 0.29,-17.62 0.28,-13.45 0.28,-6.36 0.29,-2.49 0.28,-0.86 0.29,-0.1 0.28,0.47 0.28,1.34 0.29,2.69 0.28,3.87 0.28,3.09 0.29,-0.4 0.28,-3.64 0.29,-3.61 0.28,-2.24 0.28,-1.06 0.29,-0.24 0.28,0.51 0.28,1.78 0.29,5.06 0.28,12.35 0.28,20.5 0.29,13.81 0.28,-9.45 0.29,-20.69 0.28,-14.5 0.28,-6.56 0.29,-2.41 0.28,-0.82 0.28,-0.16 0.29,0.29 0.28,0.87 0.29,1.77 0.28,2.54 0.28,1.91 0.29,-0.33 0.28,-2.39 0.28,-2.37 0.29,-1.47 0.28,-0.66 0.29,-0.14 0.28,0.34 0.28,1.24 0.29,3.69 0.28,9.62 0.28,18.15 0.29,16.14 0.28,-3.75 0.28,-18.47 0.29,-14.83 0.28,-7.38 0.29,-2.93 0.28,-1 0.28,-0.1 0.29,0.62 0.28,1.81 0.28,3.83 0.29,5.39 0.28,4.36 0.29,-1.23 0.28,-5.29 0.28,-5.01 0.29,-2.92 0.28,-1.34 0.28,-0.38 0.29,0.31 0.28,1.4 0.28,3.79 0.29,8.64 0.28,14.63 0.29,11.45 0.28,-5.1 0.28,-14.64 0.29,-11.63 0.28,-5.78 0.28,-2.29 0.29,-0.8 0.28,-0.04 0.29,0.65 0.28,1.74 0.28,3.84 0.29,5.85 0.28,4.44 0.28,-0.95 0.29,-5.25 0.28,-5.15 0.28,-3.07 0.29,-1.39 0.28,-0.42 0.29,0.38 0.28,1.58 0.28,4.49 0.29,10.63 0.28,17.06 0.28,11.59 0.29,-8.23 0.28,-16.68 0.29,-12.3 0.28,-5.89 0.28,-2.31 0.29,-0.79 0.28,-0.1 0.28,0.51 0.29,1.31 0.28,2.71 0.28,3.96 0.29,3.06 0.28,-0.7 0.29,-3.69 0.28,-3.59 0.28,-2.18 0.29,-0.99 0.28,-0.23 0.28,0.36 0.29,1.48 0.28,4.08 0.29,10.34 0.28,17.87 0.28,14.57 0.29,-6.74 0.28,-17.67 0.28,-14.02 0.29,-6.69 0.28,-2.59 0.29,-0.92 0.28,-0.07 0.28,0.55 0.29,1.48 0.28,3.04 0.28,4.43 0.29,3.31 0.28,-0.87 0.28,-4.06 0.29,-3.9 0.28,-2.41 0.29,-1.11 0.28,-0.32 0.28,0.41 0.29,1.61 0.28,4.71 0.28,11.3 0.29,18.24 0.28,12.01 0.29,-7.62 0.28,-18.22 0.28,-13.42 0.29,-6.2 0.28,-2.33 0.28,-0.83 0.29,-0.12 0.28,0.36 0.28,1.09 0.29,2.21 0.28,3.36 0.29,2.72 0.28,-0.41 0.28,-3 0.29,-3.02 0.28,-1.9 0.28,-0.84 0.29,-0.18 0.28,0.47 0.29,1.73 0.28,5.05 0.28,12.41 0.29,21.53 0.28,15.21 0.28,-9.98 0.29,-21.77 0.28,-14.91 0.28,-6.75 0.29,-2.45 0.28,-0.83 0.29,-0.14 0.28,0.31 0.28,0.93 0.29,1.9 0.28,2.66 0.28,2 0.29,-0.36 0.28,-2.49 0.29,-2.61 0.28,-1.53 0.28,-0.68 0.29,-0.17 0.28,0.34 0.28,1.3 0.29,3.74 0.28,9.17 0.29,17.58 0.28,15.62 0.28,-3.83 0.29,-17.75 0.28,-14.31 0.28,-7.21 0.29,-2.83 0.28,-0.96 0.28,-0.1 0.29,0.68 0.28,1.84 0.29,3.81 0.28,5.47 0.28,3.74 0.29,-1.51 0.28,-5.12 0.28,-4.81 0.29,-2.77 0.28,-1.24 0.29,-0.35 0.28,0.32 0.28,1.38 0.29,3.81 0.28,9.32 0.28,15.55 0.29,11.44 0.28,-5.07 0.28,-15.3 0.29,-12.07 0.28,-6.03 0.29,-2.41 0.28,-0.84 0.28,-0.06 0.29,0.65 0.28,1.74 0.28,3.74 0.29,5.7 0.28,4.21 0.29,-0.85 0.28,-5.27 0.28,-5.12 0.29,-2.99 0.28,-1.3 0.28,-0.4 0.29,0.34 0.28,1.48 0.28,4.17" /><path
           id="path50"
           style="fill:none;stroke:#00bfc4;stroke-width:0.63999999;stroke-linecap:butt;stroke-linejoin:round;stroke-miterlimit:1;stroke-dasharray:1.28, 1.28;stroke-dashoffset:0;stroke-opacity:1"
           d="m 74.55,39.86 0.28,5.99 0.29,4.43 0.28,-1.09 0.28,-5.56 0.29,-5.4 0.28,-3.26 0.28,-1.52 0.29,-0.53 0.28,0.07 0.29,0.75 0.28,1.94 0.28,3.89 0.29,5.54 0.28,4.34 0.28,-1.18 0.29,-5.47 0.28,-5.11 0.29,-3.05 0.28,-1.34 0.28,-0.47 0.29,0.11 0.28,0.74 0.28,1.9 0.29,3.91 0.28,5.95 0.28,4.41 0.29,-1.17 0.28,-5.32 0.29,-5.37 0.28,-3.16 0.28,-1.45 0.29,-0.51 0.28,0.11 0.28,0.75 0.29,1.98 0.28,4 0.29,5.83 0.28,4.42 0.28,-1.29 0.29,-5.3 0.28,-5.28 0.28,-3.2 0.29,-1.51 0.28,-0.5 0.29,0.08 0.28,0.79 0.28,1.98 0.29,4.08 0.28,5.8 0.28,4.1 0.29,-1.11 0.28,-5.25 0.28,-5.3 0.29,-3.2 0.28,-1.5 0.29,-0.5 0.28,0.06 0.28,0.73 0.29,1.83 0.28,3.65 0.28,5.26 0.29,4.18 0.28,-1.02 0.29,-4.87 0.28,-4.85 0.28,-3.04 0.29,-1.38 0.28,-0.48 0.28,0.09 0.29,0.79 0.28,2.01 0.28,3.97 0.29,5.69 0.28,4.37 0.29,-1.07 0.28,-5.23 0.28,-5.28 0.29,-3.3 0.28,-1.5 0.28,-0.5 0.29,0.12 0.28,0.8 0.29,2.05 0.28,4.12 0.28,5.97 0.29,4.15 0.28,-1.51 0.28,-5.43 0.29,-5.32 0.28,-3.13 0.28,-1.39 0.29,-0.48 0.28,0.1 0.29,0.74 0.28,1.97 0.28,3.87 0.29,5.67 0.28,4.07 0.28,-0.97 0.29,-5.19 0.28,-5.22 0.29,-3.16 0.28,-1.42 0.28,-0.5 0.29,0.1 0.28,0.76 0.28,1.94 0.29,3.91 0.28,5.8 0.29,4.12 0.28,-1.18 0.28,-5.27 0.29,-5.18 0.28,-3.13 0.28,-1.4 0.29,-0.5 0.28,0.1 0.28,0.74 0.29,1.93 0.28,3.94 0.29,5.85 0.28,4.16 0.28,-1.26 0.29,-5.12 0.28,-5.29 0.28,-3.1 0.29,-1.41 0.28,-0.47 0.29,0.12 0.28,0.79 0.28,2.11 0.29,4.1 0.28,5.88 0.28,4.72 0.29,-1.27 0.28,-5.6 0.28,-5.55 0.29,-3.29 0.28,-1.5 0.29,-0.53 0.28,0.1 0.28,0.75 0.29,1.9 0.28,3.81 0.28,5.65 0.29,4.42 0.28,-1.28 0.29,-5.46 0.28,-5.04 0.28,-3.01 0.29,-1.42 0.28,-0.5 0.28,0.09 0.29,0.72 0.28,1.8 0.28,3.68 0.29,5.67 0.28,4.35 0.29,-1.05 0.28,-5.07 0.28,-5.14 0.29,-3.1 0.28,-1.41 0.28,-0.49 0.29,0.13 0.28,0.8 0.29,2.07 0.28,4.24 0.28,6.02 0.29,4.44 0.28,-1.36 0.28,-5.6 0.29,-5.52 0.28,-3.18 0.28,-1.48 0.29,-0.52 0.28,0.1 0.29,0.78 0.28,1.98 0.28,4.05 0.29,5.95 0.28,4.28 0.28,-1.25 0.29,-5.52 0.28,-5.44 0.29,-3.1 0.28,-1.42 0.28,-0.49 0.29,0.07 0.28,0.7 0.28,1.82 0.29,3.81 0.28,5.27 0.29,3.74 0.28,-1.08 0.28,-5.05 0.29,-4.66 0.28,-2.8 0.28,-1.33 0.29,-0.44 0.28,0.14 0.28,0.8 0.29,2.05 0.28,4.36 0.29,6.33 0.28,4.96 0.28,-0.84 0.29,-5.83 0.28,-6.07 0.28,-3.51 0.29,-1.66 0.28,-0.55 0.29,0.13 0.28,0.83 0.28,1.99 0.29,3.97 0.28,5.64 0.28,4.04 0.29,-1.47 0.28,-5.25 0.28,-5.27 0.29,-3.07 0.28,-1.4 0.29,-0.46 0.28,0.07 0.28,0.66 0.29,1.73 0.28,3.41 0.28,5.15 0.29,4.05 0.28,-0.93 0.29,-4.81 0.28,-4.68 0.28,-2.81 0.29,-1.3 0.28,-0.46 0.28,0.13 0.29,0.75 0.28,1.98 0.28,4 0.29,6.05 0.28,4.36 0.29,-1.17 0.28,-5.44 0.28,-5.33 0.29,-3.18 0.28,-1.47 0.28,-0.51 0.29,0.14 0.28,0.86 0.29,2.13 0.28,4.25 0.28,6.22 0.29,4.55 0.28,-1.42 0.28,-5.76 0.29,-5.64 0.28,-3.34 0.29,-1.52 0.28,-0.54 0.28,0.09 0.29,0.78 0.28,1.91 0.28,3.8 0.29,5.64 0.28,4.43 0.28,-1.23 0.29,-5.49 0.28,-5.18 0.29,-2.99 0.28,-1.4 0.28,-0.5 0.29,0.09 0.28,0.72 0.28,1.83 0.29,3.64 0.28,5.16 0.29,4.2 0.28,-0.69 0.28,-4.97 0.29,-4.95 0.28,-2.99 0.28,-1.39 0.29,-0.48 0.28,0.12 0.28,0.84 0.29,2.1 0.28,4.37 0.29,6.36 0.28,4.65 0.28,-1.41 0.29,-5.89 0.28,-5.71 0.28,-3.35 0.29,-1.54 0.28,-0.55 0.29,0.1 0.28,0.74 0.28,1.88 0.29,3.83 0.28,5.42 0.28,4.06 0.29,-1.39 0.28,-5.01 0.28,-4.92 0.29,-3 0.28,-1.36 0.29,-0.46 0.28,0.08 0.28,0.74 0.29,1.93 0.28,3.85 0.28,5.59 0.29,4.05 0.28,-0.74 0.29,-5.2 0.28,-5.28 0.28,-3.11 0.29,-1.38 0.28,-0.49 0.28,0.11 0.29,0.76 0.28,1.95 0.28,4.17 0.29,6.05 0.28,4.47 0.29,-1.09 0.28,-5.6 0.28,-5.4 0.29,-3.29 0.28,-1.5 0.28,-0.53 0.29,0.09 0.28,0.74 0.29,1.98 0.28,4.01 0.28,5.83 0.29,4.07 0.28,-1.35 0.28,-5.51 0.29,-5.08 0.28,-3.04 0.29,-1.38 0.28,-0.48 0.28,0.09 0.29,0.76 0.28,1.94 0.28,3.76 0.29,5.48 0.28,4.28 0.28,-1.12 0.29,-5.03 0.28,-5.17 0.29,-3.05 0.28,-1.43 0.28,-0.46 0.29,0.1 0.28,0.76 0.28,2.12 0.29,4.32 0.28,6.21 0.29,4.76 0.28,-1.34 0.28,-5.96 0.29,-5.69 0.28,-3.24 0.28,-1.49 0.29,-0.53 0.28,0.09 0.28,0.78 0.29,1.89 0.28,3.79 0.29,5.24 0.28,3.81 0.28,-1.18 0.29,-4.92 0.28,-4.83 0.28,-2.95 0.29,-1.34 0.28,-0.45 0.29,0.13 0.28,0.81 0.28,2.12 0.29,4.34 0.28,5.93 0.28,4.65 0.29,-1.26 0.28,-5.65 0.28,-5.63 0.29,-3.31 0.28,-1.53 0.29,-0.54 0.28,0.1 0.28,0.74 0.29,1.93 0.28,3.87 0.28,5.74 0.29,4.13 0.28,-1.38 0.29,-5.26 0.28,-5.16 0.28,-2.97 0.29,-1.39 0.28,-0.47 0.28,0.1 0.29,0.73 0.28,1.87 0.29,3.81 0.28,5.79 0.28,4.73 0.29,-1.09 0.28,-5.44 0.28,-5.28 0.29,-3.14 0.28,-1.47 0.28,-0.48 0.29,0.13 0.28,0.8 0.29,2.07 0.28,4.24 0.28,5.85 0.29,4.34 0.28,-1.07 0.28,-5.67 0.29,-5.49 0.28,-3.24 0.29,-1.48 0.28,-0.5 0.28,0.1 0.29,0.74 0.28,1.87 0.28,3.77 0.29,5.58 0.28,4.05 0.28,-1.04 0.29,-5.28 0.28,-5.07 0.29,-2.96 0.28,-1.38 0.28,-0.47 0.29,0.12 0.28,0.79 0.28,1.99 0.29,3.95 0.28,5.53 0.29,4.36 0.28,-0.95 0.28,-5.36 0.29,-5.29 0.28,-3.09 0.28,-1.41 0.29,-0.5 0.28,0.13 0.28,0.84 0.29,2.08 0.28,4.38 0.29,6.1 0.28,4.54 0.28,-1.29 0.29,-5.64 0.28,-5.78 0.28,-3.31 0.29,-1.56 0.28,-0.56 0.29,0.06 0.28,0.72 0.28,1.81 0.29,3.52 0.28,5.3 0.28,3.77 0.29,-0.79 0.28,-4.96 0.28,-4.88 0.29,-2.87 0.28,-1.29 0.29,-0.47 0.28,0.1 0.28,0.74 0.29,1.9 0.28,3.8 0.28,5.38 0.29,4.09 0.28,-0.9 0.29,-5.01 0.28,-4.97 0.28,-3.08 0.29,-1.4 0.28,-0.48 0.28,0.11 0.29,0.87 0.28,2.18 0.29,4.37 0.28,6.43 0.28,4.79 0.29,-1.14 0.28,-6.3 0.28,-5.83 0.29,-3.49 0.28,-1.51 0.28,-0.52 0.29,0.1 0.28,0.73 0.29,1.89 0.28,3.65 0.28,5.13 0.29,3.75 0.28,-1.11 0.28,-4.99 0.29,-4.68 0.28,-2.83 0.29,-1.29 0.28,-0.45 0.28,0.1 0.29,0.78 0.28,1.99 0.28,3.97 0.29,5.72 0.28,3.94 0.28,-1.22 0.29,-5.25 0.28,-5.02 0.29,-3.07 0.28,-1.38 0.28,-0.48 0.29,0.11 0.28,0.74 0.28,1.97 0.29,3.98 0.28,5.68 0.29,4.49 0.28,-1.13 0.28,-5.23 0.29,-5.22 0.28,-3.27 0.28,-1.49 0.29,-0.51 0.28,0.12 0.28,0.85 0.29,2.12 0.28,4.24 0.29,6.17 0.28,4.47 0.28,-1.21 0.29,-5.85 0.28,-5.75 0.28,-3.35 0.29,-1.44 0.28,-0.52 0.29,0.09 0.28,0.68 0.28,1.86 0.29,3.71 0.28,5.35 0.28,3.83 0.29,-1.27 0.28,-4.86 0.29,-4.86 0.28,-2.86 0.28,-1.29 0.29,-0.45 0.28,0.11 0.28,0.74 0.29,1.97 0.28,3.85 0.28,5.65 0.29,4.3 0.28,-0.95 0.29,-5.24 0.28,-5.11 0.28,-3.17 0.29,-1.47 0.28,-0.48 0.28,0.11 0.29,0.83 0.28,2.13 0.29,4.21 0.28,6.3 0.28,4.59 0.29,-1.24 0.28,-5.99 0.28,-5.55 0.29,-3.35 0.28,-1.57 0.28,-0.53 0.29,0.06 0.28,0.71 0.29,1.85 0.28,3.8 0.28,5.55 0.29,3.96 0.28,-1.3 0.28,-4.98 0.29,-4.89 0.28,-3 0.29,-1.41 0.28,-0.48 0.28,0.08 0.29,0.74 0.28,1.84 0.28,3.73 0.29,5.39 0.28,4.06 0.28,-1.02 0.29,-5.15 0.28,-4.9 0.29,-2.94 0.28,-1.34 0.28,-0.46 0.29,0.1 0.28,0.76 0.28,1.98 0.29,4.17 0.28,6.16 0.29,4.21 0.28,-1.12 0.28,-5.38 0.29,-5.35 0.28,-3.27 0.28,-1.53 0.29,-0.53 0.28,0.13 0.28,0.83 0.29,2.21 0.28,4.35 0.29,6.48 0.28,4.92 0.28,-1.6 0.29,-6.08 0.28,-5.9 0.28,-3.36 0.29,-1.58 0.28,-0.54 0.29,0.08 0.28,0.71 0.28,1.82 0.29,3.52 0.28,5.06 0.28,3.35 0.29,-0.99 0.28,-4.62 0.29,-4.63 0.28,-2.78 0.28,-1.24 0.29,-0.43 0.28,0.11 0.28,0.75 0.29,1.9 0.28,3.94 0.28,5.93 0.29,4.48 0.28,-1.03 0.29,-5.44 0.28,-5.21 0.28,-3.22 0.29,-1.49 0.28,-0.53 0.28,0.12 0.29,0.85 0.28,2.09 0.29,4.2 0.28,6.13 0.28,4.42 0.29,-1.55 0.28,-5.7 0.28,-5.49 0.29,-3.19 0.28,-1.46 0.28,-0.49 0.29,0.09 0.28,0.75 0.29,1.89 0.28,3.79 0.28,5.21 0.29,3.92 0.28,-1.14 0.28,-4.93 0.29,-4.85 0.28,-2.94 0.29,-1.35 0.28,-0.44 0.28,0.13 0.29,0.82 0.28,2.06 0.28,4.13 0.29,5.93 0.28,4.46 0.28,-1.42 0.29,-5.37 0.28,-5.38 0.29,-3.28 0.28,-1.49 0.28,-0.5 0.29,0.1 0.28,0.85 0.28,2.09 0.29,4.24 0.28,5.79 0.29,4.37 0.28,-1.27 0.28,-5.72 0.29,-5.45 0.28,-3.19 0.28,-1.43 0.29,-0.49 0.28,0.09 0.29,0.76 0.28,1.92 0.28,3.84 0.29,5.71 0.28,4 0.28,-1.19 0.29,-5.42 0.28,-5.01 0.28,-2.94 0.29,-1.33 0.28,-0.43 0.29,0.09 0.28,0.79 0.28,1.92 0.29,3.87 0.28,5.76 0.28,4.12 0.29,-1.24 0.28,-5.36 0.29,-5.05 0.28,-3 0.28,-1.41 0.29,-0.48 0.28,0.09 0.28,0.76 0.29,2.03 0.28,3.97 0.28,6.21 0.29,4.28 0.28,-1.41 0.29,-5.34 0.28,-5.4 0.28,-3.18 0.29,-1.45 0.28,-0.5 0.28,0.09 0.29,0.75 0.28,1.98 0.29,4.03 0.28,5.86 0.28,4.35 0.29,-1.25 0.28,-5.49 0.28,-5.29 0.29,-3.13 0.28,-1.43 0.28,-0.5 0.29,0.13 0.28,0.84 0.29,2.05 0.28,4.01 0.28,5.8 0.29,4.15 0.28,-1.34 0.28,-5.5 0.29,-5.27 0.28,-3.06 0.29,-1.4 0.28,-0.47 0.28,0.11 0.29,0.72 0.28,1.88 0.28,3.63 0.29,5.25 0.28,3.86 0.28,-1.14 0.29,-4.97 0.28,-4.74 0.29,-2.84 0.28,-1.28 0.28,-0.45 0.29,0.1 0.28,0.78 0.28,1.99 0.29,4 0.28,5.94 0.29,4.47 0.28,-1.02 0.28,-5.44 0.29,-5.31 0.28,-3.24 0.28,-1.55 0.29,-0.52 0.28,0.14 0.29,0.82 0.28,2.15 0.28,4.33 0.29,6.39 0.28,4.68 0.28,-1.23 0.29,-6.25 0.28,-5.73 0.28,-3.34 0.29,-1.54 0.28,-0.55 0.29,0.05 0.28,0.72 0.28,1.8 0.29,3.53 0.28,5 0.28,3.66 0.29,-1.13 0.28,-4.69 0.29,-4.63 0.28,-2.8 0.28,-1.23 0.29,-0.42 0.28,0.11 0.28,0.78 0.29,1.95 0.28,3.96 0.28,6 0.29,4.28 0.28,-1.23 0.29,-5.43 0.28,-5.17 0.28,-3.16 0.29,-1.43 0.28,-0.49 0.28,0.11 0.29,0.84 0.28,2.17 0.29,4.16 0.28,6.21 0.28,4.59 0.29,-1.34 0.28,-5.96 0.28,-5.59 0.29,-3.28 0.28,-1.49 0.28,-0.52 0.29,0.07 0.28,0.69 0.29,1.76 0.28,3.63 0.28,5.26 0.29,4.12 0.28,-0.98 0.28,-5.06 0.29,-4.78 0.28,-2.92 0.29,-1.33 0.28,-0.47 0.28,0.15 0.29,0.8 0.28,2.1 0.28,4.18 0.29,6.27 0.28,4.8 0.29,-1.21 0.28,-5.89 0.28,-5.75 0.29,-3.32 0.28,-1.48 0.28,-0.51 0.29,0.08 0.28,0.75 0.28,1.91 0.29,3.85 0.28,5.71 0.29,4.25 0.28,-1.19 0.28,-5.15 0.29,-5.19 0.28,-3.14 0.28,-1.48 0.29,-0.51 0.28,0.04 0.29,0.7 0.28,1.77 0.28,3.71 0.29,5.19 0.28,3.92 0.28,-1.12 0.29,-4.79 0.28,-4.8 0.28,-2.9 0.29,-1.33 0.28,-0.46 0.29,0.12 0.28,0.81 0.28,2.06 0.29,4.12 0.28,6.06 0.28,4.55 0.29,-0.93 0.28,-5.78 0.29,-5.52 0.28,-3.28 0.28,-1.49 0.29,-0.52 0.28,0.08 0.28,0.81 0.29,2.05 0.28,4.01 0.28,6.12 0.29,4.24 0.28,-1.75 0.29,-5.58 0.28,-5.12 0.28,-3.09 0.29,-1.43 0.28,-0.52 0.28,0.07 0.29,0.73 0.28,1.83 0.29,3.75 0.28,5.53 0.28,4.14 0.29,-0.95 0.28,-5.09 0.28,-5.09 0.29,-3.03 0.28,-1.37 0.28,-0.47 0.29,0.13 0.28,0.78 0.29,2.01 0.28,4.03 0.28,5.71 0.29,4.27 0.28,-1.43 0.28,-5.26 0.29,-5.17 0.28,-3.08 0.29,-1.44 0.28,-0.48 0.28,0.08 0.29,0.77 0.28,2.03 0.28,4.02 0.29,5.88 0.28,4.04 0.29,-1.47 0.28,-5.43 0.28,-5.05 0.29,-3.08 0.28,-1.36 0.28,-0.49 0.29,0.07 0.28,0.74 0.28,1.95 0.29,3.9 0.28,5.75 0.29,4.51 0.28,-0.91 0.28,-5.39 0.29,-5.31 0.28,-3.22 0.28,-1.49 0.29,-0.51 0.28,0.13 0.29,0.87 0.28,2.12 0.28,4.24 0.29,6.2 0.28,4.75 0.28,-1.35 0.29,-6.21 0.28,-5.67 0.28,-3.26 0.29,-1.47 0.28,-0.49 0.29,0.08 0.28,0.69 0.28,1.78 0.29,3.66 0.28,5.28 0.28,3.69 0.29,-1.03 0.28,-4.73 0.29,-4.86 0.28,-2.85 0.28,-1.32 0.29,-0.44 0.28,0.12 0.28,0.74 0.29,1.81 0.28,3.74 0.28,5.55 0.29,4.28 0.28,-0.91 0.29,-5.14 0.28,-5.06 0.28,-3.04 0.29,-1.41 0.28,-0.48 0.28,0.12 0.29,0.86 0.28,2.22 0.29,4.49 0.28,6.66 0.28,4.94 0.29,-1.53 0.28,-6.42 0.28,-5.88 0.29,-3.44 0.28,-1.53 0.29,-0.56 0.28,0.05 0.28,0.72 0.29,1.81 0.28,3.62 0.28,5.49 0.29,3.75 0.28,-1.17 0.28,-4.92 0.29,-4.83 0.28,-2.87 0.29,-1.34 0.28,-0.45 0.28,0.12 0.29,0.71 0.28,1.85 0.28,3.82 0.29,5.73 0.28,4.24 0.29,-0.99 0.28,-5.34 0.28,-5.1 0.29,-3.01 0.28,-1.41 0.28,-0.46 0.29,0.13 0.28,0.86 0.28,2.18 0.29,4.44 0.28,6.37 0.29,4.48 0.28,-1.37 0.28,-6.05 0.29,-5.67 0.28,-3.34 0.28,-1.55 0.29,-0.53 0.28,0.08 0.29,0.72 0.28,1.82 0.28,3.56 0.29,5.21 0.28,4.17 0.28,-1.09 0.29,-5.1 0.28,-4.76 0.28,-2.91 0.29,-1.34 0.28,-0.47 0.29,0.08 0.28,0.72 0.28,1.9 0.29,3.87 0.28,5.57 0.28,4.44 0.29,-0.87 0.28,-5.19 0.29,-5.22 0.28,-3.17 0.28,-1.47 0.29,-0.49 0.28,0.15 0.28,0.83 0.29,2.2 0.28,4.31 0.28,6.43 0.29,4.43 0.28,-1.36 0.29,-5.82 0.28,-5.76 0.28,-3.39 0.29,-1.52 0.28,-0.52 0.28,0.08 0.29,0.76 0.28,1.91 0.29,3.85 0.28,5.41 0.28,3.66 0.29,-1.44 0.28,-5.06 0.28,-4.78 0.29,-2.88 0.28,-1.28 0.29,-0.43 0.28,0.06 0.28,0.67 0.29,1.78 0.28,3.65 0.28,5.1 0.29,4.49 0.28,-0.82 0.28,-4.88 0.29,-4.97 0.28,-2.98 0.29,-1.36 0.28,-0.45 0.28,0.14 0.29,0.88 0.28,2.32 0.28,4.83 0.29,7.11 0.28,5.51 0.29,-1.66 0.28,-6.72 0.28,-6.39 0.29,-3.79 0.28,-1.66 0.28,-0.6 0.29,0.05 0.28,0.67 0.28,1.79 0.29,3.63 0.28,4.92 0.29,3.44 0.28,-1.12 0.28,-4.76 0.29,-4.58 0.28,-2.68 0.28,-1.24 0.29,-0.44 0.28,0.08 0.29,0.66 0.28,1.7 0.28,3.52 0.29,5.22 0.28,4.05 0.28,-0.68 0.29,-4.69 0.28,-4.78 0.28,-2.97 0.29,-1.39 0.28,-0.47 0.29,0.11 0.28,0.83 0.28,2.16 0.29,4.31 0.28,6.33 0.28,4.63 0.29,-1.18 0.28,-5.78 0.29,-5.79 0.28,-3.46 0.28,-1.51 0.29,-0.54 0.28,0.09 0.28,0.83 0.29,2.09 0.28,3.98 0.29,5.85 0.28,4.13 0.28,-1.42 0.29,-5.54 0.28,-5.21 0.28,-3.05 0.29,-1.41 0.28,-0.48 0.28,0.09 0.29,0.74 0.28,1.98 0.29,3.98 0.28,5.63 0.28,4.31 0.29,-1.18 0.28,-5.43 0.28,-5.2 0.29,-3.08 0.28,-1.4 0.29,-0.49 0.28,0.1 0.28,0.71 0.29,1.84 0.28,3.84 0.28,5.4 0.29,4.31 0.28,-0.97 0.28,-5.37 0.29,-4.98 0.28,-2.99 0.29,-1.39 0.28,-0.49 0.28,0.12 0.29,0.77 0.28,1.94 0.28,4.11 0.29,6.11 0.28,4.31 0.29,-1.09 0.28,-5.65 0.28,-5.47 0.29,-3.17 0.28,-1.43 0.28,-0.52 0.29,0.09 0.28,0.76 0.28,1.91" /></g></g><g
       id="g52" /><g
       id="g54" /><g
       id="g56" /><g
       id="g58" /><g
       id="g60" /><g
       id="g62"><text
         id="text64"
         style="font-variant:normal;font-weight:normal;font-size:10px;font-family:Helvetica;-inkscape-font-specification:Helvetica;writing-mode:lr-tb;fill:#000000;fill-opacity:1;fill-rule:nonzero;stroke:none"
         transform="matrix(1,0,0,-1,27.13,27.68)"><tspan
           id="tspan66"
           y="0"
           x="0 5.5599999 8.3400002 13.9 19.459999">0.000</tspan></text>
<text
         id="text68"
         style="font-variant:normal;font-weight:normal;font-size:10px;font-family:Helvetica;-inkscape-font-specification:Helvetica;writing-mode:lr-tb;fill:#000000;fill-opacity:1;fill-rule:nonzero;stroke:none"
         transform="matrix(1,0,0,-1,27.13,39.39)"><tspan
           id="tspan70"
           y="0"
           x="0 5.5599999 8.3400002 13.9 19.459999">0.005</tspan></text>
<text
         id="text72"
         style="font-variant:normal;font-weight:normal;font-size:10px;font-family:Helvetica;-inkscape-font-specification:Helvetica;writing-mode:lr-tb;fill:#000000;fill-opacity:1;fill-rule:nonzero;stroke:none"
         transform="matrix(1,0,0,-1,27.13,51.09)"><tspan
           id="tspan74"
           y="0"
           x="0 5.5599999 8.3400002 13.9 19.459999">0.010</tspan></text>
<text
         id="text76"
         style="font-variant:normal;font-weight:normal;font-size:10px;font-family:Helvetica;-inkscape-font-specification:Helvetica;writing-mode:lr-tb;fill:#000000;fill-opacity:1;fill-rule:nonzero;stroke:none"
         transform="matrix(1,0,0,-1,27.13,62.79)"><tspan
           id="tspan78"
           y="0"
           x="0 5.5599999 8.3400002 13.9 19.459999">0.015</tspan></text>
<text
         id="text80"
         style="font-variant:normal;font-weight:normal;font-size:10px;font-family:Helvetica;-inkscape-font-specification:Helvetica;writing-mode:lr-tb;fill:#000000;fill-opacity:1;fill-rule:nonzero;stroke:none"
         transform="matrix(1,0,0,-1,27.13,74.49)"><tspan
           id="tspan82"
           y="0"
           x="0 5.5599999 8.3400002 13.9 19.459999">0.020</tspan></text>
<text
         id="text84"
         style="font-variant:normal;font-weight:normal;font-size:10px;font-family:Helvetica;-inkscape-font-specification:Helvetica;writing-mode:lr-tb;fill:#000000;fill-opacity:1;fill-rule:nonzero;stroke:none"
         transform="matrix(1,0,0,-1,27.13,86.19)"><tspan
           id="tspan86"
           y="0"
           x="0 5.5599999 8.3400002 13.9 19.459999">0.025</tspan></text>
</g><g
       id="g88" /><g
       id="g90" /><g
       id="g92"><path
         id="path94"
         style="fill:none;stroke:#000000;stroke-width:1.07000005;stroke-linecap:butt;stroke-linejoin:round;stroke-miterlimit:10;stroke-dasharray:none;stroke-opacity:1"
         d="m 54.54,31.27 2.99,0" /><path
         id="path96"
         style="fill:none;stroke:#000000;stroke-width:1.07000005;stroke-linecap:butt;stroke-linejoin:round;stroke-miterlimit:10;stroke-dasharray:none;stroke-opacity:1"
         d="m 54.54,42.98 2.99,0" /><path
         id="path98"
         style="fill:none;stroke:#000000;stroke-width:1.07000005;stroke-linecap:butt;stroke-linejoin:round;stroke-miterlimit:10;stroke-dasharray:none;stroke-opacity:1"
         d="m 54.54,54.68 2.99,0" /><path
         id="path100"
         style="fill:none;stroke:#000000;stroke-width:1.07000005;stroke-linecap:butt;stroke-linejoin:round;stroke-miterlimit:10;stroke-dasharray:none;stroke-opacity:1"
         d="m 54.54,66.38 2.99,0" /><path
         id="path102"
         style="fill:none;stroke:#000000;stroke-width:1.07000005;stroke-linecap:butt;stroke-linejoin:round;stroke-miterlimit:10;stroke-dasharray:none;stroke-opacity:1"
         d="m 54.54,78.08 2.99,0" /><path
         id="path104"
         style="fill:none;stroke:#000000;stroke-width:1.07000005;stroke-linecap:butt;stroke-linejoin:round;stroke-miterlimit:10;stroke-dasharray:none;stroke-opacity:1"
         d="m 54.54,89.78 2.99,0" /></g><g
       id="g106" /><g
       id="g108" /><g
       id="g110" /><g
       id="g112" /><g
       id="g114" /><g
       id="g116" /><g
       id="g118" /><g
       id="g120" /><g
       id="g122"><path
         id="path124"
         style="fill:none;stroke:#000000;stroke-width:1.07000005;stroke-linecap:butt;stroke-linejoin:round;stroke-miterlimit:10;stroke-dasharray:none;stroke-opacity:1"
         d="m 74.55,25.36 0,2.99" /><path
         id="path126"
         style="fill:none;stroke:#000000;stroke-width:1.07000005;stroke-linecap:butt;stroke-linejoin:round;stroke-miterlimit:10;stroke-dasharray:none;stroke-opacity:1"
         d="m 159.66,25.36 0,2.99" /><path
         id="path128"
         style="fill:none;stroke:#000000;stroke-width:1.07000005;stroke-linecap:butt;stroke-linejoin:round;stroke-miterlimit:10;stroke-dasharray:none;stroke-opacity:1"
         d="m 244.76,25.36 0,2.99" /><path
         id="path130"
         style="fill:none;stroke:#000000;stroke-width:1.07000005;stroke-linecap:butt;stroke-linejoin:round;stroke-miterlimit:10;stroke-dasharray:none;stroke-opacity:1"
         d="m 329.87,25.36 0,2.99" /><path
         id="path132"
         style="fill:none;stroke:#000000;stroke-width:1.07000005;stroke-linecap:butt;stroke-linejoin:round;stroke-miterlimit:10;stroke-dasharray:none;stroke-opacity:1"
         d="m 414.98,25.36 0,2.99" /></g><g
       id="g134" /><g
       id="g136"><text
         id="text138"
         style="font-variant:normal;font-weight:normal;font-size:10px;font-family:Helvetica;-inkscape-font-specification:Helvetica;writing-mode:lr-tb;fill:#000000;fill-opacity:1;fill-rule:nonzero;stroke:none"
         transform="matrix(1,0,0,-1,71.77,15.79)"><tspan
           id="tspan140"
           y="0"
           x="0">0</tspan></text>
<text
         id="text142"
         style="font-variant:normal;font-weight:normal;font-size:10px;font-family:Helvetica;-inkscape-font-specification:Helvetica;writing-mode:lr-tb;fill:#000000;fill-opacity:1;fill-rule:nonzero;stroke:none"
         transform="matrix(1,0,0,-1,154.1,15.79)"><tspan
           id="tspan144"
           y="0"
           x="0 5.5599999">25</tspan></text>
<text
         id="text146"
         style="font-variant:normal;font-weight:normal;font-size:10px;font-family:Helvetica;-inkscape-font-specification:Helvetica;writing-mode:lr-tb;fill:#000000;fill-opacity:1;fill-rule:nonzero;stroke:none"
         transform="matrix(1,0,0,-1,239.2,15.79)"><tspan
           id="tspan148"
           y="0"
           x="0 5.5599999">50</tspan></text>
<text
         id="text150"
         style="font-variant:normal;font-weight:normal;font-size:10px;font-family:Helvetica;-inkscape-font-specification:Helvetica;writing-mode:lr-tb;fill:#000000;fill-opacity:1;fill-rule:nonzero;stroke:none"
         transform="matrix(1,0,0,-1,324.31,15.79)"><tspan
           id="tspan152"
           y="0"
           x="0 5.5599999">75</tspan></text>
<text
         id="text154"
         style="font-variant:normal;font-weight:normal;font-size:10px;font-family:Helvetica;-inkscape-font-specification:Helvetica;writing-mode:lr-tb;fill:#000000;fill-opacity:1;fill-rule:nonzero;stroke:none"
         transform="matrix(1,0,0,-1,406.64,15.79)"><tspan
           id="tspan156"
           y="0"
           x="0 5.5599999 11.12">100</tspan></text>
</g><g
       id="g158" /><g
       id="g160" /><g
       id="g162" /><g
       id="g164" /><g
       id="g166" /><g
       id="g168"><text
         id="text170"
         style="font-variant:normal;font-weight:normal;font-size:12px;font-family:Helvetica;-inkscape-font-specification:Helvetica;writing-mode:lr-tb;fill:#000000;fill-opacity:1;fill-rule:nonzero;stroke:none"
         transform="matrix(1,0,0,-1,213.22,2.39)"><tspan
           id="tspan172"
           y="0"
           x="0 3.336 6 15.996 22.667999 26.004 30 35.759998 42.431999 49.104 53.099998 59.099998">time (years)</tspan></text>
</g><g
       id="g174" /><g
       id="g176" /><g
       id="g178"><text
         id="text180"
         style="font-variant:normal;font-weight:normal;font-size:12px;font-family:Helvetica;-inkscape-font-specification:Helvetica;writing-mode:lr-tb;fill:#000000;fill-opacity:1;fill-rule:nonzero;stroke:none"
         transform="matrix(0,1,1,0,22.35,12.51)"><tspan
           id="tspan182"
           y="0"
           x="0 9.9960003 16.667999 23.34 26.676001 33.348 36.012001 42.012001 45.348 48.012001 54.683998 60.683998 63.348 70.019997 76.692001 83.363998 89.363998">monthly incidence</tspan></text>
</g><g
       id="g184" /><g
       id="g186" /><g
       id="g188" /><g
       id="g190" /><g
       id="g192" /><g
       id="g194" /><g
       id="g196" /><g
       id="g198" /><g
       id="g200" /><g
       id="g202" /><g
       id="g204" /><g
       id="g206" /><g
       id="g208"><path
         id="path210"
         style="fill:none;stroke:#f8766d;stroke-width:0.63999999;stroke-linecap:butt;stroke-linejoin:round;stroke-miterlimit:10;stroke-dasharray:none;stroke-opacity:1"
         d="m 215.91,114.1 13.83,0" /></g><g
       id="g212" /><g
       id="g214" /><g
       id="g216" /><g
       id="g218"><path
         id="path220"
         style="fill:none;stroke:#00bfc4;stroke-width:0.63999999;stroke-linecap:butt;stroke-linejoin:round;stroke-miterlimit:10;stroke-dasharray:1.28, 1.28;stroke-dashoffset:0;stroke-opacity:1"
         d="m 249.73,114.1 13.83,0" /></g><g
       id="g222" /><g
       id="g224"><text
         id="text226"
         style="font-style:oblique;font-variant:normal;font-size:10px;font-family:Helvetica;-inkscape-font-specification:Helvetica-Oblique;writing-mode:lr-tb;fill:#000000;fill-opacity:1;fill-rule:nonzero;stroke:none"
         transform="matrix(1,0,0,-1,233.63,111.33)"><tspan
           id="tspan228"
           y="0"
           x="0">C</tspan></text>
<text
         id="text230"
         style="font-variant:normal;font-weight:normal;font-size:7px;font-family:Helvetica;-inkscape-font-specification:Helvetica;writing-mode:lr-tb;fill:#000000;fill-opacity:1;fill-rule:nonzero;stroke:none"
         transform="matrix(1,0,0,-1,241.95,109.5)"><tspan
           id="tspan232"
           y="0"
           x="0">1</tspan></text>
</g><g
       id="g234" /><g
       id="g236"><text
         id="text238"
         style="font-style:oblique;font-variant:normal;font-size:10px;font-family:Helvetica;-inkscape-font-specification:Helvetica-Oblique;writing-mode:lr-tb;fill:#000000;fill-opacity:1;fill-rule:nonzero;stroke:none"
         transform="matrix(1,0,0,-1,267.44,111.33)"><tspan
           id="tspan240"
           y="0"
           x="0">C</tspan></text>
<text
         id="text242"
         style="font-variant:normal;font-weight:normal;font-size:7px;font-family:Helvetica;-inkscape-font-specification:Helvetica;writing-mode:lr-tb;fill:#000000;fill-opacity:1;fill-rule:nonzero;stroke:none"
         transform="matrix(1,0,0,-1,275.77,109.5)"><tspan
           id="tspan244"
           y="0"
           x="0">2</tspan></text>
</g><g
       id="g246" /><g
       id="g248" /><g
       id="g250" /><g
       id="g252" /><g
       id="g254" /><g
       id="g256" /><g
       id="g258" /><g
       id="g260" /><g
       id="g262" /><g
       id="g264" /><g
       id="g266" /><g
       id="g268" /></g></svg>