<?xml version="1.0" encoding="UTF-8" standalone="no"?>
<svg
   xmlns:dc="http://purl.org/dc/elements/1.1/"
   xmlns:cc="http://creativecommons.org/ns#"
   xmlns:rdf="http://www.w3.org/1999/02/22-rdf-syntax-ns#"
   xmlns:svg="http://www.w3.org/2000/svg"
   xmlns="http://www.w3.org/2000/svg"
   viewBox="0 0 540 540"
   height="540"
   width="540"
   xml:space="preserve"
   version="1.1"
   id="svg2"><metadata
     id="metadata8"><rdf:RDF><cc:Work
         rdf:about=""><dc:format>image/svg+xml</dc:format><dc:type
           rdf:resource="http://purl.org/dc/dcmitype/StillImage" /></cc:Work></rdf:RDF></metadata><defs
     id="defs6"><clipPath
       id="clipPath22"
       clipPathUnits="userSpaceOnUse"><path
         id="path24"
         d="M 0,0 432,0 432,432 0,432 0,0 Z" /></clipPath><clipPath
       id="clipPath38"
       clipPathUnits="userSpaceOnUse"><path
         id="path40"
         d="m 46.76,39.85 370.84,0 0,377.75 -370.84,0 0,-377.75 z" /></clipPath></defs><g
     transform="matrix(1.25,0,0,-1.25,0,540)"
     id="g10"><g
       id="g12" /><g
       id="g14" /><g
       id="g16" /><g
       id="g18"><g
         clip-path="url(#clipPath22)"
         id="g20"><path
           id="path26"
           style="fill:#ffffff;fill-opacity:1;fill-rule:nonzero;stroke:#ffffff;stroke-width:1.05999994;stroke-linecap:round;stroke-linejoin:round;stroke-miterlimit:10;stroke-dasharray:none;stroke-opacity:1"
           d="M 0,0 432,0 432,432 0,432 0,0 Z" /></g></g><g
       id="g28" /><g
       id="g30" /><g
       id="g32" /><g
       id="g34"><g
         clip-path="url(#clipPath38)"
         id="g36"><path
           id="path42"
           style="fill:#ffffff;fill-opacity:1;fill-rule:nonzero;stroke:none"
           d="m 46.76,39.85 370.84,0 0,377.75 -370.84,0 0,-377.75 z" /><path
           id="path44"
           style="fill:#dddddd;fill-opacity:1;fill-rule:nonzero;stroke:none"
           d="m 63.62,142.2 2.81,-0.71 2.81,-32.89 2.81,0.28 2.81,0.78 2.81,1.03 2.81,0.76 2.8,-0.28 2.81,-0.67 2.81,-0.24 2.81,0.09 2.81,1.72 2.81,16.73 2.81,30.25 2.81,13.64 2.81,18.78 2.81,4.79 2.81,14.69 2.81,21.79 2.81,4.65 2.81,8.78 2.81,0.87 2.81,-2.07 2.8,-6.29 2.81,-4.52 2.81,-2.02 2.81,-5.87 2.81,5.05 2.81,7.08 2.81,-13.25 2.81,-6.68 2.81,19.87 2.81,-5.91 2.81,9.87 2.81,2.23 2.81,-2.18 2.81,-15.44 2.81,-13.57 2.81,-12.69 2.8,-12.21 2.81,-11.32 2.81,-15.8 2.81,-5.2 2.81,-20.55 2.81,-6.67 2.81,-10.99 2.81,0.09 2.81,-4.43 2.81,1.36 2.81,2.03 2.81,-2.26 2.81,1.07 2.81,-4.71 2.81,-3.14 2.81,-3.59 2.8,1.33 2.81,1.61 2.81,-1.49 2.81,0.29 2.81,3.35 2.81,-4.6 2.81,2.38 2.81,2.57 2.81,5.31 2.81,-5.17 2.81,3.15 2.81,-2.58 2.81,-4.03 2.81,1.43 2.81,-3.57 2.81,1.04 2.8,0.97 2.81,-1.63 2.81,5.05 2.81,2.75 2.81,5.61 2.81,0.9 2.81,6.6 2.81,0.59 2.81,4.56 2.81,1.47 2.81,-1.46 2.81,-3.24 2.81,-7.38 2.81,-4.43 2.81,-2.54 2.81,3.27 2.8,-6.47 2.81,-1.54 2.81,4.57 2.81,12.86 2.81,-8.44 2.81,13.5 2.81,-2.35 2.81,6.41 2.81,-5.17 2.81,4.8 2.81,-2.24 2.81,2.28 2.81,5.47 2.81,3.84 2.81,12.94 2.81,9.67 2.8,14.45 2.81,3.27 2.81,-3.23 2.81,-3.9 2.81,2.46 2.81,-1.4 2.81,-6.58 2.81,-10.59 2.81,-6.04 2.81,-11.75 2.81,-12.32 2.81,-10.06 2.81,-3.67 2.81,-2.05 2.81,-0.03 2.81,-0.99 2.8,1.52 2.81,-1.78 0,-25.26 -2.81,-0.54 -2.8,2.7 -2.81,-2.11 -2.81,1.24 -2.81,3.42 -2.81,1.76 -2.81,6.17 -2.81,3 -2.81,8.61 -2.81,7.4 -2.81,3.32 -2.81,9.29 -2.81,1.33 -2.81,3.28 -2.81,6.53 -2.81,1.5 -2.81,-4.53 -2.8,-11.62 -2.81,-7.79 -2.81,-6.63 -2.81,-3.52 -2.81,-1.69 -2.81,-0.47 -2.81,-3.29 -2.81,0.81 -2.81,-0.46 -2.81,-1.34 -2.81,-2.81 -2.81,-2.17 -2.81,-3.55 -2.81,-0.1 -2.81,-0.53 -2.81,-0.42 -2.8,0.03 -2.81,2.32 -2.81,2.35 -2.81,3.64 -2.81,3.96 -2.81,3.14 -2.81,-0.56 -2.81,-1.95 -2.81,-1.68 -2.81,-3.47 -2.81,-2.89 -2.81,-2.26 -2.81,-1.27 -2.81,-1.6 -2.81,-1.43 -2.81,-3.75 -2.8,-0.42 -2.81,-0.08 -2.81,-0.02 -2.81,0.97 -2.81,1.66 -2.81,2.01 -2.81,2.07 -2.81,0.52 -2.81,-0.05 -2.81,-1.11 -2.81,-0.29 -2.81,-0.69 -2.81,-0.3 -2.81,0.24 -2.81,-0.63 -2.81,0.92 -2.8,-0.76 -2.81,4.97 -2.81,2.8 -2.81,0.13 -2.81,1.93 -2.81,-2.15 -2.81,0.23 -2.81,0.49 -2.81,-1.24 -2.81,1.52 -2.81,4.36 -2.81,4.42 -2.81,5.14 -2.81,11.25 -2.81,-0.66 -2.81,7.11 -2.8,4.95 -2.81,4.71 -2.81,-2.23 -2.81,6 -2.81,-2.5 -2.81,-4.57 -2.81,-4.51 -2.81,0.09 -2.81,-10.27 -2.81,1.29 -2.81,1.55 -2.81,-2.13 -2.81,-3.1 -2.81,1.18 -2.81,4.91 -2.81,0.25 -2.8,7.5 -2.81,6.33 -2.81,2.34 -2.81,7.64 -2.81,-9.65 -2.81,0.41 -2.81,-10.12 -2.81,-7.9 -2.81,-9.12 -2.81,-8.22 -2.81,-5.26 -2.81,-3.46 -2.81,-4.16 -2.81,2.98 -2.81,1.37 -2.81,-0.54 -2.8,1.06 -2.81,-0.66 -2.81,-0.88 -2.81,-0.03 -2.81,-0.63 -2.81,0.04 -2.81,0.51 0,42.7 z" /><path
           id="path46"
           style="fill:#dddddd;fill-opacity:1;fill-rule:nonzero;stroke:none"
           d="m 63.62,139.54 2.81,0.86 2.81,-9.45 2.81,-2.19 2.81,29.87 2.81,1.56 2.81,-22.24 2.8,-10.78 2.81,-2.29 2.81,-7.15 2.81,-1.69 2.81,-3.1 2.81,5.43 2.81,1.3 2.81,3.9 2.81,5.45 2.81,1.84 2.81,-4.37 2.81,0.81 2.81,-1.11 2.81,-5.52 2.81,0.03 2.81,-1.87 2.8,3.59 2.81,-3.69 2.81,3.04 2.81,-0.94 2.81,-2.78 2.81,-0.21 2.81,6.23 2.81,0.17 2.81,0.17 2.81,-1.25 2.81,-1.06 2.81,-1.26 2.81,-3.35 2.81,-1.78 2.81,-0.16 2.81,1.61 2.8,2.73 2.81,-0.43 2.81,1.43 2.81,9.91 2.81,14.82 2.81,12.23 2.81,-14.8 2.81,-25.68 2.81,-6.65 2.81,-1.3 2.81,0.28 2.81,-0.57 2.81,0.58 2.81,1.77 2.81,11.37 2.81,13.98 2.8,11.4 2.81,-5.43 2.81,6.75 2.81,-4.21 2.81,-7.78 2.81,-2.99 2.81,-13.98 2.81,0.37 2.81,-4.56 2.81,-1.86 2.81,7.96 2.81,11.56 2.81,21.06 2.81,15.47 2.81,23.01 2.81,20.45 2.8,23.59 2.81,6.06 2.81,16.99 2.81,7.94 2.81,10.97 2.81,8.17 2.81,-0.41 2.81,11.31 2.81,12.33 2.81,10.25 2.81,10.33 2.81,4.69 2.81,6.06 2.81,3.75 2.81,3.95 2.81,1.68 2.8,-1.8 2.81,-6.01 2.81,-12.84 2.81,-9.1 2.81,-5.41 2.81,-7.01 2.81,-5.67 2.81,-5.29 2.81,-1.54 2.81,-10.25 2.81,-5.73 2.81,-17 2.81,-25.35 2.81,-37.21 2.81,-19.91 2.81,-6.13 2.8,-12.8 2.81,-1.35 2.81,-31.93 2.81,-40.35 2.81,-4.96 2.81,-8.26 2.81,-2.56 2.81,0.66 2.81,-2.37 2.81,1.66 2.81,0.82 2.81,1.27 2.81,2.59 2.81,-0.27 2.81,0.74 2.81,3.19 2.8,0.56 2.81,-0.65 0,-11.81 -2.81,-2.97 -2.8,-2.14 -2.81,0.81 -2.81,-3 -2.81,-2.08 -2.81,-0.82 -2.81,0.67 -2.81,0.86 -2.81,-1.23 -2.81,-1.37 -2.81,2.36 -2.81,-1.5 -2.81,2.81 -2.81,2.96 -2.81,9.02 -2.81,12.17 -2.81,22.16 -2.8,18.26 -2.81,14.22 -2.81,13.46 -2.81,10.7 -2.81,16.93 -2.81,24 -2.81,16.16 -2.81,20.64 -2.81,-7.23 -2.81,14.08 -2.81,21.31 -2.81,7.76 -2.81,3.84 -2.81,16.37 -2.81,14.99 -2.81,10.01 -2.8,4.94 -2.81,-9.12 -2.81,-2.78 -2.81,-2.91 -2.81,-7.79 -2.81,-25.64 -2.81,-16.12 -2.81,-12.69 -2.81,-10.29 -2.81,6.26 -2.81,-3.74 -2.81,-14.37 -2.81,-16.27 -2.81,-4.65 -2.81,-21.66 -2.81,-3.6 -2.8,-23.25 -2.81,-12.44 -2.81,-10.94 -2.81,-19.89 -2.81,-8.91 -2.81,-9.63 -2.81,-5.46 -2.81,2.31 -2.81,0.31 -2.81,4.33 -2.81,6.23 -2.81,2.86 -2.81,8.65 -2.81,-1.19 -2.81,1.86 -2.81,-4.92 -2.8,-2.01 -2.81,-5.97 -2.81,-3.34 -2.81,-2.97 -2.81,-1.98 -2.81,1.32 -2.81,2.4 -2.81,0.48 -2.81,3.31 -2.81,1.84 -2.81,-1.02 -2.81,-1.34 -2.81,-0.23 -2.81,-0.13 -2.81,-0.22 -2.81,-0.65 -2.8,-0.49 -2.81,-0.44 -2.81,-1.42 -2.81,3.53 -2.81,0.47 -2.81,1.31 -2.81,1.36 -2.81,1.55 -2.81,0.11 -2.81,0.25 -2.81,-0.24 -2.81,1.02 -2.81,0.55 -2.81,0.51 -2.81,0.29 -2.81,0.62 -2.8,-0.21 -2.81,-0.49 -2.81,2.14 -2.81,-0.81 -2.81,-1.78 -2.81,-0.65 -2.81,-0.79 -2.81,0.12 -2.81,-0.28 -2.81,-2.34 -2.81,-1.69 -2.81,-1.77 -2.81,-1.81 -2.81,-0.75 -2.81,3.13 -2.81,6.91 -2.8,3.86 -2.81,2.05 -2.81,-2.03 -2.81,-2.36 -2.81,3.01 -2.81,1.18 -2.81,3.44 0,19.65 z" /><path
           id="path48"
           style="fill:none;stroke:#f8766d;stroke-width:1.05999994;stroke-linecap:butt;stroke-linejoin:round;stroke-miterlimit:1;stroke-dasharray:none;stroke-opacity:1"
           d="m 63.62,105.71 2.81,-2.69 2.81,0.38 2.81,1.12 2.81,1.28 2.81,1.08 2.81,0.89 2.8,-0.6 2.81,-0.3 2.81,-0.8 2.81,0.41 2.81,1.22 2.81,3.27 2.81,7.24 2.81,11.18 2.81,18.29 2.81,8.4 2.81,10.42 2.81,8.03 2.81,1.38 2.81,-3.69 2.81,-6.21 2.81,-12.17 2.8,-6.99 2.81,-5.78 2.81,1.51 2.81,-2.6 2.81,3.5 2.81,-1.03 2.81,5.17 2.81,3.38 2.81,14.83 2.81,2.98 2.81,4.22 2.81,11.53 2.81,2.98 2.81,-5.19 2.81,-13.87 2.81,-6.69 2.8,-12.22 2.81,-5.45 2.81,-1.27 2.81,-6.78 2.81,-13.33 2.81,-8.95 2.81,-6.39 2.81,-1.9 2.81,1.22 2.81,0.26 2.81,0.68 2.81,1 2.81,0.18 2.81,-2.77 2.81,-2.16 2.81,-3.14 2.8,-0.02 2.81,-0.94 2.81,0.38 2.81,0.15 2.81,-0.16 2.81,-0.33 2.81,1.27 2.81,1.24 2.81,0.58 2.81,-0.79 2.81,-0.34 2.81,-1.12 2.81,-2.94 2.81,-0.6 2.81,-0.79 2.81,0.57 2.8,0.95 2.81,1.28 2.81,2.73 2.81,1.97 2.81,2.86 2.81,0.8 2.81,3.21 2.81,3.41 2.81,3.44 2.81,0.51 2.81,1 2.81,-3.09 2.81,-5.93 2.81,-2.78 2.81,-5.16 2.81,-1.29 2.8,-1.45 2.81,0.64 2.81,1.67 2.81,1.9 2.81,2.6 2.81,2.77 2.81,4.92 2.81,1.05 2.81,0.1 2.81,1.88 2.81,-0.49 2.81,0.34 2.81,4.36 2.81,2 2.81,12.92 2.81,11.81 2.8,12 2.81,7.42 2.81,-3.9 2.81,-6.73 2.81,-1.83 2.81,-3.71 2.81,-7.06 2.81,-4.87 2.81,-8.85 2.81,-10.82 2.81,-8.53 2.81,-6.95 2.81,-3.05 2.81,-1.23 2.81,0.05 2.81,0.08 2.8,-1.71 2.81,-0.21" /><path
           id="path50"
           style="fill:none;stroke:#00bfc4;stroke-width:1.05999994;stroke-linecap:butt;stroke-linejoin:round;stroke-miterlimit:1;stroke-dasharray:2.13, 2.13;stroke-dashoffset:0;stroke-opacity:1"
           d="m 63.62,126.5 2.81,-3.65 2.81,-1.75 2.81,-2.54 2.81,4.21 2.81,12.38 2.81,-12.34 2.8,-7.32 2.81,-5.68 2.81,-3.93 2.81,1.06 2.81,1.12 2.81,1.28 2.81,1.74 2.81,3.33 2.81,2.42 2.81,1.43 2.81,1.05 2.81,-0.16 2.81,-2.41 2.81,-0.56 2.81,-1.46 2.81,-0.32 2.8,-0.69 2.81,-0.34 2.81,-0.17 2.81,-0.22 2.81,-0.13 2.81,-0.17 2.81,0.08 2.81,0.8 2.81,-0.39 2.81,-0.72 2.81,-1.05 2.81,-0.61 2.81,-1.73 2.81,-0.77 2.81,-0.33 2.81,1.13 2.8,0.83 2.81,0.5 2.81,0.86 2.81,3.51 2.81,12.4 2.81,-2.86 2.81,-7.15 2.81,-6.17 2.81,-5.69 2.81,-1.13 2.81,-1.09 2.81,-1.34 2.81,2.42 2.81,2.19 2.81,5.37 2.81,8.29 2.8,6.78 2.81,4.72 2.81,1.41 2.81,-2.7 2.81,-9.03 2.81,-6.69 2.81,-5.64 2.81,-5.08 2.81,-1.1 2.81,-0.16 2.81,4.98 2.81,10.14 2.81,13.5 2.81,20.1 2.81,22.51 2.81,16.96 2.8,21.63 2.81,9.84 2.81,11.28 2.81,8.23 2.81,13.64 2.81,6.84 2.81,10.76 2.81,0.54 2.81,6.16 2.81,11.82 2.81,18.78 2.81,13.99 2.81,6.68 2.81,4.39 2.81,2.24 2.81,4.26 2.8,-3.44 2.81,-6.47 2.81,-14.2 2.81,-12.41 2.81,-5.77 2.81,-8.61 2.81,-8.14 2.81,-6.08 2.81,-4.52 2.81,-6.7 2.81,-10.14 2.81,-21.91 2.81,-35.96 2.81,-18.51 2.81,-12.61 2.81,-16.91 2.8,-21.65 2.81,-20.95 2.81,-20.61 2.81,-10.02 2.81,-5.26 2.81,-3.78 2.81,-0.29 2.81,-0.33 2.81,0.11 2.81,0.5 2.81,0.5 2.81,0.98 2.81,1.53 2.81,1.14 2.81,0.83 2.81,1.06 2.8,1.48 2.81,0.15" /></g></g><g
       id="g52" /><g
       id="g54"><path
         id="path56"
         style="fill:none;stroke:#000000;stroke-width:1.05999994;stroke-linecap:butt;stroke-linejoin:round;stroke-miterlimit:10;stroke-dasharray:none;stroke-opacity:1"
         d="m 46.76,39.85 0,377.75" /></g><g
       id="g58"><text
         id="text60"
         style="font-variant:normal;font-weight:normal;font-size:10px;font-family:Helvetica;-inkscape-font-specification:Helvetica;writing-mode:lr-tb;fill:#000000;fill-opacity:1;fill-rule:nonzero;stroke:none"
         transform="matrix(1,0,0,-1,25.78,122.11)"><tspan
           id="tspan62"
           y="0"
           x="0 5.5599999 8.3400002">0.0</tspan></text>
<text
         id="text64"
         style="font-variant:normal;font-weight:normal;font-size:10px;font-family:Helvetica;-inkscape-font-specification:Helvetica;writing-mode:lr-tb;fill:#000000;fill-opacity:1;fill-rule:nonzero;stroke:none"
         transform="matrix(1,0,0,-1,25.78,232)"><tspan
           id="tspan66"
           y="0"
           x="0 5.5599999 8.3400002">0.4</tspan></text>
<text
         id="text68"
         style="font-variant:normal;font-weight:normal;font-size:10px;font-family:Helvetica;-inkscape-font-specification:Helvetica;writing-mode:lr-tb;fill:#000000;fill-opacity:1;fill-rule:nonzero;stroke:none"
         transform="matrix(1,0,0,-1,25.78,341.89)"><tspan
           id="tspan70"
           y="0"
           x="0 5.5599999 8.3400002">0.8</tspan></text>
</g><g
       id="g72" /><g
       id="g74"><path
         id="path76"
         style="fill:none;stroke:#000000;stroke-width:1.05999994;stroke-linecap:butt;stroke-linejoin:round;stroke-miterlimit:10;stroke-dasharray:none;stroke-opacity:1"
         d="m 42.51,125.7 4.25,0" /><path
         id="path78"
         style="fill:none;stroke:#000000;stroke-width:1.05999994;stroke-linecap:butt;stroke-linejoin:round;stroke-miterlimit:10;stroke-dasharray:none;stroke-opacity:1"
         d="m 42.51,235.59 4.25,0" /><path
         id="path80"
         style="fill:none;stroke:#000000;stroke-width:1.05999994;stroke-linecap:butt;stroke-linejoin:round;stroke-miterlimit:10;stroke-dasharray:none;stroke-opacity:1"
         d="m 42.51,345.48 4.25,0" /></g><g
       id="g82" /><g
       id="g84" /><g
       id="g86" /><g
       id="g88" /><g
       id="g90"><path
         id="path92"
         style="fill:none;stroke:#000000;stroke-width:1.05999994;stroke-linecap:butt;stroke-linejoin:round;stroke-miterlimit:10;stroke-dasharray:none;stroke-opacity:1"
         d="m 46.76,39.85 370.84,0" /></g><g
       id="g94"><path
         id="path96"
         style="fill:none;stroke:#000000;stroke-width:1.05999994;stroke-linecap:butt;stroke-linejoin:round;stroke-miterlimit:10;stroke-dasharray:none;stroke-opacity:1"
         d="m 63.62,35.6 0,4.25" /><path
         id="path98"
         style="fill:none;stroke:#000000;stroke-width:1.05999994;stroke-linecap:butt;stroke-linejoin:round;stroke-miterlimit:10;stroke-dasharray:none;stroke-opacity:1"
         d="m 147.9,35.6 0,4.25" /><path
         id="path100"
         style="fill:none;stroke:#000000;stroke-width:1.05999994;stroke-linecap:butt;stroke-linejoin:round;stroke-miterlimit:10;stroke-dasharray:none;stroke-opacity:1"
         d="m 232.18,35.6 0,4.25" /><path
         id="path102"
         style="fill:none;stroke:#000000;stroke-width:1.05999994;stroke-linecap:butt;stroke-linejoin:round;stroke-miterlimit:10;stroke-dasharray:none;stroke-opacity:1"
         d="m 316.46,35.6 0,4.25" /><path
         id="path104"
         style="fill:none;stroke:#000000;stroke-width:1.05999994;stroke-linecap:butt;stroke-linejoin:round;stroke-miterlimit:10;stroke-dasharray:none;stroke-opacity:1"
         d="m 400.74,35.6 0,4.25" /></g><g
       id="g106" /><g
       id="g108"><text
         id="text110"
         style="font-variant:normal;font-weight:normal;font-size:10px;font-family:Helvetica;-inkscape-font-specification:Helvetica;writing-mode:lr-tb;fill:#000000;fill-opacity:1;fill-rule:nonzero;stroke:none"
         transform="matrix(1,0,0,-1,55.14,25.58)"><tspan
           id="tspan112"
           y="0"
           x="0 5.8400002 11.4">−60</tspan></text>
<text
         id="text114"
         style="font-variant:normal;font-weight:normal;font-size:10px;font-family:Helvetica;-inkscape-font-specification:Helvetica;writing-mode:lr-tb;fill:#000000;fill-opacity:1;fill-rule:nonzero;stroke:none"
         transform="matrix(1,0,0,-1,139.42,25.58)"><tspan
           id="tspan116"
           y="0"
           x="0 5.8400002 11.4">−30</tspan></text>
<text
         id="text118"
         style="font-variant:normal;font-weight:normal;font-size:10px;font-family:Helvetica;-inkscape-font-specification:Helvetica;writing-mode:lr-tb;fill:#000000;fill-opacity:1;fill-rule:nonzero;stroke:none"
         transform="matrix(1,0,0,-1,229.4,25.58)"><tspan
           id="tspan120"
           y="0"
           x="0">0</tspan></text>
<text
         id="text122"
         style="font-variant:normal;font-weight:normal;font-size:10px;font-family:Helvetica;-inkscape-font-specification:Helvetica;writing-mode:lr-tb;fill:#000000;fill-opacity:1;fill-rule:nonzero;stroke:none"
         transform="matrix(1,0,0,-1,310.9,25.58)"><tspan
           id="tspan124"
           y="0"
           x="0 5.5599999">30</tspan></text>
<text
         id="text126"
         style="font-variant:normal;font-weight:normal;font-size:10px;font-family:Helvetica;-inkscape-font-specification:Helvetica;writing-mode:lr-tb;fill:#000000;fill-opacity:1;fill-rule:nonzero;stroke:none"
         transform="matrix(1,0,0,-1,395.18,25.58)"><tspan
           id="tspan128"
           y="0"
           x="0 5.5599999">60</tspan></text>
</g><g
       id="g130" /><g
       id="g132" /><g
       id="g134" /><g
       id="g136" /><g
       id="g138"><text
         id="text140"
         style="font-variant:normal;font-weight:normal;font-size:12px;font-family:Helvetica;-inkscape-font-specification:Helvetica;writing-mode:lr-tb;fill:#000000;fill-opacity:1;fill-rule:nonzero;stroke:none"
         transform="matrix(1,0,0,-1,186.85,13.37)"><tspan
           id="tspan142"
           y="0"
           x="0 6 9.9960003 16.667999 22.667999 28.667999 35.675999 45.672001 52.344002 59.015999 62.352001 69.024002 75.695999 78.360001 84.671997">cross−map delay</tspan></text>
</g><g
       id="g144" /><g
       id="g146"><text
         id="text148"
         style="font-variant:normal;font-weight:normal;font-size:12px;font-family:Helvetica;-inkscape-font-specification:Helvetica;writing-mode:lr-tb;fill:#000000;fill-opacity:1;fill-rule:nonzero;stroke:none"
         transform="matrix(0,1,1,0,19.42,164.58)"><tspan
           id="tspan150"
           y="0"
           x="0 6 9.9960003 16.667999 22.667999 28.667999 35.675999 45.672001 52.344002 59.015999 62.352001 68.351997 75.024002 79.019997 83.015999 89.688004 92.351997 99.024002 102.36 105.024 111.696 118.368">cross−map correlation </tspan></text>
<text
         id="text152"
         style="font-variant:normal;font-weight:normal;font-size:12px;font-family:Symbol;-inkscape-font-specification:Symbol;writing-mode:lr-tb;fill:#000000;fill-opacity:1;fill-rule:nonzero;stroke:none"
         transform="matrix(0,1,1,0,19.42,286.28)"><tspan
           id="tspan154"
           y="0"
           x="0">ρ</tspan></text>
</g><g
       id="g156" /><g
       id="g158" /><g
       id="g160" /><g
       id="g162" /><g
       id="g164" /><g
       id="g166" /><g
       id="g168" /><g
       id="g170" /><g
       id="g172" /><g
       id="g174" /><g
       id="g176" /><g
       id="g178"><path
         id="path180"
         style="fill:none;stroke:#f8766d;stroke-width:1.05999994;stroke-linecap:butt;stroke-linejoin:round;stroke-miterlimit:10;stroke-dasharray:none;stroke-opacity:1"
         d="m 193.35,76.55 13.83,0" /></g><g
       id="g182" /><g
       id="g184" /><g
       id="g186" /><g
       id="g188"><path
         id="path190"
         style="fill:none;stroke:#00bfc4;stroke-width:1.05999994;stroke-linecap:butt;stroke-linejoin:round;stroke-miterlimit:10;stroke-dasharray:2.13, 2.13;stroke-dashoffset:0;stroke-opacity:1"
         d="m 193.35,59.27 13.83,0" /></g><g
       id="g192" /><g
       id="g194"><text
         id="text196"
         style="font-style:oblique;font-variant:normal;font-size:10px;font-family:Helvetica;-inkscape-font-specification:Helvetica-Oblique;writing-mode:lr-tb;fill:#000000;fill-opacity:1;fill-rule:nonzero;stroke:none"
         transform="matrix(1,0,0,-1,211.06,73.78)"><tspan
           id="tspan198"
           y="0"
           x="0">C</tspan></text>
<text
         id="text200"
         style="font-variant:normal;font-weight:normal;font-size:7px;font-family:Helvetica;-inkscape-font-specification:Helvetica;writing-mode:lr-tb;fill:#000000;fill-opacity:1;fill-rule:nonzero;stroke:none"
         transform="matrix(1,0,0,-1,219.39,71.95)"><tspan
           id="tspan202"
           y="0"
           x="0">1</tspan></text>
<text
         id="text204"
         style="font-variant:normal;font-weight:normal;font-size:10px;font-family:Helvetica;-inkscape-font-specification:Helvetica;writing-mode:lr-tb;fill:#000000;fill-opacity:1;fill-rule:nonzero;stroke:none"
         transform="matrix(1,0,0,-1,226.06,73.78)"><tspan
           id="tspan206"
           y="0"
           x="0 5 10.56 16.120001 21.120001 26.68 31.68">causes </tspan></text>
<text
         id="text208"
         style="font-style:oblique;font-variant:normal;font-size:10px;font-family:Helvetica;-inkscape-font-specification:Helvetica-Oblique;writing-mode:lr-tb;fill:#000000;fill-opacity:1;fill-rule:nonzero;stroke:none"
         transform="matrix(1,0,0,-1,260.52,73.78)"><tspan
           id="tspan210"
           y="0"
           x="0">C</tspan></text>
<text
         id="text212"
         style="font-variant:normal;font-weight:normal;font-size:7px;font-family:Helvetica;-inkscape-font-specification:Helvetica;writing-mode:lr-tb;fill:#000000;fill-opacity:1;fill-rule:nonzero;stroke:none"
         transform="matrix(1,0,0,-1,268.85,71.95)"><tspan
           id="tspan214"
           y="0"
           x="0">2</tspan></text>
</g><g
       id="g216" /><g
       id="g218"><text
         id="text220"
         style="font-style:oblique;font-variant:normal;font-size:10px;font-family:Helvetica;-inkscape-font-specification:Helvetica-Oblique;writing-mode:lr-tb;fill:#000000;fill-opacity:1;fill-rule:nonzero;stroke:none"
         transform="matrix(1,0,0,-1,211.06,56.5)"><tspan
           id="tspan222"
           y="0"
           x="0">C</tspan></text>
<text
         id="text224"
         style="font-variant:normal;font-weight:normal;font-size:7px;font-family:Helvetica;-inkscape-font-specification:Helvetica;writing-mode:lr-tb;fill:#000000;fill-opacity:1;fill-rule:nonzero;stroke:none"
         transform="matrix(1,0,0,-1,219.39,54.67)"><tspan
           id="tspan226"
           y="0"
           x="0">2</tspan></text>
<text
         id="text228"
         style="font-variant:normal;font-weight:normal;font-size:10px;font-family:Helvetica;-inkscape-font-specification:Helvetica;writing-mode:lr-tb;fill:#000000;fill-opacity:1;fill-rule:nonzero;stroke:none"
         transform="matrix(1,0,0,-1,226.06,56.5)"><tspan
           id="tspan230"
           y="0"
           x="0 5 10.56 16.120001 21.120001 26.68 31.68">causes </tspan></text>
<text
         id="text232"
         style="font-style:oblique;font-variant:normal;font-size:10px;font-family:Helvetica;-inkscape-font-specification:Helvetica-Oblique;writing-mode:lr-tb;fill:#000000;fill-opacity:1;fill-rule:nonzero;stroke:none"
         transform="matrix(1,0,0,-1,260.52,56.5)"><tspan
           id="tspan234"
           y="0"
           x="0">C</tspan></text>
<text
         id="text236"
         style="font-variant:normal;font-weight:normal;font-size:7px;font-family:Helvetica;-inkscape-font-specification:Helvetica;writing-mode:lr-tb;fill:#000000;fill-opacity:1;fill-rule:nonzero;stroke:none"
         transform="matrix(1,0,0,-1,268.85,54.67)"><tspan
           id="tspan238"
           y="0"
           x="0">1</tspan></text>
</g><g
       id="g240" /><g
       id="g242" /><g
       id="g244" /><g
       id="g246" /><g
       id="g248" /><g
       id="g250" /><g
       id="g252" /><g
       id="g254" /><g
       id="g256" /><g
       id="g258" /><g
       id="g260" /><g
       id="g262" /></g></svg>