<?xml version="1.0" encoding="UTF-8" standalone="no"?>
<svg
   xmlns:dc="http://purl.org/dc/elements/1.1/"
   xmlns:cc="http://creativecommons.org/ns#"
   xmlns:rdf="http://www.w3.org/1999/02/22-rdf-syntax-ns#"
   xmlns:svg="http://www.w3.org/2000/svg"
   xmlns="http://www.w3.org/2000/svg"
   viewBox="0 0 540 450"
   height="450"
   width="540"
   xml:space="preserve"
   version="1.1"
   id="svg2"><metadata
     id="metadata8"><rdf:RDF><cc:Work
         rdf:about=""><dc:format>image/svg+xml</dc:format><dc:type
           rdf:resource="http://purl.org/dc/dcmitype/StillImage" /></cc:Work></rdf:RDF></metadata><defs
     id="defs6"><clipPath
       id="clipPath46"
       clipPathUnits="userSpaceOnUse"><path
         id="path48"
         d="m 43.81,36.97 382.22,0 0,317.06 -382.22,0 0,-317.06 z" /></clipPath></defs><g
     transform="matrix(1.25,0,0,-1.25,0,450)"
     id="g10"><g
       id="g12" /><g
       id="g14" /><g
       id="g16" /><g
       id="g18" /><g
       id="g20" /><g
       id="g22" /><g
       id="g24" /><g
       id="g26" /><g
       id="g28" /><g
       id="g30" /><g
       id="g32"><path
         id="path34"
         style="fill:#ffffff;fill-opacity:1;fill-rule:nonzero;stroke:#ffffff;stroke-width:1.07000005;stroke-linecap:round;stroke-linejoin:round;stroke-miterlimit:10;stroke-dasharray:none;stroke-opacity:1"
         d="M 0,0 432,0 432,360 0,360 0,0 Z" /></g><g
       id="g36" /><g
       id="g38" /><g
       id="g40" /><g
       id="g42"><g
         clip-path="url(#clipPath46)"
         id="g44"><path
           id="path50"
           style="fill:#ffffff;fill-opacity:1;fill-rule:nonzero;stroke:none"
           d="m 43.81,36.97 382.22,0 0,317.06 -382.22,0 0,-317.06 z" /><path
           id="path52"
           style="fill:#dddddd;fill-opacity:1;fill-rule:nonzero;stroke:none"
           d="m 61.18,122.87 2.9,-0.6 2.89,-27.6 2.9,0.24 2.89,0.65 2.9,0.87 2.89,0.63 2.9,-0.24 2.89,-0.56 2.9,-0.2 2.9,0.08 2.89,1.44 2.9,14.04 2.89,25.39 2.9,11.45 2.89,15.76 2.9,4.02 2.89,12.34 2.9,18.28 2.9,3.91 2.89,7.36 2.9,0.74 2.89,-1.74 2.9,-5.28 2.89,-3.79 2.9,-1.7 2.89,-4.92 2.9,4.23 2.9,5.94 2.89,-11.11 2.9,-5.61 2.89,16.68 2.9,-4.97 2.89,8.29 2.9,1.87 2.9,-1.83 2.89,-12.96 2.9,-11.39 2.89,-10.65 2.9,-10.25 2.89,-9.5 2.9,-13.26 2.89,-4.37 2.9,-17.25 2.9,-5.6 2.89,-9.22 2.9,0.08 2.89,-3.72 2.9,1.14 2.89,1.7 2.9,-1.89 2.89,0.9 2.9,-3.95 2.9,-2.64 2.89,-3.01 2.9,1.11 2.89,1.35 2.9,-1.25 2.89,0.25 2.9,2.81 2.89,-3.86 2.9,2 2.9,2.15 2.89,4.46 2.9,-4.34 2.89,2.65 2.9,-2.17 2.89,-3.38 2.9,1.19 2.89,-2.99 2.9,0.87 2.9,0.82 2.89,-1.37 2.9,4.24 2.89,2.3 2.9,4.72 2.89,0.75 2.9,5.54 2.89,0.5 2.9,3.82 2.9,1.23 2.89,-1.22 2.9,-2.72 2.89,-6.2 2.9,-3.72 2.89,-2.12 2.9,2.74 2.89,-5.43 2.9,-1.29 2.9,3.83 2.89,10.8 2.9,-7.09 2.89,11.33 2.9,-1.97 2.89,5.38 2.9,-4.34 2.9,4.03 2.89,-1.88 2.9,1.92 2.89,4.58 2.9,3.23 2.89,10.86 2.9,8.12 2.89,12.12 2.9,2.75 2.9,-2.71 2.89,-3.28 2.9,2.07 2.89,-1.18 2.9,-5.52 2.89,-8.89 2.9,-5.07 2.89,-9.86 2.9,-10.34 2.9,-8.44 2.89,-3.09 2.9,-1.71 2.89,-0.03 2.9,-0.83 2.89,1.27 2.9,-1.49 0,-21.2 -2.9,-0.45 -2.89,2.26 -2.9,-1.77 -2.89,1.05 -2.9,2.86 -2.89,1.48 -2.9,5.18 -2.9,2.51 -2.89,7.24 -2.9,6.21 -2.89,2.78 -2.9,7.8 -2.89,1.12 -2.9,2.75 -2.89,5.48 -2.9,1.26 -2.9,-3.81 -2.89,-9.75 -2.9,-6.54 -2.89,-5.56 -2.9,-2.95 -2.89,-1.43 -2.9,-0.39 -2.89,-2.76 -2.9,0.68 -2.9,-0.39 -2.89,-1.12 -2.9,-2.36 -2.89,-1.82 -2.9,-2.98 -2.89,-0.09 -2.9,-0.44 -2.9,-0.35 -2.89,0.03 -2.9,1.94 -2.89,1.98 -2.9,3.05 -2.89,3.33 -2.9,2.63 -2.89,-0.47 -2.9,-1.64 -2.9,-1.41 -2.89,-2.91 -2.9,-2.43 -2.89,-1.89 -2.9,-1.07 -2.89,-1.35 -2.9,-1.19 -2.89,-3.15 -2.9,-0.35 -2.9,-0.07 -2.89,-0.01 -2.9,0.81 -2.89,1.39 -2.9,1.68 -2.89,1.75 -2.9,0.43 -2.89,-0.04 -2.9,-0.93 -2.9,-0.25 -2.89,-0.57 -2.9,-0.25 -2.89,0.19 -2.9,-0.52 -2.89,0.77 -2.9,-0.64 -2.89,4.17 -2.9,2.35 -2.9,0.11 -2.89,1.62 -2.9,-1.81 -2.89,0.2 -2.9,0.41 -2.89,-1.04 -2.9,1.27 -2.89,3.67 -2.9,3.71 -2.9,4.31 -2.89,9.44 -2.9,-0.55 -2.89,5.96 -2.9,4.16 -2.89,3.95 -2.9,-1.87 -2.89,5.04 -2.9,-2.1 -2.9,-3.83 -2.89,-3.79 -2.9,0.07 -2.89,-8.62 -2.9,1.09 -2.89,1.3 -2.9,-1.79 -2.9,-2.6 -2.89,0.99 -2.9,4.12 -2.89,0.21 -2.9,6.29 -2.89,5.32 -2.9,1.97 -2.89,6.4 -2.9,-8.1 -2.9,0.35 -2.89,-8.49 -2.9,-6.64 -2.89,-7.65 -2.9,-6.9 -2.89,-4.41 -2.9,-2.91 -2.89,-3.49 -2.9,2.5 -2.9,1.15 -2.89,-0.46 -2.9,0.9 -2.89,-0.56 -2.9,-0.73 -2.89,-0.03 -2.9,-0.53 -2.89,0.03 -2.9,0.43 0,35.84 z" /><path
           id="path54"
           style="fill:#dddddd;fill-opacity:1;fill-rule:nonzero;stroke:none"
           d="m 61.18,120.63 2.9,0.73 2.89,-7.93 2.9,-1.84 2.89,25.07 2.9,1.31 2.89,-18.67 2.9,-9.04 2.89,-1.93 2.9,-6 2.9,-1.41 2.89,-2.61 2.9,4.56 2.89,1.09 2.9,3.28 2.89,4.57 2.9,1.54 2.89,-3.67 2.9,0.69 2.9,-0.93 2.89,-4.64 2.9,0.02 2.89,-1.56 2.9,3.01 2.89,-3.1 2.9,2.55 2.89,-0.79 2.9,-2.33 2.9,-0.17 2.89,5.23 2.9,0.14 2.89,0.14 2.9,-1.05 2.89,-0.89 2.9,-1.05 2.9,-2.82 2.89,-1.49 2.9,-0.14 2.89,1.36 2.9,2.29 2.89,-0.36 2.9,1.2 2.89,8.31 2.9,12.44 2.9,10.27 2.89,-12.42 2.9,-21.56 2.89,-5.58 2.9,-1.09 2.89,0.23 2.9,-0.48 2.89,0.49 2.9,1.49 2.9,9.54 2.89,11.73 2.9,9.57 2.89,-4.55 2.9,5.66 2.89,-3.53 2.9,-6.53 2.89,-2.51 2.9,-11.73 2.9,0.3 2.89,-3.82 2.9,-1.56 2.89,6.68 2.9,9.7 2.89,17.68 2.9,12.98 2.89,19.32 2.9,17.16 2.9,19.8 2.89,5.08 2.9,14.26 2.89,6.67 2.9,9.21 2.89,6.85 2.9,-0.34 2.89,9.49 2.9,10.35 2.9,8.6 2.89,8.68 2.9,3.93 2.89,5.09 2.9,3.15 2.89,3.31 2.9,1.41 2.89,-1.52 2.9,-5.03 2.9,-10.79 2.89,-7.63 2.9,-4.54 2.89,-5.89 2.9,-4.75 2.89,-4.44 2.9,-1.3 2.9,-8.6 2.89,-4.81 2.9,-14.27 2.89,-21.28 2.9,-31.23 2.89,-16.71 2.9,-5.15 2.89,-10.73 2.9,-1.14 2.9,-26.8 2.89,-33.87 2.9,-4.16 2.89,-6.93 2.9,-2.15 2.89,0.55 2.9,-1.98 2.89,1.38 2.9,0.7 2.9,1.06 2.89,2.18 2.9,-0.23 2.89,0.62 2.9,2.68 2.89,0.47 2.9,-0.55 0,-9.91 -2.9,-2.5 -2.89,-1.79 -2.9,0.68 -2.89,-2.52 -2.9,-1.75 -2.89,-0.68 -2.9,0.56 -2.9,0.73 -2.89,-1.04 -2.9,-1.15 -2.89,1.98 -2.9,-1.26 -2.89,2.36 -2.9,2.49 -2.89,7.56 -2.9,10.22 -2.9,18.6 -2.89,15.32 -2.9,11.94 -2.89,11.3 -2.9,8.98 -2.89,14.21 -2.9,20.14 -2.89,13.57 -2.9,17.32 -2.9,-6.07 -2.89,11.82 -2.9,17.89 -2.89,6.51 -2.9,3.22 -2.89,13.74 -2.9,12.58 -2.9,8.41 -2.89,4.14 -2.9,-7.65 -2.89,-2.34 -2.9,-2.44 -2.89,-6.54 -2.9,-21.52 -2.89,-13.52 -2.9,-10.66 -2.9,-8.64 -2.89,5.26 -2.9,-3.14 -2.89,-12.06 -2.9,-13.65 -2.89,-3.91 -2.9,-18.18 -2.89,-3.03 -2.9,-19.5 -2.9,-10.44 -2.89,-9.19 -2.9,-16.69 -2.89,-7.48 -2.9,-8.09 -2.89,-4.57 -2.9,1.94 -2.89,0.25 -2.9,3.63 -2.9,5.23 -2.89,2.4 -2.9,7.26 -2.89,-1 -2.9,1.57 -2.89,-4.13 -2.9,-1.69 -2.89,-5.01 -2.9,-2.81 -2.9,-2.49 -2.89,-1.66 -2.9,1.11 -2.89,2.02 -2.9,0.4 -2.89,2.77 -2.9,1.55 -2.89,-0.85 -2.9,-1.13 -2.9,-0.19 -2.89,-0.12 -2.9,-0.18 -2.89,-0.54 -2.9,-0.41 -2.89,-0.37 -2.9,-1.2 -2.89,2.97 -2.9,0.39 -2.9,1.1 -2.89,1.14 -2.9,1.3 -2.89,0.1 -2.9,0.21 -2.89,-0.2 -2.9,0.85 -2.9,0.46 -2.89,0.43 -2.9,0.25 -2.89,0.51 -2.9,-0.17 -2.89,-0.42 -2.9,1.81 -2.89,-0.68 -2.9,-1.5 -2.9,-0.55 -2.89,-0.66 -2.9,0.1 -2.89,-0.23 -2.9,-1.97 -2.89,-1.41 -2.9,-1.49 -2.89,-1.52 -2.9,-0.63 -2.9,2.63 -2.89,5.79 -2.9,3.25 -2.89,1.72 -2.9,-1.71 -2.89,-1.98 -2.9,2.53 -2.89,0.99 -2.9,2.89 0,16.48 z" /><path
           id="path56"
           style="fill:none;stroke:#f8766d;stroke-width:1.07000005;stroke-linecap:butt;stroke-linejoin:round;stroke-miterlimit:1;stroke-dasharray:none;stroke-opacity:1"
           d="m 61.18,92.24 2.9,-2.26 2.89,0.33 2.9,0.94 2.89,1.07 2.9,0.91 2.89,0.75 2.9,-0.51 2.89,-0.25 2.9,-0.67 2.9,0.34 2.89,1.02 2.9,2.75 2.89,6.08 2.9,9.38 2.89,15.35 2.9,7.05 2.89,8.75 2.9,6.74 2.9,1.15 2.89,-3.09 2.9,-5.22 2.89,-10.21 2.9,-5.87 2.89,-4.85 2.9,1.27 2.89,-2.18 2.9,2.94 2.9,-0.87 2.89,4.34 2.9,2.83 2.89,12.45 2.9,2.51 2.89,3.54 2.9,9.67 2.9,2.51 2.89,-4.36 2.9,-11.64 2.89,-5.62 2.9,-10.26 2.89,-4.57 2.9,-1.06 2.89,-5.7 2.9,-11.18 2.9,-7.51 2.89,-5.37 2.9,-1.59 2.89,1.02 2.9,0.22 2.89,0.57 2.9,0.84 2.89,0.15 2.9,-2.32 2.9,-1.82 2.89,-2.64 2.9,-0.01 2.89,-0.78 2.9,0.31 2.89,0.13 2.9,-0.13 2.89,-0.28 2.9,1.06 2.9,1.04 2.89,0.49 2.9,-0.66 2.89,-0.29 2.9,-0.94 2.89,-2.46 2.9,-0.51 2.89,-0.66 2.9,0.48 2.9,0.79 2.89,1.08 2.9,2.29 2.89,1.65 2.9,2.4 2.89,0.67 2.9,2.7 2.89,2.86 2.9,2.88 2.9,0.43 2.89,0.84 2.9,-2.59 2.89,-4.98 2.9,-2.33 2.89,-4.33 2.9,-1.08 2.89,-1.22 2.9,0.54 2.9,1.4 2.89,1.6 2.9,2.17 2.89,2.33 2.9,4.13 2.89,0.88 2.9,0.09 2.9,1.57 2.89,-0.41 2.9,0.28 2.89,3.67 2.9,1.67 2.89,10.85 2.9,9.92 2.89,10.06 2.9,6.23 2.9,-3.27 2.89,-5.65 2.9,-1.54 2.89,-3.11 2.9,-5.92 2.89,-4.09 2.9,-7.43 2.89,-9.08 2.9,-7.17 2.9,-5.83 2.89,-2.56 2.9,-1.02 2.89,0.03 2.9,0.07 2.89,-1.43 2.9,-0.18" /><path
           id="path58"
           style="fill:none;stroke:#00bfc4;stroke-width:1.07000005;stroke-linecap:butt;stroke-linejoin:round;stroke-miterlimit:1;stroke-dasharray:2.13, 2.13;stroke-dashoffset:0;stroke-opacity:1"
           d="m 61.18,109.7 2.9,-3.07 2.89,-1.47 2.9,-2.13 2.89,3.53 2.9,10.4 2.89,-10.37 2.9,-6.14 2.89,-4.77 2.9,-3.29 2.9,0.89 2.89,0.94 2.9,1.07 2.89,1.46 2.9,2.79 2.89,2.03 2.9,1.21 2.89,0.88 2.9,-0.13 2.9,-2.03 2.89,-0.47 2.9,-1.23 2.89,-0.26 2.9,-0.58 2.89,-0.28 2.9,-0.15 2.89,-0.19 2.9,-0.11 2.9,-0.13 2.89,0.06 2.9,0.68 2.89,-0.34 2.9,-0.6 2.89,-0.88 2.9,-0.51 2.9,-1.45 2.89,-0.65 2.9,-0.28 2.89,0.95 2.9,0.7 2.89,0.42 2.9,0.72 2.89,2.95 2.9,10.4 2.9,-2.4 2.89,-6 2.9,-5.18 2.89,-4.77 2.9,-0.95 2.89,-0.91 2.9,-1.13 2.89,2.03 2.9,1.84 2.9,4.5 2.89,6.96 2.9,5.69 2.89,3.96 2.9,1.19 2.89,-2.27 2.9,-7.58 2.89,-5.61 2.9,-4.74 2.9,-4.26 2.89,-0.92 2.9,-0.14 2.89,4.18 2.9,8.52 2.89,11.32 2.9,16.88 2.89,18.89 2.9,14.23 2.9,18.16 2.89,8.26 2.9,9.46 2.89,6.91 2.9,11.45 2.89,5.75 2.9,9.03 2.89,0.45 2.9,5.17 2.9,9.92 2.89,15.76 2.9,11.75 2.89,5.6 2.9,3.69 2.89,1.87 2.9,3.58 2.89,-2.89 2.9,-5.43 2.9,-11.92 2.89,-10.41 2.9,-4.85 2.89,-7.22 2.9,-6.84 2.89,-5.1 2.9,-3.79 2.9,-5.62 2.89,-8.51 2.9,-18.4 2.89,-30.17 2.9,-15.55 2.89,-10.57 2.9,-14.2 2.89,-18.17 2.9,-17.59 2.9,-17.29 2.89,-8.42 2.9,-4.41 2.89,-3.17 2.9,-0.25 2.89,-0.27 2.9,0.09 2.89,0.42 2.9,0.42 2.9,0.82 2.89,1.29 2.9,0.95 2.89,0.7 2.9,0.89 2.89,1.25 2.9,0.12" /></g></g><g
       id="g60" /><g
       id="g62" /><g
       id="g64"><path
         id="path66"
         style="fill:none;stroke:#000000;stroke-width:1.07000005;stroke-linecap:butt;stroke-linejoin:round;stroke-miterlimit:10;stroke-dasharray:none;stroke-opacity:1"
         d="m 43.81,36.97 0,317.05" /></g><g
       id="g68" /><g
       id="g70" /><g
       id="g72"><text
         id="text74"
         style="font-variant:normal;font-weight:normal;font-size:10px;font-family:Helvetica;-inkscape-font-specification:Helvetica;writing-mode:lr-tb;fill:#000000;fill-opacity:1;fill-rule:nonzero;stroke:none"
         transform="matrix(1,0,0,-1,24.53,105.43)"><tspan
           id="tspan76"
           y="0"
           x="0 5.5599999 8.3400002">0.0</tspan></text>
<text
         id="text78"
         style="font-variant:normal;font-weight:normal;font-size:10px;font-family:Helvetica;-inkscape-font-specification:Helvetica;writing-mode:lr-tb;fill:#000000;fill-opacity:1;fill-rule:nonzero;stroke:none"
         transform="matrix(1,0,0,-1,24.53,197.67)"><tspan
           id="tspan80"
           y="0"
           x="0 5.5599999 8.3400002">0.4</tspan></text>
<text
         id="text82"
         style="font-variant:normal;font-weight:normal;font-size:10px;font-family:Helvetica;-inkscape-font-specification:Helvetica;writing-mode:lr-tb;fill:#000000;fill-opacity:1;fill-rule:nonzero;stroke:none"
         transform="matrix(1,0,0,-1,24.53,289.9)"><tspan
           id="tspan84"
           y="0"
           x="0 5.5599999 8.3400002">0.8</tspan></text>
</g><g
       id="g86" /><g
       id="g88" /><g
       id="g90"><path
         id="path92"
         style="fill:none;stroke:#000000;stroke-width:1.07000005;stroke-linecap:butt;stroke-linejoin:round;stroke-miterlimit:10;stroke-dasharray:none;stroke-opacity:1"
         d="m 40.82,109.02 2.99,0" /><path
         id="path94"
         style="fill:none;stroke:#000000;stroke-width:1.07000005;stroke-linecap:butt;stroke-linejoin:round;stroke-miterlimit:10;stroke-dasharray:none;stroke-opacity:1"
         d="m 40.82,201.26 2.99,0" /><path
         id="path96"
         style="fill:none;stroke:#000000;stroke-width:1.07000005;stroke-linecap:butt;stroke-linejoin:round;stroke-miterlimit:10;stroke-dasharray:none;stroke-opacity:1"
         d="m 40.82,293.49 2.99,0" /></g><g
       id="g98" /><g
       id="g100" /><g
       id="g102" /><g
       id="g104" /><g
       id="g106" /><g
       id="g108"><path
         id="path110"
         style="fill:none;stroke:#000000;stroke-width:1.07000005;stroke-linecap:butt;stroke-linejoin:round;stroke-miterlimit:10;stroke-dasharray:none;stroke-opacity:1"
         d="m 43.81,36.97 382.21,0" /></g><g
       id="g112" /><g
       id="g114" /><g
       id="g116"><path
         id="path118"
         style="fill:none;stroke:#000000;stroke-width:1.07000005;stroke-linecap:butt;stroke-linejoin:round;stroke-miterlimit:10;stroke-dasharray:none;stroke-opacity:1"
         d="m 61.18,33.98 0,2.99" /><path
         id="path120"
         style="fill:none;stroke:#000000;stroke-width:1.07000005;stroke-linecap:butt;stroke-linejoin:round;stroke-miterlimit:10;stroke-dasharray:none;stroke-opacity:1"
         d="m 148.05,33.98 0,2.99" /><path
         id="path122"
         style="fill:none;stroke:#000000;stroke-width:1.07000005;stroke-linecap:butt;stroke-linejoin:round;stroke-miterlimit:10;stroke-dasharray:none;stroke-opacity:1"
         d="m 234.91,33.98 0,2.99" /><path
         id="path124"
         style="fill:none;stroke:#000000;stroke-width:1.07000005;stroke-linecap:butt;stroke-linejoin:round;stroke-miterlimit:10;stroke-dasharray:none;stroke-opacity:1"
         d="m 321.78,33.98 0,2.99" /><path
         id="path126"
         style="fill:none;stroke:#000000;stroke-width:1.07000005;stroke-linecap:butt;stroke-linejoin:round;stroke-miterlimit:10;stroke-dasharray:none;stroke-opacity:1"
         d="m 408.65,33.98 0,2.99" /></g><g
       id="g128" /><g
       id="g130"><text
         id="text132"
         style="font-variant:normal;font-weight:normal;font-size:10px;font-family:Helvetica;-inkscape-font-specification:Helvetica;writing-mode:lr-tb;fill:#000000;fill-opacity:1;fill-rule:nonzero;stroke:none"
         transform="matrix(1,0,0,-1,52.7,24.41)"><tspan
           id="tspan134"
           y="0"
           x="0 5.8400002 11.4">−60</tspan></text>
<text
         id="text136"
         style="font-variant:normal;font-weight:normal;font-size:10px;font-family:Helvetica;-inkscape-font-specification:Helvetica;writing-mode:lr-tb;fill:#000000;fill-opacity:1;fill-rule:nonzero;stroke:none"
         transform="matrix(1,0,0,-1,139.57,24.41)"><tspan
           id="tspan138"
           y="0"
           x="0 5.8400002 11.4">−30</tspan></text>
<text
         id="text140"
         style="font-variant:normal;font-weight:normal;font-size:10px;font-family:Helvetica;-inkscape-font-specification:Helvetica;writing-mode:lr-tb;fill:#000000;fill-opacity:1;fill-rule:nonzero;stroke:none"
         transform="matrix(1,0,0,-1,232.13,24.41)"><tspan
           id="tspan142"
           y="0"
           x="0">0</tspan></text>
<text
         id="text144"
         style="font-variant:normal;font-weight:normal;font-size:10px;font-family:Helvetica;-inkscape-font-specification:Helvetica;writing-mode:lr-tb;fill:#000000;fill-opacity:1;fill-rule:nonzero;stroke:none"
         transform="matrix(1,0,0,-1,316.22,24.41)"><tspan
           id="tspan146"
           y="0"
           x="0 5.5599999">30</tspan></text>
<text
         id="text148"
         style="font-variant:normal;font-weight:normal;font-size:10px;font-family:Helvetica;-inkscape-font-specification:Helvetica;writing-mode:lr-tb;fill:#000000;fill-opacity:1;fill-rule:nonzero;stroke:none"
         transform="matrix(1,0,0,-1,403.09,24.41)"><tspan
           id="tspan150"
           y="0"
           x="0 5.5599999">60</tspan></text>
</g><g
       id="g152" /><g
       id="g154" /><g
       id="g156" /><g
       id="g158" /><g
       id="g160" /><g
       id="g162"><text
         id="text164"
         style="font-variant:normal;font-weight:normal;font-size:12px;font-family:Helvetica;-inkscape-font-specification:Helvetica;writing-mode:lr-tb;fill:#000000;fill-opacity:1;fill-rule:nonzero;stroke:none"
         transform="matrix(1,0,0,-1,195.73,11.01)"><tspan
           id="tspan166"
           y="0"
           x="0 6 9.9960003 16.667999 22.667999 28.667999 35.675999 45.672001 52.344002 59.015999 62.352001 65.015999 71.688004">cross−map lag</tspan></text>
</g><g
       id="g168" /><g
       id="g170" /><g
       id="g172"><text
         id="text174"
         style="font-variant:normal;font-weight:normal;font-size:12px;font-family:Helvetica;-inkscape-font-specification:Helvetica;writing-mode:lr-tb;fill:#000000;fill-opacity:1;fill-rule:nonzero;stroke:none"
         transform="matrix(0,1,1,0,16.98,131.35)"><tspan
           id="tspan176"
           y="0"
           x="0 6 9.9960003 16.667999 22.667999 28.667999 35.675999 45.672001 52.344002 59.015999 62.352001 68.351997 75.024002 79.019997 83.015999 89.688004 92.351997 99.024002 102.36 105.024 111.696 118.368">cross−map correlation </tspan></text>
<text
         id="text178"
         style="font-variant:normal;font-weight:normal;font-size:12px;font-family:Symbol;-inkscape-font-specification:Symbol;writing-mode:lr-tb;fill:#000000;fill-opacity:1;fill-rule:nonzero;stroke:none"
         transform="matrix(0,1,1,0,16.98,253.05)"><tspan
           id="tspan180"
           y="0"
           x="0">ρ</tspan></text>
</g><g
       id="g182" /><g
       id="g184" /><g
       id="g186" /><g
       id="g188" /><g
       id="g190" /><g
       id="g192" /><g
       id="g194" /><g
       id="g196" /><g
       id="g198" /><g
       id="g200" /><g
       id="g202" /><g
       id="g204" /><g
       id="g206"><path
         id="path208"
         style="fill:none;stroke:#f8766d;stroke-width:1.07000005;stroke-linecap:butt;stroke-linejoin:round;stroke-miterlimit:10;stroke-dasharray:none;stroke-opacity:1"
         d="m 196.08,68.81 13.83,0" /></g><g
       id="g210" /><g
       id="g212" /><g
       id="g214" /><g
       id="g216"><path
         id="path218"
         style="fill:none;stroke:#00bfc4;stroke-width:1.07000005;stroke-linecap:butt;stroke-linejoin:round;stroke-miterlimit:10;stroke-dasharray:2.13, 2.13;stroke-dashoffset:0;stroke-opacity:1"
         d="m 196.08,51.53 13.83,0" /></g><g
       id="g220" /><g
       id="g222"><text
         id="text224"
         style="font-style:oblique;font-variant:normal;font-size:10px;font-family:Helvetica;-inkscape-font-specification:Helvetica-Oblique;writing-mode:lr-tb;fill:#000000;fill-opacity:1;fill-rule:nonzero;stroke:none"
         transform="matrix(1,0,0,-1,213.8,66.04)"><tspan
           id="tspan226"
           y="0"
           x="0">C</tspan></text>
<text
         id="text228"
         style="font-variant:normal;font-weight:normal;font-size:7px;font-family:Helvetica;-inkscape-font-specification:Helvetica;writing-mode:lr-tb;fill:#000000;fill-opacity:1;fill-rule:nonzero;stroke:none"
         transform="matrix(1,0,0,-1,222.12,64.21)"><tspan
           id="tspan230"
           y="0"
           x="0">1</tspan></text>
<text
         id="text232"
         style="font-variant:normal;font-weight:normal;font-size:10px;font-family:Helvetica;-inkscape-font-specification:Helvetica;writing-mode:lr-tb;fill:#000000;fill-opacity:1;fill-rule:nonzero;stroke:none"
         transform="matrix(1,0,0,-1,228.79,66.04)"><tspan
           id="tspan234"
           y="0"
           x="0 5 10.56 16.120001 21.120001 26.68 31.68">causes </tspan></text>
<text
         id="text236"
         style="font-style:oblique;font-variant:normal;font-size:10px;font-family:Helvetica;-inkscape-font-specification:Helvetica-Oblique;writing-mode:lr-tb;fill:#000000;fill-opacity:1;fill-rule:nonzero;stroke:none"
         transform="matrix(1,0,0,-1,263.25,66.04)"><tspan
           id="tspan238"
           y="0"
           x="0">C</tspan></text>
<text
         id="text240"
         style="font-variant:normal;font-weight:normal;font-size:7px;font-family:Helvetica;-inkscape-font-specification:Helvetica;writing-mode:lr-tb;fill:#000000;fill-opacity:1;fill-rule:nonzero;stroke:none"
         transform="matrix(1,0,0,-1,271.58,64.21)"><tspan
           id="tspan242"
           y="0"
           x="0">2</tspan></text>
</g><g
       id="g244" /><g
       id="g246"><text
         id="text248"
         style="font-style:oblique;font-variant:normal;font-size:10px;font-family:Helvetica;-inkscape-font-specification:Helvetica-Oblique;writing-mode:lr-tb;fill:#000000;fill-opacity:1;fill-rule:nonzero;stroke:none"
         transform="matrix(1,0,0,-1,213.8,48.76)"><tspan
           id="tspan250"
           y="0"
           x="0">C</tspan></text>
<text
         id="text252"
         style="font-variant:normal;font-weight:normal;font-size:7px;font-family:Helvetica;-inkscape-font-specification:Helvetica;writing-mode:lr-tb;fill:#000000;fill-opacity:1;fill-rule:nonzero;stroke:none"
         transform="matrix(1,0,0,-1,222.12,46.93)"><tspan
           id="tspan254"
           y="0"
           x="0">2</tspan></text>
<text
         id="text256"
         style="font-variant:normal;font-weight:normal;font-size:10px;font-family:Helvetica;-inkscape-font-specification:Helvetica;writing-mode:lr-tb;fill:#000000;fill-opacity:1;fill-rule:nonzero;stroke:none"
         transform="matrix(1,0,0,-1,228.79,48.76)"><tspan
           id="tspan258"
           y="0"
           x="0 5 10.56 16.120001 21.120001 26.68 31.68">causes </tspan></text>
<text
         id="text260"
         style="font-style:oblique;font-variant:normal;font-size:10px;font-family:Helvetica;-inkscape-font-specification:Helvetica-Oblique;writing-mode:lr-tb;fill:#000000;fill-opacity:1;fill-rule:nonzero;stroke:none"
         transform="matrix(1,0,0,-1,263.25,48.76)"><tspan
           id="tspan262"
           y="0"
           x="0">C</tspan></text>
<text
         id="text264"
         style="font-variant:normal;font-weight:normal;font-size:7px;font-family:Helvetica;-inkscape-font-specification:Helvetica;writing-mode:lr-tb;fill:#000000;fill-opacity:1;fill-rule:nonzero;stroke:none"
         transform="matrix(1,0,0,-1,271.58,46.93)"><tspan
           id="tspan266"
           y="0"
           x="0">1</tspan></text>
</g><g
       id="g268" /><g
       id="g270" /><g
       id="g272" /><g
       id="g274" /><g
       id="g276" /><g
       id="g278" /><g
       id="g280" /><g
       id="g282" /><g
       id="g284" /><g
       id="g286" /><g
       id="g288" /><g
       id="g290" /></g></svg>