<?xml version="1.0" encoding="UTF-8" standalone="no"?>
<svg
   xmlns:dc="http://purl.org/dc/elements/1.1/"
   xmlns:cc="http://creativecommons.org/ns#"
   xmlns:rdf="http://www.w3.org/1999/02/22-rdf-syntax-ns#"
   xmlns:svg="http://www.w3.org/2000/svg"
   xmlns="http://www.w3.org/2000/svg"
   viewBox="0 0 270 180"
   height="180"
   width="270"
   xml:space="preserve"
   version="1.1"
   id="svg2"><metadata
     id="metadata8"><rdf:RDF><cc:Work
         rdf:about=""><dc:format>image/svg+xml</dc:format><dc:type
           rdf:resource="http://purl.org/dc/dcmitype/StillImage" /></cc:Work></rdf:RDF></metadata><defs
     id="defs6"><clipPath
       id="clipPath36"
       clipPathUnits="userSpaceOnUse"><path
         id="path38"
         d="M 0,0 216,0 216,144 0,144 0,0 Z" /></clipPath><clipPath
       id="clipPath50"
       clipPathUnits="userSpaceOnUse"><path
         id="path52"
         d="m 46.61,34.33 163.42,0 0,103.7 -163.42,0 0,-103.7 z" /></clipPath></defs><g
     transform="matrix(1.25,0,0,-1.25,0,180)"
     id="g10"><g
       id="g12" /><g
       id="g14" /><g
       id="g16" /><g
       id="g18" /><g
       id="g20" /><g
       id="g22" /><g
       id="g24" /><g
       id="g26" /><g
       id="g28" /><g
       id="g30" /><g
       id="g32"><g
         clip-path="url(#clipPath36)"
         id="g34" /></g><g
       id="g40" /><g
       id="g42" /><g
       id="g44" /><g
       id="g46"><g
         clip-path="url(#clipPath50)"
         id="g48"><path
           id="path54"
           style="fill:none;stroke:#f8766d;stroke-width:1.07000005;stroke-linecap:butt;stroke-linejoin:round;stroke-miterlimit:1;stroke-dasharray:none;stroke-opacity:1"
           d="m 54.03,39.04 0.05,59.5 0.04,24.19 0.04,10.58 0.04,-8.06 0.04,-19.13 0.04,-20.16 0.04,-16.67 0.04,-11.55 0.05,-7.31 0.04,-4.52 0.04,-2.75 0.04,-1.66 0.04,-0.97 0.04,-0.59 0.04,-0.35 0.04,-0.22 0.05,-0.12 0.04,-0.08 0.04,-0.05 0.04,-0.03 0.04,-0.02 0.04,-0.01 0.04,-0.01 0.04,0 0.05,0 0.04,-0.01 0.04,0 0.04,0 0.04,0 0.04,0 0.04,0 0.05,0 0.04,0 0.04,0 0.04,0 0.04,0 0.04,0 0.04,0 0.04,0 0.05,0 0.04,0 0.04,0 0.04,0 0.04,0 0.04,0 0.04,0 0.04,0 0.05,0 0.04,0 0.04,0 0.04,0 0.04,0 0.04,0 0.04,0 0.04,0 0.05,0 0.04,0 0.04,0 0.04,0 0.04,0 0.04,0 0.04,0 0.04,0 0.05,0 0.04,0 0.04,0 0.04,0 0.04,0 0.04,0 0.04,0 0.04,0 0.05,0 0.04,0 0.04,0 0.04,0 0.04,0 0.04,0 0.04,0 0.04,0 0.05,0 0.04,0 0.04,0 0.04,0 0.04,0 0.04,0 0.04,0 0.04,0 0.05,0 0.04,0 0.04,0 0.04,0 0.04,0 0.04,0 0.04,0 0.04,0 0.05,0 0.04,0 0.04,0 0.04,0 0.04,0 0.04,0 0.04,0 0.04,0 0.05,0 0.04,0 0.04,0 0.04,0 0.04,0 0.04,0 0.04,0 0.05,0 0.04,0 0.04,0 0.04,0 0.04,0 0.04,0 0.04,0 0.04,0 0.05,0 0.04,0 0.04,0 0.04,0 0.04,0 0.04,0 0.04,0 0.04,0 0.05,0 0.04,0 0.04,0 0.04,0 0.04,0 0.04,0 0.04,0 0.04,0 0.05,0 0.04,0 0.04,0 0.04,0 0.04,0 0.04,0 0.04,0 0.04,0 0.05,0 0.04,0 0.04,0 0.04,0 0.04,0 0.04,0 0.04,0 0.04,0 0.05,0 0.04,0 0.04,0 0.04,0 0.04,0 0.04,0 0.04,0 0.04,0 0.05,0.01 0.04,0 0.04,0 0.04,0.01 0.04,0 0.04,0.01 0.04,0.02 0.04,0.02 0.05,0.02 0.04,0.04 0.04,0.06 0.04,0.09 0.04,0.12 0.04,0.17 0.04,0.27 0.04,0.37 0.05,0.54 0.04,0.74 0.04,1.12 0.04,1.58 0.04,2.32 0.04,3.08 0.04,4.12 0.05,5.35 0.04,6.42 0.04,7.41 0.04,6.7 0.04,4.85 0.04,1.48 0.04,-1.42 0.04,-4.17 0.05,-5.72 0.04,-6.62 0.04,-6.18 0.04,-5.25 0.04,-4.21 0.04,-3.34 0.04,-2.63 0.04,-1.89 0.05,-1.43 0.04,-1.07 0.04,-0.77 0.04,-0.54 0.04,-0.44 0.04,-0.32 0.04,-0.21 0.04,-0.17 0.05,-0.13 0.04,-0.09 0.04,-0.07 0.04,-0.06 0.04,-0.04 0.04,-0.03 0.04,-0.02 0.04,-0.02 0.05,-0.02 0.04,-0.01 0.04,-0.01 0.04,-0.01 0.04,0 0.04,-0.01 0.04,0 0.04,0 0.05,-0.01 0.04,0 0.04,0 0.04,0 0.04,0 0.04,0 0.04,0 0.04,0 0.05,-0.01 0.04,0 0.04,0 0.04,0 0.04,0 0.04,0 0.04,0 0.04,0 0.05,0 0.04,0 0.04,0 0.04,0 0.04,0 0.04,0 0.04,0 0.04,0 0.05,0 0.04,0 0.04,0 0.04,0 0.04,0 0.04,0 0.04,0 0.04,0 0.05,0 0.04,0 0.04,0 0.04,0 0.04,0 0.04,0 0.04,0 0.05,0 0.04,0 0.04,0 0.04,0 0.04,0 0.04,0 0.04,0 0.04,0 0.05,0 0.04,0 0.04,0 0.04,0 0.04,0 0.04,0 0.04,0 0.04,0 0.05,0 0.04,0 0.04,0 0.04,0 0.04,0 0.04,0 0.04,0 0.04,0 0.05,0 0.04,0 0.04,0 0.04,0 0.04,0 0.04,0 0.04,0 0.04,0 0.05,0 0.04,0 0.04,0 0.04,0 0.04,0 0.04,0 0.04,0 0.04,0 0.05,0 0.04,0 0.04,0 0.04,0 0.04,0 0.04,0 0.04,0 0.04,0 0.05,0 0.04,0 0.04,0 0.04,0 0.04,0 0.04,0 0.04,0 0.04,0 0.05,0 0.04,0 0.04,0 0.04,0 0.04,0 0.04,0 0.04,0 0.04,0 0.05,0 0.04,0.01 0.04,0 0.04,0 0.04,0 0.04,0 0.04,0 0.05,0 0.04,0.01 0.04,0 0.04,0 0.04,0.01 0.04,0.01 0.04,0 0.04,0.01 0.05,0.02 0.04,0.01 0.04,0.02 0.04,0.03 0.04,0.03 0.04,0.04 0.04,0.05 0.04,0.07 0.05,0.09 0.04,0.1 0.04,0.13 0.04,0.18 0.04,0.23 0.04,0.29 0.04,0.39 0.04,0.49 0.05,0.64 0.04,0.77 0.04,0.98 0.04,1.29 0.04,1.56 0.04,1.91 0.04,2.18 0.04,2.42 0.05,2.82 0.04,3.01 0.04,2.82 0.04,2.2 0.04,1.21 0.04,0.66 0.04,-0.59 0.04,-1.44 0.05,-2.19 0.04,-2.45 0.04,-2.61 0.04,-2.71 0.04,-2.51 0.04,-2.05 0.04,-1.81 0.04,-1.55 0.05,-1.21 0.04,-1.04 0.04,-0.83 0.04,-0.71 0.04,-0.53 0.04,-0.44 0.04,-0.37 0.04,-0.31 0.05,-0.23 0.04,-0.19 0.04,-0.15 0.04,-0.12 0.04,-0.1 0.04,-0.08 0.04,-0.07 0.04,-0.06 0.05,-0.04 0.04,-0.04 0.04,-0.03 0.04,-0.03 0.04,-0.02 0.04,-0.02 0.04,-0.02 0.04,-0.01 0.05,-0.01 0.04,-0.01 0.04,-0.01 0.04,-0.01 0.04,-0.01 0.04,0 0.04,-0.01 0.05,0 0.04,-0.01 0.04,0 0.04,0 0.04,0 0.04,-0.01 0.04,0 0.04,0 0.05,0 0.04,0 0.04,0 0.04,0 0.04,0 0.04,0 0.04,0 0.04,0 0.05,0 0.04,0 0.04,0.01 0.04,0 0.04,0 0.04,0 0.04,0.01 0.04,0 0.05,0 0.04,0 0.04,0.01 0.04,0 0.04,0 0.04,0 0.04,0.01 0.04,0 0.05,0 0.04,0 0.04,0 0.04,0 0.04,0.01 0.04,0 0.04,0 0.04,0 0.05,0 0.04,0 0.04,0 0.04,0.01 0.04,0 0.04,0 0.04,0 0.04,0 0.05,0 0.04,0 0.04,0 0.04,0.01 0.04,0 0.04,0 0.04,0.01 0.04,0 0.05,0.01 0.04,0 0.04,0.01 0.04,0.01 0.04,0.01 0.04,0.01 0.04,0.01 0.04,0.01 0.05,0.01 0.04,0.02 0.04,0.02 0.04,0.02 0.04,0.02 0.04,0.04 0.04,0.03 0.05,0.04 0.04,0.04 0.04,0.06 0.04,0.06 0.04,0.06 0.04,0.08 0.04,0.09 0.04,0.1 0.05,0.12 0.04,0.13 0.04,0.16 0.04,0.21 0.04,0.22 0.04,0.28 0.04,0.31 0.04,0.36 0.05,0.44 0.04,0.46 0.04,0.54 0.04,0.59 0.04,0.69 0.04,0.78 0.04,0.75 0.04,0.81 0.05,0.94 0.04,0.92 0.04,0.93 0.04,0.79 0.04,0.78 0.04,0.51 0.04,0.57 0.04,0.19 0.05,-0.09 0.04,-0.14 0.04,-0.31 0.04,-0.66 0.04,-0.74 0.04,-0.72 0.04,-0.84 0.04,-0.96 0.05,-0.79 0.04,-0.83 0.04,-0.76 0.04,-0.77 0.04,-0.61 0.04,-0.61 0.04,-0.57 0.04,-0.43 0.05,-0.42 0.04,-0.37 0.04,-0.29 0.04,-0.27 0.04,-0.21 0.04,-0.19 0.04,-0.2 0.04,-0.14 0.05,-0.14 0.04,-0.11 0.04,-0.12 0.04,-0.08 0.04,-0.08 0.04,-0.06 0.04,-0.05 0.04,-0.07 0.05,-0.05 0.04,-0.03 0.04,-0.03 0.04,-0.03 0.04,-0.03 0.04,-0.02 0.04,-0.02 0.04,-0.02 0.05,-0.01 0.04,-0.01 0.04,-0.01 0.04,-0.01 0.04,-0.01 0.04,0 0.04,-0.01 0.05,0 0.04,0 0.04,0.01 0.04,0 0.04,0 0.04,0.01 0.04,0.01 0.04,0.01 0.05,0.02 0.04,0.01 0.04,0.02 0.04,0.02 0.04,0.01 0.04,0.02 0.04,0.02 0.04,0.02 0.05,0.02 0.04,0.03 0.04,0.02 0.04,0.03 0.04,0.03 0.04,0.03 0.04,0.03 0.04,0.02 0.05,0.03 0.04,0.03 0.04,0.03 0.04,0.02 0.04,0.04 0.04,0.01 0.04,0.03 0.04,0.03 0.05,0.04 0.04,0.03 0.04,0.02 0.04,0.01 0.04,0.04 0.04,0.04 0.04,0.03 0.04,0.05 0.05,0.04 0.04,0.02 0.04,0.05 0.04,0.05 0.04,0.03 0.04,0.06 0.04,0.04 0.04,0.06 0.05,0.06 0.04,0.07 0.04,0.07 0.04,0.07 0.04,0.08 0.04,0.07 0.04,0.08 0.04,0.09 0.05,0.08 0.04,0.08 0.04,0.07 0.04,0.11 0.04,0.11 0.04,0.11 0.04,0.12 0.04,0.14 0.05,0.15 0.04,0.16 0.04,0.18 0.04,0.11 0.04,0.13 0.04,0.15 0.04,0.12 0.05,0.12 0.04,0.13 0.04,0.16 0.04,0.17 0.04,0.11 0.04,0.09 0.04,0.07 0.04,0.11 0.05,0.03 0.04,0.1 0.04,-0.02 0.04,0.03 0.04,-0.01 0.04,-0.01 0.04,-0.05 0.04,0.03 0.05,-0.14 0.04,-0.04 0.04,-0.1 0.04,-0.1 0.04,-0.18 0.04,-0.06 0.04,-0.09 0.04,-0.1 0.05,-0.12 0.04,-0.12 0.04,-0.17 0.04,-0.11 0.04,-0.11 0.04,-0.13 0.04,-0.16 0.04,-0.1 0.05,-0.1 0.04,-0.11 0.04,-0.11 0.04,-0.09 0.04,-0.12 0.04,-0.08 0.04,-0.05 0.04,-0.1 0.05,-0.1 0.04,-0.06 0.04,-0.03 0.04,-0.06 0.04,-0.05 0.04,-0.07 0.04,-0.05 0.04,-0.05 0.05,-0.03 0.04,-0.02 0.04,-0.03 0.04,-0.01 0.04,-0.04 0.04,-0.03 0.04,-0.03 0.04,-0.02 0.05,0 0.04,0.02 0.04,0 0.04,0 0.04,-0.01 0.04,0 0.04,0.01 0.04,-0.01 0.05,0.02 0.04,0.01 0.04,-0.01 0.04,0.01 0.04,-0.01 0.04,0.01 0.04,0.02 0.04,0.02 0.05,0 0.04,0.03 0.04,0 0.04,-0.02 0.04,0.01 0.04,0.01 0.04,0 0.05,0.01 0.04,-0.04 0.04,0.01 0.04,-0.01 0.04,0 0.04,0 0.04,-0.03 0.04,-0.03 0.05,-0.04 0.04,-0.02 0.04,-0.02 0.04,-0.03 0.04,-0.01 0.04,-0.01 0.04,-0.03 0.04,-0.03 0.05,-0.03 0.04,-0.05 0.04,0 0.04,-0.01 0.04,0.01 0.04,-0.02 0.04,0 0.04,-0.01 0.05,-0.01 0.04,-0.02 0.04,0 0.04,0 0.04,0.01 0.04,-0.01 0.04,0.01 0.04,0.02 0.05,0 0.04,0 0.04,0.02 0.04,0.01 0.04,0.01 0.04,0.03 0.04,0.02 0.04,0.04 0.05,0.05 0.04,0.05 0.04,0.05 0.04,0.04 0.04,0.06 0.04,0.06 0.04,0.08 0.04,0.07 0.05,0.1 0.04,0.07 0.04,0.09 0.04,0.09 0.04,0.08 0.04,0.1 0.04,0.1 0.04,0.12 0.05,0.08 0.04,0.1 0.04,0.1 0.04,0.15 0.04,0.1 0.04,0.11 0.04,0.15 0.04,0.11 0.05,0.12 0.04,0.13 0.04,0.11 0.04,0.1 0.04,0.1 0.04,0.05 0.04,0.09 0.05,0.12 0.04,0.05 0.04,0.02 0.04,0.06 0.04,0.02 0.04,-0.02 0.04,0.03 0.04,-0.07 0.05,-0.07 0.04,-0.1 0.04,-0.08 0.04,-0.02 0.04,-0.13 0.04,-0.04 0.04,-0.08 0.04,-0.07 0.05,-0.14 0.04,-0.04 0.04,-0.1 0.04,-0.16 0.04,-0.1 0.04,-0.1 0.04,-0.15 0.04,-0.1 0.05,-0.08 0.04,-0.12 0.04,-0.1 0.04,-0.14 0.04,-0.09 0.04,-0.1 0.04,-0.07 0.04,-0.06 0.05,-0.06 0.04,-0.06 0.04,-0.09 0.04,-0.05 0.04,-0.07 0.04,-0.07 0.04,-0.05 0.04,-0.05 0.05,-0.06 0.04,-0.06 0.04,-0.05 0.04,-0.05 0.04,-0.06 0.04,-0.05 0.04,-0.06 0.04,-0.03 0.05,-0.05 0.04,-0.06 0.04,-0.04 0.04,-0.03 0.04,-0.02 0.04,-0.02 0.04,-0.02 0.04,-0.02 0.05,-0.01 0.04,-0.01 0.04,-0.02 0.04,-0.02 0.04,-0.01 0.04,-0.02 0.04,-0.03 0.04,-0.01 0.05,-0.01 0.04,-0.02 0.04,-0.01 0.04,-0.01 0.04,-0.01 0.04,0 0.04,0.01 0.04,0 0.05,-0.01 0.04,0.01 0.04,0.01 0.04,0.02 0.04,0.01 0.04,0.02 0.04,0.03 0.05,0.02 0.04,0.01 0.04,0.04 0.04,0.01 0.04,0.04 0.04,0.04 0.04,0.04 0.04,0.04 0.05,0.05 0.04,0.04 0.04,0.06 0.04,0.06 0.04,0.08 0.04,0.08 0.04,0.07 0.04,0.08 0.05,0.09 0.04,0.09 0.04,0.1 0.04,0.08 0.04,0.12 0.04,0.11 0.04,0.14 0.04,0.14 0.05,0.1 0.04,0.15 0.04,0.14 0.04,0.12 0.04,0.15 0.04,0.14 0.04,0.12 0.04,0.13 0.05,0.1 0.04,0.18 0.04,0.07 0.04,0.15 0.04,0.11 0.04,0.09 0.04,0.12 0.04,0.11 0.05,0.04 0.04,0.05 0.04,0.11 0.04,0.06 0.04,0 0.04,-0.02 0.04,-0.02 0.04,-0.08 0.05,-0.08 0.04,-0.07 0.04,-0.17 0.04,-0.1 0.04,-0.12 0.04,-0.11 0.04,-0.12 0.04,-0.1 0.05,-0.16 0.04,-0.09 0.04,-0.15 0.04,-0.12 0.04,-0.18 0.04,-0.13 0.04,-0.11 0.04,-0.13 0.05,-0.13 0.04,-0.12 0.04,-0.12 0.04,-0.08 0.04,-0.12 0.04,-0.08 0.04,-0.1 0.05,-0.08 0.04,-0.12 0.04,-0.06 0.04,-0.07 0.04,-0.05 0.04,-0.06 0.04,-0.05 0.04,-0.05 0.05,-0.07 0.04,-0.04 0.04,-0.05 0.04,-0.05 0.04,-0.05 0.04,-0.03 0.04,-0.04 0.04,-0.01 0.05,0 0.04,-0.04 0.04,-0.01 0.04,-0.03 0.04,0 0.04,-0.01 0.04,0 0.04,-0.01 0.05,-0.02 0.04,-0.01 0.04,0 0.04,0 0.04,0 0.04,0 0.04,0.01 0.04,0 0.05,0.01 0.04,0.01 0.04,0.01 0.04,0.01 0.04,0.02 0.04,0.01 0.04,0.02 0.04,0.03 0.05,0.03 0.04,0.02 0.04,0.04 0.04,0.02 0.04,0.02 0.04,0.03 0.04,0.04 0.04,0.03 0.05,0.06 0.04,0.05 0.04,0.04 0.04,0.05 0.04,0.06 0.04,0.08 0.04,0.06 0.04,0.05 0.05,0.06 0.04,0.06 0.04,0.09 0.04,0.09 0.04,0.08 0.04,0.11 0.04,0.12 0.04,0.08 0.05,0.1 0.04,0.1 0.04,0.07 0.04,0.08 0.04,0.11 0.04,0.06 0.04,0.07 0.04,0.09 0.05,0.08 0.04,0.1 0.04,0.08 0.04,0.06 0.04,0.09 0.04,0.05 0.04,0.04 0.05,0.03 0.04,0.07 0.04,-0.01 0.04,0.02 0.04,-0.01 0.04,0.01 0.04,-0.04 0.04,-0.05 0.05,-0.01 0.04,-0.01 0.04,0 0.04,-0.09 0.04,-0.02 0.04,-0.07 0.04,-0.01 0.04,-0.06 0.05,-0.11 0.04,-0.06 0.04,-0.06 0.04,-0.08 0.04,-0.04 0.04,-0.09 0.04,-0.09 0.04,-0.08 0.05,-0.07 0.04,-0.06 0.04,-0.1 0.04,-0.03 0.04,-0.06 0.04,-0.09 0.04,-0.05 0.04,-0.03 0.05,-0.04 0.04,-0.06 0.04,-0.05 0.04,-0.05 0.04,-0.02 0.04,-0.06 0.04,-0.05 0.04,-0.04 0.05,-0.04 0.04,-0.04 0.04,-0.05 0.04,-0.03 0.04,-0.03 0.04,-0.04 0.04,-0.03 0.04,-0.06 0.05,-0.02 0.04,-0.04 0.04,-0.04 0.04,-0.02 0.04,-0.02 0.04,-0.03 0.04,0.01 0.04,-0.02 0.05,-0.01 0.04,-0.02 0.04,-0.01 0.04,0.03 0.04,-0.04 0.04,0.01 0.04,0 0.04,-0.01 0.05,0.01 0.04,-0.01 0.04,0.01 0.04,-0.01 0.04,0.01 0.04,0.04 0.04,0.04 0.05,0.03 0.04,0.03 0.04,0.02 0.04,0.03 0.04,0.02 0.04,0.03 0.04,0.02 0.04,0.03 0.05,0 0.04,0.02 0.04,0.05 0.04,0.04 0.04,0.03 0.04,0.04 0.04,0.02 0.04,0.04 0.05,0.02 0.04,0.03 0.04,0.02 0.04,0.01 0.04,0.06 0.04,0.03 0.04,0.03 0.04,0.06 0.05,0.02 0.04,0.06 0.04,0.07 0.04,0.02 0.04,0.03 0.04,0.03 0.04,0.05 0.04,0.08 0.05,0.05 0.04,0.03 0.04,0.03 0.04,0.03 0.04,0.01 0.04,0.05 0.04,0.01 0.04,0 0.05,0.02 0.04,0.03 0.04,0.05 0.04,0.01 0.04,0 0.04,-0.01 0.04,0.04 0.04,-0.01 0.05,-0.02 0.04,-0.01 0.04,0.03 0.04,0.02 0.04,0.01 0.04,-0.01 0.04,-0.04 0.04,-0.01 0.05,-0.01 0.04,0.01 0.04,-0.01 0.04,-0.04 0.04,-0.01 0.04,0 0.04,0.01 0.04,-0.02 0.05,0.02 0.04,-0.04 0.04,-0.03 0.04,-0.05 0.04,-0.02 0.04,-0.02 0.04,-0.05 0.04,-0.03 0.05,-0.03 0.04,-0.03 0.04,-0.01 0.04,-0.07 0.04,-0.07 0.04,-0.04 0.04,-0.05 0.05,-0.04 0.04,-0.02 0.04,-0.03 0.04,-0.04 0.04,-0.01 0.04,-0.02 0.04,-0.02 0.04,-0.04 0.05,-0.04 0.04,-0.01 0.04,0 0.04,-0.04 0.04,-0.02 0.04,-0.03 0.04,-0.02 0.04,-0.02 0.05,-0.04 0.04,0.01 0.04,-0.01 0.04,0 0.04,-0.02 0.04,0.01 0.04,-0.02 0.04,-0.01 0.05,-0.01 0.04,-0.01 0.04,-0.02 0.04,0.01 0.04,0.01 0.04,0 0.04,0.02 0.04,0 0.05,0 0.04,-0.01 0.04,-0.01 0.04,0.02 0.04,0 0.04,0 0.04,0.03 0.04,-0.02 0.05,0.02 0.04,0.01 0.04,0 0.04,0.03 0.04,0 0.04,0.02 0.04,0.01 0.04,0.03 0.05,0.01 0.04,0.01 0.04,0.03 0.04,0.03 0.04,0.01 0.04,0.02 0.04,0.02 0.04,0.05 0.05,0.08 0.04,-0.01 0.04,0.05 0.04,0.04 0.04,0.02 0.04,0.03 0.04,0.03 0.04,0.06 0.05,0.01 0.04,0.02 0.04,0.02 0.04,0.01 0.04,0.02 0.04,0 0.04,0.01 0.05,0.02 0.04,0.05 0.04,0.03 0.04,0.01 0.04,0.01 0.04,0.01 0.04,-0.03 0.04,0 0.05,0.03 0.04,0.03 0.04,0.01 0.04,-0.03 0.04,0 0.04,-0.01 0.04,0.03 0.04,0 0.05,-0.02 0.04,-0.01 0.04,-0.04 0.04,-0.01 0.04,-0.01 0.04,0 0.04,-0.02 0.04,0 0.05,-0.03 0.04,-0.03 0.04,0 0.04,0 0.04,-0.03 0.04,-0.03 0.04,-0.03 0.04,-0.05 0.05,-0.01 0.04,-0.04 0.04,-0.02 0.04,0 0.04,-0.03 0.04,0.01 0.04,0 0.04,-0.03 0.05,0.02 0.04,0.01 0.04,0.02 0.04,0 0.04,-0.03 0.04,-0.01 0.04,0.02 0.04,-0.01 0.05,0.01 0.04,-0.01 0.04,-0.01 0.04,0 0.04,-0.01 0.04,-0.03 0.04,0 0.04,0.01 0.05,0.03 0.04,-0.03 0.04,0.02 0.04,-0.01 0.04,0.03 0.04,-0.02 0.04,-0.02 0.04,0 0.05,-0.01 0.04,-0.03 0.04,0.02 0.04,0.03 0.04,0.03 0.04,-0.02 0.04,-0.04 0.04,0 0.05,-0.03 0.04,0.03 0.04,-0.04 0.04,-0.03 0.04,0 0.04,0.01 0.04,0 0.05,-0.01 0.04,-0.01 0.04,0.02 0.04,0.01 0.04,0.02 0.04,-0.02 0.04,-0.01 0.04,0.04 0.05,0.01 0.04,0.01 0.04,0 0.04,0 0.04,0 0.04,0.01 0.04,0.03 0.04,0.02 0.05,-0.01 0.04,0 0.04,0 0.04,0.02 0.04,-0.01 0.04,0 0.04,0.01 0.04,-0.05 0.05,-0.03 0.04,-0.03 0.04,0.02 0.04,0 0.04,0 0.04,0.01 0.04,0.04 0.04,0 0.05,0 0.04,0 0.04,-0.01 0.04,-0.03 0.04,0.01 0.04,-0.03 0.04,0.02 0.04,0.02 0.05,-0.01 0.04,-0.01 0.04,0.02 0.04,-0.02 0.04,-0.02 0.04,0.01 0.04,0 0.04,0.01 0.05,0.01 0.04,0.01 0.04,0.02 0.04,0 0.04,-0.04 0.04,0 0.04,0.03 0.04,0.03 0.05,-0.01 0.04,0.02 0.04,0.01 0.04,0.02 0.04,0.02 0.04,0.03 0.04,0 0.04,0.02 0.05,0.01 0.04,0.02 0.04,0 0.04,0.02 0.04,0 0.04,0.03 0.04,0 0.05,-0.01 0.04,0 0.04,0 0.04,0 0.04,-0.04 0.04,-0.01 0.04,0.01 0.04,0.02 0.05,-0.02 0.04,0.03 0.04,-0.01 0.04,0.03 0.04,0.02 0.04,-0.02 0.04,0.03 0.04,-0.02 0.05,0.01 0.04,0 0.04,0.03 0.04,0.02 0.04,0.02 0.04,-0.02 0.04,-0.01 0.04,0 0.05,-0.02 0.04,-0.03 0.04,-0.02 0.04,-0.01 0.04,-0.05 0.04,-0.01 0.04,-0.01 0.04,0.01 0.05,-0.01 0.04,-0.04 0.04,-0.04 0.04,0.01 0.04,0.01 0.04,-0.01 0.04,0.02 0.04,-0.01 0.05,0 0.04,-0.03 0.04,-0.01 0.04,0.03 0.04,-0.02 0.04,-0.02 0.04,-0.01 0.04,-0.03 0.05,-0.05 0.04,0 0.04,-0.02 0.04,0 0.04,-0.01 0.04,-0.03 0.04,0 0.04,-0.04 0.05,-0.01 0.04,0.01 0.04,0.02 0.04,0.01 0.04,-0.02 0.04,-0.02 0.04,-0.02 0.04,-0.01 0.05,0 0.04,-0.01 0.04,0 0.04,0.01 0.04,0 0.04,-0.01 0.04,-0.01 0.04,-0.02 0.05,0.03 0.04,0.01 0.04,0.03 0.04,0 0.04,0.02 0.04,0.01 0.04,-0.01 0.05,0.01 0.04,-0.01 0.04,0 0.04,0.03 0.04,0.02 0.04,0 0.04,-0.01 0.04,0.01 0.05,0.03 0.04,0 0.04,0 0.04,0.01 0.04,0.03 0.04,0 0.04,0.02 0.04,-0.01 0.05,0.03 0.04,0 0.04,0.03 0.04,0 0.04,0 0.04,-0.01 0.04,0.01 0.04,0.03 0.05,0.02 0.04,0 0.04,0.02 0.04,0.01 0.04,0.05 0.04,0 0.04,0.02 0.04,-0.01 0.05,0.01 0.04,0.02 0.04,0.04 0.04,0.01 0.04,0.03 0.04,0 0.04,0 0.04,-0.01 0.05,0 0.04,0.02 0.04,0.03 0.04,0 0.04,-0.03 0.04,0.02 0.04,0.02 0.04,0.01 0.05,0 0.04,-0.02 0.04,0.05 0.04,-0.04 0.04,-0.04 0.04,-0.04 0.04,-0.03 0.04,-0.02 0.05,-0.01 0.04,0.01 0.04,0.02 0.04,0 0.04,-0.02 0.04,-0.03 0.04,-0.01 0.04,-0.05 0.05,0.01 0.04,-0.01 0.04,-0.03 0.04,-0.03 0.04,-0.02 0.04,0.02 0.04,-0.01 0.05,0.04 0.04,-0.02 0.04,0 0.04,-0.01 0.04,-0.02 0.04,0.01 0.04,0 0.04,0 0.05,0.01 0.04,0.01 0.04,-0.01 0.04,-0.01 0.04,0.01 0.04,-0.03 0.04,-0.03 0.04,0.01 0.05,0 0.04,-0.01 0.04,-0.01 0.04,-0.02 0.04,-0.03 0.04,0.01 0.04,-0.02 0.04,0.02 0.05,0.03 0.04,-0.01 0.04,0 0.04,0.01 0.04,0 0.04,0 0.04,0.01 0.04,0 0.05,0 0.04,0.01 0.04,0 0.04,-0.02 0.04,-0.02 0.04,-0.01 0.04,-0.03 0.04,0.03 0.05,0 0.04,0 0.04,-0.01 0.04,0.02 0.04,0.02 0.04,-0.01 0.04,0.02 0.04,-0.03 0.05,-0.01 0.04,0 0.04,0 0.04,0.03 0.04,0 0.04,0.02 0.04,0.02 0.04,0 0.05,0.02 0.04,0.02 0.04,0.01 0.04,0.02 0.04,-0.01 0.04,0.03 0.04,-0.04 0.04,0.01 0.05,-0.01 0.04,0 0.04,0.01 0.04,0.03 0.04,-0.03 0.04,-0.03 0.04,-0.02 0.04,0.01 0.05,0.01 0.04,0 0.04,0.01 0.04,-0.04 0.04,0.02 0.04,0 0.04,0.01 0.05,-0.02 0.04,-0.01 0.04,-0.01 0.04,-0.01 0.04,0 0.04,0.03 0.04,-0.02 0.04,-0.01 0.05,0.03 0.04,-0.04 0.04,0.02 0.04,0 0.04,0 0.04,-0.01 0.04,-0.01 0.04,0.02 0.05,0.01 0.04,0 0.04,-0.02 0.04,0.03 0.04,0.01 0.04,0.01 0.04,-0.02 0.04,0.02 0.05,0.03 0.04,-0.01 0.04,0.01 0.04,-0.03 0.04,0 0.04,0.03 0.04,0.03 0.04,-0.01 0.05,0.04 0.04,0 0.04,0.01 0.04,0 0.04,0 0.04,0 0.04,0.02 0.04,0 0.05,-0.03 0.04,0.02 0.04,0 0.04,0.01 0.04,0.01 0.04,0.02 0.04,0.01 0.04,0.02 0.05,0 0.04,-0.03 0.04,0.04 0.04,0.01 0.04,-0.02 0.04,0.02 0.04,-0.02 0.04,0.02 0.05,-0.03 0.04,0.01 0.04,-0.02 0.04,-0.02 0.04,-0.01 0.04,-0.05 0.04,-0.01 0.04,0 0.05,0 0.04,-0.01 0.04,0 0.04,-0.04 0.04,-0.01 0.04,0 0.04,-0.01 0.04,-0.02 0.05,-0.02 0.04,0 0.04,-0.01 0.04,-0.01 0.04,0.01 0.04,0 0.04,0 0.05,-0.01 0.04,-0.03 0.04,0.01 0.04,0 0.04,0.02 0.04,-0.01 0.04,0.03 0.04,-0.02 0.05,0.02 0.04,-0.01 0.04,-0.01 0.04,0 0.04,-0.01 0.04,0 0.04,-0.01 0.04,-0.04 0.05,0 0.04,0 0.04,0.01 0.04,-0.02 0.04,-0.02 0.04,0 0.04,0 0.04,0 0.05,-0.02 0.04,0.01 0.04,0.03 0.04,-0.01 0.04,0.01 0.04,0 0.04,0.04 0.04,0 0.05,0.03 0.04,-0.01 0.04,0 0.04,-0.01 0.04,0.02 0.04,0.03 0.04,0.01 0.04,-0.01 0.05,-0.03 0.04,-0.02 0.04,-0.01 0.04,-0.01 0.04,0.04 0.04,0.02 0.04,0.01 0.04,0.03 0.05,0.01 0.04,-0.01 0.04,0.04 0.04,-0.02 0.04,0 0.04,0.01 0.04,0.02 0.04,0 0.05,0.01 0.04,0.03 0.04,-0.01 0.04,0.03 0.04,0.02 0.04,-0.01 0.04,0.01 0.04,0.05 0.05,0.01 0.04,0.01 0.04,0.03 0.04,0.02 0.04,0.04 0.04,-0.02 0.04,0 0.05,0 0.04,0 0.04,-0.05 0.04,-0.02 0.04,-0.02 0.04,-0.01 0.04,-0.03 0.04,0.01 0.05,-0.03 0.04,-0.03 0.04,-0.01 0.04,0 0.04,0 0.04,-0.02 0.04,-0.03 0.04,-0.02 0.05,-0.03 0.04,-0.03 0.04,-0.01 0.04,0 0.04,-0.03 0.04,0.02 0.04,-0.03 0.04,0 0.05,-0.01 0.04,0 0.04,0 0.04,0 0.04,-0.02 0.04,-0.02 0.04,-0.02 0.04,0 0.05,-0.02 0.04,-0.01 0.04,0 0.04,0 0.04,0.02 0.04,0 0.04,0.04 0.04,0.01 0.05,0 0.04,0.01 0.04,-0.01 0.04,-0.01 0.04,0.01 0.04,0 0.04,-0.01 0.04,0 0.05,0.02 0.04,0.03 0.04,-0.02 0.04,0.01 0.04,0.01 0.04,0.02 0.04,-0.03 0.04,0.04 0.05,0.01 0.04,0.01 0.04,-0.02 0.04,0.02 0.04,0.01 0.04,0.02 0.04,-0.04 0.04,0 0.05,0.04 0.04,-0.02 0.04,0.01 0.04,0.02 0.04,-0.01 0.04,-0.01 0.04,0.04 0.04,0.05 0.05,0.02 0.04,0.01 0.04,0.01 0.04,0.02 0.04,0 0.04,0 0.04,0.03 0.05,-0.03 0.04,0.01 0.04,0.03 0.04,-0.03 0.04,0.02 0.04,0.01 0.04,0.01 0.04,0.01 0.05,-0.04 0.04,-0.03 0.04,0.03 0.04,0.01 0.04,0.01 0.04,-0.03 0.04,0 0.04,0.01 0.05,0.06 0.04,0.01 0.04,-0.02 0.04,0 0.04,-0.01 0.04,-0.01 0.04,0.04 0.04,0.03 0.05,-0.04 0.04,-0.02 0.04,0.01 0.04,-0.02 0.04,0.02 0.04,0.01 0.04,0 0.04,0 0.05,0 0.04,0.02 0.04,-0.02 0.04,0.01 0.04,0 0.04,0.01 0.04,-0.02 0.04,-0.02 0.05,-0.01 0.04,0 0.04,-0.02 0.04,-0.03 0.04,-0.03 0.04,-0.05 0.04,0.03 0.04,-0.02 0.05,-0.03 0.04,-0.05 0.04,-0.01 0.04,0 0.04,-0.06 0.04,-0.02 0.04,-0.03 0.04,-0.03 0.05,-0.01 0.04,-0.03 0.04,-0.03 0.04,0.01 0.04,-0.03 0.04,-0.01 0.04,0 0.04,-0.01 0.05,-0.02 0.04,0.01 0.04,-0.02 0.04,0.01 0.04,-0.01 0.04,-0.01 0.04,0 0.05,-0.01 0.04,-0.02 0.04,-0.03 0.04,0 0.04,0.01 0.04,0 0.04,0.01 0.04,0.02 0.05,-0.01 0.04,0.02 0.04,0.04 0.04,0.01 0.04,0 0.04,0.02 0.04,0.01 0.04,0.02 0.05,0.01 0.04,0.03 0.04,0.02 0.04,0.03 0.04,-0.01 0.04,-0.01 0.04,0.03 0.04,0.04 0.05,0 0.04,0.03 0.04,0.03 0.04,0 0.04,0 0.04,0.02 0.04,0.03 0.04,0.02 0.05,0.02 0.04,0.05 0.04,0 0.04,0.05 0.04,0.02 0.04,0.02 0.04,0.05 0.04,0.03 0.05,0.02 0.04,0.02 0.04,0.03 0.04,0 0.04,0.05 0.04,0 0.04,0.06 0.04,0.04 0.05,0.02 0.04,-0.01 0.04,0.01 0.04,0.01 0.04,0.02 0.04,-0.02 0.04,-0.01 0.04,-0.05 0.05,-0.02 0.04,0 0.04,-0.03 0.04,-0.05 0.04,-0.02 0.04,-0.05 0.04,-0.03 0.04,-0.02 0.05,0 0.04,0.01 0.04,-0.05 0.04,-0.02 0.04,-0.01 0.04,-0.01 0.04,-0.03 0.04,-0.06 0.05,-0.02 0.04,-0.03 0.04,0 0.04,-0.07 0.04,-0.03 0.04,-0.02 0.04,-0.03 0.05,-0.01 0.04,-0.01 0.04,-0.01 0.04,-0.03 0.04,-0.05 0.04,0 0.04,0.01 0.04,-0.01 0.05,-0.03 0.04,-0.01 0.04,-0.02 0.04,0 0.04,-0.01 0.04,0.02 0.04,-0.02 0.04,0.01 0.05,0.02 0.04,-0.01 0.04,-0.01 0.04,-0.01 0.04,0 0.04,0.02 0.04,-0.02 0.04,-0.02 0.05,0 0.04,0 0.04,-0.02 0.04,-0.01 0.04,0.03 0.04,-0.02 0.04,-0.01 0.04,0.03 0.05,0.03 0.04,0.02 0.04,0.01 0.04,-0.01 0.04,0.05 0.04,0.01 0.04,0.01 0.04,0.05 0.05,0.01 0.04,0.02 0.04,0 0.04,0.06 0.04,0.01 0.04,0.01 0.04,0.01 0.04,-0.01 0.05,0.05 0.04,0.04 0.04,0.03 0.04,0.03 0.04,0 0.04,-0.01 0.04,0.02 0.04,0.01 0.05,0 0.04,0 0.04,0.01 0.04,0.03 0.04,0.07 0.04,-0.01 0.04,0.02 0.04,0 0.05,-0.02 0.04,0.05 0.04,0.01 0.04,-0.02 0.04,-0.01 0.04,0.04 0.04,0.04 0.05,-0.02 0.04,-0.01 0.04,0 0.04,-0.02 0.04,-0.01 0.04,0.02 0.04,0.01 0.04,-0.01 0.05,-0.02 0.04,-0.03 0.04,-0.05 0.04,-0.01 0.04,-0.01 0.04,0.03 0.04,0.02 0.04,0 0.05,-0.01 0.04,0.01 0.04,-0.02 0.04,0 0.04,-0.03 0.04,-0.03 0.04,-0.01 0.04,-0.02 0.05,0.01 0.04,-0.01 0.04,-0.01 0.04,-0.03 0.04,0.01 0.04,0 0.04,-0.02 0.04,-0.03 0.05,-0.02 0.04,-0.03 0.04,-0.05 0.04,0 0.04,-0.01 0.04,-0.02 0.04,0.01 0.04,-0.05 0.05,0.01 0.04,-0.05 0.04,-0.03 0.04,0.01 0.04,0.01 0.04,-0.01 0.04,0 0.04,0.01 0.05,0.01 0.04,0 0.04,0 0.04,0.01 0.04,0.02 0.04,-0.02 0.04,0 0.04,0.01 0.05,-0.02 0.04,-0.01 0.04,0.01 0.04,0.03 0.04,0.05 0.04,-0.03 0.04,0.02 0.04,0.01 0.05,-0.01 0.04,0 0.04,-0.01 0.04,0.01 0.04,0 0.04,0.03 0.04,0 0.04,0.02 0.05,0.01 0.04,0 0.04,0 0.04,0.02 0.04,0.02 0.04,-0.02 0.04,0 0.05,0.02 0.04,-0.01 0.04,0.02 0.04,0.02 0.04,-0.01 0.04,0.02 0.04,-0.02 0.04,0 0.05,-0.01 0.04,0.01 0.04,0.02 0.04,0.01 0.04,0.01 0.04,0 0.04,-0.01 0.04,-0.02 0.05,-0.01 0.04,0.01 0.04,-0.01 0.04,-0.01 0.04,-0.02 0.04,-0.02 0.04,0.01 0.04,-0.01 0.05,-0.02 0.04,0 0.04,-0.03 0.04,-0.02 0.04,0.01 0.04,-0.01 0.04,0.01 0.04,-0.01 0.05,0 0.04,0.01 0.04,-0.01 0.04,0 0.04,0 0.04,-0.01 0.04,0.01 0.04,-0.01 0.05,0.03 0.04,0 0.04,-0.04 0.04,0.03 0.04,-0.01 0.04,-0.01 0.04,0.01 0.04,0.01 0.05,-0.01 0.04,0 0.04,0.04 0.04,0.02 0.04,0.01 0.04,0.03 0.04,0 0.04,0.03 0.05,0.01 0.04,-0.01 0.04,0.03 0.04,0 0.04,0.03 0.04,0 0.04,0.07 0.04,0.01 0.05,0.01 0.04,0.05 0.04,0.01 0.04,0.03 0.04,0.03 0.04,0.01 0.04,0.02 0.05,0.01 0.04,-0.01 0.04,0.03 0.04,-0.01 0.04,0.01 0.04,-0.02 0.04,0 0.04,-0.01 0.05,0 0.04,-0.02 0.04,0.01 0.04,-0.02 0.04,0 0.04,0.03 0.04,-0.03 0.04,-0.05 0.05,0 0.04,-0.01 0.04,-0.03 0.04,-0.04 0.04,0 0.04,-0.03 0.04,-0.03 0.04,-0.01 0.05,-0.02 0.04,-0.03 0.04,-0.04 0.04,0.01 0.04,-0.04 0.04,-0.01 0.04,-0.03 0.04,-0.03 0.05,-0.02 0.04,0.01 0.04,-0.03 0.04,-0.02 0.04,-0.01 0.04,0.02 0.04,0 0.04,-0.01 0.05,-0.01 0.04,-0.02 0.04,-0.01 0.04,-0.02 0.04,0 0.04,0.01 0.04,-0.03 0.04,-0.02 0.05,-0.01 0.04,0.03 0.04,-0.04 0.04,-0.03 0.04,-0.02 0.04,-0.01 0.04,-0.01 0.04,0 0.05,0 0.04,-0.02 0.04,-0.02 0.04,-0.01 0.04,0.01 0.04,0.02 0.04,0.01 0.04,0.02 0.05,0.03 0.04,-0.01 0.04,0.03 0.04,0.01 0.04,0 0.04,0.03 0.04,0.03 0.04,0.01 0.05,0.02 0.04,0.03 0.04,0.01 0.04,0 0.04,0.01 0.04,0.01 0.04,0 0.05,0.03 0.04,0.03 0.04,0.02 0.04,0.03 0.04,0.03 0.04,-0.04 0.04,0.02 0.04,0.04 0.05,0.04 0.04,0.03 0.04,0.03 0.04,0.03 0.04,0 0.04,0.02 0.04,0.06 0.04,-0.01 0.05,0.04 0.04,0 0.04,0.01 0.04,0 0.04,0.05 0.04,0.01 0.04,0.01 0.04,0.05 0.05,0 0.04,0 0.04,0.02 0.04,0.01 0.04,0.02 0.04,0 0.04,0.03 0.04,0.02 0.05,-0.04 0.04,0 0.04,-0.01 0.04,0.01 0.04,-0.03 0.04,-0.02 0.04,-0.04 0.04,-0.03 0.05,0.01 0.04,-0.06 0.04,-0.02 0.04,-0.1 0.04,-0.04 0.04,-0.02 0.04,0 0.04,-0.05 0.05,-0.02 0.04,-0.04 0.04,-0.03 0.04,-0.03 0.04,-0.03 0.04,-0.04 0.04,-0.03 0.04,-0.02 0.05,-0.03 0.04,0 0.04,-0.01 0.04,0 0.04,-0.04 0.04,0.04 0.04,-0.03 0.04,0 0.05,0.01 0.04,-0.03 0.04,-0.02 0.04,-0.01 0.04,-0.04 0.04,0.01 0.04,0 0.05,-0.02 0.04,0.01 0.04,-0.01 0.04,0.01 0.04,-0.01 0.04,0.02 0.04,0.04 0.04,0.01 0.05,0.03 0.04,0 0.04,0.02 0.04,0.04 0.04,0.02 0.04,0.01 0.04,0.03 0.04,0.01 0.05,0.03 0.04,0.05 0.04,-0.04 0.04,0.05 0.04,0.01 0.04,0.01 0.04,0.01 0.04,0.02 0.05,0.04 0.04,-0.01 0.04,0.02 0.04,0 0.04,0.06 0.04,0.01 0.04,0.03 0.04,0.01 0.05,0 0.04,0.02 0.04,0.04 0.04,0 0.04,0 0.04,0.03 0.04,-0.02 0.04,0.01 0.05,-0.01 0.04,0.02 0.04,-0.01 0.04,0.02 0.04,0.03 0.04,-0.02 0.04,0.02 0.04,0 0.05,-0.01 0.04,-0.01 0.04,-0.06 0.04,0.01 0.04,-0.03 0.04,0.01 0.04,-0.03 0.04,0 0.05,-0.04 0.04,-0.01 0.04,-0.02 0.04,-0.03 0.04,0.01 0.04,-0.03 0.04,0 0.04,-0.03 0.05,-0.04 0.04,0 0.04,-0.05 0.04,0 0.04,-0.03 0.04,0 0.04,-0.02 0.04,0 0.05,-0.02 0.04,-0.03 0.04,-0.02 0.04,0.02 0.04,-0.02 0.04,-0.01 0.04,-0.01 0.05,0 0.04,-0.04 0.04,0.01 0.04,-0.02 0.04,-0.01 0.04,-0.02 0.04,0.01 0.04,-0.01 0.05,-0.04 0.04,0 0.04,0 0.04,-0.01 0.04,0.03 0.04,0 0.04,0 0.04,0.02 0.05,0.02 0.04,0 0.04,0.05 0.04,-0.04 0.04,0.01 0.04,-0.01 0.04,0.02 0.04,-0.01 0.05,0 0.04,0.02 0.04,0 0.04,0.01 0.04,0.02 0.04,0 0.04,0 0.04,0.02 0.05,0 0.04,0.03 0.04,0.01 0.04,-0.01 0.04,0.01 0.04,0 0.04,0.03 0.04,0.02 0.05,0.01 0.04,0.04 0.04,0.01 0.04,0.03 0.04,0.01 0.04,0 0.04,0.05 0.04,0 0.05,-0.01 0.04,0.01 0.04,-0.02 0.04,0 0.04,0.02 0.04,0 0.04,0.01 0.04,-0.01 0.05,0.02 0.04,0.04 0.04,0.04 0.04,0.06 0.04,-0.01 0.04,0.04 0.04,0 0.04,0.03 0.05,0.01 0.04,0.01 0.04,0 0.04,-0.02 0.04,0.02 0.04,-0.01 0.04,0.02 0.05,-0.02 0.04,-0.01 0.04,0.02 0.04,-0.04 0.04,0.02 0.04,-0.01 0.04,-0.01 0.04,-0.01 0.05,0.01 0.04,0 0.04,-0.02 0.04,-0.03 0.04,0.02 0.04,-0.05 0.04,-0.05 0.04,-0.03 0.05,-0.03 0.04,-0.03 0.04,0 0.04,-0.03 0.04,-0.03 0.04,-0.01 0.04,-0.02 0.04,-0.02 0.05,-0.03 0.04,-0.01 0.04,0.01 0.04,-0.01 0.04,-0.04 0.04,-0.01 0.04,-0.01 0.04,-0.01 0.05,-0.01 0.04,-0.02 0.04,0.03 0.04,-0.01 0.04,-0.01 0.04,0.01 0.04,0.01 0.04,0 0.05,0 0.04,-0.01 0.04,0 0.04,0.01 0.04,-0.02 0.04,0.05 0.04,0.01 0.04,-0.02 0.05,-0.03 0.04,0.02 0.04,0 0.04,0.03 0.04,-0.01 0.04,0.03 0.04,-0.02 0.04,0 0.05,-0.01 0.04,0.02 0.04,-0.01 0.04,-0.02 0.04,0.01 0.04,0 0.04,-0.02 0.04,0 0.05,0.03 0.04,0.01 0.04,0.03 0.04,-0.01 0.04,0.02 0.04,-0.01 0.04,-0.01 0.04,0.01 0.05,-0.01 0.04,0.01 0.04,-0.01 0.04,0.02 0.04,0.01 0.04,0.01 0.04,0.01 0.05,0 0.04,-0.01 0.04,0.03 0.04,0.01 0.04,-0.02 0.04,0.03 0.04,-0.01 0.04,0.02 0.05,0 0.04,0.03 0.04,0.04 0.04,0.04 0.04,0.01 0.04,0.02 0.04,0.01 0.04,0.02 0.05,0.01 0.04,0.01 0.04,0.02 0.04,-0.01 0.04,0.01 0.04,-0.02 0.04,0.02 0.04,0.02 0.05,0.01 0.04,-0.02 0.04,-0.03 0.04,-0.01 0.04,-0.03 0.04,-0.02 0.04,-0.04 0.04,0 0.05,-0.01 0.04,0 0.04,0 0.04,-0.01 0.04,-0.06 0.04,-0.03 0.04,-0.03 0.04,-0.01 0.05,0.03 0.04,-0.01 0.04,0.01 0.04,-0.02 0.04,0.01 0.04,-0.03 0.04,0.01 0.04,0.02 0.05,-0.03 0.04,-0.02 0.04,0.01 0.04,-0.02 0.04,-0.03 0.04,-0.02 0.04,0.01 0.04,-0.01 0.05,-0.01 0.04,-0.02 0.04,-0.01 0.04,0.01 0.04,-0.03 0.04,0.03 0.04,0.02 0.04,0.01 0.05,0 0.04,0.04 0.04,0.02 0.04,0 0.04,0 0.04,0.01 0.04,-0.01 0.05,0.03 0.04,-0.01 0.04,0.01 0.04,0 0.04,0 0.04,0.03 0.04,0.01 0.04,0.01 0.05,0 0.04,-0.02 0.04,0.01 0.04,0.02 0.04,0.01 0.04,0.01 0.04,0.01 0.04,-0.01 0.05,0.02 0.04,0 0.04,0.01 0.04,0.03 0.04,-0.01 0.04,-0.01 0.04,0.01 0.04,-0.01 0.05,0.02 0.04,0.01 0.04,0 0.04,0 0.04,-0.01 0.04,0 0.04,0.01 0.04,0.01 0.05,0 0.04,-0.01 0.04,0.03 0.04,-0.03 0.04,0 0.04,-0.04 0.04,0 0.04,-0.04 0.05,0.01 0.04,-0.02 0.04,-0.02 0.04,-0.03 0.04,0 0.04,0.01 0.04,0 0.04,-0.03 0.05,0.01 0.04,0 0.04,-0.01 0.04,-0.01 0.04,-0.04 0.04,-0.01 0.04,-0.01 0.04,-0.02 0.05,-0.02 0.04,0.02 0.04,-0.02 0.04,0 0.04,-0.01 0.04,0.02 0.04,-0.01 0.04,0.01 0.05,0 0.04,0 0.04,0 0.04,0 0.04,0.01 0.04,-0.01 0.04,0.01 0.04,-0.05 0.05,0 0.04,-0.01 0.04,0.03 0.04,-0.01 0.04,0.02 0.04,-0.01 0.04,-0.01 0.05,-0.01 0.04,0.01 0.04,0 0.04,0.02 0.04,0.02 0.04,0.01 0.04,0 0.04,0.03 0.05,-0.01 0.04,0.04 0.04,0.01 0.04,0.02 0.04,0 0.04,0.01 0.04,0.02 0.04,0.03 0.05,0.06 0.04,0.03 0.04,-0.01 0.04,0.03 0.04,0.02 0.04,0.05 0.04,0.01 0.04,0.02 0.05,0.02 0.04,0.05 0.04,0 0.04,0 0.04,-0.01 0.04,-0.02 0.04,0.01 0.04,0.02 0.05,0 0.04,0.01 0.04,0.02 0.04,0 0.04,0 0.04,-0.01 0.04,-0.03 0.04,0.02 0.05,0 0.04,-0.01 0.04,0.02 0.04,0 0.04,0 0.04,-0.01 0.04,0.02 0.04,0 0.05,-0.01 0.04,-0.01 0.04,-0.02 0.04,0.04 0.04,-0.03 0.04,-0.01 0.04,-0.02 0.04,-0.01 0.05,0.01 0.04,-0.01 0.04,-0.02 0.04,-0.04 0.04,-0.05 0.04,0.01 0.04,-0.02 0.04,-0.04 0.05,-0.04 0.04,-0.02 0.04,-0.04 0.04,-0.03 0.04,-0.02 0.04,-0.03 0.04,-0.04 0.05,-0.03 0.04,-0.03 0.04,-0.04 0.04,0 0.04,-0.02 0.04,-0.03 0.04,0 0.04,-0.03 0.05,-0.01 0.04,-0.02 0.04,-0.01 0.04,0.01 0.04,-0.04 0.04,-0.02 0.04,-0.01 0.04,0.01 0.05,-0.03 0.04,0 0.04,0 0.04,0 0.04,0 0.04,0.01 0.04,0.01 0.04,-0.01 0.05,-0.02 0.04,0 0.04,0.02 0.04,0 0.04,-0.01 0.04,-0.01 0.04,-0.01 0.04,0.01 0.05,-0.01 0.04,0.02 0.04,0.02 0.04,0.01 0.04,0.03 0.04,0.01 0.04,0.02 0.04,0.04 0.05,0 0.04,0.05 0.04,0.02 0.04,0.03 0.04,0.01 0.04,0.05 0.04,0.03 0.04,0.01 0.05,0.02 0.04,0.02 0.04,0.04 0.04,0.02 0.04,0.05 0.04,0.04 0.04,0.06 0.04,0.07 0.05,0.05 0.04,0.01 0.04,0.06 0.04,0.02 0.04,0.05 0.04,0.08 0.04,0.06 0.04,0.02 0.05,0.05 0.04,0.01 0.04,0.01 0.04,0.01 0.04,-0.02 0.04,0.04 0.04,0.01 0.04,0 0.05,0 0.04,0 0.04,-0.02 0.04,-0.02 0.04,-0.02 0.04,-0.02 0.04,0.02 0.05,-0.06 0.04,-0.03 0.04,-0.06 0.04,0.02 0.04,-0.03 0.04,-0.03 0.04,-0.04 0.04,-0.06 0.05,-0.04 0.04,0 0.04,-0.07 0.04,-0.03 0.04,-0.05 0.04,-0.03 0.04,-0.04 0.04,-0.06 0.05,-0.03 0.04,-0.06 0.04,-0.04 0.04,-0.02 0.04,-0.03 0.04,-0.03 0.04,-0.03 0.04,-0.01 0.05,-0.03 0.04,-0.03 0.04,-0.01 0.04,-0.01 0.04,-0.05 0.04,-0.04 0.04,0.01 0.04,-0.02 0.05,-0.02 0.04,0.01 0.04,0.01 0.04,-0.02 0.04,-0.01 0.04,0 0.04,-0.02 0.04,-0.01 0.05,0 0.04,-0.01 0.04,-0.01 0.04,0.01 0.04,0 0.04,0 0.04,0.02 0.04,0.01 0.05,-0.01 0.04,0.02 0.04,0.04 0.04,-0.01 0.04,-0.01 0.04,0.01 0.04,0 0.04,0.02 0.05,0.02 0.04,0.04 0.04,0 0.04,0.04 0.04,0.03 0.04,0 0.04,-0.02 0.04,0.03 0.05,0.01 0.04,0.03 0.04,0.03 0.04,0.02 0.04,0.02 0.04,0.03 0.04,0.02 0.05,0 0.04,0.03 0.04,0 0.04,0.03 0.04,0.01 0.04,0.01 0.04,0 0.04,0.04 0.05,0.03 0.04,0.05 0.04,0.03 0.04,0.03 0.04,0.02 0.04,0.04 0.04,0.03 0.04,0.04 0.05,0.01 0.04,0.04 0.04,0 0.04,0.03 0.04,0.03 0.04,0.01 0.04,-0.01 0.04,0.03 0.05,0.04 0.04,0 0.04,0 0.04,0 0.04,0 0.04,0.04 0.04,0 0.04,0.01 0.05,-0.04 0.04,-0.01 0.04,0 0.04,-0.05 0.04,0 0.04,0.01 0.04,-0.03 0.04,-0.04 0.05,0.03 0.04,-0.01 0.04,0 0.04,-0.01 0.04,-0.01 0.04,-0.03 0.04,-0.03 0.04,-0.01 0.05,-0.04 0.04,-0.02 0.04,0.02 0.04,-0.03 0.04,-0.03 0.04,-0.01 0.04,-0.02 0.04,-0.04 0.05,0.02 0.04,-0.03 0.04,-0.01 0.04,-0.02 0.04,-0.06 0.04,-0.01 0.04,-0.05 0.04,-0.01 0.05,0 0.04,-0.03 0.04,-0.02 0.04,0 0.04,-0.01 0.04,-0.02 0.04,0 0.04,-0.04 0.05,-0.01 0.04,-0.02 0.04,-0.02 0.04,-0.01 0.04,-0.01 0.04,-0.01 0.04,-0.02 0.05,-0.03 0.04,-0.01 0.04,0 0.04,-0.02 0.04,0.01 0.04,0.01 0.04,-0.01 0.04,0.01 0.05,-0.01 0.04,-0.01 0.04,0.01 0.04,0 0.04,0 0.04,-0.02 0.04,0.01 0.04,0.02 0.05,0 0.04,-0.01 0.04,0.02 0.04,-0.01 0.04,0.01 0.04,0.01 0.04,0 0.04,-0.01 0.05,-0.01 0.04,0.02 0.04,0.05 0.04,0.01 0.04,-0.01 0.04,0 0.04,0.02 0.04,0.01 0.05,-0.01 0.04,0.01 0.04,-0.01 0.04,0.03 0.04,0.02 0.04,0.03 0.04,0 0.04,0.05 0.05,0.01 0.04,0.01 0.04,0.02 0.04,0.01 0.04,0.04 0.04,0.04 0.04,0.04 0.04,0.04 0.05,0.02 0.04,0.01 0.04,0.04 0.04,-0.01 0.04,0.02 0.04,0.02 0.04,0 0.04,0.05 0.05,-0.01 0.04,0.03 0.04,-0.01 0.04,0.05 0.04,0.01 0.04,-0.01 0.04,0 0.04,0.03 0.05,0.03 0.04,-0.02 0.04,-0.03 0.04,0.01 0.04,0.01 0.04,0.02 0.04,-0.01 0.05,0.02 0.04,0.02 0.04,0.01 0.04,-0.03 0.04,-0.02 0.04,-0.02 0.04,0 0.04,-0.02 0.05,-0.02 0.04,-0.01 0.04,-0.03 0.04,-0.04 0.04,-0.02 0.04,-0.05 0.04,-0.03 0.04,-0.03 0.05,-0.05 0.04,-0.03 0.04,-0.04 0.04,-0.02 0.04,-0.01 0.04,-0.03 0.04,0 0.04,-0.03 0.05,-0.02 0.04,-0.01 0.04,0.01 0.04,-0.03 0.04,-0.02 0.04,0 0.04,-0.01 0.04,-0.01 0.05,-0.01 0.04,0 0.04,-0.02 0.04,-0.02 0.04,0.01 0.04,-0.01 0.04,-0.01 0.04,0 0.05,0 0.04,-0.02 0.04,0.02 0.04,-0.01 0.04,-0.02 0.04,0.02 0.04,0.01 0.04,-0.01 0.05,0.02 0.04,0.01 0.04,0.01 0.04,0.01 0.04,0.03 0.04,0.02 0.04,-0.01 0.04,0.01 0.05,0.03 0.04,0.02 0.04,0.02 0.04,-0.01 0.04,0 0.04,0 0.04,0 0.04,0.01 0.05,0.01 0.04,0.03 0.04,0.02 0.04,-0.05 0.04,0 0.04,0.01 0.04,0.04 0.04,0.01 0.05,0 0.04,0.04 0.04,-0.03 0.04,0 0.04,-0.01 0.04,0 0.04,-0.01 0.05,-0.02 0.04,0.02 0.04,0 0.04,-0.01 0.04,0.04 0.04,0.01 0.04,0.04 0.04,-0.02 0.05,0.01 0.04,-0.02 0.04,0 0.04,0.02 0.04,0 0.04,-0.03 0.04,0.02 0.04,0 0.05,0.03 0.04,-0.01 0.04,-0.04 0.04,0.05 0.04,0.04 0.04,0 0.04,0.02 0.04,0.02 0.05,0.03 0.04,0 0.04,-0.01 0.04,-0.02 0.04,0.04 0.04,-0.01 0.04,0.01 0.04,0 0.05,-0.01 0.04,0.01 0.04,0 0.04,0.04 0.04,0.02 0.04,-0.04 0.04,0.03 0.04,-0.02 0.05,0.04 0.04,0 0.04,0.01 0.04,0.04 0.04,-0.02 0.04,-0.02 0.04,0.02 0.04,-0.01 0.05,0.01 0.04,0 0.04,-0.01 0.04,-0.02 0.04,0 0.04,0.01 0.04,-0.03 0.04,0 0.05,-0.03 0.04,0 0.04,-0.02 0.04,-0.03 0.04,-0.02 0.04,-0.03 0.04,-0.01 0.04,-0.01 0.05,-0.01 0.04,0 0.04,-0.02 0.04,0 0.04,-0.02 0.04,0 0.04,-0.03 0.05,-0.02 0.04,-0.06 0.04,-0.01 0.04,-0.01 0.04,0 0.04,-0.01 0.04,0 0.04,-0.02 0.05,-0.03 0.04,0 0.04,-0.03 0.04,0 0.04,-0.02 0.04,-0.01 0.04,-0.02 0.04,0.01 0.05,-0.01 0.04,-0.01 0.04,0 0.04,-0.01 0.04,-0.02 0.04,-0.03 0.04,0.01 0.04,0.01 0.05,0 0.04,0.01 0.04,0.02 0.04,0.01 0.04,0 0.04,-0.01 0.04,-0.02 0.04,0.02 0.05,-0.01 0.04,0 0.04,-0.01 0.04,0.01 0.04,0.02 0.04,0 0.04,0.05 0.04,0.01 0.05,0.03 0.04,0.02 0.04,0.03 0.04,0.04 0.04,-0.01 0.04,0 0.04,0.03 0.04,0.04 0.05,0.05 0.04,0.05 0.04,0 0.04,0.01 0.04,-0.01 0.04,0.05 0.04,0.01 0.04,0 0.05,0.04 0.04,-0.01 0.04,0.02 0.04,0.04 0.04,-0.01 0.04,0 0.04,-0.01 0.04,-0.01 0.05,0.03 0.04,0.04 0.04,0.02 0.04,-0.02 0.04,0.01 0.04,-0.01 0.04,0.02 0.04,0.01 0.05,-0.02 0.04,-0.02 0.04,0.02 0.04,0.02 0.04,-0.02 0.04,-0.02 0.04,0 0.05,0.01 0.04,-0.01 0.04,0 0.04,-0.04 0.04,-0.04 0.04,-0.01 0.04,0.01 0.04,-0.01 0.05,-0.01 0.04,-0.04 0.04,-0.04 0.04,-0.05 0.04,-0.01 0.04,-0.03 0.04,-0.01 0.04,-0.03 0.05,-0.02 0.04,-0.03 0.04,-0.02 0.04,-0.02 0.04,-0.02 0.04,-0.02 0.04,0 0.04,0 0.05,-0.02 0.04,-0.03 0.04,-0.01 0.04,0 0.04,-0.02 0.04,-0.02 0.04,-0.03 0.04,-0.02 0.05,0 0.04,0.01 0.04,-0.02 0.04,0 0.04,0 0.04,0 0.04,0.01 0.04,0.01 0.05,0.03 0.04,0.02 0.04,0.01 0.04,0.02 0.04,0 0.04,0 0.04,0 0.04,0.02 0.05,0 0.04,0.03 0.04,0.03 0.04,0 0.04,0.01 0.04,0 0.04,0.02 0.04,0.01 0.05,0 0.04,0.02 0.04,0 0.04,0.03 0.04,0.02 0.04,0.03 0.04,0 0.04,0.02 0.05,0.04 0.04,0.01 0.04,-0.01 0.04,0.02 0.04,0.04 0.04,0.02 0.04,0 0.05,0.01 0.04,0.01 0.04,0.02 0.04,0 0.04,0.01 0.04,0.02 0.04,0.03 0.04,-0.02 0.05,0.04 0.04,0.02 0.04,0.03 0.04,-0.02 0.04,0 0.04,0.02 0.04,0.02 0.04,0.03 0.05,0.04 0.04,0 0.04,0.02 0.04,-0.02 0.04,0.01 0.04,0.01 0.04,-0.03 0.04,0.05 0.05,-0.02 0.04,-0.01 0.04,-0.02 0.04,0 0.04,-0.01 0.04,-0.04 0.04,-0.01 0.04,-0.02 0.05,-0.04 0.04,-0.04 0.04,0 0.04,-0.02 0.04,-0.02 0.04,-0.05 0.04,-0.06 0.04,-0.01 0.05,-0.02 0.04,-0.02 0.04,-0.02 0.04,0 0.04,-0.04 0.04,-0.01 0.04,-0.03 0.04,-0.04 0.05,-0.05 0.04,-0.02 0.04,0 0.04,-0.02 0.04,-0.02 0.04,-0.02 0.04,-0.02 0.04,-0.03 0.05,-0.04 0.04,0 0.04,-0.01 0.04,0 0.04,0 0.04,-0.01 0.04,-0.03 0.04,0.02 0.05,0 0.04,0.02 0.04,-0.02 0.04,0.02 0.04,-0.01 0.04,0.02 0.04,-0.01 0.04,0.02 0.05,0.01 0.04,-0.02 0.04,0 0.04,0.04 0.04,-0.01 0.04,0.02 0.04,-0.01 0.05,0.02 0.04,0.02 0.04,0.02 0.04,0.05 0.04,0.03 0.04,0 0.04,0.01 0.04,0.03 0.05,0.06 0.04,0 0.04,0.04 0.04,0.08 0.04,0.03 0.04,0.02 0.04,0.02 0.04,0.04 0.05,0.01 0.04,-0.04 0.04,0.04 0.04,0.03 0.04,0.04 0.04,0.01 0.04,0.05 0.04,0.01 0.05,0.02 0.04,0.01 0.04,-0.01 0.04,-0.01 0.04,0 0.04,-0.02 0.04,-0.01 0.04,-0.02 0.05,0.02 0.04,-0.02 0.04,-0.01 0.04,-0.03 0.04,-0.02 0.04,-0.02 0.04,-0.01 0.04,0 0.05,-0.03 0.04,0.02 0.04,-0.01 0.04,-0.03 0.04,-0.02 0.04,-0.03 0.04,0 0.04,-0.03 0.05,0 0.04,0 0.04,-0.01 0.04,-0.02 0.04,-0.01 0.04,-0.03 0.04,0.01 0.04,-0.02 0.05,0.01 0.04,0.01 0.04,-0.01 0.04,-0.01 0.04,-0.04 0.04,0 0.04,-0.01 0.04,0.02 0.05,-0.01 0.04,0 0.04,0.01 0.04,-0.02 0.04,-0.01 0.04,-0.01 0.04,-0.03 0.05,0 0.04,-0.02 0.04,0.02 0.04,0 0.04,-0.01 0.04,0.01 0.04,-0.03 0.04,0.01 0.05,0 0.04,-0.04 0.04,0 0.04,0.02 0.04,0.01 0.04,0 0.04,0.01 0.04,-0.01 0.05,-0.03 0.04,0.02 0.04,-0.01 0.04,0.01 0.04,0 0.04,0.01 0.04,0.03 0.04,0.02 0.05,0 0.04,0.02 0.04,0 0.04,0.04 0.04,0 0.04,0.03 0.04,0 0.04,-0.01 0.05,0.02 0.04,0.01 0.04,0.05 0.04,0.01 0.04,0.01 0.04,0.03 0.04,0.01 0.04,0.02" /><path
           id="path56"
           style="fill:none;stroke:#00bfc4;stroke-width:1.07000005;stroke-linecap:butt;stroke-linejoin:round;stroke-miterlimit:1;stroke-dasharray:2.13, 2.13;stroke-dashoffset:0;stroke-opacity:1"
           d="m 54.03,39.04 0.05,83.2 0.04,0.95 0.04,-7.74 0.04,-14.42 0.04,-14.88 0.04,-12.93 0.04,-10.35 0.04,-7.4 0.05,-5.28 0.04,-3.65 0.04,-2.47 0.04,-1.65 0.04,-1.12 0.04,-0.74 0.04,-0.48 0.04,-0.35 0.05,-0.21 0.04,-0.15 0.04,-0.11 0.04,-0.07 0.04,-0.04 0.04,-0.04 0.04,-0.02 0.04,-0.01 0.05,-0.01 0.04,-0.01 0.04,-0.01 0.04,0 0.04,0 0.04,-0.01 0.04,0 0.05,0 0.04,0 0.04,0 0.04,0 0.04,0 0.04,0 0.04,0 0.04,0 0.05,0 0.04,0 0.04,0 0.04,0 0.04,0 0.04,0 0.04,0 0.04,0 0.05,0 0.04,0 0.04,0 0.04,0 0.04,0 0.04,0 0.04,0 0.04,0 0.05,0 0.04,0 0.04,0 0.04,0 0.04,0 0.04,0 0.04,0 0.04,0 0.05,0 0.04,0 0.04,0 0.04,0 0.04,0 0.04,0 0.04,0 0.04,0 0.05,0 0.04,0 0.04,0 0.04,0 0.04,0 0.04,0 0.04,0 0.04,0 0.05,0 0.04,0 0.04,0 0.04,0 0.04,0 0.04,0 0.04,0 0.04,0 0.05,0 0.04,0 0.04,0 0.04,0 0.04,0 0.04,0 0.04,0 0.04,0 0.05,0 0.04,0 0.04,0 0.04,0 0.04,0 0.04,0 0.04,0 0.04,0 0.05,0 0.04,0 0.04,0 0.04,0 0.04,0 0.04,0 0.04,0 0.05,0 0.04,0 0.04,0 0.04,0 0.04,0 0.04,0 0.04,0 0.04,0 0.05,0 0.04,0 0.04,0 0.04,0 0.04,0 0.04,0 0.04,0 0.04,0 0.05,0 0.04,0 0.04,0 0.04,0 0.04,0 0.04,0 0.04,0 0.04,0 0.05,0 0.04,0 0.04,0 0.04,0 0.04,0 0.04,0 0.04,0 0.04,0 0.05,0 0.04,0 0.04,0 0.04,0 0.04,0 0.04,0 0.04,0 0.04,0 0.05,0 0.04,0 0.04,0 0.04,0 0.04,0 0.04,0 0.04,0 0.04,0 0.05,0 0.04,0 0.04,0 0.04,0 0.04,0 0.04,0 0.04,0 0.04,0 0.05,0 0.04,0 0.04,0 0.04,0 0.04,0 0.04,0 0.04,0 0.04,0 0.05,0 0.04,0 0.04,0 0.04,0 0.04,0 0.04,0 0.04,0 0.05,0 0.04,0 0.04,0 0.04,0 0.04,0 0.04,0 0.04,0 0.04,0 0.05,0 0.04,0 0.04,0 0.04,0 0.04,0 0.04,0 0.04,0 0.04,0 0.05,0 0.04,0 0.04,0 0.04,0 0.04,0 0.04,0 0.04,0 0.04,0 0.05,0 0.04,0 0.04,0 0.04,0 0.04,0 0.04,0 0.04,0 0.04,0 0.05,0 0.04,0 0.04,0 0.04,0 0.04,0 0.04,0 0.04,0 0.04,0 0.05,0 0.04,0 0.04,0 0.04,0 0.04,0 0.04,0 0.04,0 0.04,0 0.05,0.01 0.04,0 0.04,0 0.04,0 0.04,0 0.04,0.01 0.04,0 0.04,0.01 0.05,0.01 0.04,0.01 0.04,0.01 0.04,0.01 0.04,0.02 0.04,0.03 0.04,0.04 0.04,0.04 0.05,0.06 0.04,0.07 0.04,0.08 0.04,0.12 0.04,0.15 0.04,0.2 0.04,0.23 0.04,0.31 0.05,0.4 0.04,0.5 0.04,0.64 0.04,0.79 0.04,0.98 0.04,1.26 0.04,1.51 0.05,1.9 0.04,2.08 0.04,2.38 0.04,2.55 0.04,2.3 0.04,2.45 0.04,2.17 0.04,1.33 0.05,0.73 0.04,-0.04 0.04,-0.59 0.04,-1.52 0.04,-1.95 0.04,-2.27 0.04,-2.34 0.04,-2.4 0.05,-2.17 0.04,-1.91 0.04,-1.77 0.04,-1.44 0.04,-1.31 0.04,-1 0.04,-0.9 0.04,-0.71 0.05,-0.56 0.04,-0.46 0.04,-0.38 0.04,-0.3 0.04,-0.24 0.04,-0.2 0.04,-0.17 0.04,-0.13 0.05,-0.11 0.04,-0.08 0.04,-0.08 0.04,-0.06 0.04,-0.05 0.04,-0.03 0.04,-0.04 0.04,-0.03 0.05,-0.02 0.04,-0.02 0.04,-0.01 0.04,-0.02 0.04,-0.01 0.04,-0.01 0.04,-0.01 0.04,0 0.05,-0.01 0.04,0 0.04,-0.01 0.04,0 0.04,0 0.04,-0.01 0.04,0 0.04,0 0.05,0 0.04,0 0.04,-0.01 0.04,0 0.04,0 0.04,0 0.04,0 0.04,0 0.05,0 0.04,0 0.04,0 0.04,0 0.04,0 0.04,0 0.04,0 0.05,0 0.04,-0.01 0.04,0 0.04,0 0.04,0 0.04,0 0.04,0 0.04,0 0.05,0 0.04,0 0.04,0 0.04,0 0.04,0 0.04,0 0.04,0 0.04,0 0.05,0 0.04,0 0.04,0 0.04,0 0.04,0 0.04,0 0.04,0 0.04,0 0.05,0 0.04,0 0.04,0 0.04,0 0.04,0 0.04,0 0.04,0 0.04,0 0.05,0 0.04,0 0.04,0 0.04,0 0.04,0 0.04,0 0.04,0 0.04,0 0.05,0.01 0.04,0 0.04,0 0.04,0 0.04,0 0.04,0 0.04,0 0.04,0 0.05,0 0.04,0 0.04,0 0.04,0 0.04,0 0.04,0 0.04,0 0.04,0.01 0.05,0 0.04,0 0.04,0 0.04,0 0.04,0 0.04,0.01 0.04,0 0.04,0 0.05,0.01 0.04,0 0.04,0.01 0.04,0 0.04,0.01 0.04,0.01 0.04,0 0.04,0.01 0.05,0.01 0.04,0.02 0.04,0.01 0.04,0.02 0.04,0.02 0.04,0.02 0.04,0.02 0.05,0.03 0.04,0.04 0.04,0.04 0.04,0.05 0.04,0.05 0.04,0.07 0.04,0.07 0.04,0.09 0.05,0.1 0.04,0.11 0.04,0.13 0.04,0.15 0.04,0.19 0.04,0.21 0.04,0.25 0.04,0.25 0.05,0.32 0.04,0.34 0.04,0.45 0.04,0.49 0.04,0.55 0.04,0.57 0.04,0.67 0.04,0.7 0.05,0.81 0.04,0.8 0.04,0.84 0.04,0.81 0.04,0.69 0.04,0.74 0.04,0.62 0.04,0.42 0.05,0.3 0.04,0.16 0.04,0.08 0.04,-0.19 0.04,-0.35 0.04,-0.53 0.04,-0.58 0.04,-0.66 0.05,-0.75 0.04,-0.79 0.04,-0.8 0.04,-0.72 0.04,-0.64 0.04,-0.61 0.04,-0.56 0.04,-0.57 0.05,-0.51 0.04,-0.49 0.04,-0.41 0.04,-0.36 0.04,-0.35 0.04,-0.29 0.04,-0.25 0.04,-0.22 0.05,-0.21 0.04,-0.18 0.04,-0.15 0.04,-0.13 0.04,-0.12 0.04,-0.1 0.04,-0.09 0.04,-0.08 0.05,-0.07 0.04,-0.05 0.04,-0.06 0.04,-0.05 0.04,-0.04 0.04,-0.04 0.04,-0.03 0.05,-0.03 0.04,-0.02 0.04,-0.02 0.04,-0.02 0.04,-0.02 0.04,-0.02 0.04,-0.01 0.04,-0.02 0.05,-0.01 0.04,-0.01 0.04,-0.01 0.04,-0.01 0.04,-0.01 0.04,-0.01 0.04,0 0.04,-0.01 0.05,0 0.04,-0.01 0.04,0 0.04,0 0.04,-0.01 0.04,0 0.04,0 0.04,-0.01 0.05,0 0.04,0 0.04,0 0.04,0 0.04,0 0.04,0 0.04,-0.01 0.04,0.01 0.05,0 0.04,0 0.04,0 0.04,0 0.04,0 0.04,0 0.04,0 0.04,0 0.05,0.01 0.04,0 0.04,0 0.04,0.01 0.04,0 0.04,0.01 0.04,0 0.04,0.01 0.05,0 0.04,0.01 0.04,0 0.04,0.01 0.04,0.01 0.04,0.01 0.04,0.01 0.04,0.01 0.05,0.02 0.04,0.01 0.04,0.01 0.04,0.02 0.04,0.02 0.04,0.02 0.04,0.02 0.04,0.03 0.05,0.02 0.04,0.04 0.04,0.03 0.04,0.03 0.04,0.05 0.04,0.04 0.04,0.05 0.04,0.06 0.05,0.06 0.04,0.08 0.04,0.08 0.04,0.08 0.04,0.1 0.04,0.1 0.04,0.14 0.05,0.14 0.04,0.14 0.04,0.16 0.04,0.17 0.04,0.17 0.04,0.21 0.04,0.22 0.04,0.23 0.05,0.27 0.04,0.27 0.04,0.33 0.04,0.34 0.04,0.35 0.04,0.32 0.04,0.34 0.04,0.38 0.05,0.33 0.04,0.34 0.04,0.23 0.04,0.31 0.04,0.31 0.04,0.2 0.04,0.2 0.04,0.13 0.05,0 0.04,-0.06 0.04,-0.08 0.04,-0.04 0.04,-0.16 0.04,-0.21 0.04,-0.23 0.04,-0.27 0.05,-0.29 0.04,-0.3 0.04,-0.35 0.04,-0.28 0.04,-0.34 0.04,-0.23 0.04,-0.36 0.04,-0.25 0.05,-0.28 0.04,-0.3 0.04,-0.27 0.04,-0.25 0.04,-0.19 0.04,-0.2 0.04,-0.17 0.04,-0.16 0.05,-0.14 0.04,-0.13 0.04,-0.13 0.04,-0.12 0.04,-0.11 0.04,-0.11 0.04,-0.09 0.04,-0.1 0.05,-0.09 0.04,-0.08 0.04,-0.06 0.04,-0.05 0.04,-0.05 0.04,-0.06 0.04,-0.04 0.04,-0.05 0.05,-0.03 0.04,-0.04 0.04,-0.03 0.04,-0.03 0.04,-0.03 0.04,-0.02 0.04,-0.03 0.05,-0.01 0.04,-0.02 0.04,-0.02 0.04,-0.01 0.04,-0.02 0.04,-0.01 0.04,-0.01 0.04,-0.01 0.05,-0.01 0.04,-0.01 0.04,0 0.04,0 0.04,-0.01 0.04,0 0.04,0 0.04,-0.01 0.05,0.01 0.04,0 0.04,0 0.04,0.01 0.04,0 0.04,0 0.04,0.01 0.04,0.01 0.05,0.01 0.04,0.01 0.04,0.01 0.04,0.01 0.04,0.01 0.04,0.01 0.04,0.01 0.04,0.01 0.05,0.02 0.04,0.01 0.04,0.02 0.04,0.02 0.04,0.02 0.04,0.02 0.04,0.03 0.04,0.04 0.05,0.03 0.04,0.03 0.04,0.04 0.04,0.03 0.04,0.05 0.04,0.05 0.04,0.05 0.04,0.05 0.05,0.05 0.04,0.09 0.04,0.08 0.04,0.07 0.04,0.09 0.04,0.09 0.04,0.07 0.04,0.1 0.05,0.08 0.04,0.11 0.04,0.12 0.04,0.14 0.04,0.15 0.04,0.14 0.04,0.14 0.04,0.14 0.05,0.13 0.04,0.18 0.04,0.2 0.04,0.16 0.04,0.21 0.04,0.19 0.04,0.13 0.04,0.21 0.05,0.15 0.04,0.15 0.04,0.17 0.04,0.13 0.04,0.09 0.04,0.17 0.04,0.15 0.05,0.04 0.04,0.02 0.04,0.01 0.04,-0.01 0.04,-0.04 0.04,0 0.04,-0.03 0.04,-0.07 0.05,-0.15 0.04,-0.1 0.04,-0.12 0.04,-0.15 0.04,-0.17 0.04,-0.13 0.04,-0.16 0.04,-0.2 0.05,-0.16 0.04,-0.15 0.04,-0.17 0.04,-0.17 0.04,-0.14 0.04,-0.18 0.04,-0.13 0.04,-0.14 0.05,-0.13 0.04,-0.12 0.04,-0.11 0.04,-0.12 0.04,-0.12 0.04,-0.12 0.04,-0.08 0.04,-0.08 0.05,-0.11 0.04,-0.1 0.04,-0.07 0.04,-0.06 0.04,-0.06 0.04,-0.05 0.04,-0.04 0.04,-0.05 0.05,-0.03 0.04,-0.04 0.04,-0.04 0.04,-0.04 0.04,-0.04 0.04,-0.02 0.04,-0.03 0.04,-0.03 0.05,-0.03 0.04,-0.02 0.04,-0.03 0.04,-0.01 0.04,-0.02 0.04,-0.01 0.04,0 0.04,-0.02 0.05,0 0.04,0 0.04,-0.01 0.04,-0.01 0.04,0 0.04,0 0.04,0 0.04,0 0.05,0 0.04,0 0.04,0 0.04,0 0.04,0.01 0.04,0 0.04,0 0.05,0.02 0.04,0.02 0.04,0.01 0.04,0.01 0.04,0.02 0.04,0.01 0.04,0.03 0.04,0.02 0.05,0.03 0.04,0.03 0.04,0.02 0.04,0.03 0.04,0.04 0.04,0.04 0.04,0.03 0.04,0.05 0.05,0.04 0.04,0.02 0.04,0.05 0.04,0.06 0.04,0.04 0.04,0.06 0.04,0.06 0.04,0.05 0.05,0.08 0.04,0.06 0.04,0.07 0.04,0.07 0.04,0.08 0.04,0.07 0.04,0.09 0.04,0.07 0.05,0.14 0.04,0.09 0.04,0.09 0.04,0.09 0.04,0.1 0.04,0.09 0.04,0.09 0.04,0.08 0.05,0.09 0.04,0.07 0.04,0.08 0.04,0.12 0.04,0.1 0.04,0.1 0.04,0.05 0.04,0.02 0.05,0.07 0.04,0.04 0.04,0.02 0.04,-0.02 0.04,0.06 0.04,0.04 0.04,-0.03 0.04,0 0.05,0 0.04,-0.01 0.04,-0.02 0.04,-0.02 0.04,-0.02 0.04,-0.05 0.04,-0.06 0.04,-0.05 0.05,-0.09 0.04,-0.04 0.04,-0.07 0.04,-0.08 0.04,-0.05 0.04,-0.09 0.04,-0.06 0.04,-0.1 0.05,-0.09 0.04,-0.11 0.04,-0.09 0.04,-0.1 0.04,-0.06 0.04,-0.07 0.04,-0.12 0.05,-0.05 0.04,-0.07 0.04,-0.07 0.04,-0.08 0.04,-0.05 0.04,-0.05 0.04,-0.09 0.04,-0.01 0.05,-0.05 0.04,-0.05 0.04,-0.04 0.04,-0.05 0.04,-0.05 0.04,-0.04 0.04,-0.04 0.04,-0.03 0.05,-0.05 0.04,-0.01 0.04,-0.04 0.04,-0.03 0.04,-0.01 0.04,-0.02 0.04,-0.02 0.04,-0.02 0.05,-0.02 0.04,-0.01 0.04,-0.03 0.04,-0.01 0.04,0 0.04,-0.01 0.04,-0.01 0.04,-0.01 0.05,-0.01 0.04,-0.01 0.04,0 0.04,-0.01 0.04,-0.01 0.04,0 0.04,0.01 0.04,0 0.05,-0.01 0.04,0.01 0.04,0.01 0.04,0.02 0.04,0.01 0.04,0.02 0.04,0.02 0.04,0.01 0.05,0.01 0.04,0.03 0.04,0.03 0.04,0.02 0.04,0.03 0.04,0.02 0.04,0.02 0.04,0.03 0.05,0.04 0.04,0.04 0.04,0.04 0.04,0.04 0.04,0.03 0.04,0.03 0.04,0.06 0.04,0.04 0.05,0.06 0.04,0.04 0.04,0.05 0.04,0.06 0.04,0.04 0.04,0.05 0.04,0.06 0.05,0.06 0.04,0.05 0.04,0.03 0.04,0.05 0.04,0.06 0.04,0.04 0.04,0.04 0.04,0.09 0.05,0.03 0.04,0.06 0.04,0.06 0.04,0.04 0.04,0.07 0.04,0.03 0.04,0.05 0.04,0.01 0.05,0.05 0.04,0.07 0.04,0.04 0.04,0.02 0.04,0.02 0.04,0.04 0.04,0 0.04,-0.02 0.05,-0.01 0.04,-0.02 0.04,0.04 0.04,-0.01 0.04,-0.05 0.04,-0.01 0.04,-0.01 0.04,0 0.05,0 0.04,-0.08 0.04,-0.02 0.04,-0.03 0.04,-0.05 0.04,-0.02 0.04,-0.04 0.04,-0.07 0.05,-0.05 0.04,-0.04 0.04,-0.05 0.04,-0.05 0.04,-0.04 0.04,-0.03 0.04,-0.05 0.04,-0.03 0.05,-0.03 0.04,-0.04 0.04,-0.03 0.04,-0.05 0.04,-0.05 0.04,-0.07 0.04,-0.04 0.04,-0.05 0.05,-0.04 0.04,-0.03 0.04,-0.01 0.04,-0.03 0.04,-0.02 0.04,-0.05 0.04,-0.02 0.04,-0.03 0.05,-0.02 0.04,-0.01 0.04,-0.02 0.04,-0.03 0.04,-0.03 0.04,-0.01 0.04,-0.02 0.04,-0.01 0.05,-0.03 0.04,-0.02 0.04,-0.01 0.04,-0.01 0.04,-0.02 0.04,0 0.04,0 0.05,-0.03 0.04,-0.01 0.04,0.01 0.04,-0.02 0.04,-0.01 0.04,-0.01 0.04,-0.01 0.04,-0.01 0.05,0 0.04,0 0.04,0.01 0.04,0 0.04,0.02 0.04,0 0.04,0 0.04,0 0.05,0 0.04,0 0.04,0.03 0.04,-0.02 0.04,0.03 0.04,0.02 0.04,0.02 0.04,0.03 0.05,0.03 0.04,0.04 0.04,0.02 0.04,0.03 0.04,0.02 0.04,0.05 0.04,0.01 0.04,0.01 0.05,0.03 0.04,0.03 0.04,0.01 0.04,0.04 0.04,0.02 0.04,0.06 0.04,0.03 0.04,0.02 0.05,0.02 0.04,0.04 0.04,0.01 0.04,0.02 0.04,0.04 0.04,0.03 0.04,0.04 0.04,0.02 0.05,0.06 0.04,0.06 0.04,0.01 0.04,0.01 0.04,0.02 0.04,0.04 0.04,0.03 0.04,0.02 0.05,0.03 0.04,0 0.04,0.02 0.04,0.04 0.04,0.02 0.04,0.01 0.04,0.02 0.04,0 0.05,-0.01 0.04,0.01 0.04,0.01 0.04,0 0.04,-0.01 0.04,0.02 0.04,0.03 0.05,-0.03 0.04,-0.02 0.04,0 0.04,0 0.04,-0.02 0.04,-0.03 0.04,-0.02 0.04,-0.05 0.05,0 0.04,-0.04 0.04,-0.02 0.04,-0.01 0.04,-0.02 0.04,-0.03 0.04,0 0.04,-0.02 0.05,-0.01 0.04,-0.01 0.04,-0.02 0.04,-0.01 0.04,-0.03 0.04,-0.03 0.04,-0.03 0.04,-0.03 0.05,-0.02 0.04,-0.03 0.04,-0.02 0.04,-0.02 0.04,-0.02 0.04,-0.03 0.04,-0.05 0.04,-0.04 0.05,-0.06 0.04,-0.01 0.04,-0.03 0.04,-0.01 0.04,-0.04 0.04,-0.01 0.04,-0.03 0.04,-0.02 0.05,-0.01 0.04,0.01 0.04,0 0.04,0.01 0.04,0 0.04,-0.03 0.04,-0.02 0.04,-0.04 0.05,0 0.04,-0.02 0.04,-0.01 0.04,0 0.04,-0.03 0.04,0.01 0.04,-0.02 0.04,0 0.05,-0.01 0.04,0.01 0.04,-0.01 0.04,0 0.04,-0.01 0.04,0.02 0.04,0.01 0.04,0.02 0.05,0.01 0.04,0 0.04,0.01 0.04,-0.01 0.04,0.02 0.04,0.01 0.04,0.02 0.04,0.03 0.05,0.01 0.04,0.01 0.04,0.02 0.04,0.03 0.04,0.02 0.04,0.03 0.04,0.02 0.05,0.02 0.04,0 0.04,0.03 0.04,0.01 0.04,0.01 0.04,0.03 0.04,0.01 0.04,0.03 0.05,0.02 0.04,0.02 0.04,0 0.04,0.03 0.04,0.02 0.04,0.03 0.04,0.03 0.04,0.03 0.05,0.03 0.04,0.01 0.04,0.01 0.04,0.02 0.04,0.02 0.04,0.01 0.04,0.04 0.04,0.02 0.05,-0.02 0.04,0.02 0.04,0.01 0.04,0.03 0.04,0.01 0.04,-0.01 0.04,0 0.04,0.01 0.05,0 0.04,0.03 0.04,-0.01 0.04,0 0.04,-0.01 0.04,0.02 0.04,0 0.04,0.01 0.05,0.03 0.04,-0.02 0.04,-0.03 0.04,0.01 0.04,-0.01 0.04,-0.05 0.04,-0.03 0.04,-0.02 0.05,-0.02 0.04,0.04 0.04,-0.01 0.04,-0.02 0.04,-0.02 0.04,-0.02 0.04,-0.02 0.04,-0.02 0.05,-0.01 0.04,0.01 0.04,-0.03 0.04,-0.03 0.04,0.02 0.04,-0.01 0.04,-0.02 0.04,-0.01 0.05,0 0.04,-0.01 0.04,-0.02 0.04,-0.04 0.04,-0.02 0.04,0.01 0.04,0 0.05,-0.03 0.04,-0.04 0.04,-0.01 0.04,0 0.04,-0.01 0.04,0 0.04,-0.02 0.04,-0.01 0.05,0 0.04,-0.02 0.04,-0.02 0.04,-0.02 0.04,0 0.04,-0.01 0.04,0.01 0.04,0 0.05,-0.02 0.04,-0.01 0.04,0 0.04,-0.01 0.04,0.01 0.04,0 0.04,-0.01 0.04,0.02 0.05,-0.01 0.04,-0.03 0.04,0.01 0.04,-0.01 0.04,0 0.04,0 0.04,0.01 0.04,0 0.05,-0.01 0.04,0 0.04,-0.03 0.04,-0.01 0.04,0.04 0.04,-0.01 0.04,0 0.04,0 0.05,0.01 0.04,0.02 0.04,0 0.04,0.01 0.04,-0.02 0.04,-0.01 0.04,0.02 0.04,0 0.05,0.01 0.04,0 0.04,0.03 0.04,0.02 0.04,0.01 0.04,0 0.04,0 0.04,0.03 0.05,0.02 0.04,-0.01 0.04,0.02 0.04,0.01 0.04,0.01 0.04,0 0.04,0.01 0.04,0.01 0.05,0.03 0.04,-0.01 0.04,0 0.04,0.02 0.04,0.01 0.04,0.02 0.04,0.02 0.04,-0.01 0.05,0.02 0.04,0.01 0.04,0 0.04,0 0.04,-0.01 0.04,0.01 0.04,0.03 0.05,0.03 0.04,0 0.04,0.02 0.04,0 0.04,-0.01 0.04,0 0.04,0.01 0.04,0.01 0.05,0.03 0.04,0.01 0.04,0 0.04,0 0.04,0.01 0.04,-0.01 0.04,-0.01 0.04,0 0.05,-0.02 0.04,0.01 0.04,-0.01 0.04,0 0.04,-0.01 0.04,-0.01 0.04,-0.02 0.04,-0.01 0.05,0 0.04,0.03 0.04,0.02 0.04,0.01 0.04,0.01 0.04,-0.01 0.04,0 0.04,-0.02 0.05,0.01 0.04,-0.05 0.04,0 0.04,-0.04 0.04,0 0.04,-0.01 0.04,-0.04 0.04,0 0.05,0 0.04,0 0.04,-0.04 0.04,-0.01 0.04,-0.02 0.04,-0.02 0.04,-0.01 0.04,0 0.05,-0.01 0.04,-0.01 0.04,-0.01 0.04,-0.03 0.04,-0.03 0.04,-0.01 0.04,0.03 0.04,0 0.05,-0.02 0.04,0 0.04,0 0.04,0.01 0.04,-0.01 0.04,0.01 0.04,0.02 0.04,0 0.05,0.01 0.04,0 0.04,-0.01 0.04,0 0.04,0 0.04,0 0.04,0 0.05,0 0.04,-0.01 0.04,-0.01 0.04,-0.01 0.04,0.01 0.04,0.01 0.04,0.01 0.04,0 0.05,0 0.04,0 0.04,0 0.04,0.01 0.04,-0.03 0.04,-0.02 0.04,0.03 0.04,0.01 0.05,0.01 0.04,0.01 0.04,0 0.04,-0.01 0.04,0.01 0.04,0.01 0.04,0 0.04,-0.01 0.05,0.01 0.04,-0.01 0.04,0.04 0.04,0.01 0.04,0 0.04,0 0.04,0.01 0.04,0.03 0.05,0.02 0.04,0 0.04,0 0.04,0.03 0.04,0 0.04,0.02 0.04,-0.02 0.04,-0.01 0.05,0.03 0.04,0.02 0.04,0.01 0.04,-0.02 0.04,-0.01 0.04,0.04 0.04,0.01 0.04,-0.01 0.05,0.01 0.04,0 0.04,0.01 0.04,-0.02 0.04,0 0.04,-0.01 0.04,-0.01 0.04,0.02 0.05,-0.02 0.04,0.04 0.04,0.02 0.04,0.02 0.04,0.01 0.04,-0.02 0.04,0 0.04,0 0.05,0.01 0.04,0 0.04,0.02 0.04,0.02 0.04,-0.01 0.04,-0.03 0.04,0 0.04,0 0.05,0.01 0.04,-0.01 0.04,-0.01 0.04,-0.02 0.04,-0.01 0.04,0 0.04,-0.01 0.05,0.02 0.04,0 0.04,0.01 0.04,0.01 0.04,-0.01 0.04,-0.01 0.04,-0.03 0.04,0.02 0.05,0 0.04,0.01 0.04,-0.01 0.04,-0.03 0.04,-0.02 0.04,-0.01 0.04,-0.01 0.04,-0.01 0.05,0.01 0.04,-0.01 0.04,-0.03 0.04,0 0.04,0.01 0.04,-0.03 0.04,-0.01 0.04,0 0.05,-0.01 0.04,0.02 0.04,-0.01 0.04,0 0.04,-0.01 0.04,-0.01 0.04,0 0.04,-0.01 0.05,0 0.04,0.02 0.04,-0.01 0.04,0.04 0.04,-0.01 0.04,0 0.04,-0.02 0.04,0 0.05,-0.03 0.04,0 0.04,-0.01 0.04,-0.01 0.04,-0.02 0.04,-0.01 0.04,0 0.04,-0.03 0.05,-0.03 0.04,0 0.04,0 0.04,-0.01 0.04,0 0.04,0.01 0.04,0 0.04,-0.01 0.05,0.02 0.04,-0.03 0.04,0 0.04,0 0.04,0.01 0.04,-0.02 0.04,0.02 0.04,0 0.05,-0.01 0.04,0 0.04,-0.01 0.04,0.01 0.04,0.02 0.04,0 0.04,0 0.05,0.01 0.04,-0.01 0.04,0.02 0.04,0.01 0.04,-0.01 0.04,0.01 0.04,0.01 0.04,0.04 0.05,0 0.04,0.02 0.04,0 0.04,0 0.04,-0.01 0.04,0.02 0.04,0.01 0.04,0.01 0.05,0 0.04,0.02 0.04,0.01 0.04,0.01 0.04,0.04 0.04,0.01 0.04,0.03 0.04,0.02 0.05,0.01 0.04,0.01 0.04,0 0.04,0.01 0.04,-0.01 0.04,0.02 0.04,0.02 0.04,0 0.05,0.04 0.04,-0.02 0.04,0.01 0.04,0 0.04,0.01 0.04,-0.02 0.04,0 0.04,0.01 0.05,-0.02 0.04,-0.01 0.04,0.01 0.04,0 0.04,0.02 0.04,0.02 0.04,0 0.04,-0.04 0.05,0.01 0.04,-0.04 0.04,0.03 0.04,0 0.04,-0.01 0.04,-0.02 0.04,-0.01 0.04,0 0.05,-0.03 0.04,-0.01 0.04,0.01 0.04,0 0.04,0 0.04,-0.04 0.04,0 0.04,0 0.05,0 0.04,0 0.04,-0.03 0.04,-0.01 0.04,-0.03 0.04,-0.01 0.04,-0.01 0.04,0 0.05,0 0.04,0 0.04,-0.02 0.04,0.01 0.04,-0.01 0.04,0 0.04,-0.01 0.05,-0.01 0.04,0.02 0.04,0.02 0.04,0.02 0.04,-0.01 0.04,0.02 0.04,0.01 0.04,-0.02 0.05,-0.01 0.04,-0.02 0.04,0.02 0.04,0.01 0.04,0 0.04,0 0.04,-0.02 0.04,-0.01 0.05,-0.01 0.04,0 0.04,0.01 0.04,0 0.04,0.02 0.04,0.01 0.04,-0.01 0.04,0 0.05,0 0.04,0 0.04,0 0.04,0 0.04,0 0.04,-0.01 0.04,-0.01 0.04,0.01 0.05,0.01 0.04,0 0.04,0 0.04,-0.01 0.04,-0.01 0.04,-0.01 0.04,0.01 0.04,-0.04 0.05,0.01 0.04,0 0.04,0 0.04,0 0.04,-0.01 0.04,0.02 0.04,0.01 0.04,0.01 0.05,0 0.04,0 0.04,-0.02 0.04,-0.01 0.04,-0.01 0.04,0 0.04,0.01 0.04,0.01 0.05,0 0.04,-0.01 0.04,0.03 0.04,-0.01 0.04,0.04 0.04,-0.01 0.04,0.02 0.04,-0.01 0.05,-0.02 0.04,0 0.04,-0.01 0.04,0 0.04,0 0.04,0.01 0.04,0.03 0.04,0.02 0.05,0 0.04,0.02 0.04,-0.01 0.04,0 0.04,-0.03 0.04,0.01 0.04,0 0.05,-0.01 0.04,-0.01 0.04,0 0.04,0.01 0.04,-0.02 0.04,0 0.04,0.02 0.04,0.01 0.05,0.02 0.04,0 0.04,-0.02 0.04,-0.01 0.04,-0.01 0.04,0 0.04,0 0.04,-0.03 0.05,0 0.04,0 0.04,0.02 0.04,-0.01 0.04,-0.01 0.04,0.01 0.04,0.01 0.04,0 0.05,0 0.04,0 0.04,-0.01 0.04,0.02 0.04,0 0.04,0.01 0.04,-0.03 0.04,0.01 0.05,0.02 0.04,0 0.04,0.02 0.04,0 0.04,-0.01 0.04,0.01 0.04,0 0.04,0.03 0.05,-0.02 0.04,0.01 0.04,0.01 0.04,0 0.04,-0.01 0.04,-0.02 0.04,0.02 0.04,0.01 0.05,0.02 0.04,0.01 0.04,-0.01 0.04,-0.02 0.04,0.01 0.04,0 0.04,0 0.04,0 0.05,0.01 0.04,0.01 0.04,-0.01 0.04,-0.02 0.04,-0.01 0.04,-0.03 0.04,0.01 0.04,0 0.05,0.01 0.04,0.01 0.04,0 0.04,-0.01 0.04,0.01 0.04,-0.02 0.04,-0.02 0.05,0.03 0.04,0.02 0.04,-0.01 0.04,0 0.04,-0.01 0.04,0 0.04,0 0.04,-0.01 0.05,-0.01 0.04,0.01 0.04,-0.02 0.04,-0.01 0.04,-0.01 0.04,0.01 0.04,0.01 0.04,0 0.05,-0.01 0.04,0.04 0.04,0 0.04,0.02 0.04,-0.03 0.04,0 0.04,-0.01 0.04,0 0.05,0.01 0.04,-0.02 0.04,0.01 0.04,0 0.04,-0.01 0.04,0 0.04,0 0.04,-0.02 0.05,0 0.04,0.03 0.04,-0.03 0.04,0 0.04,0.02 0.04,-0.01 0.04,0 0.04,-0.02 0.05,0 0.04,0 0.04,-0.01 0.04,0.01 0.04,-0.01 0.04,-0.03 0.04,-0.01 0.04,0.01 0.05,0.02 0.04,-0.02 0.04,0.02 0.04,0 0.04,0.02 0.04,-0.01 0.04,-0.01 0.04,0.01 0.05,-0.02 0.04,-0.01 0.04,0.01 0.04,0.01 0.04,0 0.04,0.01 0.04,-0.02 0.04,0 0.05,-0.02 0.04,0.01 0.04,0.01 0.04,0 0.04,0 0.04,0 0.04,0 0.04,0.02 0.05,0.01 0.04,-0.01 0.04,0 0.04,-0.01 0.04,0 0.04,-0.01 0.04,0.02 0.05,-0.02 0.04,0.04 0.04,0.01 0.04,-0.01 0.04,0.01 0.04,0 0.04,0.01 0.04,-0.01 0.05,0 0.04,0 0.04,0.02 0.04,0.03 0.04,-0.01 0.04,-0.01 0.04,-0.02 0.04,0.01 0.05,0 0.04,0 0.04,0 0.04,0.02 0.04,0 0.04,0.03 0.04,-0.01 0.04,0.02 0.05,-0.02 0.04,0 0.04,-0.02 0.04,0.01 0.04,0.01 0.04,0.06 0.04,0 0.04,-0.02 0.05,0.01 0.04,0 0.04,-0.01 0.04,-0.01 0.04,0.01 0.04,0.02 0.04,0.01 0.04,0 0.05,-0.02 0.04,0 0.04,0.03 0.04,-0.02 0.04,0.01 0.04,-0.01 0.04,-0.02 0.04,0.01 0.05,0.01 0.04,-0.01 0.04,0.01 0.04,-0.01 0.04,0 0.04,-0.01 0.04,0 0.04,0 0.05,0.01 0.04,-0.02 0.04,0 0.04,-0.02 0.04,-0.01 0.04,-0.01 0.04,-0.02 0.04,0 0.05,-0.01 0.04,0 0.04,0 0.04,-0.03 0.04,-0.01 0.04,0 0.04,-0.01 0.05,0 0.04,0 0.04,0.01 0.04,0 0.04,-0.02 0.04,0 0.04,0.03 0.04,0 0.05,0.02 0.04,0 0.04,-0.01 0.04,0.03 0.04,-0.03 0.04,0 0.04,-0.01 0.04,0.01 0.05,0.02 0.04,-0.01 0.04,0 0.04,-0.01 0.04,-0.01 0.04,0.01 0.04,0 0.04,-0.01 0.05,0.01 0.04,-0.02 0.04,-0.02 0.04,0 0.04,0.01 0.04,-0.02 0.04,0.02 0.04,-0.01 0.05,0.01 0.04,0 0.04,0 0.04,-0.01 0.04,-0.03 0.04,-0.01 0.04,-0.02 0.04,0 0.05,0 0.04,0 0.04,0 0.04,0.01 0.04,0 0.04,0 0.04,-0.03 0.04,-0.01 0.05,-0.01 0.04,0 0.04,0.02 0.04,0.01 0.04,0.01 0.04,-0.01 0.04,0.01 0.04,0 0.05,-0.01 0.04,-0.02 0.04,0.01 0.04,-0.02 0.04,0 0.04,0.01 0.04,0.01 0.04,0.04 0.05,0 0.04,0.02 0.04,0.02 0.04,0.01 0.04,0.02 0.04,0.03 0.04,0 0.04,0.02 0.05,-0.02 0.04,0.02 0.04,0.03 0.04,-0.02 0.04,-0.01 0.04,-0.01 0.04,0.01 0.05,0.01 0.04,0.01 0.04,0 0.04,0.03 0.04,-0.01 0.04,0.01 0.04,0 0.04,-0.02 0.05,-0.01 0.04,0.03 0.04,0.01 0.04,-0.03 0.04,0 0.04,0.01 0.04,0.01 0.04,0 0.05,0.02 0.04,0.01 0.04,0 0.04,0.01 0.04,-0.02 0.04,0.02 0.04,0 0.04,-0.01 0.05,0.03 0.04,-0.01 0.04,0.02 0.04,-0.01 0.04,0.01 0.04,0.03 0.04,0 0.04,-0.01 0.05,0 0.04,0.04 0.04,-0.01 0.04,-0.03 0.04,0 0.04,-0.04 0.04,0.01 0.04,-0.01 0.05,-0.01 0.04,0 0.04,-0.01 0.04,0 0.04,0 0.04,0.02 0.04,0 0.04,0.02 0.05,-0.02 0.04,-0.02 0.04,-0.01 0.04,-0.01 0.04,-0.01 0.04,0 0.04,0 0.04,-0.01 0.05,-0.01 0.04,-0.01 0.04,0.01 0.04,-0.04 0.04,0.01 0.04,-0.01 0.04,-0.02 0.04,0.01 0.05,-0.03 0.04,-0.04 0.04,0.01 0.04,0 0.04,-0.01 0.04,-0.02 0.04,0 0.05,0 0.04,0 0.04,0 0.04,-0.03 0.04,0 0.04,0 0.04,0.01 0.04,0 0.05,-0.01 0.04,0.01 0.04,-0.02 0.04,0 0.04,-0.02 0.04,0 0.04,0 0.04,-0.02 0.05,-0.03 0.04,-0.02 0.04,0.01 0.04,-0.01 0.04,0.02 0.04,0.04 0.04,0.01 0.04,-0.01 0.05,0 0.04,0.01 0.04,0.01 0.04,-0.02 0.04,0 0.04,0 0.04,0 0.04,0 0.05,0 0.04,0.01 0.04,-0.01 0.04,-0.01 0.04,0.01 0.04,-0.03 0.04,0.01 0.04,0.01 0.05,0 0.04,0.01 0.04,-0.01 0.04,0.01 0.04,0 0.04,0.02 0.04,0.03 0.04,0.01 0.05,0 0.04,0 0.04,0.03 0.04,-0.01 0.04,-0.01 0.04,0 0.04,0.01 0.04,0 0.05,0.03 0.04,0.02 0.04,0.01 0.04,0.03 0.04,0 0.04,0.01 0.04,0 0.04,0.02 0.05,-0.01 0.04,0.01 0.04,0.01 0.04,0.01 0.04,0.02 0.04,0 0.04,0 0.04,0.02 0.05,0.01 0.04,0.02 0.04,0 0.04,0 0.04,0.02 0.04,0.02 0.04,0.02 0.05,0.02 0.04,0 0.04,0.01 0.04,0.01 0.04,0 0.04,0 0.04,0 0.04,-0.03 0.05,0.02 0.04,0 0.04,0 0.04,0 0.04,0 0.04,-0.01 0.04,0 0.04,-0.01 0.05,0 0.04,-0.01 0.04,0 0.04,-0.01 0.04,-0.01 0.04,0.01 0.04,-0.03 0.04,-0.01 0.05,-0.01 0.04,0 0.04,-0.01 0.04,-0.03 0.04,-0.01 0.04,-0.01 0.04,0 0.04,-0.05 0.05,0 0.04,-0.02 0.04,-0.03 0.04,-0.01 0.04,-0.01 0.04,-0.02 0.04,0 0.04,-0.01 0.05,0.01 0.04,-0.04 0.04,-0.02 0.04,-0.01 0.04,-0.01 0.04,-0.03 0.04,0 0.04,-0.02 0.05,-0.01 0.04,0 0.04,-0.02 0.04,0.01 0.04,0.02 0.04,0 0.04,-0.01 0.04,0 0.05,-0.01 0.04,-0.01 0.04,-0.01 0.04,0.01 0.04,0 0.04,0 0.04,0.03 0.04,0 0.05,-0.01 0.04,0.02 0.04,0.02 0.04,-0.01 0.04,0.03 0.04,-0.02 0.04,0 0.05,0 0.04,0.02 0.04,0.01 0.04,0.01 0.04,0.02 0.04,0 0.04,0.04 0.04,-0.01 0.05,0.02 0.04,0 0.04,0.04 0.04,0.02 0.04,0 0.04,0 0.04,0.02 0.04,0.02 0.05,0 0.04,0.03 0.04,0.02 0.04,0 0.04,-0.01 0.04,0.03 0.04,-0.01 0.04,-0.01 0.05,0 0.04,0.02 0.04,0.02 0.04,0.02 0.04,0.02 0.04,0 0.04,0.02 0.04,-0.02 0.05,0.02 0.04,0.02 0.04,-0.02 0.04,0 0.04,0 0.04,0.01 0.04,-0.03 0.04,0 0.05,-0.01 0.04,0.01 0.04,0 0.04,-0.01 0.04,-0.01 0.04,-0.02 0.04,0 0.04,-0.01 0.05,-0.01 0.04,-0.01 0.04,-0.03 0.04,0.01 0.04,-0.02 0.04,-0.01 0.04,-0.03 0.04,-0.01 0.05,-0.02 0.04,0.01 0.04,-0.03 0.04,0.03 0.04,0.01 0.04,-0.01 0.04,0.01 0.04,0 0.05,0.01 0.04,-0.01 0.04,0 0.04,-0.02 0.04,0 0.04,0 0.04,0.03 0.04,-0.02 0.05,-0.01 0.04,0.02 0.04,-0.01 0.04,0 0.04,-0.01 0.04,0 0.04,-0.01 0.05,-0.01 0.04,0 0.04,-0.01 0.04,0 0.04,0 0.04,0 0.04,0 0.04,-0.01 0.05,0 0.04,-0.01 0.04,0.01 0.04,0 0.04,-0.01 0.04,0 0.04,-0.01 0.04,0.03 0.05,-0.02 0.04,0 0.04,0.01 0.04,0 0.04,0.01 0.04,-0.01 0.04,0.03 0.04,-0.02 0.05,0.03 0.04,0 0.04,-0.01 0.04,0 0.04,-0.01 0.04,-0.01 0.04,0 0.04,0 0.05,0 0.04,0.01 0.04,0.01 0.04,0 0.04,0.04 0.04,0 0.04,-0.01 0.04,-0.01 0.05,-0.02 0.04,0 0.04,-0.02 0.04,0.02 0.04,0 0.04,-0.01 0.04,-0.01 0.04,0 0.05,0.02 0.04,0.01 0.04,0 0.04,-0.02 0.04,0 0.04,0 0.04,0.01 0.04,0 0.05,-0.01 0.04,0.02 0.04,0 0.04,-0.01 0.04,-0.01 0.04,0.02 0.04,-0.02 0.04,0 0.05,-0.01 0.04,0.01 0.04,0 0.04,-0.02 0.04,-0.01 0.04,0 0.04,-0.01 0.05,0 0.04,-0.01 0.04,0.01 0.04,0 0.04,-0.02 0.04,-0.01 0.04,0 0.04,-0.01 0.05,0.01 0.04,0.01 0.04,-0.02 0.04,0.02 0.04,0.01 0.04,0 0.04,0 0.04,0 0.05,0 0.04,-0.03 0.04,0 0.04,0 0.04,-0.01 0.04,-0.01 0.04,0 0.04,0 0.05,0 0.04,-0.01 0.04,0.01 0.04,0.02 0.04,0.03 0.04,0.02 0.04,0.01 0.04,-0.02 0.05,0.01 0.04,0.02 0.04,-0.02 0.04,0.02 0.04,0.01 0.04,0.02 0.04,0 0.04,0.02 0.05,0 0.04,0.02 0.04,0.01 0.04,-0.01 0.04,0.01 0.04,0.01 0.04,0.04 0.04,-0.01 0.05,0 0.04,0 0.04,-0.01 0.04,-0.01 0.04,0.03 0.04,-0.02 0.04,0 0.04,-0.01 0.05,-0.01 0.04,0 0.04,-0.01 0.04,0.01 0.04,0 0.04,0.01 0.04,0.02 0.04,0.01 0.05,0.02 0.04,0.02 0.04,-0.01 0.04,0 0.04,0 0.04,-0.04 0.04,0.01 0.04,-0.01 0.05,0 0.04,0.02 0.04,0 0.04,0.03 0.04,0 0.04,0.02 0.04,0.01 0.05,-0.01 0.04,-0.01 0.04,0 0.04,-0.01 0.04,0.02 0.04,0.01 0.04,0.02 0.04,-0.02 0.05,-0.01 0.04,0 0.04,0 0.04,-0.01 0.04,-0.03 0.04,0 0.04,0.01 0.04,0 0.05,-0.01 0.04,-0.01 0.04,-0.03 0.04,-0.05 0.04,0.01 0.04,-0.02 0.04,0 0.04,-0.02 0.05,0.03 0.04,-0.01 0.04,0 0.04,-0.01 0.04,-0.03 0.04,-0.01 0.04,-0.02 0.04,-0.03 0.05,-0.01 0.04,-0.01 0.04,-0.02 0.04,-0.02 0.04,0 0.04,-0.02 0.04,-0.01 0.04,0 0.05,0.01 0.04,0.01 0.04,-0.01 0.04,0.03 0.04,-0.03 0.04,0.01 0.04,0 0.04,0 0.05,0 0.04,0 0.04,-0.03 0.04,0.02 0.04,0.01 0.04,0.02 0.04,0.01 0.04,0.01 0.05,0 0.04,0.01 0.04,-0.01 0.04,-0.02 0.04,0.03 0.04,0 0.04,-0.01 0.04,0 0.05,0 0.04,0 0.04,-0.01 0.04,-0.01 0.04,0.01 0.04,-0.01 0.04,0.01 0.05,0 0.04,0 0.04,0.01 0.04,0.01 0.04,-0.01 0.04,0 0.04,0.03 0.04,0 0.05,0.03 0.04,0 0.04,0 0.04,0.01 0.04,0.02 0.04,0.02 0.04,0 0.04,0.02 0.05,0.01 0.04,0 0.04,0 0.04,-0.01 0.04,0 0.04,0 0.04,0 0.04,0.04 0.05,0.02 0.04,0 0.04,0.01 0.04,0 0.04,0.01 0.04,0 0.04,0.01 0.04,0.01 0.05,0.01 0.04,0.01 0.04,-0.01 0.04,-0.01 0.04,0 0.04,0.03 0.04,-0.01 0.04,0.01 0.05,0 0.04,0.02 0.04,0.01 0.04,0.02 0.04,-0.01 0.04,-0.02 0.04,0.02 0.04,0 0.05,-0.01 0.04,-0.03 0.04,0.01 0.04,-0.03 0.04,0 0.04,0.02 0.04,-0.02 0.04,0 0.05,0 0.04,0.01 0.04,0 0.04,-0.01 0.04,-0.02 0.04,0 0.04,-0.01 0.04,-0.03 0.05,-0.03 0.04,-0.01 0.04,-0.03 0.04,0.01 0.04,-0.01 0.04,0.01 0.04,-0.01 0.04,-0.02 0.05,-0.02 0.04,0.01 0.04,-0.01 0.04,0 0.04,0 0.04,-0.01 0.04,0.02 0.05,-0.02 0.04,0.02 0.04,0.01 0.04,0.01 0.04,0.01 0.04,0 0.04,0 0.04,-0.03 0.05,0.02 0.04,-0.03 0.04,0 0.04,0 0.04,0.01 0.04,0 0.04,0 0.04,-0.01 0.05,-0.01 0.04,-0.01 0.04,0.01 0.04,-0.01 0.04,0 0.04,-0.01 0.04,0 0.04,-0.01 0.05,0.01 0.04,0.02 0.04,0 0.04,0 0.04,0 0.04,0 0.04,-0.01 0.04,0 0.05,-0.01 0.04,-0.01 0.04,0.02 0.04,-0.01 0.04,-0.01 0.04,0 0.04,-0.01 0.04,0 0.05,0.01 0.04,-0.01 0.04,0.01 0.04,-0.01 0.04,-0.01 0.04,-0.02 0.04,0 0.04,0.02 0.05,0 0.04,0.01 0.04,0.01 0.04,0.01 0.04,0.02 0.04,-0.01 0.04,0.01 0.04,-0.01 0.05,0 0.04,0.01 0.04,0 0.04,0 0.04,0.01 0.04,0 0.04,0.01 0.04,0 0.05,0 0.04,0.01 0.04,-0.01 0.04,0.01 0.04,0.02 0.04,-0.02 0.04,0.03 0.05,0 0.04,0.01 0.04,0.01 0.04,-0.03 0.04,0.01 0.04,0 0.04,0.01 0.04,-0.02 0.05,0.02 0.04,0 0.04,0 0.04,0 0.04,0.01 0.04,0 0.04,0 0.04,-0.01 0.05,0.01 0.04,-0.01 0.04,0.02 0.04,0.03 0.04,-0.01 0.04,0.02 0.04,0.03 0.04,-0.01 0.05,0 0.04,0.01 0.04,0.04 0.04,0 0.04,0 0.04,-0.02 0.04,0 0.04,0 0.05,0 0.04,0.01 0.04,0 0.04,0 0.04,0.01 0.04,-0.01 0.04,0.01 0.04,-0.01 0.05,-0.02 0.04,0.01 0.04,0 0.04,0.02 0.04,-0.02 0.04,-0.01 0.04,0 0.04,-0.02 0.05,0.01 0.04,0.01 0.04,0.01 0.04,0 0.04,-0.02 0.04,0 0.04,0 0.04,0 0.05,0 0.04,0 0.04,-0.02 0.04,-0.02 0.04,0 0.04,0.02 0.04,-0.03 0.04,-0.01 0.05,0.02 0.04,0.01 0.04,-0.02 0.04,0.02 0.04,-0.04 0.04,0 0.04,-0.01 0.04,-0.03 0.05,-0.01 0.04,0.01 0.04,-0.01 0.04,0 0.04,-0.04 0.04,-0.01 0.04,0.01 0.05,-0.02 0.04,-0.03 0.04,0 0.04,-0.02 0.04,-0.03 0.04,0 0.04,-0.01 0.04,-0.01 0.05,-0.01 0.04,0 0.04,0 0.04,-0.03 0.04,-0.01 0.04,-0.02 0.04,-0.01 0.04,0.01 0.05,0.01 0.04,-0.01 0.04,0 0.04,0.01 0.04,-0.01 0.04,0 0.04,0.02 0.04,-0.02 0.05,0.01 0.04,0.01 0.04,-0.02 0.04,0 0.04,0.03 0.04,0 0.04,0.02 0.04,-0.01 0.05,0.02 0.04,0.01 0.04,-0.01 0.04,0.01 0.04,-0.01 0.04,0.02 0.04,0 0.04,0.03 0.05,0.02 0.04,0 0.04,0 0.04,0.03 0.04,0.02 0.04,0.02 0.04,0.03 0.04,0.01 0.05,0.03 0.04,0.03 0.04,0.01 0.04,0.04 0.04,0.01 0.04,0.03 0.04,0 0.04,0.02 0.05,-0.01 0.04,0.01 0.04,0.02 0.04,0 0.04,0.01 0.04,0.03 0.04,0.02 0.04,0.01 0.05,0 0.04,0 0.04,-0.02 0.04,0 0.04,0.01 0.04,0.04 0.04,0 0.05,0.01 0.04,0.02 0.04,0.01 0.04,0.02 0.04,0 0.04,0 0.04,0.01 0.04,-0.01 0.05,-0.01 0.04,0.01 0.04,-0.01 0.04,-0.02 0.04,-0.01 0.04,0 0.04,-0.01 0.04,-0.03 0.05,0.01 0.04,-0.03 0.04,-0.03 0.04,0 0.04,-0.01 0.04,-0.01 0.04,-0.01 0.04,-0.03 0.05,-0.01 0.04,-0.02 0.04,-0.02 0.04,-0.04 0.04,-0.02 0.04,-0.02 0.04,-0.01 0.04,-0.01 0.05,-0.01 0.04,-0.03 0.04,-0.02 0.04,-0.03 0.04,-0.02 0.04,-0.04 0.04,-0.03 0.04,-0.02 0.05,-0.03 0.04,-0.02 0.04,-0.02 0.04,0 0.04,0 0.04,-0.03 0.04,-0.01 0.04,0.02 0.05,0 0.04,0 0.04,-0.02 0.04,-0.02 0.04,0.02 0.04,-0.02 0.04,-0.02 0.04,0 0.05,-0.01 0.04,0.01 0.04,0.02 0.04,-0.02 0.04,0 0.04,0.02 0.04,0 0.04,0 0.05,0.02 0.04,0.01 0.04,0.01 0.04,0.01 0.04,0.01 0.04,0 0.04,0.02 0.04,0.01 0.05,0.02 0.04,0.02 0.04,0.01 0.04,0.04 0.04,-0.02 0.04,0.03 0.04,0 0.05,0.03 0.04,0.01 0.04,0.03 0.04,0 0.04,0.04 0.04,0 0.04,0.03 0.04,-0.01 0.05,0.02 0.04,0.01 0.04,0.02 0.04,-0.02 0.04,0.01 0.04,0.01 0.04,0.03 0.04,0 0.05,0.02 0.04,0.02 0.04,0.02 0.04,0.02 0.04,0.02 0.04,-0.01 0.04,0.03 0.04,0.04 0.05,0.03 0.04,0.03 0.04,-0.01 0.04,0.01 0.04,0.02 0.04,0.03 0.04,-0.01 0.04,0.04 0.05,-0.01 0.04,0 0.04,0.01 0.04,-0.01 0.04,0 0.04,-0.03 0.04,-0.01 0.04,-0.02 0.05,0 0.04,-0.02 0.04,0.01 0.04,0 0.04,-0.02 0.04,-0.01 0.04,-0.01 0.04,-0.03 0.05,-0.02 0.04,-0.01 0.04,-0.02 0.04,0 0.04,0 0.04,0 0.04,0.01 0.04,-0.01 0.05,-0.01 0.04,-0.01 0.04,-0.03 0.04,-0.04 0.04,0 0.04,-0.03 0.04,0 0.04,-0.02 0.05,-0.02 0.04,-0.02 0.04,-0.02 0.04,-0.01 0.04,-0.01 0.04,-0.03 0.04,-0.03 0.05,-0.01 0.04,0 0.04,-0.04 0.04,-0.03 0.04,0 0.04,0 0.04,-0.02 0.04,0 0.05,-0.02 0.04,-0.01 0.04,-0.04 0.04,0.01 0.04,0 0.04,0 0.04,-0.01 0.04,-0.01 0.05,0.02 0.04,-0.01 0.04,-0.01 0.04,0 0.04,0.03 0.04,-0.03 0.04,0.02 0.04,-0.03 0.05,0 0.04,0.01 0.04,0 0.04,-0.01 0.04,0 0.04,0.01 0.04,0 0.04,0 0.05,0.01 0.04,0.02 0.04,-0.01 0.04,0.01 0.04,0 0.04,-0.01 0.04,0.01 0.04,0.01 0.05,0 0.04,-0.01 0.04,0.01 0.04,0 0.04,0.01 0.04,0.02 0.04,0.02 0.04,0.02 0.05,0.02 0.04,0.02 0.04,0.02 0.04,0.01 0.04,0.02 0.04,0.03 0.04,0.02 0.04,0.03 0.05,0.03 0.04,0 0.04,0.02 0.04,0.01 0.04,0.02 0.04,0.03 0.04,0.03 0.04,0.02 0.05,0.01 0.04,0 0.04,0.01 0.04,0.01 0.04,0.02 0.04,0.02 0.04,-0.02 0.04,0.01 0.05,-0.01 0.04,0.02 0.04,0.01 0.04,-0.02 0.04,0.03 0.04,-0.01 0.04,0.01 0.05,0.01 0.04,0.04 0.04,0 0.04,-0.02 0.04,0.02 0.04,-0.03 0.04,-0.01 0.04,-0.01 0.05,-0.03 0.04,0.01 0.04,-0.02 0.04,-0.01 0.04,-0.02 0.04,0 0.04,0.01 0.04,-0.01 0.05,0.01 0.04,0 0.04,0 0.04,-0.01 0.04,-0.01 0.04,-0.02 0.04,-0.01 0.04,-0.01 0.05,-0.05 0.04,-0.01 0.04,0 0.04,-0.01 0.04,-0.01 0.04,0 0.04,0 0.04,-0.01 0.05,0 0.04,-0.02 0.04,-0.01 0.04,0 0.04,-0.01 0.04,-0.01 0.04,0.02 0.04,-0.02 0.05,0.02 0.04,-0.01 0.04,0.03 0.04,-0.04 0.04,-0.01 0.04,0.01 0.04,-0.02 0.04,-0.01 0.05,0 0.04,-0.02 0.04,-0.01 0.04,0 0.04,-0.02 0.04,-0.03 0.04,-0.01 0.04,0 0.05,0.01 0.04,-0.03 0.04,0.01 0.04,-0.01 0.04,-0.02 0.04,-0.03 0.04,-0.01 0.04,0.01 0.05,-0.01 0.04,0.02 0.04,0 0.04,0 0.04,0.01 0.04,0.02 0.04,-0.02 0.05,-0.01 0.04,-0.01 0.04,0 0.04,0.01 0.04,-0.01 0.04,0 0.04,0.01 0.04,0.01 0.05,0 0.04,-0.01 0.04,0.03 0.04,0.01 0.04,0 0.04,0.01 0.04,0.01 0.04,0.01 0.05,0.03 0.04,0.01 0.04,0.01 0.04,0.02 0.04,0 0.04,0.03 0.04,-0.01 0.04,0.01 0.05,0.01 0.04,0 0.04,0.03 0.04,0 0.04,0.02 0.04,0 0.04,0.01 0.04,0 0.05,0 0.04,0 0.04,0 0.04,0.01 0.04,-0.03 0.04,-0.01 0.04,0 0.04,0.03 0.05,0.01 0.04,0 0.04,-0.01 0.04,0 0.04,0.02 0.04,-0.02 0.04,-0.02 0.04,0.03 0.05,0.01 0.04,0.01 0.04,0.01 0.04,0.02 0.04,0.01 0.04,0.02 0.04,0.03 0.04,0.01 0.05,0.01 0.04,0.01 0.04,0.02 0.04,0.01 0.04,0 0.04,-0.01 0.04,0.01 0.04,0 0.05,-0.02 0.04,-0.02 0.04,-0.02 0.04,0 0.04,-0.01 0.04,0 0.04,-0.02 0.04,0 0.05,-0.03 0.04,-0.01 0.04,-0.03 0.04,0 0.04,-0.01 0.04,0.01 0.04,-0.03 0.05,-0.01 0.04,-0.01 0.04,0 0.04,-0.02 0.04,-0.03 0.04,-0.01 0.04,-0.01 0.04,-0.01 0.05,-0.03 0.04,-0.01 0.04,-0.02 0.04,-0.03 0.04,0 0.04,-0.01 0.04,0 0.04,-0.02 0.05,0.02 0.04,-0.02 0.04,-0.01 0.04,0.01 0.04,-0.01 0.04,-0.01 0.04,-0.03 0.04,0 0.05,0.02 0.04,0 0.04,0 0.04,0.01 0.04,-0.01 0.04,0 0.04,0 0.04,0.02 0.05,-0.01 0.04,0.01 0.04,0.01 0.04,0.01 0.04,0 0.04,0.01 0.04,0.01 0.04,0.02 0.05,0.01 0.04,0 0.04,0.03 0.04,-0.02 0.04,-0.01 0.04,0.02 0.04,0.02 0.04,0.01 0.05,0 0.04,0.03 0.04,0.02 0.04,0.01 0.04,-0.01 0.04,0.03 0.04,0.01 0.04,0.01 0.05,0.02 0.04,0.04 0.04,0 0.04,0.03 0.04,0 0.04,0 0.04,0.01 0.04,-0.01 0.05,0.01 0.04,0 0.04,0 0.04,0 0.04,-0.02 0.04,0.01 0.04,-0.03 0.05,-0.02 0.04,0.02 0.04,0.02 0.04,0.02 0.04,0 0.04,0 0.04,0.01 0.04,0.03 0.05,0.01 0.04,-0.01 0.04,0.01 0.04,-0.02 0.04,0 0.04,-0.01 0.04,0.01 0.04,-0.03 0.05,0 0.04,-0.02 0.04,0 0.04,-0.01 0.04,0 0.04,-0.01 0.04,-0.01 0.04,0.01 0.05,0 0.04,0 0.04,0 0.04,-0.02 0.04,0 0.04,0 0.04,-0.03 0.04,-0.02 0.05,-0.01 0.04,-0.01 0.04,0.01 0.04,-0.01 0.04,0.01 0.04,0 0.04,-0.02 0.04,-0.01 0.05,-0.01 0.04,0.01 0.04,-0.01 0.04,0 0.04,0 0.04,0.01 0.04,0.01 0.04,0.01 0.05,-0.03 0.04,0.01 0.04,-0.02 0.04,-0.03 0.04,0 0.04,-0.01 0.04,0.01 0.04,0.01 0.05,0 0.04,0 0.04,0 0.04,0.01 0.04,0.01 0.04,0.01 0.04,0 0.04,0.02 0.05,0 0.04,-0.01 0.04,0.01 0.04,0.02 0.04,0 0.04,0 0.04,-0.02 0.04,0 0.05,0 0.04,0.03 0.04,0.02 0.04,0.03 0.04,0.01 0.04,-0.01 0.04,0.02 0.05,-0.01 0.04,0 0.04,0 0.04,-0.01 0.04,0 0.04,0.03 0.04,-0.01 0.04,0 0.05,-0.01 0.04,0 0.04,-0.01 0.04,0.01 0.04,0.01 0.04,-0.01 0.04,0 0.04,-0.01 0.05,-0.01 0.04,0 0.04,-0.03 0.04,0.01 0.04,-0.01 0.04,-0.02 0.04,0 0.04,-0.02 0.05,-0.02 0.04,0 0.04,0 0.04,0.01 0.04,-0.01 0.04,-0.01 0.04,0.01 0.04,0.01 0.05,0 0.04,0.01 0.04,-0.01 0.04,-0.04 0.04,0 0.04,-0.02 0.04,0 0.04,-0.01 0.05,0 0.04,-0.01 0.04,0.01 0.04,-0.02 0.04,-0.01 0.04,0 0.04,-0.01 0.04,0 0.05,0 0.04,0.01 0.04,0.02 0.04,-0.01 0.04,0.01 0.04,0.01 0.04,0 0.04,0.02 0.05,-0.01 0.04,0 0.04,-0.01 0.04,0.01 0.04,0.02 0.04,0.01 0.04,-0.01 0.04,0 0.05,0.01 0.04,0 0.04,-0.01 0.04,0 0.04,0.03 0.04,0.01 0.04,-0.02 0.05,-0.02 0.04,0 0.04,-0.01 0.04,0.02 0.04,-0.02 0.04,0 0.04,0.01 0.04,0.02 0.05,0.01 0.04,0.02 0.04,0 0.04,0.01 0.04,0.01 0.04,0.02 0.04,-0.01 0.04,0.01 0.05,0.01 0.04,0 0.04,0.02 0.04,-0.01 0.04,0.01 0.04,0 0.04,-0.01 0.04,0 0.05,-0.01 0.04,-0.02 0.04,0 0.04,0 0.04,0 0.04,-0.02 0.04,0 0.04,0 0.05,0 0.04,-0.02 0.04,0.01 0.04,0 0.04,0.01 0.04,-0.02 0.04,-0.01 0.04,0 0.05,-0.01 0.04,-0.01 0.04,0.01 0.04,-0.01 0.04,0 0.04,0.02 0.04,-0.02 0.04,0.03 0.05,0 0.04,0.02 0.04,0.02 0.04,0 0.04,0 0.04,0.03 0.04,0.01 0.04,0.04 0.05,0.01 0.04,0.01 0.04,-0.01 0.04,0.01 0.04,0 0.04,0.01 0.04,0.01 0.04,0.01 0.05,0.01 0.04,-0.01 0.04,-0.01 0.04,0.03 0.04,0 0.04,-0.01 0.04,0.01 0.04,-0.02 0.05,-0.01 0.04,0.01 0.04,-0.01 0.04,0.01 0.04,-0.02 0.04,-0.01 0.04,0 0.05,0 0.04,0 0.04,0 0.04,-0.04 0.04,0.02 0.04,0 0.04,-0.02 0.04,0.01 0.05,-0.01 0.04,-0.01 0.04,-0.01 0.04,-0.01 0.04,-0.02 0.04,0.01 0.04,-0.01 0.04,-0.01 0.05,-0.01 0.04,-0.01 0.04,-0.01 0.04,0 0.04,-0.01 0.04,0 0.04,-0.02 0.04,0.02 0.05,0 0.04,0.02 0.04,-0.02 0.04,0.02 0.04,-0.03 0.04,-0.01 0.04,-0.03 0.04,0.01 0.05,0 0.04,0.01 0.04,-0.02 0.04,0 0.04,-0.01 0.04,0.02 0.04,0.01 0.04,-0.01 0.05,0.01 0.04,0 0.04,-0.01 0.04,-0.02 0.04,0 0.04,0.01 0.04,0.02 0.04,0.02 0.05,-0.02 0.04,0 0.04,0.01 0.04,0 0.04,0 0.04,0.02 0.04,-0.01 0.04,0.01 0.05,-0.01 0.04,-0.02 0.04,0 0.04,-0.01 0.04,-0.01 0.04,0.01 0.04,0 0.04,0 0.05,-0.01 0.04,0 0.04,0 0.04,0 0.04,0.01 0.04,0 0.04,0.02 0.05,0.01 0.04,-0.01 0.04,0.01 0.04,0.01 0.04,0.02 0.04,0 0.04,-0.01 0.04,0 0.05,0 0.04,0 0.04,0.01 0.04,0 0.04,0.02 0.04,-0.01 0.04,-0.02 0.04,-0.02 0.05,0.01 0.04,-0.01 0.04,0.01 0.04,0.03 0.04,-0.01 0.04,0 0.04,-0.01 0.04,-0.01 0.05,0.01 0.04,0.01 0.04,-0.01 0.04,-0.01 0.04,0 0.04,-0.01 0.04,-0.01 0.04,0 0.05,0.02 0.04,0 0.04,0.02 0.04,0 0.04,0.01 0.04,0 0.04,0.01 0.04,0" /></g></g><g
       id="g58" /><g
       id="g60" /><g
       id="g62"><path
         id="path64"
         style="fill:none;stroke:#000000;stroke-width:1.07000005;stroke-linecap:butt;stroke-linejoin:round;stroke-miterlimit:10;stroke-dasharray:none;stroke-opacity:1"
         d="m 46.61,34.33 0,103.69" /></g><g
       id="g66" /><g
       id="g68" /><g
       id="g70"><text
         id="text72"
         style="font-variant:normal;font-weight:normal;font-size:10px;font-family:Helvetica;-inkscape-font-specification:Helvetica;writing-mode:lr-tb;fill:#000000;fill-opacity:1;fill-rule:nonzero;stroke:none"
         transform="matrix(1,0,0,-1,21.77,35.45)"><tspan
           id="tspan74"
           y="0"
           x="0 5.5599999 8.3400002 13.9">0.00</tspan></text>
<text
         id="text76"
         style="font-variant:normal;font-weight:normal;font-size:10px;font-family:Helvetica;-inkscape-font-specification:Helvetica;writing-mode:lr-tb;fill:#000000;fill-opacity:1;fill-rule:nonzero;stroke:none"
         transform="matrix(1,0,0,-1,21.77,53.86)"><tspan
           id="tspan78"
           y="0"
           x="0 5.5599999 8.3400002 13.9">0.01</tspan></text>
<text
         id="text80"
         style="font-variant:normal;font-weight:normal;font-size:10px;font-family:Helvetica;-inkscape-font-specification:Helvetica;writing-mode:lr-tb;fill:#000000;fill-opacity:1;fill-rule:nonzero;stroke:none"
         transform="matrix(1,0,0,-1,21.77,72.27)"><tspan
           id="tspan82"
           y="0"
           x="0 5.5599999 8.3400002 13.9">0.02</tspan></text>
<text
         id="text84"
         style="font-variant:normal;font-weight:normal;font-size:10px;font-family:Helvetica;-inkscape-font-specification:Helvetica;writing-mode:lr-tb;fill:#000000;fill-opacity:1;fill-rule:nonzero;stroke:none"
         transform="matrix(1,0,0,-1,21.77,90.68)"><tspan
           id="tspan86"
           y="0"
           x="0 5.5599999 8.3400002 13.9">0.03</tspan></text>
<text
         id="text88"
         style="font-variant:normal;font-weight:normal;font-size:10px;font-family:Helvetica;-inkscape-font-specification:Helvetica;writing-mode:lr-tb;fill:#000000;fill-opacity:1;fill-rule:nonzero;stroke:none"
         transform="matrix(1,0,0,-1,21.77,109.09)"><tspan
           id="tspan90"
           y="0"
           x="0 5.5599999 8.3400002 13.9">0.04</tspan></text>
<text
         id="text92"
         style="font-variant:normal;font-weight:normal;font-size:10px;font-family:Helvetica;-inkscape-font-specification:Helvetica;writing-mode:lr-tb;fill:#000000;fill-opacity:1;fill-rule:nonzero;stroke:none"
         transform="matrix(1,0,0,-1,21.77,127.49)"><tspan
           id="tspan94"
           y="0"
           x="0 5.5599999 8.3400002 13.9">0.05</tspan></text>
</g><g
       id="g96" /><g
       id="g98" /><g
       id="g100"><path
         id="path102"
         style="fill:none;stroke:#000000;stroke-width:1.07000005;stroke-linecap:butt;stroke-linejoin:round;stroke-miterlimit:10;stroke-dasharray:none;stroke-opacity:1"
         d="m 43.62,39.04 2.99,0" /><path
         id="path104"
         style="fill:none;stroke:#000000;stroke-width:1.07000005;stroke-linecap:butt;stroke-linejoin:round;stroke-miterlimit:10;stroke-dasharray:none;stroke-opacity:1"
         d="m 43.62,57.45 2.99,0" /><path
         id="path106"
         style="fill:none;stroke:#000000;stroke-width:1.07000005;stroke-linecap:butt;stroke-linejoin:round;stroke-miterlimit:10;stroke-dasharray:none;stroke-opacity:1"
         d="m 43.62,75.86 2.99,0" /><path
         id="path108"
         style="fill:none;stroke:#000000;stroke-width:1.07000005;stroke-linecap:butt;stroke-linejoin:round;stroke-miterlimit:10;stroke-dasharray:none;stroke-opacity:1"
         d="m 43.62,94.27 2.99,0" /><path
         id="path110"
         style="fill:none;stroke:#000000;stroke-width:1.07000005;stroke-linecap:butt;stroke-linejoin:round;stroke-miterlimit:10;stroke-dasharray:none;stroke-opacity:1"
         d="m 43.62,112.68 2.99,0" /><path
         id="path112"
         style="fill:none;stroke:#000000;stroke-width:1.07000005;stroke-linecap:butt;stroke-linejoin:round;stroke-miterlimit:10;stroke-dasharray:none;stroke-opacity:1"
         d="m 43.62,131.08 2.99,0" /></g><g
       id="g114" /><g
       id="g116" /><g
       id="g118" /><g
       id="g120" /><g
       id="g122" /><g
       id="g124"><path
         id="path126"
         style="fill:none;stroke:#000000;stroke-width:1.07000005;stroke-linecap:butt;stroke-linejoin:round;stroke-miterlimit:10;stroke-dasharray:none;stroke-opacity:1"
         d="m 46.61,34.33 163.41,0" /></g><g
       id="g128" /><g
       id="g130" /><g
       id="g132"><path
         id="path134"
         style="fill:none;stroke:#000000;stroke-width:1.07000005;stroke-linecap:butt;stroke-linejoin:round;stroke-miterlimit:10;stroke-dasharray:none;stroke-opacity:1"
         d="m 54.03,31.34 0,2.99" /><path
         id="path136"
         style="fill:none;stroke:#000000;stroke-width:1.07000005;stroke-linecap:butt;stroke-linejoin:round;stroke-miterlimit:10;stroke-dasharray:none;stroke-opacity:1"
         d="m 91.17,31.34 0,2.99" /><path
         id="path138"
         style="fill:none;stroke:#000000;stroke-width:1.07000005;stroke-linecap:butt;stroke-linejoin:round;stroke-miterlimit:10;stroke-dasharray:none;stroke-opacity:1"
         d="m 128.31,31.34 0,2.99" /><path
         id="path140"
         style="fill:none;stroke:#000000;stroke-width:1.07000005;stroke-linecap:butt;stroke-linejoin:round;stroke-miterlimit:10;stroke-dasharray:none;stroke-opacity:1"
         d="m 165.45,31.34 0,2.99" /><path
         id="path142"
         style="fill:none;stroke:#000000;stroke-width:1.07000005;stroke-linecap:butt;stroke-linejoin:round;stroke-miterlimit:10;stroke-dasharray:none;stroke-opacity:1"
         d="m 202.59,31.34 0,2.99" /></g><g
       id="g144" /><g
       id="g146"><text
         id="text148"
         style="font-variant:normal;font-weight:normal;font-size:10px;font-family:Helvetica;-inkscape-font-specification:Helvetica;writing-mode:lr-tb;fill:#000000;fill-opacity:1;fill-rule:nonzero;stroke:none"
         transform="matrix(1,0,0,-1,51.25,21.77)"><tspan
           id="tspan150"
           y="0"
           x="0">0</tspan></text>
<text
         id="text152"
         style="font-variant:normal;font-weight:normal;font-size:10px;font-family:Helvetica;-inkscape-font-specification:Helvetica;writing-mode:lr-tb;fill:#000000;fill-opacity:1;fill-rule:nonzero;stroke:none"
         transform="matrix(1,0,0,-1,85.61,21.77)"><tspan
           id="tspan154"
           y="0"
           x="0 5.5599999">25</tspan></text>
<text
         id="text156"
         style="font-variant:normal;font-weight:normal;font-size:10px;font-family:Helvetica;-inkscape-font-specification:Helvetica;writing-mode:lr-tb;fill:#000000;fill-opacity:1;fill-rule:nonzero;stroke:none"
         transform="matrix(1,0,0,-1,122.75,21.77)"><tspan
           id="tspan158"
           y="0"
           x="0 5.5599999">50</tspan></text>
<text
         id="text160"
         style="font-variant:normal;font-weight:normal;font-size:10px;font-family:Helvetica;-inkscape-font-specification:Helvetica;writing-mode:lr-tb;fill:#000000;fill-opacity:1;fill-rule:nonzero;stroke:none"
         transform="matrix(1,0,0,-1,159.89,21.77)"><tspan
           id="tspan162"
           y="0"
           x="0 5.5599999">75</tspan></text>
<text
         id="text164"
         style="font-variant:normal;font-weight:normal;font-size:10px;font-family:Helvetica;-inkscape-font-specification:Helvetica;writing-mode:lr-tb;fill:#000000;fill-opacity:1;fill-rule:nonzero;stroke:none"
         transform="matrix(1,0,0,-1,194.25,21.77)"><tspan
           id="tspan166"
           y="0"
           x="0 5.5599999 11.12">100</tspan></text>
</g><g
       id="g168" /><g
       id="g170" /><g
       id="g172" /><g
       id="g174" /><g
       id="g176" /><g
       id="g178"><text
         id="text180"
         style="font-variant:normal;font-weight:normal;font-size:12px;font-family:Helvetica;-inkscape-font-specification:Helvetica;writing-mode:lr-tb;fill:#000000;fill-opacity:1;fill-rule:nonzero;stroke:none"
         transform="matrix(1,0,0,-1,96.77,8.37)"><tspan
           id="tspan182"
           y="0"
           x="0 3.336 6 15.996 22.667999 26.004 30 35.759998 42.431999 49.104 53.099998 59.099998">time (years)</tspan></text>
</g><g
       id="g184" /><g
       id="g186" /><g
       id="g188"><text
         id="text190"
         style="font-variant:normal;font-weight:normal;font-size:12px;font-family:Helvetica;-inkscape-font-specification:Helvetica;writing-mode:lr-tb;fill:#000000;fill-opacity:1;fill-rule:nonzero;stroke:none"
         transform="matrix(0,1,1,0,16.98,38.16)"><tspan
           id="tspan192"
           y="0"
           x="0 9.9960003 16.667999 23.34 26.676001 33.348 36.012001 42.012001 45.348 48.012001 54.683998 60.683998 63.348 70.019997 76.692001 83.363998 89.363998">monthly incidence</tspan></text>
</g><g
       id="g194" /><g
       id="g196" /><g
       id="g198" /><g
       id="g200" /><g
       id="g202" /><g
       id="g204" /><g
       id="g206" /><g
       id="g208" /><g
       id="g210" /><g
       id="g212" /><g
       id="g214" /><g
       id="g216" /><g
       id="g218"><path
         id="path220"
         style="fill:none;stroke:#f8766d;stroke-width:1.07000005;stroke-linecap:butt;stroke-linejoin:round;stroke-miterlimit:10;stroke-dasharray:none;stroke-opacity:1"
         d="m 179.58,92.65 13.82,0" /></g><g
       id="g222" /><g
       id="g224" /><g
       id="g226" /><g
       id="g228"><path
         id="path230"
         style="fill:none;stroke:#00bfc4;stroke-width:1.07000005;stroke-linecap:butt;stroke-linejoin:round;stroke-miterlimit:10;stroke-dasharray:2.13, 2.13;stroke-dashoffset:0;stroke-opacity:1"
         d="m 179.58,75.37 13.82,0" /></g><g
       id="g232" /><g
       id="g234"><text
         id="text236"
         style="font-style:oblique;font-variant:normal;font-size:10px;font-family:Helvetica;-inkscape-font-specification:Helvetica-Oblique;writing-mode:lr-tb;fill:#000000;fill-opacity:1;fill-rule:nonzero;stroke:none"
         transform="matrix(1,0,0,-1,197.29,89.88)"><tspan
           id="tspan238"
           y="0"
           x="0">C</tspan></text>
<text
         id="text240"
         style="font-variant:normal;font-weight:normal;font-size:7px;font-family:Helvetica;-inkscape-font-specification:Helvetica;writing-mode:lr-tb;fill:#000000;fill-opacity:1;fill-rule:nonzero;stroke:none"
         transform="matrix(1,0,0,-1,205.62,88.05)"><tspan
           id="tspan242"
           y="0"
           x="0">1</tspan></text>
</g><g
       id="g244" /><g
       id="g246"><text
         id="text248"
         style="font-style:oblique;font-variant:normal;font-size:10px;font-family:Helvetica;-inkscape-font-specification:Helvetica-Oblique;writing-mode:lr-tb;fill:#000000;fill-opacity:1;fill-rule:nonzero;stroke:none"
         transform="matrix(1,0,0,-1,197.29,72.6)"><tspan
           id="tspan250"
           y="0"
           x="0">C</tspan></text>
<text
         id="text252"
         style="font-variant:normal;font-weight:normal;font-size:7px;font-family:Helvetica;-inkscape-font-specification:Helvetica;writing-mode:lr-tb;fill:#000000;fill-opacity:1;fill-rule:nonzero;stroke:none"
         transform="matrix(1,0,0,-1,205.62,70.77)"><tspan
           id="tspan254"
           y="0"
           x="0">2</tspan></text>
</g><g
       id="g256" /><g
       id="g258" /><g
       id="g260" /><g
       id="g262" /><g
       id="g264" /><g
       id="g266" /><g
       id="g268" /><g
       id="g270" /><g
       id="g272" /><g
       id="g274" /><g
       id="g276" /><g
       id="g278" /></g></svg>