<?xml version="1.0" encoding="UTF-8" standalone="no"?>
<svg
   xmlns:dc="http://purl.org/dc/elements/1.1/"
   xmlns:cc="http://creativecommons.org/ns#"
   xmlns:rdf="http://www.w3.org/1999/02/22-rdf-syntax-ns#"
   xmlns:svg="http://www.w3.org/2000/svg"
   xmlns="http://www.w3.org/2000/svg"
   viewBox="0 0 540 360"
   height="360"
   width="540"
   xml:space="preserve"
   version="1.1"
   id="svg2"><metadata
     id="metadata8"><rdf:RDF><cc:Work
         rdf:about=""><dc:format>image/svg+xml</dc:format><dc:type
           rdf:resource="http://purl.org/dc/dcmitype/StillImage" /></cc:Work></rdf:RDF></metadata><defs
     id="defs6"><clipPath
       id="clipPath22"
       clipPathUnits="userSpaceOnUse"><path
         id="path24"
         d="M 0,0 432,0 432,288 0,288 0,0 Z" /></clipPath><clipPath
       id="clipPath36"
       clipPathUnits="userSpaceOnUse"><path
         id="path38"
         d="m 49.56,37.28 368.04,0 0,236.32 -368.04,0 0,-236.32 z" /></clipPath></defs><g
     transform="matrix(1.25,0,0,-1.25,0,360)"
     id="g10"><g
       id="g12" /><g
       id="g14" /><g
       id="g16" /><g
       id="g18"><g
         clip-path="url(#clipPath22)"
         id="g20" /></g><g
       id="g26" /><g
       id="g28" /><g
       id="g30" /><g
       id="g32"><g
         clip-path="url(#clipPath36)"
         id="g34"><path
           id="path40"
           style="fill:#ffffff;fill-opacity:1;fill-rule:nonzero;stroke:none"
           d="m 49.56,37.28 368.04,0 0,236.32 -368.04,0 0,-236.32 z" /><path
           id="path42"
           style="fill:none;stroke:#f8766d;stroke-width:1.05999994;stroke-linecap:butt;stroke-linejoin:round;stroke-miterlimit:1;stroke-dasharray:none;stroke-opacity:1"
           d="m 66.29,48.02 0.09,135.59 0.1,55.14 0.09,24.11 0.09,-18.37 0.1,-43.6 0.09,-45.95 0.09,-37.97 0.1,-26.34 0.09,-16.66 0.09,-10.28 0.09,-6.26 0.1,-3.79 0.09,-2.22 0.09,-1.36 0.1,-0.79 0.09,-0.49 0.09,-0.29 0.09,-0.18 0.1,-0.1 0.09,-0.07 0.09,-0.04 0.1,-0.03 0.09,-0.02 0.09,-0.01 0.1,0 0.09,-0.01 0.09,0 0.09,0 0.1,0 0.09,0 0.09,0 0.1,0 0.09,-0.01 0.09,0 0.09,0 0.1,0 0.09,0 0.09,0 0.1,0 0.09,0 0.09,0 0.1,0 0.09,0 0.09,0 0.09,0 0.1,0 0.09,0 0.09,0 0.1,0 0.09,0 0.09,0 0.09,0 0.1,0 0.09,0 0.09,0 0.1,0 0.09,0 0.09,0 0.09,0 0.1,0 0.09,0 0.09,0 0.1,0 0.09,0 0.09,0 0.1,0 0.09,0 0.09,0 0.09,0 0.1,0 0.09,0 0.09,0 0.1,0 0.09,0 0.09,0 0.09,0 0.1,0 0.09,0 0.09,0 0.1,0 0.09,0 0.09,0 0.1,0 0.09,0 0.09,0 0.09,0 0.1,0 0.09,0 0.09,0 0.1,0 0.09,0 0.09,0 0.09,0 0.1,0 0.09,0 0.09,0 0.1,0 0.09,0 0.09,0 0.1,0 0.09,0 0.09,0 0.09,0 0.1,0 0.09,0 0.09,0 0.1,0 0.09,0 0.09,0 0.09,0 0.1,0 0.09,0 0.09,0 0.1,0 0.09,0 0.09,0 0.1,0 0.09,0 0.09,0 0.09,0 0.1,0 0.09,0 0.09,0 0.1,0 0.09,0 0.09,0 0.09,0 0.1,0 0.09,0 0.09,0 0.1,0 0.09,0 0.09,0 0.1,0 0.09,0 0.09,0 0.09,0 0.1,0 0.09,0 0.09,0 0.1,0 0.09,0 0.09,0 0.09,0 0.1,0 0.09,0 0.09,0 0.1,0 0.09,0 0.09,0.01 0.1,0 0.09,0 0.09,0 0.09,0 0.1,0 0.09,0 0.09,0 0.1,0 0.09,0.01 0.09,0 0.09,0.01 0.1,0.01 0.09,0.02 0.09,0.02 0.1,0.03 0.09,0.05 0.09,0.06 0.1,0.09 0.09,0.14 0.09,0.18 0.09,0.28 0.1,0.4 0.09,0.6 0.09,0.85 0.1,1.22 0.09,1.69 0.09,2.55 0.09,3.61 0.1,5.29 0.09,7.02 0.09,9.38 0.1,12.2 0.09,14.62 0.09,16.89 0.1,15.29 0.09,11.04 0.09,3.36 0.09,-3.23 0.1,-9.5 0.09,-13.03 0.09,-15.1 0.1,-14.07 0.09,-11.97 0.09,-9.6 0.09,-7.61 0.1,-5.99 0.09,-4.32 0.09,-3.25 0.1,-2.43 0.09,-1.75 0.09,-1.24 0.1,-1 0.09,-0.72 0.09,-0.5 0.09,-0.38 0.1,-0.28 0.09,-0.21 0.09,-0.16 0.1,-0.13 0.09,-0.1 0.09,-0.07 0.09,-0.06 0.1,-0.04 0.09,-0.03 0.09,-0.03 0.1,-0.02 0.09,-0.02 0.09,-0.01 0.1,-0.01 0.09,-0.01 0.09,-0.01 0.09,0 0.1,-0.01 0.09,0 0.09,-0.01 0.1,0 0.09,0 0.09,0 0.09,0 0.1,0 0.09,-0.01 0.09,0 0.1,0 0.09,0 0.09,0 0.1,0 0.09,0 0.09,0 0.09,0 0.1,0 0.09,0 0.09,0 0.1,0 0.09,0 0.09,0 0.09,0 0.1,0 0.09,0 0.09,0 0.1,0 0.09,0 0.09,0 0.1,0 0.09,0 0.09,0 0.09,0 0.1,0 0.09,0 0.09,0 0.1,0 0.09,0 0.09,0 0.09,0 0.1,0 0.09,0 0.09,0 0.1,0 0.09,0 0.09,0 0.1,0 0.09,0 0.09,0 0.09,0 0.1,0 0.09,0 0.09,0 0.1,0 0.09,0 0.09,0 0.09,0 0.1,0 0.09,0 0.09,0 0.1,0 0.09,0 0.09,0 0.1,0 0.09,0 0.09,0 0.09,0 0.1,0 0.09,0 0.09,0 0.1,0 0.09,0 0.09,0 0.09,0 0.1,0 0.09,0 0.09,0 0.1,0 0.09,0 0.09,0 0.09,0 0.1,0 0.09,0 0.09,0 0.1,0 0.09,0 0.09,0 0.1,0 0.09,0 0.09,0 0.09,0 0.1,0 0.09,0 0.09,0 0.1,0 0.09,0 0.09,0 0.09,0 0.1,0 0.09,0 0.09,0 0.1,0.01 0.09,0 0.09,0 0.1,0 0.09,0 0.09,0.01 0.09,0 0.1,0.01 0.09,0 0.09,0.01 0.1,0.01 0.09,0.01 0.09,0.02 0.09,0.01 0.1,0.03 0.09,0.02 0.09,0.04 0.1,0.05 0.09,0.05 0.09,0.07 0.1,0.09 0.09,0.12 0.09,0.16 0.09,0.2 0.1,0.23 0.09,0.31 0.09,0.41 0.1,0.51 0.09,0.68 0.09,0.87 0.09,1.12 0.1,1.46 0.09,1.76 0.09,2.23 0.1,2.93 0.09,3.57 0.09,4.34 0.1,4.98 0.09,5.52 0.09,6.42 0.09,6.86 0.1,6.42 0.09,5.03 0.09,2.74 0.1,1.5 0.09,-1.34 0.09,-3.28 0.09,-4.99 0.1,-5.59 0.09,-5.95 0.09,-6.15 0.1,-5.73 0.09,-4.68 0.09,-4.11 0.1,-3.53 0.09,-2.77 0.09,-2.37 0.09,-1.88 0.1,-1.63 0.09,-1.21 0.09,-1.01 0.1,-0.83 0.09,-0.72 0.09,-0.52 0.09,-0.43 0.1,-0.34 0.09,-0.28 0.09,-0.22 0.1,-0.18 0.09,-0.16 0.09,-0.14 0.1,-0.1 0.09,-0.08 0.09,-0.07 0.09,-0.07 0.1,-0.05 0.09,-0.05 0.09,-0.03 0.1,-0.04 0.09,-0.02 0.09,-0.03 0.09,-0.02 0.1,-0.01 0.09,-0.02 0.09,-0.01 0.1,-0.01 0.09,-0.01 0.09,-0.01 0.1,-0.01 0.09,0 0.09,-0.01 0.09,0 0.1,0 0.09,-0.01 0.09,0 0.1,0 0.09,0 0.09,0 0.09,0 0.1,0 0.09,0 0.09,0 0.1,0 0.09,0.01 0.09,0 0.1,0 0.09,0.01 0.09,0.01 0.09,0 0.1,0.01 0.09,0 0.09,0.01 0.1,0.01 0.09,0 0.09,0.01 0.09,0 0.1,0.01 0.09,0.01 0.09,0 0.1,0 0.09,0.01 0.09,0 0.1,0 0.09,0.01 0.09,0 0.09,0.01 0.1,0 0.09,0 0.09,0 0.1,0 0.09,0.01 0.09,0 0.09,0 0.1,0 0.09,0 0.09,0.01 0.1,0 0.09,0.01 0.09,0 0.1,0.01 0.09,0.01 0.09,0.02 0.09,0.01 0.1,0.01 0.09,0.02 0.09,0.01 0.1,0.03 0.09,0.02 0.09,0.02 0.09,0.03 0.1,0.03 0.09,0.04 0.09,0.04 0.1,0.05 0.09,0.05 0.09,0.08 0.1,0.07 0.09,0.09 0.09,0.1 0.09,0.13 0.1,0.13 0.09,0.16 0.09,0.18 0.1,0.19 0.09,0.24 0.09,0.27 0.09,0.3 0.1,0.36 0.09,0.48 0.09,0.5 0.1,0.63 0.09,0.7 0.09,0.84 0.1,0.99 0.09,1.05 0.09,1.24 0.09,1.35 0.1,1.57 0.09,1.77 0.09,1.71 0.1,1.85 0.09,2.14 0.09,2.1 0.09,2.12 0.1,1.8 0.09,1.78 0.09,1.14 0.1,1.3 0.09,0.45 0.09,-0.22 0.1,-0.32 0.09,-0.71 0.09,-1.48 0.09,-1.7 0.1,-1.63 0.09,-1.91 0.09,-2.2 0.1,-1.81 0.09,-1.89 0.09,-1.73 0.09,-1.74 0.1,-1.4 0.09,-1.39 0.09,-1.3 0.1,-0.99 0.09,-0.94 0.09,-0.84 0.09,-0.67 0.1,-0.61 0.09,-0.48 0.09,-0.44 0.1,-0.44 0.09,-0.32 0.09,-0.32 0.1,-0.27 0.09,-0.26 0.09,-0.19 0.09,-0.17 0.1,-0.14 0.09,-0.13 0.09,-0.15 0.1,-0.11 0.09,-0.08 0.09,-0.07 0.09,-0.06 0.1,-0.06 0.09,-0.05 0.09,-0.04 0.1,-0.05 0.09,-0.03 0.09,-0.02 0.1,-0.03 0.09,-0.01 0.09,-0.03 0.09,0 0.1,-0.02 0.09,0 0.09,0 0.1,0.02 0.09,-0.01 0.09,0.02 0.09,0.01 0.1,0.03 0.09,0.03 0.09,0.03 0.1,0.04 0.09,0.03 0.09,0.04 0.1,0.04 0.09,0.03 0.09,0.04 0.09,0.05 0.1,0.06 0.09,0.06 0.09,0.06 0.1,0.07 0.09,0.05 0.09,0.07 0.09,0.08 0.1,0.05 0.09,0.05 0.09,0.08 0.1,0.06 0.09,0.06 0.09,0.07 0.1,0.03 0.09,0.08 0.09,0.06 0.09,0.09 0.1,0.06 0.09,0.06 0.09,0.02 0.1,0.09 0.09,0.1 0.09,0.07 0.09,0.09 0.1,0.09 0.09,0.05 0.09,0.11 0.1,0.12 0.09,0.09 0.09,0.13 0.1,0.09 0.09,0.14 0.09,0.13 0.09,0.15 0.1,0.16 0.09,0.17 0.09,0.18 0.1,0.16 0.09,0.18 0.09,0.2 0.09,0.18 0.1,0.19 0.09,0.15 0.09,0.25 0.1,0.27 0.09,0.23 0.09,0.28 0.1,0.32 0.09,0.35 0.09,0.36 0.09,0.42 0.1,0.25 0.09,0.28 0.09,0.36 0.1,0.26 0.09,0.27 0.09,0.29 0.09,0.38 0.1,0.38 0.09,0.26 0.09,0.2 0.1,0.17 0.09,0.24 0.09,0.08 0.1,0.23 0.09,-0.05 0.09,0.06 0.09,-0.03 0.1,-0.02 0.09,-0.11 0.09,0.07 0.1,-0.33 0.09,-0.07 0.09,-0.24 0.09,-0.24 0.1,-0.4 0.09,-0.13 0.09,-0.2 0.1,-0.23 0.09,-0.27 0.09,-0.28 0.1,-0.4 0.09,-0.24 0.09,-0.26 0.09,-0.3 0.1,-0.35 0.09,-0.23 0.09,-0.24 0.1,-0.24 0.09,-0.26 0.09,-0.2 0.09,-0.27 0.1,-0.19 0.09,-0.1 0.09,-0.24 0.1,-0.23 0.09,-0.12 0.09,-0.08 0.1,-0.14 0.09,-0.11 0.09,-0.17 0.09,-0.11 0.1,-0.11 0.09,-0.05 0.09,-0.06 0.1,-0.07 0.09,-0.03 0.09,-0.08 0.09,-0.07 0.1,-0.07 0.09,-0.05 0.09,0 0.1,0.06 0.09,-0.01 0.09,0 0.1,-0.02 0.09,-0.01 0.09,0.02 0.09,-0.01 0.1,0.05 0.09,0.03 0.09,-0.03 0.1,0.02 0.09,-0.03 0.09,0.02 0.09,0.06 0.1,0.04 0.09,0 0.09,0.06 0.1,0.01 0.09,-0.04 0.09,0.01 0.1,0.03 0.09,-0.01 0.09,0.02 0.09,-0.07 0.1,0 0.09,-0.01 0.09,-0.01 0.1,0 0.09,-0.06 0.09,-0.06 0.09,-0.09 0.1,-0.06 0.09,-0.04 0.09,-0.07 0.1,-0.03 0.09,-0.01 0.09,-0.07 0.1,-0.07 0.09,-0.07 0.09,-0.1 0.09,-0.02 0.1,-0.02 0.09,0.02 0.09,-0.05 0.1,0.01 0.09,-0.02 0.09,-0.04 0.09,-0.02 0.1,0 0.09,0 0.09,0.02 0.1,-0.03 0.09,0.03 0.09,0.03 0.1,0.01 0.09,-0.01 0.09,0.05 0.09,0.02 0.1,0.03 0.09,0.07 0.09,0.04 0.1,0.08 0.09,0.12 0.09,0.13 0.09,0.11 0.1,0.1 0.09,0.13 0.09,0.14 0.1,0.17 0.09,0.17 0.09,0.22 0.1,0.17 0.09,0.2 0.09,0.2 0.09,0.18 0.1,0.24 0.09,0.23 0.09,0.26 0.1,0.17 0.09,0.23 0.09,0.24 0.09,0.34 0.1,0.23 0.09,0.26 0.09,0.33 0.1,0.24 0.09,0.29 0.09,0.29 0.09,0.24 0.1,0.25 0.09,0.23 0.09,0.11 0.1,0.19 0.09,0.27 0.09,0.12 0.1,0.06 0.09,0.12 0.09,0.06 0.09,-0.04 0.1,0.06 0.09,-0.16 0.09,-0.17 0.1,-0.22 0.09,-0.19 0.09,-0.03 0.09,-0.29 0.1,-0.1 0.09,-0.2 0.09,-0.15 0.1,-0.31 0.09,-0.11 0.09,-0.22 0.1,-0.37 0.09,-0.22 0.09,-0.22 0.09,-0.34 0.1,-0.23 0.09,-0.18 0.09,-0.28 0.1,-0.23 0.09,-0.32 0.09,-0.19 0.09,-0.24 0.1,-0.16 0.09,-0.14 0.09,-0.14 0.1,-0.14 0.09,-0.19 0.09,-0.13 0.1,-0.15 0.09,-0.16 0.09,-0.11 0.09,-0.12 0.1,-0.14 0.09,-0.13 0.09,-0.11 0.1,-0.12 0.09,-0.13 0.09,-0.13 0.09,-0.14 0.1,-0.05 0.09,-0.12 0.09,-0.13 0.1,-0.09 0.09,-0.09 0.09,-0.03 0.1,-0.06 0.09,-0.03 0.09,-0.05 0.09,-0.02 0.1,-0.03 0.09,-0.03 0.09,-0.05 0.1,-0.02 0.09,-0.05 0.09,-0.07 0.09,-0.03 0.1,-0.02 0.09,-0.03 0.09,-0.04 0.1,-0.01 0.09,-0.02 0.09,-0.01 0.1,0.02 0.09,0 0.09,-0.03 0.09,0.04 0.1,0.02 0.09,0.04 0.09,0.03 0.1,0.04 0.09,0.06 0.09,0.05 0.09,0.03 0.1,0.08 0.09,0.03 0.09,0.08 0.1,0.1 0.09,0.1 0.09,0.08 0.1,0.11 0.09,0.11 0.09,0.13 0.09,0.14 0.1,0.18 0.09,0.18 0.09,0.16 0.1,0.18 0.09,0.2 0.09,0.21 0.09,0.22 0.1,0.19 0.09,0.26 0.09,0.26 0.1,0.31 0.09,0.34 0.09,0.22 0.1,0.35 0.09,0.3 0.09,0.29 0.09,0.34 0.1,0.32 0.09,0.26 0.09,0.31 0.1,0.23 0.09,0.4 0.09,0.15 0.09,0.35 0.1,0.25 0.09,0.22 0.09,0.27 0.1,0.25 0.09,0.1 0.09,0.1 0.1,0.25 0.09,0.14 0.09,-0.01 0.09,-0.04 0.1,-0.05 0.09,-0.18 0.09,-0.17 0.1,-0.17 0.09,-0.39 0.09,-0.22 0.09,-0.27 0.1,-0.26 0.09,-0.27 0.09,-0.23 0.1,-0.37 0.09,-0.21 0.09,-0.33 0.1,-0.28 0.09,-0.41 0.09,-0.28 0.09,-0.27 0.1,-0.3 0.09,-0.29 0.09,-0.26 0.1,-0.27 0.09,-0.19 0.09,-0.27 0.09,-0.18 0.1,-0.24 0.09,-0.19 0.09,-0.26 0.1,-0.13 0.09,-0.18 0.09,-0.1 0.1,-0.14 0.09,-0.12 0.09,-0.12 0.09,-0.15 0.1,-0.1 0.09,-0.11 0.09,-0.12 0.1,-0.09 0.09,-0.09 0.09,-0.07 0.09,-0.03 0.1,0 0.09,-0.09 0.09,-0.03 0.1,-0.06 0.09,0.01 0.09,-0.03 0.1,0 0.09,-0.03 0.09,-0.04 0.09,-0.02 0.1,0 0.09,-0.02 0.09,0.02 0.1,0 0.09,0.01 0.09,0.01 0.09,0.01 0.1,0.03 0.09,0.03 0.09,0.02 0.1,0.04 0.09,0.03 0.09,0.05 0.1,0.05 0.09,0.07 0.09,0.05 0.09,0.1 0.1,0.04 0.09,0.05 0.09,0.06 0.1,0.09 0.09,0.08 0.09,0.14 0.09,0.1 0.1,0.09 0.09,0.12 0.09,0.14 0.1,0.19 0.09,0.12 0.09,0.13 0.1,0.13 0.09,0.12 0.09,0.22 0.09,0.21 0.1,0.17 0.09,0.25 0.09,0.28 0.1,0.18 0.09,0.23 0.09,0.22 0.09,0.17 0.1,0.18 0.09,0.24 0.09,0.14 0.1,0.17 0.09,0.2 0.09,0.18 0.1,0.22 0.09,0.19 0.09,0.13 0.09,0.2 0.1,0.14 0.09,0.07 0.09,0.08 0.1,0.16 0.09,-0.04 0.09,0.06 0.09,-0.03 0.1,0.03 0.09,-0.09 0.09,-0.11 0.1,-0.03 0.09,-0.02 0.09,0 0.09,-0.21 0.1,-0.05 0.09,-0.16 0.09,-0.02 0.1,-0.12 0.09,-0.26 0.09,-0.15 0.1,-0.12 0.09,-0.19 0.09,-0.1 0.09,-0.2 0.1,-0.21 0.09,-0.16 0.09,-0.17 0.1,-0.14 0.09,-0.22 0.09,-0.06 0.09,-0.14 0.1,-0.23 0.09,-0.1 0.09,-0.07 0.1,-0.09 0.09,-0.14 0.09,-0.11 0.1,-0.11 0.09,-0.06 0.09,-0.14 0.09,-0.09 0.1,-0.1 0.09,-0.1 0.09,-0.07 0.1,-0.13 0.09,-0.07 0.09,-0.07 0.09,-0.09 0.1,-0.07 0.09,-0.14 0.09,-0.04 0.1,-0.09 0.09,-0.08 0.09,-0.06 0.1,-0.04 0.09,-0.06 0.09,0.01 0.09,-0.03 0.1,-0.04 0.09,-0.04 0.09,-0.01 0.1,0.05 0.09,-0.08 0.09,0.03 0.09,-0.02 0.1,-0.01 0.09,0.02 0.09,-0.02 0.1,0.02 0.09,-0.02 0.09,0.02 0.1,0.1 0.09,0.09 0.09,0.06 0.09,0.07 0.1,0.03 0.09,0.07 0.09,0.05 0.1,0.08 0.09,0.04 0.09,0.06 0.09,0 0.1,0.06 0.09,0.1 0.09,0.09 0.1,0.07 0.09,0.09 0.09,0.05 0.1,0.1 0.09,0.05 0.09,0.05 0.09,0.05 0.1,0.04 0.09,0.13 0.09,0.06 0.1,0.08 0.09,0.13 0.09,0.04 0.09,0.14 0.1,0.16 0.09,0.04 0.09,0.08 0.1,0.07 0.09,0.11 0.09,0.19 0.1,0.1 0.09,0.06 0.09,0.08 0.09,0.06 0.1,0.03 0.09,0.11 0.09,0.04 0.1,-0.01 0.09,0.04 0.09,0.07 0.09,0.11 0.1,0.03 0.09,0 0.09,-0.03 0.1,0.1 0.09,-0.03 0.09,-0.05 0.1,-0.02 0.09,0.08 0.09,0.04 0.09,0.02 0.1,-0.03 0.09,-0.07 0.09,-0.03 0.1,-0.02 0.09,0.01 0.09,-0.01 0.09,-0.1 0.1,-0.03 0.09,0 0.09,0.03 0.1,-0.03 0.09,0.03 0.09,-0.08 0.1,-0.08 0.09,-0.11 0.09,-0.05 0.09,-0.05 0.1,-0.1 0.09,-0.08 0.09,-0.06 0.1,-0.07 0.09,-0.03 0.09,-0.16 0.09,-0.15 0.1,-0.1 0.09,-0.11 0.09,-0.09 0.1,-0.06 0.09,-0.05 0.09,-0.09 0.1,-0.03 0.09,-0.05 0.09,-0.04 0.09,-0.09 0.1,-0.08 0.09,-0.03 0.09,0 0.1,-0.09 0.09,-0.04 0.09,-0.08 0.09,-0.05 0.1,-0.05 0.09,-0.08 0.09,0.03 0.1,-0.03 0.09,-0.01 0.09,-0.04 0.1,0.02 0.09,-0.05 0.09,-0.02 0.09,-0.02 0.1,-0.02 0.09,-0.05 0.09,0.03 0.1,0.03 0.09,-0.02 0.09,0.07 0.09,-0.01 0.1,0 0.09,-0.03 0.09,-0.02 0.1,0.05 0.09,-0.01 0.09,0 0.1,0.08 0.09,-0.05 0.09,0.04 0.09,0.03 0.1,0 0.09,0.06 0.09,0 0.1,0.06 0.09,0.02 0.09,0.06 0.09,0.03 0.1,0.02 0.09,0.07 0.09,0.08 0.1,0 0.09,0.06 0.09,0.04 0.1,0.11 0.09,0.18 0.09,-0.01 0.09,0.11 0.1,0.09 0.09,0.05 0.09,0.07 0.1,0.07 0.09,0.13 0.09,0.02 0.09,0.06 0.1,0.03 0.09,0.02 0.09,0.05 0.1,0.01 0.09,0.01 0.09,0.04 0.1,0.12 0.09,0.08 0.09,0 0.09,0.03 0.1,0.02 0.09,-0.05 0.09,-0.01 0.1,0.07 0.09,0.07 0.09,0.02 0.09,-0.06 0.1,0 0.09,-0.04 0.09,0.07 0.1,0 0.09,-0.05 0.09,-0.01 0.1,-0.08 0.09,-0.03 0.09,-0.02 0.09,-0.01 0.1,-0.05 0.09,0.01 0.09,-0.07 0.1,-0.06 0.09,-0.01 0.09,0.01 0.09,-0.07 0.1,-0.07 0.09,-0.07 0.09,-0.12 0.1,-0.02 0.09,-0.1 0.09,-0.04 0.09,0 0.1,-0.06 0.09,0.01 0.09,0 0.1,-0.05 0.09,0.03 0.09,0.03 0.1,0.05 0.09,0 0.09,-0.07 0.09,-0.02 0.1,0.03 0.09,-0.03 0.09,0.04 0.1,-0.03 0.09,-0.03 0.09,0.01 0.09,-0.02 0.1,-0.07 0.09,0 0.09,0.02 0.1,0.06 0.09,-0.05 0.09,0.03 0.1,-0.01 0.09,0.07 0.09,-0.05 0.09,-0.05 0.1,0 0.09,-0.02 0.09,-0.06 0.1,0.03 0.09,0.08 0.09,0.06 0.09,-0.04 0.1,-0.1 0.09,0.01 0.09,-0.07 0.1,0.06 0.09,-0.08 0.09,-0.07 0.1,0 0.09,0.02 0.09,0 0.09,-0.02 0.1,-0.02 0.09,0.03 0.09,0.03 0.1,0.04 0.09,-0.05 0.09,-0.01 0.09,0.09 0.1,0.02 0.09,0.02 0.09,0 0.1,0.02 0.09,-0.02 0.09,0.04 0.1,0.05 0.09,0.06 0.09,-0.04 0.09,0.01 0.1,0 0.09,0.05 0.09,-0.02 0.1,0 0.09,0.01 0.09,-0.11 0.09,-0.06 0.1,-0.08 0.09,0.06 0.09,-0.01 0.1,-0.01 0.09,0.04 0.09,0.08 0.1,0.01 0.09,0 0.09,0 0.09,-0.02 0.1,-0.08 0.09,0.03 0.09,-0.06 0.1,0.03 0.09,0.04 0.09,0 0.09,-0.03 0.1,0.04 0.09,-0.05 0.09,-0.05 0.1,0.03 0.09,0 0.09,0.03 0.1,0.02 0.09,0.01 0.09,0.07 0.09,-0.02 0.1,-0.1 0.09,0.02 0.09,0.06 0.1,0.07 0.09,-0.02 0.09,0.04 0.09,0.01 0.1,0.06 0.09,0.05 0.09,0.06 0.1,0.01 0.09,0.05 0.09,0.01 0.1,0.06 0.09,-0.01 0.09,0.05 0.09,-0.01 0.1,0.08 0.09,0 0.09,-0.03 0.1,0 0.09,0 0.09,-0.01 0.09,-0.08 0.1,-0.01 0.09,0.01 0.09,0.05 0.1,-0.05 0.09,0.07 0.09,-0.02 0.1,0.06 0.09,0.05 0.09,-0.04 0.09,0.05 0.1,-0.03 0.09,0.01 0.09,0.01 0.1,0.08 0.09,0.04 0.09,0.04 0.09,-0.04 0.1,-0.03 0.09,0 0.09,-0.05 0.1,-0.07 0.09,-0.03 0.09,-0.04 0.1,-0.1 0.09,-0.02 0.09,-0.04 0.09,0.04 0.1,-0.03 0.09,-0.09 0.09,-0.09 0.1,0.03 0.09,0.02 0.09,-0.02 0.09,0.03 0.1,-0.02 0.09,0 0.09,-0.06 0.1,-0.03 0.09,0.06 0.09,-0.04 0.1,-0.04 0.09,-0.02 0.09,-0.07 0.09,-0.12 0.1,0 0.09,-0.04 0.09,-0.01 0.1,-0.02 0.09,-0.06 0.09,-0.02 0.09,-0.07 0.1,-0.03 0.09,0.04 0.09,0.04 0.1,0.02 0.09,-0.06 0.09,-0.04 0.1,-0.04 0.09,-0.03 0.09,0.01 0.09,-0.03 0.1,0 0.09,0.02 0.09,0.01 0.1,-0.03 0.09,-0.03 0.09,-0.03 0.09,0.07 0.1,0.02 0.09,0.06 0.09,-0.01 0.1,0.05 0.09,0.02 0.09,-0.01 0.1,0.03 0.09,-0.04 0.09,0.02 0.09,0.05 0.1,0.05 0.09,-0.01 0.09,0 0.1,0.01 0.09,0.06 0.09,0.01 0.09,-0.01 0.1,0.04 0.09,0.07 0.09,-0.02 0.1,0.05 0.09,-0.01 0.09,0.05 0.1,0.02 0.09,0.06 0.09,0 0.09,0 0.1,-0.03 0.09,0.04 0.09,0.05 0.1,0.06 0.09,-0.02 0.09,0.05 0.09,0.03 0.1,0.12 0.09,0 0.09,0.03 0.1,-0.01 0.09,0.03 0.09,0.03 0.09,0.11 0.1,0.02 0.09,0.06 0.09,0.01 0.1,0 0.09,-0.04 0.09,0.01 0.1,0.05 0.09,0.06 0.09,0 0.09,-0.06 0.1,0.04 0.09,0.04 0.09,0.02 0.1,0 0.09,-0.04 0.09,0.11 0.09,-0.08 0.1,-0.11 0.09,-0.08 0.09,-0.07 0.1,-0.05 0.09,-0.02 0.09,0.04 0.1,0.03 0.09,0.01 0.09,-0.06 0.09,-0.06 0.1,-0.02 0.09,-0.12 0.09,0.03 0.1,-0.03 0.09,-0.06 0.09,-0.07 0.09,-0.04 0.1,0.03 0.09,-0.01 0.09,0.07 0.1,-0.02 0.09,-0.01 0.09,-0.03 0.1,-0.05 0.09,0.03 0.09,0 0.09,0 0.1,0.03 0.09,0.03 0.09,-0.03 0.1,-0.02 0.09,0.01 0.09,-0.05 0.09,-0.08 0.1,0.01 0.09,0.02 0.09,-0.02 0.1,-0.04 0.09,-0.05 0.09,-0.05 0.1,0.01 0.09,-0.04 0.09,0.04 0.09,0.08 0.1,-0.03 0.09,0 0.09,0.03 0.1,0 0.09,0 0.09,0.02 0.09,-0.01 0.1,0 0.09,0.02 0.09,0.01 0.1,-0.06 0.09,-0.03 0.09,-0.03 0.1,-0.07 0.09,0.08 0.09,-0.01 0.09,0 0.1,-0.01 0.09,0.05 0.09,0.03 0.1,-0.02 0.09,0.05 0.09,-0.08 0.09,-0.01 0.1,0 0.09,0 0.09,0.06 0.1,0 0.09,0.04 0.09,0.05 0.1,0 0.09,0.05 0.09,0.04 0.09,0.03 0.1,0.04 0.09,-0.01 0.09,0.06 0.1,-0.09 0.09,0.02 0.09,-0.01 0.09,-0.01 0.1,0.02 0.09,0.07 0.09,-0.07 0.1,-0.08 0.09,-0.04 0.09,0.03 0.1,0.03 0.09,0 0.09,0.02 0.09,-0.1 0.1,0.06 0.09,-0.02 0.09,0.02 0.1,-0.03 0.09,-0.03 0.09,-0.01 0.09,-0.03 0.1,-0.01 0.09,0.07 0.09,-0.03 0.1,-0.02 0.09,0.05 0.09,-0.08 0.1,0.05 0.09,-0.01 0.09,0.01 0.09,-0.04 0.1,-0.01 0.09,0.05 0.09,0.02 0.1,-0.01 0.09,-0.04 0.09,0.06 0.09,0.03 0.1,0.03 0.09,-0.06 0.09,0.05 0.1,0.07 0.09,-0.02 0.09,0.02 0.1,-0.07 0.09,0.01 0.09,0.07 0.09,0.06 0.1,-0.02 0.09,0.09 0.09,0 0.1,0.03 0.09,-0.01 0.09,-0.01 0.09,0.01 0.1,0.05 0.09,0.01 0.09,-0.07 0.1,0.03 0.09,0 0.09,0.02 0.1,0.02 0.09,0.07 0.09,0.01 0.09,0.04 0.1,0.01 0.09,-0.07 0.09,0.1 0.1,0.01 0.09,-0.05 0.09,0.04 0.09,-0.04 0.1,0.05 0.09,-0.07 0.09,0.02 0.1,-0.03 0.09,-0.06 0.09,-0.02 0.1,-0.11 0.09,-0.03 0.09,0 0.09,0 0.1,-0.01 0.09,-0.01 0.09,-0.08 0.1,-0.04 0.09,0.01 0.09,-0.04 0.09,-0.04 0.1,-0.03 0.09,0 0.09,-0.04 0.1,-0.01 0.09,0.01 0.09,0.01 0.1,0.01 0.09,-0.03 0.09,-0.07 0.09,0.02 0.1,0 0.09,0.05 0.09,-0.02 0.1,0.06 0.09,-0.04 0.09,0.03 0.09,-0.01 0.1,-0.03 0.09,0.01 0.09,-0.03 0.1,0.01 0.09,-0.04 0.09,-0.09 0.1,0.01 0.09,0 0.09,0.01 0.09,-0.03 0.1,-0.04 0.09,0 0.09,-0.01 0.1,0.01 0.09,-0.04 0.09,0.01 0.09,0.06 0.1,-0.01 0.09,0.01 0.09,0.02 0.1,0.09 0.09,-0.01 0.09,0.07 0.1,-0.02 0.09,-0.01 0.09,-0.02 0.09,0.05 0.1,0.07 0.09,0.03 0.09,-0.04 0.1,-0.06 0.09,-0.06 0.09,-0.02 0.09,-0.01 0.1,0.09 0.09,0.05 0.09,0.02 0.1,0.06 0.09,0.03 0.09,-0.02 0.09,0.09 0.1,-0.05 0.09,-0.01 0.09,0.02 0.1,0.06 0.09,-0.01 0.09,0.03 0.1,0.07 0.09,-0.03 0.09,0.08 0.09,0.03 0.1,-0.02 0.09,0.03 0.09,0.11 0.1,0.03 0.09,0.02 0.09,0.06 0.09,0.06 0.1,0.08 0.09,-0.05 0.09,0.01 0.1,-0.01 0.09,0 0.09,-0.11 0.1,-0.04 0.09,-0.06 0.09,0 0.09,-0.07 0.1,0.01 0.09,-0.07 0.09,-0.06 0.1,-0.02 0.09,-0.02 0.09,0.02 0.09,-0.05 0.1,-0.07 0.09,-0.05 0.09,-0.07 0.1,-0.07 0.09,-0.02 0.09,0.01 0.1,-0.08 0.09,0.05 0.09,-0.08 0.09,0.02 0.1,-0.02 0.09,-0.01 0.09,0.01 0.1,-0.02 0.09,-0.03 0.09,-0.05 0.09,-0.05 0.1,0 0.09,-0.04 0.09,-0.03 0.1,0 0.09,0.01 0.09,0.04 0.1,0 0.09,0.1 0.09,0.02 0.09,0 0.1,0.02 0.09,-0.02 0.09,-0.03 0.1,0.02 0.09,0.01 0.09,-0.02 0.09,-0.01 0.1,0.05 0.09,0.07 0.09,-0.04 0.1,0.02 0.09,0.01 0.09,0.05 0.1,-0.07 0.09,0.1 0.09,0.03 0.09,0 0.1,-0.04 0.09,0.04 0.09,0.04 0.1,0.05 0.09,-0.09 0.09,-0.01 0.09,0.08 0.1,-0.02 0.09,0 0.09,0.05 0.1,-0.03 0.09,-0.01 0.09,0.09 0.1,0.1 0.09,0.07 0.09,0.02 0.09,0.01 0.1,0.05 0.09,0.01 0.09,-0.01 0.1,0.08 0.09,-0.09 0.09,0.03 0.09,0.06 0.1,-0.06 0.09,0.06 0.09,0.01 0.1,0.02 0.09,0.04 0.09,-0.11 0.1,-0.07 0.09,0.06 0.09,0.04 0.09,0.03 0.1,-0.07 0.09,-0.01 0.09,0.02 0.1,0.14 0.09,0.02 0.09,-0.05 0.09,0 0.1,-0.01 0.09,-0.02 0.09,0.07 0.1,0.07 0.09,-0.08 0.09,-0.04 0.1,0.01 0.09,-0.03 0.09,0.05 0.09,0.02 0.1,-0.02 0.09,0.01 0.09,0 0.1,0.04 0.09,-0.03 0.09,0.01 0.09,0 0.1,0.02 0.09,-0.04 0.09,-0.04 0.1,-0.02 0.09,-0.01 0.09,-0.04 0.1,-0.08 0.09,-0.07 0.09,-0.1 0.09,0.06 0.1,-0.04 0.09,-0.08 0.09,-0.1 0.1,-0.01 0.09,-0.02 0.09,-0.13 0.09,-0.04 0.1,-0.07 0.09,-0.07 0.09,-0.03 0.1,-0.06 0.09,-0.07 0.09,0.02 0.1,-0.06 0.09,-0.04 0.09,0.01 0.09,-0.03 0.1,-0.04 0.09,0.03 0.09,-0.05 0.1,0.01 0.09,-0.02 0.09,-0.01 0.09,-0.02 0.1,-0.01 0.09,-0.05 0.09,-0.06 0.1,-0.01 0.09,0.02 0.09,0 0.1,0.04 0.09,0.04 0.09,-0.02 0.09,0.04 0.1,0.1 0.09,0.02 0.09,-0.01 0.1,0.04 0.09,0.04 0.09,0.03 0.09,0.04 0.1,0.05 0.09,0.05 0.09,0.06 0.1,-0.01 0.09,-0.03 0.09,0.08 0.1,0.09 0.09,0.01 0.09,0.06 0.09,0.06 0.1,0 0.09,0 0.09,0.04 0.1,0.07 0.09,0.05 0.09,0.04 0.09,0.12 0.1,0.01 0.09,0.11 0.09,0.03 0.1,0.07 0.09,0.1 0.09,0.07 0.1,0.04 0.09,0.05 0.09,0.06 0.09,0.01 0.1,0.11 0.09,0 0.09,0.13 0.1,0.1 0.09,0.06 0.09,-0.04 0.09,0.02 0.1,0.02 0.09,0.07 0.09,-0.07 0.1,-0.01 0.09,-0.11 0.09,-0.05 0.1,0 0.09,-0.07 0.09,-0.11 0.09,-0.06 0.1,-0.11 0.09,-0.06 0.09,-0.05 0.1,-0.01 0.09,0.03 0.09,-0.1 0.09,-0.05 0.1,-0.02 0.09,-0.02 0.09,-0.08 0.1,-0.13 0.09,-0.05 0.09,-0.06 0.09,-0.02 0.1,-0.16 0.09,-0.07 0.09,-0.02 0.1,-0.08 0.09,-0.03 0.09,-0.01 0.1,-0.03 0.09,-0.07 0.09,-0.11 0.09,-0.01 0.1,0.03 0.09,-0.02 0.09,-0.07 0.1,-0.02 0.09,-0.04 0.09,-0.01 0.09,-0.01 0.1,0.04 0.09,-0.06 0.09,0.02 0.1,0.07 0.09,-0.03 0.09,-0.04 0.1,-0.02 0.09,0 0.09,0.06 0.09,-0.04 0.1,-0.06 0.09,0 0.09,0 0.1,-0.04 0.09,-0.02 0.09,0.07 0.09,-0.05 0.1,-0.02 0.09,0.06 0.09,0.06 0.1,0.06 0.09,0.02 0.09,-0.02 0.1,0.11 0.09,0.02 0.09,0.03 0.09,0.1 0.1,0.02 0.09,0.05 0.09,0.01 0.1,0.12 0.09,0.05 0.09,0.01 0.09,0.01 0.1,0 0.09,0.1 0.09,0.09 0.1,0.08 0.09,0.06 0.09,0 0.1,-0.01 0.09,0.04 0.09,0.02 0.09,0 0.1,0 0.09,0.03 0.09,0.06 0.1,0.15 0.09,-0.02 0.09,0.06 0.09,-0.02 0.1,-0.02 0.09,0.1 0.09,0.01 0.1,-0.03 0.09,-0.03 0.09,0.1 0.1,0.08 0.09,-0.05 0.09,-0.01 0.09,0 0.1,-0.04 0.09,-0.02 0.09,0.03 0.1,0.04 0.09,-0.04 0.09,-0.04 0.09,-0.07 0.1,-0.1 0.09,-0.02 0.09,-0.03 0.1,0.07 0.09,0.04 0.09,0 0.1,-0.02 0.09,0.01 0.09,-0.04 0.09,0 0.1,-0.06 0.09,-0.09 0.09,0 0.1,-0.05 0.09,0.01 0.09,-0.01 0.09,-0.03 0.1,-0.06 0.09,0.01 0.09,0.01 0.1,-0.05 0.09,-0.07 0.09,-0.05 0.1,-0.06 0.09,-0.1 0.09,-0.01 0.09,-0.03 0.1,-0.04 0.09,0.01 0.09,-0.1 0.1,0.01 0.09,-0.09 0.09,-0.08 0.09,0.03 0.1,0.01 0.09,-0.02 0.09,0 0.1,0.03 0.09,0.02 0.09,0 0.1,0 0.09,0.02 0.09,0.05 0.09,-0.05 0.1,-0.01 0.09,0.02 0.09,-0.02 0.1,-0.03 0.09,0.01 0.09,0.06 0.09,0.12 0.1,-0.06 0.09,0.04 0.09,0.04 0.1,-0.04 0.09,0 0.09,-0.03 0.1,0.05 0.09,0 0.09,0.06 0.09,0 0.1,0.04 0.09,0.02 0.09,0 0.1,0 0.09,0.05 0.09,0.03 0.09,-0.04 0.1,0.01 0.09,0.05 0.09,-0.03 0.1,0.03 0.09,0.06 0.09,-0.03 0.1,0.04 0.09,-0.03 0.09,0 0.09,-0.03 0.1,0.03 0.09,0.04 0.09,0.03 0.1,0.03 0.09,-0.01 0.09,-0.03 0.09,-0.04 0.1,-0.02 0.09,0.02 0.09,-0.01 0.1,-0.03 0.09,-0.05 0.09,-0.04 0.1,0.02 0.09,-0.02 0.09,-0.04 0.09,-0.01 0.1,-0.07 0.09,-0.05 0.09,0.04 0.1,-0.03 0.09,0.01 0.09,-0.01 0.09,-0.01 0.1,0.03 0.09,-0.02 0.09,-0.01 0.1,0.02 0.09,-0.03 0.09,0.01 0.1,-0.03 0.09,0.08 0.09,-0.01 0.09,-0.07 0.1,0.07 0.09,-0.04 0.09,-0.02 0.1,0.02 0.09,0.02 0.09,-0.02 0.09,0 0.1,0.1 0.09,0.03 0.09,0.04 0.1,0.07 0.09,0 0.09,0.06 0.1,0.01 0.09,-0.01 0.09,0.08 0.09,-0.02 0.1,0.09 0.09,0 0.09,0.14 0.1,0.02 0.09,0.03 0.09,0.13 0.09,0.02 0.1,0.07 0.09,0.05 0.09,0.04 0.1,0.04 0.09,0.02 0.09,-0.02 0.1,0.06 0.09,-0.02 0.09,0.03 0.09,-0.05 0.1,0 0.09,-0.03 0.09,0 0.1,-0.03 0.09,0.01 0.09,-0.05 0.09,0.01 0.1,0.05 0.09,-0.05 0.09,-0.12 0.1,-0.01 0.09,0 0.09,-0.08 0.09,-0.09 0.1,0.01 0.09,-0.09 0.09,-0.06 0.1,-0.02 0.09,-0.05 0.09,-0.07 0.1,-0.08 0.09,0.02 0.09,-0.1 0.09,-0.02 0.1,-0.07 0.09,-0.06 0.09,-0.05 0.1,0.02 0.09,-0.05 0.09,-0.05 0.09,-0.02 0.1,0.04 0.09,-0.01 0.09,-0.02 0.1,-0.03 0.09,-0.04 0.09,-0.02 0.1,-0.04 0.09,0 0.09,0.02 0.09,-0.08 0.1,-0.05 0.09,-0.01 0.09,0.06 0.1,-0.08 0.09,-0.06 0.09,-0.05 0.09,-0.03 0.1,-0.01 0.09,0 0.09,-0.02 0.1,-0.04 0.09,-0.04 0.09,-0.02 0.1,0.02 0.09,0.03 0.09,0.03 0.09,0.06 0.1,0.05 0.09,0 0.09,0.06 0.1,0.01 0.09,0.01 0.09,0.07 0.09,0.06 0.1,0.04 0.09,0.03 0.09,0.07 0.1,0.02 0.09,0 0.09,0.02 0.1,0.03 0.09,-0.01 0.09,0.07 0.09,0.07 0.1,0.05 0.09,0.06 0.09,0.07 0.1,-0.08 0.09,0.05 0.09,0.09 0.09,0.09 0.1,0.05 0.09,0.09 0.09,0.05 0.1,0.01 0.09,0.05 0.09,0.13 0.1,-0.03 0.09,0.1 0.09,-0.01 0.09,0.04 0.1,0 0.09,0.1 0.09,0.03 0.1,0.03 0.09,0.11 0.09,0 0.09,-0.01 0.1,0.06 0.09,0.02 0.09,0.03 0.1,0.02 0.09,0.06 0.09,0.04 0.1,-0.08 0.09,-0.01 0.09,-0.01 0.09,0.01 0.1,-0.07 0.09,-0.04 0.09,-0.08 0.1,-0.08 0.09,0.02 0.09,-0.13 0.09,-0.05 0.1,-0.23 0.09,-0.08 0.09,-0.05 0.1,-0.01 0.09,-0.1 0.09,-0.06 0.1,-0.09 0.09,-0.06 0.09,-0.07 0.09,-0.08 0.1,-0.07 0.09,-0.07 0.09,-0.04 0.1,-0.07 0.09,-0.02 0.09,-0.02 0.09,0 0.1,-0.08 0.09,0.09 0.09,-0.07 0.1,0 0.09,0.02 0.09,-0.06 0.1,-0.05 0.09,-0.02 0.09,-0.1 0.09,0.01 0.1,0.02 0.09,-0.05 0.09,0.03 0.1,-0.02 0.09,0.01 0.09,-0.02 0.09,0.05 0.1,0.09 0.09,0.03 0.09,0.05 0.1,0.01 0.09,0.04 0.09,0.08 0.1,0.05 0.09,0.04 0.09,0.06 0.09,0.02 0.1,0.08 0.09,0.11 0.09,-0.09 0.1,0.1 0.09,0.02 0.09,0.03 0.09,0.03 0.1,0.04 0.09,0.09 0.09,-0.01 0.1,0.04 0.09,0 0.09,0.13 0.1,0.02 0.09,0.07 0.09,0.03 0.09,0 0.1,0.05 0.09,0.08 0.09,-0.01 0.1,0.02 0.09,0.06 0.09,-0.04 0.09,0.02 0.1,-0.03 0.09,0.04 0.09,-0.01 0.1,0.05 0.09,0.06 0.09,-0.03 0.1,0.04 0.09,-0.01 0.09,-0.03 0.09,-0.02 0.1,-0.13 0.09,0.02 0.09,-0.06 0.1,0.02 0.09,-0.07 0.09,-0.01 0.09,-0.07 0.1,-0.03 0.09,-0.06 0.09,-0.05 0.1,0 0.09,-0.05 0.09,-0.01 0.1,-0.07 0.09,-0.09 0.09,-0.01 0.09,-0.1 0.1,0 0.09,-0.07 0.09,0 0.1,-0.05 0.09,0.01 0.09,-0.05 0.09,-0.06 0.1,-0.04 0.09,0.03 0.09,-0.05 0.1,-0.01 0.09,-0.03 0.09,0 0.1,-0.09 0.09,0.02 0.09,-0.05 0.09,-0.01 0.1,-0.04 0.09,0.01 0.09,-0.02 0.1,-0.1 0.09,0.01 0.09,0 0.09,-0.03 0.1,0.08 0.09,-0.01 0.09,0 0.1,0.05 0.09,0.04 0.09,0.01 0.09,0.1 0.1,-0.07 0.09,0 0.09,0 0.1,0.03 0.09,-0.02 0.09,0.01 0.1,0.03 0.09,0 0.09,0.03 0.09,0.05 0.1,-0.01 0.09,0 0.09,0.05 0.1,0.01 0.09,0.06 0.09,0.02 0.09,-0.02 0.1,0.03 0.09,0 0.09,0.06 0.1,0.04 0.09,0.04 0.09,0.08 0.1,0.01 0.09,0.08 0.09,0.02 0.09,0 0.1,0.11 0.09,0.01 0.09,-0.02 0.1,0.02 0.09,-0.04 0.09,0 0.09,0.04 0.1,0 0.09,0.03 0.09,-0.02 0.1,0.02 0.09,0.11 0.09,0.08 0.1,0.14 0.09,-0.02 0.09,0.08 0.09,0.02 0.1,0.07 0.09,0 0.09,0.04 0.1,0 0.09,-0.05 0.09,0.04 0.09,-0.01 0.1,0.04 0.09,-0.04 0.09,-0.03 0.1,0.04 0.09,-0.08 0.09,0.05 0.1,-0.04 0.09,-0.01 0.09,-0.02 0.09,0.02 0.1,-0.01 0.09,-0.05 0.09,-0.07 0.1,0.05 0.09,-0.11 0.09,-0.11 0.09,-0.07 0.1,-0.08 0.09,-0.06 0.09,-0.01 0.1,-0.05 0.09,-0.08 0.09,-0.01 0.1,-0.05 0.09,-0.04 0.09,-0.07 0.09,-0.03 0.1,0.03 0.09,-0.04 0.09,-0.08 0.1,-0.02 0.09,-0.02 0.09,-0.03 0.09,-0.03 0.1,-0.04 0.09,0.08 0.09,-0.03 0.1,-0.03 0.09,0.02 0.09,0.03 0.1,0.01 0.09,-0.01 0.09,-0.01 0.09,-0.01 0.1,0.02 0.09,-0.04 0.09,0.1 0.1,0.03 0.09,-0.03 0.09,-0.08 0.09,0.04 0.1,0 0.09,0.06 0.09,0 0.1,0.05 0.09,-0.04 0.09,-0.01 0.1,-0.01 0.09,0.04 0.09,-0.01 0.09,-0.04 0.1,0.02 0.09,0 0.09,-0.06 0.1,0 0.09,0.08 0.09,0.01 0.09,0.06 0.1,-0.01 0.09,0.04 0.09,-0.03 0.1,0 0.09,0.01 0.09,-0.01 0.1,0 0.09,0 0.09,0.04 0.09,0.03 0.1,0.02 0.09,0.03 0.09,-0.02 0.1,-0.02 0.09,0.07 0.09,0.01 0.09,-0.03 0.1,0.06 0.09,-0.02 0.09,0.04 0.1,0.02 0.09,0.05 0.09,0.09 0.1,0.09 0.09,0.04 0.09,0.04 0.09,0.03 0.1,0.04 0.09,0.01 0.09,0.02 0.1,0.06 0.09,-0.04 0.09,0.04 0.09,-0.05 0.1,0.04 0.09,0.05 0.09,0.03 0.1,-0.05 0.09,-0.07 0.09,-0.03 0.1,-0.07 0.09,-0.02 0.09,-0.1 0.09,0 0.1,-0.03 0.09,0.01 0.09,-0.01 0.1,-0.03 0.09,-0.12 0.09,-0.09 0.09,-0.05 0.1,-0.02 0.09,0.05 0.09,-0.01 0.1,0.02 0.09,-0.04 0.09,0.02 0.1,-0.07 0.09,0.01 0.09,0.06 0.09,-0.07 0.1,-0.06 0.09,0.03 0.09,-0.05 0.1,-0.05 0.09,-0.05 0.09,0.02 0.09,-0.03 0.1,-0.02 0.09,-0.05 0.09,-0.01 0.1,0.01 0.09,-0.05 0.09,0.07 0.1,0.04 0.09,0.02 0.09,0 0.09,0.08 0.1,0.05 0.09,-0.01 0.09,0.01 0.1,0.02 0.09,-0.02 0.09,0.07 0.09,-0.02 0.1,0.02 0.09,0.01 0.09,0 0.1,0.06 0.09,0.01 0.09,0.03 0.1,0 0.09,-0.04 0.09,0.01 0.09,0.06 0.1,0.02 0.09,0.03 0.09,0.01 0.1,-0.02 0.09,0.05 0.09,-0.01 0.09,0.04 0.1,0.05 0.09,-0.01 0.09,-0.02 0.1,0.01 0.09,-0.02 0.09,0.04 0.1,0.04 0.09,-0.01 0.09,0.01 0.09,-0.03 0.1,-0.01 0.09,0.03 0.09,0.02 0.1,0.01 0.09,-0.03 0.09,0.07 0.09,-0.07 0.1,0.01 0.09,-0.09 0.09,-0.02 0.1,-0.08 0.09,0.03 0.09,-0.06 0.09,-0.04 0.1,-0.06 0.09,0 0.09,0.01 0.1,0 0.09,-0.07 0.09,0.02 0.1,0 0.09,-0.02 0.09,-0.03 0.09,-0.07 0.1,-0.03 0.09,-0.01 0.09,-0.06 0.1,-0.04 0.09,0.05 0.09,-0.04 0.09,-0.02 0.1,0 0.09,0.02 0.09,-0.01 0.1,0.02 0.09,0 0.09,0 0.1,0.01 0.09,-0.01 0.09,0.02 0.09,-0.01 0.1,0 0.09,-0.11 0.09,0.01 0.1,-0.01 0.09,0.05 0.09,-0.03 0.09,0.07 0.1,-0.03 0.09,-0.02 0.09,-0.02 0.1,0.01 0.09,0 0.09,0.05 0.1,0.05 0.09,0.03 0.09,-0.01 0.09,0.07 0.1,-0.02 0.09,0.07 0.09,0.04 0.1,0.04 0.09,0.01 0.09,0.02 0.09,0.03 0.1,0.09 0.09,0.12 0.09,0.07 0.1,-0.02 0.09,0.07 0.09,0.05 0.1,0.11 0.09,0.03 0.09,0.03 0.09,0.05 0.1,0.12 0.09,0.01 0.09,-0.02 0.1,-0.02 0.09,-0.05 0.09,0.03 0.09,0.05 0.1,-0.01 0.09,0.02 0.09,0.06 0.1,-0.01 0.09,0.01 0.09,-0.02 0.1,-0.07 0.09,0.03 0.09,0.02 0.09,-0.03 0.1,0.03 0.09,0 0.09,0.01 0.1,-0.03 0.09,0.05 0.09,0.01 0.09,-0.02 0.1,-0.03 0.09,-0.04 0.09,0.08 0.1,-0.05 0.09,-0.04 0.09,-0.04 0.1,-0.02 0.09,0.01 0.09,-0.01 0.09,-0.05 0.1,-0.09 0.09,-0.12 0.09,0.04 0.1,-0.06 0.09,-0.09 0.09,-0.09 0.09,-0.05 0.1,-0.09 0.09,-0.06 0.09,-0.06 0.1,-0.07 0.09,-0.08 0.09,-0.07 0.1,-0.07 0.09,-0.09 0.09,0.01 0.09,-0.05 0.1,-0.06 0.09,-0.01 0.09,-0.06 0.1,-0.04 0.09,-0.03 0.09,-0.02 0.09,0.01 0.1,-0.09 0.09,-0.04 0.09,-0.02 0.1,0.02 0.09,-0.07 0.09,0.01 0.1,-0.01 0.09,-0.01 0.09,0.01 0.09,0.03 0.1,0.01 0.09,-0.03 0.09,-0.04 0.1,0.01 0.09,0.03 0.09,0 0.09,-0.01 0.1,-0.02 0.09,-0.02 0.09,0.02 0.1,-0.04 0.09,0.05 0.09,0.05 0.1,0.03 0.09,0.06 0.09,0.02 0.09,0.05 0.1,0.1 0.09,0 0.09,0.1 0.1,0.05 0.09,0.08 0.09,0.02 0.09,0.11 0.1,0.05 0.09,0.05 0.09,0.04 0.1,0.04 0.09,0.09 0.09,0.05 0.1,0.11 0.09,0.09 0.09,0.14 0.09,0.16 0.1,0.11 0.09,0.03 0.09,0.12 0.1,0.06 0.09,0.1 0.09,0.18 0.09,0.14 0.1,0.05 0.09,0.12 0.09,0.03 0.1,0.02 0.09,0.01 0.09,-0.04 0.1,0.09 0.09,0.02 0.09,0 0.09,0 0.1,0 0.09,-0.04 0.09,-0.04 0.1,-0.05 0.09,-0.05 0.09,0.04 0.09,-0.12 0.1,-0.07 0.09,-0.14 0.09,0.04 0.1,-0.07 0.09,-0.05 0.09,-0.1 0.1,-0.14 0.09,-0.1 0.09,0 0.09,-0.15 0.1,-0.07 0.09,-0.11 0.09,-0.07 0.1,-0.1 0.09,-0.13 0.09,-0.07 0.09,-0.13 0.1,-0.09 0.09,-0.06 0.09,-0.05 0.1,-0.08 0.09,-0.06 0.09,-0.03 0.1,-0.06 0.09,-0.07 0.09,-0.02 0.09,-0.04 0.1,-0.12 0.09,-0.07 0.09,0.02 0.1,-0.06 0.09,-0.03 0.09,0.02 0.09,0.01 0.1,-0.03 0.09,-0.03 0.09,0.01 0.1,-0.06 0.09,-0.02 0.09,0 0.1,-0.03 0.09,-0.01 0.09,0.01 0.09,0.01 0.1,0.01 0.09,0.04 0.09,0.01 0.1,0 0.09,0.04 0.09,0.08 0.09,-0.03 0.1,-0.02 0.09,0.02 0.09,0.01 0.1,0.05 0.09,0.05 0.09,0.07 0.09,0.01 0.1,0.09 0.09,0.08 0.09,-0.02 0.1,-0.02 0.09,0.06 0.09,0.02 0.1,0.06 0.09,0.08 0.09,0.03 0.09,0.06 0.1,0.06 0.09,0.05 0.09,0 0.1,0.06 0.09,0.01 0.09,0.06 0.09,0.02 0.1,0.03 0.09,-0.01 0.09,0.11 0.1,0.06 0.09,0.12 0.09,0.05 0.1,0.08 0.09,0.05 0.09,0.09 0.09,0.06 0.1,0.09 0.09,0.03 0.09,0.08 0.1,0.02 0.09,0.06 0.09,0.07 0.09,0.02 0.1,-0.02 0.09,0.07 0.09,0.08 0.1,0 0.09,0.01 0.09,0 0.1,0.01 0.09,0.08 0.09,0 0.09,0.03 0.1,-0.1 0.09,-0.03 0.09,0 0.1,-0.1 0.09,-0.01 0.09,0.03 0.09,-0.08 0.1,-0.08 0.09,0.06 0.09,-0.01 0.1,-0.01 0.09,-0.02 0.09,-0.02 0.1,-0.07 0.09,-0.06 0.09,-0.04 0.09,-0.08 0.1,-0.05 0.09,0.05 0.09,-0.08 0.1,-0.06 0.09,-0.03 0.09,-0.04 0.09,-0.08 0.1,0.02 0.09,-0.06 0.09,-0.01 0.1,-0.06 0.09,-0.13 0.09,-0.03 0.1,-0.11 0.09,-0.02 0.09,-0.01 0.09,-0.06 0.1,-0.04 0.09,0 0.09,-0.04 0.1,-0.03 0.09,0 0.09,-0.08 0.09,-0.04 0.1,-0.05 0.09,-0.04 0.09,-0.01 0.1,-0.04 0.09,-0.01 0.09,-0.04 0.1,-0.08 0.09,-0.02 0.09,0 0.09,-0.05 0.1,0.02 0.09,0.03 0.09,-0.01 0.1,0.01 0.09,-0.02 0.09,-0.02 0.09,0.02 0.1,-0.01 0.09,0.01 0.09,-0.04 0.1,0.01 0.09,0.05 0.09,0.01 0.1,-0.03 0.09,0.03 0.09,-0.01 0.09,0.02 0.1,0.02 0.09,0.01 0.09,-0.02 0.1,-0.02 0.09,0.04 0.09,0.12 0.09,0 0.1,-0.01 0.09,0 0.09,0.04 0.1,0.03 0.09,-0.03 0.09,0.03 0.1,-0.02 0.09,0.07 0.09,0.05 0.09,0.06 0.1,0 0.09,0.12 0.09,0.01 0.1,0.02 0.09,0.04 0.09,0.04 0.09,0.09 0.1,0.08 0.09,0.1 0.09,0.09 0.1,0.05 0.09,0.02 0.09,0.08 0.1,-0.01 0.09,0.04 0.09,0.05 0.09,0 0.1,0.12 0.09,-0.02 0.09,0.06 0.1,-0.02 0.09,0.1 0.09,0.02 0.09,-0.01 0.1,0 0.09,0.07 0.09,0.05 0.1,-0.03 0.09,-0.08 0.09,0.03 0.1,0.02 0.09,0.05 0.09,-0.01 0.09,0.04 0.1,0.03 0.09,0.02 0.09,-0.07 0.1,-0.04 0.09,-0.04 0.09,0.01 0.09,-0.04 0.1,-0.06 0.09,-0.02 0.09,-0.08 0.1,-0.07 0.09,-0.06 0.09,-0.11 0.1,-0.07 0.09,-0.06 0.09,-0.11 0.09,-0.08 0.1,-0.08 0.09,-0.06 0.09,-0.02 0.1,-0.06 0.09,-0.02 0.09,-0.06 0.09,-0.04 0.1,-0.02 0.09,0.02 0.09,-0.07 0.1,-0.04 0.09,0 0.09,-0.02 0.1,-0.03 0.09,-0.02 0.09,0 0.09,-0.05 0.1,-0.05 0.09,0.02 0.09,-0.02 0.1,-0.01 0.09,-0.01 0.09,0.01 0.09,-0.05 0.1,0.04 0.09,-0.01 0.09,-0.06 0.1,0.04 0.09,0.04 0.09,-0.03 0.1,0.04 0.09,0.02 0.09,0.03 0.09,0.02 0.1,0.08 0.09,0.04 0.09,-0.02 0.1,0.01 0.09,0.08 0.09,0.03 0.09,0.06 0.1,-0.02 0.09,0 0.09,0.01 0.1,-0.01 0.09,0.01 0.09,0.02 0.1,0.08 0.09,0.04 0.09,-0.11 0.09,0.01 0.1,0.02 0.09,0.1 0.09,0.01 0.1,0 0.09,0.1 0.09,-0.09 0.09,0.01 0.1,-0.02 0.09,0 0.09,-0.03 0.1,-0.03 0.09,0.03 0.09,0 0.09,-0.02 0.1,0.1 0.09,0.01 0.09,0.09 0.1,-0.04 0.09,0.03 0.09,-0.05 0.1,0 0.09,0.04 0.09,0.01 0.09,-0.07 0.1,0.05 0.09,-0.02 0.09,0.07 0.1,-0.02 0.09,-0.09 0.09,0.12 0.09,0.09 0.1,0 0.09,0.04 0.09,0.06 0.1,0.05 0.09,0.02 0.09,-0.04 0.1,-0.03 0.09,0.09 0.09,-0.04 0.09,0.03 0.1,0.01 0.09,-0.04 0.09,0.03 0.1,-0.01 0.09,0.09 0.09,0.05 0.09,-0.08 0.1,0.06 0.09,-0.04 0.09,0.09 0.1,-0.01 0.09,0.03 0.09,0.09 0.1,-0.05 0.09,-0.03 0.09,0.03 0.09,-0.01 0.1,0.02 0.09,-0.01 0.09,-0.02 0.1,-0.04 0.09,-0.01 0.09,0.03 0.09,-0.06 0.1,-0.01 0.09,-0.06 0.09,0 0.1,-0.04 0.09,-0.08 0.09,-0.03 0.1,-0.08 0.09,-0.02 0.09,-0.01 0.09,-0.04 0.1,0 0.09,-0.03 0.09,0 0.1,-0.06 0.09,-0.01 0.09,-0.06 0.09,-0.05 0.1,-0.12 0.09,-0.02 0.09,-0.03 0.1,0 0.09,-0.03 0.09,0.01 0.1,-0.06 0.09,-0.05 0.09,-0.02 0.09,-0.06 0.1,-0.01 0.09,-0.03 0.09,-0.03 0.1,-0.05 0.09,0.02 0.09,-0.01 0.09,-0.03 0.1,0.01 0.09,-0.03 0.09,-0.04 0.1,-0.07 0.09,0.02 0.09,0.02 0.1,-0.01 0.09,0.04 0.09,0.05 0.09,0.02 0.1,-0.01 0.09,-0.02 0.09,-0.05 0.1,0.05 0.09,-0.01 0.09,0 0.09,-0.03 0.1,0.02 0.09,0.05 0.09,-0.02 0.1,0.13 0.09,0.03 0.09,0.06 0.1,0.05 0.09,0.05 0.09,0.11 0.09,-0.03 0.1,0 0.09,0.07 0.09,0.1 0.1,0.11 0.09,0.1 0.09,0.02 0.09,0 0.1,-0.01 0.09,0.11 0.09,0.02 0.1,0.01 0.09,0.08 0.09,-0.02 0.1,0.05 0.09,0.1 0.09,-0.03 0.09,-0.01 0.1,-0.02 0.09,-0.01 0.09,0.06 0.1,0.09 0.09,0.04 0.09,-0.04 0.09,0.02 0.1,-0.03 0.09,0.07 0.09,0.01 0.1,-0.04 0.09,-0.06 0.09,0.04 0.1,0.05 0.09,-0.03 0.09,-0.05 0.09,0 0.1,0.03 0.09,-0.04 0.09,0 0.1,-0.08 0.09,-0.09 0.09,-0.04 0.09,0.02 0.1,0 0.09,-0.02 0.09,-0.09 0.1,-0.1 0.09,-0.11 0.09,-0.02 0.1,-0.08 0.09,-0.02 0.09,-0.06 0.09,-0.06 0.1,-0.06 0.09,-0.04 0.09,-0.04 0.1,-0.05 0.09,-0.04 0.09,-0.03 0.09,0.02 0.1,-0.04 0.09,-0.08 0.09,-0.03 0.1,0 0.09,-0.04 0.09,-0.05 0.1,-0.06 0.09,-0.04 0.09,-0.01 0.09,0.03 0.1,-0.06 0.09,0.01 0.09,-0.01 0.1,0.01 0.09,0.03 0.09,0.01 0.09,0.07 0.1,0.05 0.09,0.03 0.09,0.04 0.1,-0.01 0.09,0.01 0.09,-0.01 0.1,0.05 0.09,0.01 0.09,0.06 0.09,0.06 0.1,0.01 0.09,0.03 0.09,-0.01 0.1,0.05 0.09,0.02 0.09,0.01 0.09,0.04 0.1,0.01 0.09,0.05 0.09,0.05 0.1,0.07 0.09,0 0.09,0.05 0.1,0.08 0.09,0.03 0.09,-0.02 0.09,0.05 0.1,0.09 0.09,0.05 0.09,-0.02 0.1,0.03 0.09,0.02 0.09,0.06 0.09,-0.01 0.1,0.02 0.09,0.06 0.09,0.06 0.1,-0.05 0.09,0.1 0.09,0.03 0.09,0.07 0.1,-0.04 0.09,0 0.09,0.05 0.1,0.04 0.09,0.08 0.09,0.08 0.1,-0.01 0.09,0.06 0.09,-0.06 0.09,0.03 0.1,0.03 0.09,-0.06 0.09,0.11 0.1,-0.04 0.09,-0.03 0.09,-0.06 0.09,0.01 0.1,-0.03 0.09,-0.08 0.09,-0.02 0.1,-0.04 0.09,-0.11 0.09,-0.09 0.1,0.01 0.09,-0.06 0.09,-0.04 0.09,-0.12 0.1,-0.12 0.09,-0.03 0.09,-0.05 0.1,-0.04 0.09,-0.05 0.09,0 0.09,-0.08 0.1,-0.03 0.09,-0.07 0.09,-0.09 0.1,-0.12 0.09,-0.05 0.09,0.01 0.1,-0.05 0.09,-0.04 0.09,-0.05 0.09,-0.05 0.1,-0.07 0.09,-0.08 0.09,0.01 0.1,-0.03 0.09,-0.01 0.09,0 0.09,-0.01 0.1,-0.07 0.09,0.04 0.09,0 0.1,0.03 0.09,-0.02 0.09,0.04 0.1,-0.03 0.09,0.04 0.09,-0.01 0.09,0.05 0.1,0.01 0.09,-0.03 0.09,-0.01 0.1,0.1 0.09,-0.03 0.09,0.03 0.09,-0.01 0.1,0.05 0.09,0.03 0.09,0.06 0.1,0.11 0.09,0.06 0.09,0 0.1,0.03 0.09,0.06 0.09,0.14 0.09,0 0.1,0.09 0.09,0.19 0.09,0.07 0.1,0.04 0.09,0.05 0.09,0.09 0.09,0.03 0.1,-0.1 0.09,0.09 0.09,0.07 0.1,0.08 0.09,0.05 0.09,0.1 0.1,0.02 0.09,0.04 0.09,0.03 0.09,-0.02 0.1,-0.01 0.09,-0.02 0.09,-0.03 0.1,-0.04 0.09,-0.04 0.09,0.04 0.09,-0.05 0.1,0 0.09,-0.08 0.09,-0.04 0.1,-0.06 0.09,-0.01 0.09,0 0.1,-0.07 0.09,0.04 0.09,-0.01 0.09,-0.08 0.1,-0.04 0.09,-0.07 0.09,0.01 0.1,-0.09 0.09,0.01 0.09,0 0.09,-0.03 0.1,-0.05 0.09,-0.02 0.09,-0.06 0.1,0.02 0.09,-0.03 0.09,0.01 0.1,0.02 0.09,-0.03 0.09,-0.02 0.09,-0.09 0.1,0.01 0.09,-0.03 0.09,0.06 0.1,-0.04 0.09,0 0.09,0.02 0.09,-0.04 0.1,-0.03 0.09,-0.01 0.09,-0.06 0.1,-0.02 0.09,-0.03 0.09,0.04 0.1,0.01 0.09,-0.03 0.09,0.02 0.09,-0.06 0.1,0.01 0.09,0.01 0.09,-0.09 0.1,-0.02 0.09,0.07 0.09,0.01 0.09,0 0.1,0.03 0.09,-0.02 0.09,-0.07 0.1,0.03 0.09,-0.01 0.09,0.02 0.1,0.01 0.09,0.01 0.09,0.07 0.09,0.05 0.1,0.01 0.09,0.04 0.09,0 0.1,0.08 0.09,0.01 0.09,0.06 0.09,-0.01 0.1,0 0.09,0.04 0.09,0.02 0.1,0.11 0.09,0.01 0.09,0.04 0.1,0.07 0.09,0.01 0.09,0.04" /><path
           id="path44"
           style="fill:none;stroke:#00bfc4;stroke-width:1.05999994;stroke-linecap:butt;stroke-linejoin:round;stroke-miterlimit:1;stroke-dasharray:2.13, 2.13;stroke-dashoffset:0;stroke-opacity:1"
           d="m 66.29,48.02 0.09,189.61 0.1,2.17 0.09,-17.63 0.09,-32.86 0.1,-33.92 0.09,-29.47 0.09,-23.59 0.1,-16.86 0.09,-12.04 0.09,-8.31 0.09,-5.64 0.1,-3.75 0.09,-2.54 0.09,-1.69 0.1,-1.11 0.09,-0.78 0.09,-0.49 0.09,-0.35 0.1,-0.23 0.09,-0.17 0.09,-0.11 0.1,-0.07 0.09,-0.05 0.09,-0.03 0.1,-0.03 0.09,-0.01 0.09,-0.02 0.09,0 0.1,-0.01 0.09,0 0.09,-0.01 0.1,0 0.09,0 0.09,0 0.09,0 0.1,0 0.09,0 0.09,0 0.1,0 0.09,-0.01 0.09,0 0.1,0 0.09,0 0.09,0 0.09,0 0.1,0 0.09,0 0.09,0 0.1,0 0.09,0 0.09,0 0.09,0 0.1,0 0.09,0 0.09,0 0.1,0 0.09,0 0.09,0 0.09,0 0.1,0 0.09,0 0.09,0 0.1,0 0.09,0 0.09,0 0.1,0 0.09,0 0.09,0 0.09,0 0.1,0 0.09,0 0.09,0 0.1,0 0.09,0 0.09,0 0.09,0 0.1,0 0.09,0 0.09,0 0.1,0 0.09,0 0.09,0 0.1,0 0.09,0 0.09,0 0.09,0 0.1,0 0.09,0 0.09,0 0.1,0 0.09,0 0.09,0 0.09,0 0.1,0 0.09,0 0.09,0 0.1,0 0.09,0 0.09,0 0.1,0 0.09,0 0.09,0 0.09,0 0.1,0 0.09,0 0.09,0 0.1,0 0.09,0 0.09,0 0.09,0 0.1,0 0.09,0 0.09,0 0.1,0 0.09,0 0.09,0 0.1,0 0.09,0 0.09,0 0.09,0 0.1,0 0.09,0 0.09,0 0.1,0 0.09,0 0.09,0 0.09,0 0.1,0 0.09,0 0.09,0 0.1,0 0.09,0 0.09,0 0.1,0 0.09,0 0.09,0 0.09,0 0.1,0 0.09,0 0.09,0 0.1,0 0.09,0 0.09,0 0.09,0 0.1,0 0.09,0 0.09,0 0.1,0 0.09,0 0.09,0 0.1,0 0.09,0 0.09,0 0.09,0 0.1,0 0.09,0 0.09,0 0.1,0 0.09,0 0.09,0 0.09,0 0.1,0 0.09,0 0.09,0 0.1,0 0.09,0 0.09,0 0.1,0 0.09,0 0.09,0 0.09,0 0.1,0 0.09,0 0.09,0 0.1,0 0.09,0 0.09,0 0.09,0 0.1,0 0.09,0 0.09,0 0.1,0 0.09,0 0.09,0 0.1,0 0.09,0 0.09,0 0.09,0 0.1,0 0.09,0 0.09,0 0.1,0 0.09,0 0.09,0 0.09,0 0.1,0 0.09,0 0.09,0 0.1,0 0.09,0 0.09,0 0.1,0 0.09,0 0.09,0 0.09,0 0.1,0 0.09,0 0.09,0 0.1,0 0.09,0 0.09,0 0.09,0 0.1,0 0.09,0 0.09,0 0.1,0 0.09,0.01 0.09,0 0.1,0 0.09,0 0.09,0 0.09,0 0.1,0 0.09,0 0.09,0 0.1,0 0.09,0 0.09,0 0.09,0 0.1,0.01 0.09,0 0.09,0.01 0.1,0 0.09,0.01 0.09,0.01 0.1,0.01 0.09,0.01 0.09,0.02 0.09,0.02 0.1,0.03 0.09,0.03 0.09,0.05 0.1,0.06 0.09,0.08 0.09,0.1 0.09,0.13 0.1,0.16 0.09,0.2 0.09,0.27 0.1,0.34 0.09,0.45 0.09,0.53 0.1,0.71 0.09,0.91 0.09,1.13 0.09,1.47 0.1,1.78 0.09,2.25 0.09,2.87 0.1,3.43 0.09,4.33 0.09,4.75 0.09,5.41 0.1,5.83 0.09,5.23 0.09,5.58 0.1,4.95 0.09,3.03 0.09,1.66 0.1,-0.09 0.09,-1.35 0.09,-3.45 0.09,-4.45 0.1,-5.17 0.09,-5.33 0.09,-5.48 0.1,-4.95 0.09,-4.35 0.09,-4.01 0.09,-3.29 0.1,-2.98 0.09,-2.29 0.09,-2.05 0.1,-1.62 0.09,-1.28 0.09,-1.04 0.1,-0.87 0.09,-0.68 0.09,-0.55 0.09,-0.46 0.1,-0.38 0.09,-0.3 0.09,-0.24 0.1,-0.2 0.09,-0.17 0.09,-0.13 0.09,-0.12 0.1,-0.08 0.09,-0.08 0.09,-0.06 0.1,-0.06 0.09,-0.04 0.09,-0.04 0.09,-0.03 0.1,-0.02 0.09,-0.02 0.09,-0.02 0.1,-0.02 0.09,-0.01 0.09,-0.01 0.1,-0.01 0.09,-0.01 0.09,-0.01 0.09,0 0.1,-0.01 0.09,0 0.09,-0.01 0.1,0 0.09,0 0.09,-0.01 0.09,0 0.1,0 0.09,0 0.09,-0.01 0.1,0 0.09,0 0.09,0 0.1,0 0.09,0 0.09,0 0.09,0 0.1,0 0.09,0 0.09,-0.01 0.1,0 0.09,0 0.09,0 0.09,0 0.1,0 0.09,0 0.09,0 0.1,0 0.09,0 0.09,0 0.1,0 0.09,0 0.09,0 0.09,0 0.1,0 0.09,0 0.09,0 0.1,0 0.09,0 0.09,0 0.09,0 0.1,0 0.09,0 0.09,0 0.1,0 0.09,0 0.09,0 0.1,0 0.09,0 0.09,0 0.09,0 0.1,0 0.09,0 0.09,0 0.1,0 0.09,0.01 0.09,0 0.09,0 0.1,0 0.09,0 0.09,0 0.1,0 0.09,0 0.09,0 0.1,0 0.09,0 0.09,0.01 0.09,0 0.1,0 0.09,0 0.09,0 0.1,0.01 0.09,0 0.09,0 0.09,0.01 0.1,0 0.09,0.01 0.09,0 0.1,0.01 0.09,0 0.09,0.01 0.1,0.01 0.09,0.01 0.09,0.01 0.09,0.01 0.1,0.02 0.09,0.01 0.09,0.02 0.1,0.03 0.09,0.02 0.09,0.03 0.09,0.03 0.1,0.04 0.09,0.04 0.09,0.05 0.1,0.05 0.09,0.07 0.09,0.08 0.1,0.1 0.09,0.11 0.09,0.12 0.09,0.15 0.1,0.16 0.09,0.21 0.09,0.24 0.1,0.25 0.09,0.29 0.09,0.35 0.09,0.43 0.1,0.47 0.09,0.57 0.09,0.57 0.1,0.73 0.09,0.78 0.09,1.02 0.1,1.12 0.09,1.24 0.09,1.31 0.09,1.52 0.1,1.6 0.09,1.85 0.09,1.82 0.1,1.92 0.09,1.83 0.09,1.58 0.09,1.69 0.1,1.41 0.09,0.96 0.09,0.68 0.1,0.37 0.09,0.18 0.09,-0.42 0.1,-0.81 0.09,-1.2 0.09,-1.33 0.09,-1.51 0.1,-1.7 0.09,-1.79 0.09,-1.84 0.1,-1.64 0.09,-1.45 0.09,-1.4 0.09,-1.28 0.1,-1.28 0.09,-1.17 0.09,-1.13 0.1,-0.92 0.09,-0.82 0.09,-0.8 0.1,-0.66 0.09,-0.58 0.09,-0.49 0.09,-0.48 0.1,-0.42 0.09,-0.33 0.09,-0.31 0.1,-0.26 0.09,-0.23 0.09,-0.22 0.09,-0.18 0.1,-0.14 0.09,-0.13 0.09,-0.13 0.1,-0.11 0.09,-0.11 0.09,-0.08 0.1,-0.06 0.09,-0.07 0.09,-0.05 0.09,-0.05 0.1,-0.05 0.09,-0.04 0.09,-0.04 0.1,-0.03 0.09,-0.03 0.09,-0.03 0.09,-0.03 0.1,-0.02 0.09,-0.02 0.09,-0.02 0.1,-0.02 0.09,-0.01 0.09,-0.01 0.1,-0.01 0.09,-0.01 0.09,-0.02 0.09,0 0.1,-0.01 0.09,0 0.09,-0.01 0.1,-0.01 0.09,0 0.09,0 0.09,-0.01 0.1,0 0.09,0 0.09,-0.01 0.1,0 0.09,0 0.09,0 0.1,0.01 0.09,0 0.09,0 0.09,0 0.1,0.01 0.09,0 0.09,0 0.1,0.01 0.09,0 0.09,0.01 0.09,0.01 0.1,0.01 0.09,0.01 0.09,0.01 0.1,0.01 0.09,0.02 0.09,0.01 0.09,0.02 0.1,0.02 0.09,0.02 0.09,0.02 0.1,0.02 0.09,0.03 0.09,0.03 0.1,0.03 0.09,0.03 0.09,0.04 0.09,0.04 0.1,0.05 0.09,0.05 0.09,0.06 0.1,0.06 0.09,0.07 0.09,0.07 0.09,0.08 0.1,0.11 0.09,0.09 0.09,0.11 0.1,0.14 0.09,0.14 0.09,0.17 0.1,0.2 0.09,0.17 0.09,0.22 0.09,0.25 0.1,0.31 0.09,0.32 0.09,0.32 0.1,0.37 0.09,0.37 0.09,0.4 0.09,0.47 0.1,0.51 0.09,0.53 0.09,0.6 0.1,0.62 0.09,0.76 0.09,0.77 0.1,0.8 0.09,0.72 0.09,0.78 0.09,0.86 0.1,0.75 0.09,0.78 0.09,0.53 0.1,0.7 0.09,0.71 0.09,0.45 0.09,0.47 0.1,0.28 0.09,0.01 0.09,-0.14 0.1,-0.19 0.09,-0.07 0.09,-0.39 0.1,-0.46 0.09,-0.52 0.09,-0.61 0.09,-0.67 0.1,-0.69 0.09,-0.79 0.09,-0.63 0.1,-0.79 0.09,-0.52 0.09,-0.82 0.09,-0.57 0.1,-0.65 0.09,-0.67 0.09,-0.63 0.1,-0.57 0.09,-0.43 0.09,-0.45 0.1,-0.38 0.09,-0.37 0.09,-0.32 0.09,-0.3 0.1,-0.29 0.09,-0.27 0.09,-0.25 0.1,-0.25 0.09,-0.22 0.09,-0.23 0.09,-0.19 0.1,-0.19 0.09,-0.15 0.09,-0.11 0.1,-0.11 0.09,-0.12 0.09,-0.11 0.1,-0.1 0.09,-0.08 0.09,-0.09 0.09,-0.06 0.1,-0.07 0.09,-0.07 0.09,-0.05 0.1,-0.06 0.09,-0.03 0.09,-0.05 0.09,-0.03 0.1,-0.04 0.09,-0.05 0.09,-0.01 0.1,-0.03 0.09,-0.02 0.09,-0.01 0.1,-0.02 0.09,0 0.09,-0.01 0.09,-0.01 0.1,-0.01 0.09,-0.01 0.09,-0.01 0.1,0.01 0.09,0 0.09,0.01 0.09,0.01 0.1,0.01 0.09,0.01 0.09,0.01 0.1,0.03 0.09,0.03 0.09,0.01 0.1,0.02 0.09,0.03 0.09,0.01 0.09,0.02 0.1,0.04 0.09,0.03 0.09,0.03 0.1,0.02 0.09,0.06 0.09,0.05 0.09,0.03 0.1,0.06 0.09,0.06 0.09,0.08 0.1,0.08 0.09,0.06 0.09,0.1 0.1,0.07 0.09,0.11 0.09,0.12 0.09,0.12 0.1,0.11 0.09,0.11 0.09,0.19 0.1,0.18 0.09,0.18 0.09,0.2 0.09,0.19 0.1,0.17 0.09,0.22 0.09,0.19 0.1,0.24 0.09,0.28 0.09,0.32 0.1,0.34 0.09,0.32 0.09,0.32 0.09,0.33 0.1,0.3 0.09,0.4 0.09,0.46 0.1,0.37 0.09,0.47 0.09,0.42 0.09,0.31 0.1,0.47 0.09,0.34 0.09,0.35 0.1,0.39 0.09,0.29 0.09,0.21 0.1,0.38 0.09,0.35 0.09,0.09 0.09,0.05 0.1,0.01 0.09,-0.02 0.09,-0.08 0.1,0 0.09,-0.08 0.09,-0.16 0.09,-0.34 0.1,-0.22 0.09,-0.27 0.09,-0.35 0.1,-0.39 0.09,-0.29 0.09,-0.37 0.1,-0.46 0.09,-0.35 0.09,-0.35 0.09,-0.39 0.1,-0.38 0.09,-0.31 0.09,-0.41 0.1,-0.3 0.09,-0.34 0.09,-0.29 0.09,-0.27 0.1,-0.26 0.09,-0.27 0.09,-0.27 0.1,-0.26 0.09,-0.18 0.09,-0.21 0.1,-0.24 0.09,-0.22 0.09,-0.15 0.09,-0.14 0.1,-0.15 0.09,-0.11 0.09,-0.09 0.1,-0.13 0.09,-0.06 0.09,-0.08 0.09,-0.09 0.1,-0.1 0.09,-0.1 0.09,-0.04 0.1,-0.05 0.09,-0.08 0.09,-0.06 0.1,-0.06 0.09,-0.06 0.09,-0.03 0.09,-0.04 0.1,-0.03 0.09,0 0.09,-0.03 0.1,-0.01 0.09,-0.01 0.09,-0.02 0.09,-0.02 0.1,0.01 0.09,0 0.09,0 0.1,-0.01 0.09,0.01 0.09,0 0.09,0 0.1,0 0.09,0.01 0.09,0.01 0.1,0 0.09,0.05 0.09,0.04 0.1,0.02 0.09,0.03 0.09,0.04 0.09,0.03 0.1,0.07 0.09,0.04 0.09,0.06 0.1,0.07 0.09,0.06 0.09,0.06 0.09,0.09 0.1,0.08 0.09,0.08 0.09,0.12 0.1,0.08 0.09,0.06 0.09,0.11 0.1,0.13 0.09,0.1 0.09,0.13 0.09,0.13 0.1,0.11 0.09,0.19 0.09,0.13 0.1,0.17 0.09,0.15 0.09,0.19 0.09,0.17 0.1,0.19 0.09,0.17 0.09,0.3 0.1,0.21 0.09,0.22 0.09,0.2 0.1,0.21 0.09,0.22 0.09,0.21 0.09,0.17 0.1,0.21 0.09,0.15 0.09,0.2 0.1,0.26 0.09,0.23 0.09,0.23 0.09,0.12 0.1,0.05 0.09,0.15 0.09,0.1 0.1,0.05 0.09,-0.05 0.09,0.13 0.1,0.08 0.09,-0.06 0.09,0 0.09,-0.01 0.1,0 0.09,-0.05 0.09,-0.05 0.1,-0.05 0.09,-0.11 0.09,-0.13 0.09,-0.13 0.1,-0.19 0.09,-0.09 0.09,-0.17 0.1,-0.18 0.09,-0.11 0.09,-0.2 0.1,-0.15 0.09,-0.23 0.09,-0.19 0.09,-0.25 0.1,-0.21 0.09,-0.22 0.09,-0.15 0.1,-0.15 0.09,-0.27 0.09,-0.12 0.09,-0.16 0.1,-0.16 0.09,-0.19 0.09,-0.12 0.1,-0.09 0.09,-0.21 0.09,-0.03 0.1,-0.11 0.09,-0.11 0.09,-0.09 0.09,-0.14 0.1,-0.09 0.09,-0.09 0.09,-0.11 0.1,-0.06 0.09,-0.1 0.09,-0.04 0.09,-0.08 0.1,-0.07 0.09,-0.03 0.09,-0.05 0.1,-0.04 0.09,-0.04 0.09,-0.05 0.1,-0.02 0.09,-0.07 0.09,-0.02 0.09,-0.02 0.1,-0.02 0.09,-0.02 0.09,0 0.1,-0.04 0.09,-0.01 0.09,-0.02 0.09,-0.01 0.1,-0.01 0.09,-0.01 0.09,0.01 0.1,0 0.09,-0.01 0.09,0.03 0.1,0.02 0.09,0.04 0.09,0.01 0.09,0.04 0.1,0.05 0.09,0.04 0.09,0.03 0.1,0.06 0.09,0.07 0.09,0.05 0.09,0.05 0.1,0.06 0.09,0.04 0.09,0.07 0.1,0.09 0.09,0.08 0.09,0.09 0.1,0.1 0.09,0.06 0.09,0.09 0.09,0.12 0.1,0.11 0.09,0.13 0.09,0.09 0.1,0.11 0.09,0.14 0.09,0.08 0.09,0.13 0.1,0.14 0.09,0.13 0.09,0.1 0.1,0.07 0.09,0.12 0.09,0.14 0.1,0.08 0.09,0.1 0.09,0.2 0.09,0.06 0.1,0.15 0.09,0.14 0.09,0.09 0.1,0.15 0.09,0.08 0.09,0.11 0.09,0.02 0.1,0.12 0.09,0.15 0.09,0.1 0.1,0.05 0.09,0.03 0.09,0.1 0.1,-0.01 0.09,-0.04 0.09,-0.03 0.09,-0.03 0.1,0.08 0.09,-0.03 0.09,-0.09 0.1,-0.03 0.09,-0.03 0.09,0 0.09,0 0.1,-0.17 0.09,-0.06 0.09,-0.06 0.1,-0.11 0.09,-0.06 0.09,-0.09 0.1,-0.15 0.09,-0.12 0.09,-0.08 0.09,-0.12 0.1,-0.13 0.09,-0.08 0.09,-0.07 0.1,-0.11 0.09,-0.08 0.09,-0.05 0.09,-0.1 0.1,-0.06 0.09,-0.12 0.09,-0.11 0.1,-0.16 0.09,-0.09 0.09,-0.11 0.1,-0.11 0.09,-0.06 0.09,-0.01 0.09,-0.07 0.1,-0.06 0.09,-0.11 0.09,-0.04 0.1,-0.06 0.09,-0.05 0.09,-0.04 0.09,-0.04 0.1,-0.07 0.09,-0.06 0.09,-0.03 0.1,-0.05 0.09,-0.03 0.09,-0.05 0.1,-0.05 0.09,-0.02 0.09,-0.02 0.09,-0.04 0.1,-0.02 0.09,0 0.09,-0.05 0.1,-0.03 0.09,0.02 0.09,-0.04 0.09,-0.03 0.1,-0.01 0.09,-0.03 0.09,-0.02 0.1,-0.01 0.09,0 0.09,0.03 0.09,-0.01 0.1,0.04 0.09,0.01 0.09,-0.01 0.1,0.01 0.09,-0.01 0.09,0.02 0.1,0.05 0.09,-0.03 0.09,0.06 0.09,0.05 0.1,0.04 0.09,0.08 0.09,0.07 0.1,0.09 0.09,0.04 0.09,0.06 0.09,0.05 0.1,0.11 0.09,0.04 0.09,0.02 0.1,0.07 0.09,0.06 0.09,0.03 0.1,0.07 0.09,0.06 0.09,0.13 0.09,0.08 0.1,0.03 0.09,0.06 0.09,0.09 0.1,0.03 0.09,0.04 0.09,0.08 0.09,0.08 0.1,0.09 0.09,0.04 0.09,0.13 0.1,0.15 0.09,0.02 0.09,0.03 0.1,0.03 0.09,0.09 0.09,0.07 0.09,0.06 0.1,0.05 0.09,0.01 0.09,0.04 0.1,0.09 0.09,0.05 0.09,0.03 0.09,0.04 0.1,0.01 0.09,-0.03 0.09,0.01 0.1,0.03 0.09,-0.01 0.09,-0.01 0.1,0.05 0.09,0.06 0.09,-0.06 0.09,-0.04 0.1,-0.01 0.09,-0.01 0.09,-0.04 0.1,-0.07 0.09,-0.05 0.09,-0.1 0.09,-0.01 0.1,-0.08 0.09,-0.04 0.09,-0.03 0.1,-0.05 0.09,-0.06 0.09,-0.02 0.1,-0.02 0.09,-0.03 0.09,-0.03 0.09,-0.05 0.1,-0.01 0.09,-0.09 0.09,-0.05 0.1,-0.07 0.09,-0.06 0.09,-0.05 0.09,-0.07 0.1,-0.04 0.09,-0.05 0.09,-0.05 0.1,-0.07 0.09,-0.11 0.09,-0.08 0.1,-0.15 0.09,-0.03 0.09,-0.06 0.09,-0.02 0.1,-0.1 0.09,-0.02 0.09,-0.07 0.1,-0.04 0.09,-0.03 0.09,0.03 0.09,0 0.1,0.02 0.09,-0.01 0.09,-0.07 0.1,-0.04 0.09,-0.09 0.09,0 0.1,-0.04 0.09,-0.03 0.09,0 0.09,-0.06 0.1,0.02 0.09,-0.05 0.09,0 0.1,-0.01 0.09,0.01 0.09,-0.02 0.09,-0.01 0.1,-0.01 0.09,0.05 0.09,0.03 0.1,0.03 0.09,0.02 0.09,0 0.1,0.04 0.09,-0.02 0.09,0.04 0.09,0.02 0.1,0.03 0.09,0.07 0.09,0.04 0.1,0.02 0.09,0.05 0.09,0.06 0.09,0.05 0.1,0.06 0.09,0.04 0.09,0.06 0.1,0 0.09,0.06 0.09,0.03 0.1,0.03 0.09,0.06 0.09,0.02 0.09,0.06 0.1,0.05 0.09,0.04 0.09,0 0.1,0.08 0.09,0.04 0.09,0.08 0.09,0.07 0.1,0.06 0.09,0.06 0.09,0.02 0.1,0.04 0.09,0.04 0.09,0.05 0.1,0.02 0.09,0.08 0.09,0.05 0.09,-0.05 0.1,0.04 0.09,0.03 0.09,0.07 0.1,0.03 0.09,-0.02 0.09,-0.01 0.09,0.02 0.1,0.01 0.09,0.07 0.09,-0.02 0.1,0 0.09,-0.03 0.09,0.03 0.1,0.01 0.09,0.03 0.09,0.06 0.09,-0.05 0.1,-0.06 0.09,0.02 0.09,-0.03 0.1,-0.11 0.09,-0.05 0.09,-0.05 0.09,-0.05 0.1,0.08 0.09,-0.01 0.09,-0.05 0.1,-0.03 0.09,-0.07 0.09,-0.03 0.1,-0.05 0.09,-0.03 0.09,0.02 0.09,-0.06 0.1,-0.08 0.09,0.07 0.09,-0.04 0.1,-0.04 0.09,-0.01 0.09,-0.02 0.09,-0.02 0.1,-0.04 0.09,-0.09 0.09,-0.05 0.1,0.02 0.09,0 0.09,-0.06 0.1,-0.09 0.09,-0.02 0.09,-0.01 0.09,-0.03 0.1,0.01 0.09,-0.06 0.09,0 0.1,-0.01 0.09,-0.04 0.09,-0.05 0.09,-0.05 0.1,-0.01 0.09,-0.01 0.09,0.03 0.1,0 0.09,-0.06 0.09,-0.02 0.1,0.01 0.09,-0.02 0.09,0.02 0.09,-0.01 0.1,-0.01 0.09,0.04 0.09,-0.02 0.1,-0.08 0.09,0.03 0.09,-0.03 0.09,0 0.1,0.01 0.09,0.01 0.09,0.02 0.1,-0.04 0.09,0.01 0.09,-0.06 0.09,-0.03 0.1,0.08 0.09,-0.01 0.09,-0.01 0.1,0 0.09,0.04 0.09,0.04 0.1,-0.01 0.09,0.01 0.09,-0.02 0.09,-0.02 0.1,0.03 0.09,0.01 0.09,0.02 0.1,0 0.09,0.05 0.09,0.06 0.09,0.02 0.1,0 0.09,0 0.09,0.06 0.1,0.05 0.09,-0.02 0.09,0.04 0.1,0.03 0.09,0.03 0.09,-0.01 0.09,0.04 0.1,0.01 0.09,0.06 0.09,-0.02 0.1,0 0.09,0.06 0.09,0.02 0.09,0.03 0.1,0.05 0.09,-0.01 0.09,0.05 0.1,0.01 0.09,0.01 0.09,0 0.1,-0.03 0.09,0.02 0.09,0.07 0.09,0.06 0.1,0 0.09,0.06 0.09,-0.01 0.1,-0.02 0.09,0.01 0.09,0.01 0.09,0.03 0.1,0.06 0.09,0.04 0.09,-0.02 0.1,0.01 0.09,0.02 0.09,-0.02 0.1,-0.02 0.09,0 0.09,-0.04 0.09,0.01 0.1,-0.03 0.09,0.02 0.09,-0.03 0.1,-0.02 0.09,-0.06 0.09,-0.02 0.09,0 0.1,0.07 0.09,0.05 0.09,0.02 0.1,0.02 0.09,-0.03 0.09,0.01 0.1,-0.04 0.09,0.01 0.09,-0.1 0.09,-0.01 0.1,-0.08 0.09,0 0.09,-0.03 0.1,-0.08 0.09,-0.02 0.09,0.01 0.09,0 0.1,-0.09 0.09,-0.01 0.09,-0.05 0.1,-0.06 0.09,-0.01 0.09,-0.01 0.1,-0.03 0.09,-0.02 0.09,-0.02 0.09,-0.06 0.1,-0.08 0.09,-0.01 0.09,0.06 0.1,0.01 0.09,-0.05 0.09,0 0.09,0 0.1,0.02 0.09,-0.02 0.09,0.01 0.1,0.05 0.09,0.01 0.09,0.03 0.1,-0.02 0.09,-0.02 0.09,0.01 0.09,0 0.1,0 0.09,-0.01 0.09,0.02 0.1,-0.04 0.09,-0.02 0.09,-0.02 0.09,0.03 0.1,0.01 0.09,0.01 0.09,0 0.1,0.01 0.09,0.01 0.09,-0.02 0.1,0.04 0.09,-0.06 0.09,-0.05 0.09,0.06 0.1,0.03 0.09,0.01 0.09,0.02 0.1,0.01 0.09,-0.03 0.09,0.02 0.09,0.02 0.1,0.02 0.09,-0.02 0.09,0.02 0.1,-0.04 0.09,0.09 0.09,0.03 0.1,0 0.09,0.01 0.09,0.02 0.09,0.06 0.1,0.04 0.09,0 0.09,0.02 0.1,0.05 0.09,0 0.09,0.05 0.09,-0.04 0.1,-0.02 0.09,0.06 0.09,0.05 0.1,0.03 0.09,-0.06 0.09,0 0.1,0.08 0.09,0.03 0.09,-0.03 0.09,0.02 0.1,-0.01 0.09,0.03 0.09,-0.04 0.1,-0.01 0.09,-0.02 0.09,-0.03 0.09,0.05 0.1,-0.04 0.09,0.08 0.09,0.05 0.1,0.06 0.09,0.01 0.09,-0.04 0.1,0 0.09,0.01 0.09,0 0.09,0.02 0.1,0.03 0.09,0.06 0.09,-0.03 0.1,-0.06 0.09,-0.01 0.09,0 0.09,0.03 0.1,-0.03 0.09,-0.01 0.09,-0.06 0.1,-0.01 0.09,-0.01 0.09,-0.03 0.1,0.05 0.09,0.01 0.09,0.01 0.09,0.04 0.1,-0.03 0.09,-0.02 0.09,-0.07 0.1,0.04 0.09,0.01 0.09,0.02 0.09,-0.02 0.1,-0.07 0.09,-0.05 0.09,-0.02 0.1,-0.03 0.09,-0.01 0.09,0 0.1,-0.01 0.09,-0.06 0.09,-0.01 0.09,0.03 0.1,-0.07 0.09,-0.03 0.09,0.01 0.1,-0.03 0.09,0.06 0.09,-0.04 0.09,0.01 0.1,-0.04 0.09,-0.02 0.09,0.01 0.1,-0.03 0.09,0.01 0.09,0.03 0.09,-0.02 0.1,0.1 0.09,-0.03 0.09,0 0.1,-0.05 0.09,0 0.09,-0.06 0.1,0 0.09,-0.01 0.09,-0.04 0.09,-0.04 0.1,-0.03 0.09,0 0.09,-0.07 0.1,-0.06 0.09,0.01 0.09,-0.01 0.09,-0.03 0.1,0.02 0.09,0.01 0.09,-0.01 0.1,-0.02 0.09,0.05 0.09,-0.06 0.1,-0.01 0.09,0 0.09,0.03 0.09,-0.05 0.1,0.04 0.09,0 0.09,-0.02 0.1,0 0.09,-0.01 0.09,0.01 0.09,0.05 0.1,-0.01 0.09,0.01 0.09,0.02 0.1,-0.02 0.09,0.04 0.09,0.03 0.1,-0.02 0.09,0.02 0.09,0.03 0.09,0.07 0.1,0.02 0.09,0.03 0.09,0 0.1,0.01 0.09,-0.03 0.09,0.04 0.09,0.03 0.1,0.02 0.09,0.01 0.09,0.04 0.1,0.02 0.09,0.03 0.09,0.08 0.1,0.04 0.09,0.06 0.09,0.04 0.09,0.02 0.1,0.03 0.09,-0.01 0.09,0.03 0.1,-0.02 0.09,0.05 0.09,0.04 0.09,0 0.1,0.09 0.09,-0.04 0.09,0.02 0.1,0 0.09,0.01 0.09,-0.02 0.1,0 0.09,0 0.09,-0.03 0.09,-0.02 0.1,0.01 0.09,0 0.09,0.05 0.1,0.04 0.09,0 0.09,-0.08 0.09,0.01 0.1,-0.08 0.09,0.07 0.09,-0.01 0.1,-0.02 0.09,-0.04 0.09,-0.02 0.1,0 0.09,-0.07 0.09,-0.03 0.09,0.03 0.1,-0.01 0.09,0.01 0.09,-0.09 0.1,0 0.09,0 0.09,-0.01 0.09,0.01 0.1,-0.06 0.09,-0.03 0.09,-0.07 0.1,-0.03 0.09,-0.01 0.09,-0.01 0.1,0 0.09,0 0.09,-0.04 0.09,0.01 0.1,-0.01 0.09,0 0.09,-0.02 0.1,-0.03 0.09,0.05 0.09,0.04 0.09,0.05 0.1,-0.03 0.09,0.05 0.09,0.02 0.1,-0.04 0.09,-0.04 0.09,-0.02 0.1,0.04 0.09,0.01 0.09,0.01 0.09,0 0.1,-0.04 0.09,-0.04 0.09,-0.02 0.1,0.01 0.09,0.02 0.09,-0.01 0.09,0.06 0.1,0.03 0.09,-0.03 0.09,-0.02 0.1,0 0.09,0.01 0.09,0 0.1,0.01 0.09,0 0.09,-0.03 0.09,-0.02 0.1,0.03 0.09,0.01 0.09,0 0.1,0 0.09,-0.03 0.09,-0.02 0.09,-0.01 0.1,0.03 0.09,-0.1 0.09,0.02 0.1,-0.01 0.09,0.01 0.09,-0.01 0.1,-0.01 0.09,0.05 0.09,0.01 0.09,0.03 0.1,0 0.09,-0.01 0.09,-0.03 0.1,-0.02 0.09,-0.04 0.09,0.01 0.09,0.03 0.1,0.02 0.09,0 0.09,-0.02 0.1,0.05 0.09,-0.02 0.09,0.09 0.1,-0.03 0.09,0.05 0.09,-0.03 0.09,-0.03 0.1,0.01 0.09,-0.02 0.09,-0.01 0.1,0.01 0.09,0.01 0.09,0.07 0.09,0.03 0.1,0.02 0.09,0.03 0.09,-0.01 0.1,-0.01 0.09,-0.05 0.09,0.01 0.1,0 0.09,-0.03 0.09,-0.01 0.09,0.01 0.1,0.01 0.09,-0.04 0.09,-0.02 0.1,0.06 0.09,0.02 0.09,0.05 0.09,-0.01 0.1,-0.05 0.09,-0.02 0.09,-0.02 0.1,0 0.09,0 0.09,-0.05 0.1,-0.02 0.09,0.01 0.09,0.03 0.09,0 0.1,-0.04 0.09,0.04 0.09,0.02 0.1,0 0.09,-0.01 0.09,0 0.09,-0.02 0.1,0.04 0.09,0.01 0.09,0.01 0.1,-0.05 0.09,0.02 0.09,0.04 0.1,0 0.09,0.04 0.09,0.01 0.09,-0.03 0.1,0.03 0.09,0 0.09,0.07 0.1,-0.05 0.09,0.03 0.09,0.02 0.09,-0.01 0.1,-0.02 0.09,-0.04 0.09,0.04 0.1,0.02 0.09,0.06 0.09,0 0.09,-0.01 0.1,-0.04 0.09,0.02 0.09,0 0.1,-0.01 0.09,0.01 0.09,0.02 0.1,0.02 0.09,-0.03 0.09,-0.04 0.09,-0.03 0.1,-0.06 0.09,0.02 0.09,0 0.1,0.02 0.09,0.02 0.09,0.01 0.09,-0.03 0.1,0.03 0.09,-0.04 0.09,-0.05 0.1,0.06 0.09,0.04 0.09,-0.01 0.1,0 0.09,-0.02 0.09,0 0.09,-0.01 0.1,-0.01 0.09,-0.02 0.09,0.02 0.1,-0.05 0.09,-0.04 0.09,-0.01 0.09,0.02 0.1,0.03 0.09,0.01 0.09,-0.03 0.1,0.08 0.09,0.02 0.09,0.03 0.1,-0.07 0.09,0.01 0.09,-0.03 0.09,0 0.1,0.02 0.09,-0.03 0.09,0.02 0.1,-0.02 0.09,-0.02 0.09,0.01 0.09,0 0.1,-0.05 0.09,0.01 0.09,0.06 0.1,-0.07 0.09,0 0.09,0.04 0.1,0 0.09,-0.01 0.09,-0.05 0.09,0 0.1,-0.01 0.09,-0.01 0.09,0.01 0.1,-0.01 0.09,-0.07 0.09,-0.04 0.09,0.04 0.1,0.05 0.09,-0.04 0.09,0.03 0.1,0 0.09,0.04 0.09,-0.02 0.1,-0.02 0.09,0.02 0.09,-0.03 0.09,-0.03 0.1,0.02 0.09,0.02 0.09,0.01 0.1,0.01 0.09,-0.05 0.09,0.02 0.09,-0.05 0.1,0.02 0.09,0.02 0.09,0 0.1,0.01 0.09,-0.01 0.09,0.01 0.1,0.03 0.09,0.03 0.09,-0.02 0.09,0 0.1,-0.02 0.09,-0.01 0.09,-0.01 0.1,0.04 0.09,-0.04 0.09,0.08 0.09,0.02 0.1,-0.03 0.09,0.03 0.09,0.01 0.1,0.01 0.09,-0.01 0.09,-0.02 0.1,0.02 0.09,0.03 0.09,0.08 0.09,-0.02 0.1,-0.03 0.09,-0.04 0.09,0.03 0.1,-0.01 0.09,0 0.09,0.01 0.09,0.03 0.1,0.01 0.09,0.06 0.09,-0.02 0.1,0.04 0.09,-0.03 0.09,0 0.1,-0.06 0.09,0.04 0.09,0.01 0.09,0.13 0.1,0.02 0.09,-0.05 0.09,0.02 0.1,-0.01 0.09,-0.02 0.09,-0.03 0.09,0.04 0.1,0.03 0.09,0.03 0.09,0 0.1,-0.05 0.09,0 0.09,0.07 0.1,-0.04 0.09,0.02 0.09,-0.01 0.09,-0.05 0.1,0.02 0.09,0.02 0.09,-0.03 0.1,0.04 0.09,-0.04 0.09,0 0.09,-0.01 0.1,-0.01 0.09,0 0.09,0.02 0.1,-0.04 0.09,-0.01 0.09,-0.04 0.1,-0.02 0.09,-0.03 0.09,-0.03 0.09,0 0.1,-0.02 0.09,-0.02 0.09,0 0.1,-0.06 0.09,-0.03 0.09,0.01 0.09,-0.02 0.1,0.01 0.09,0 0.09,0.02 0.1,-0.02 0.09,-0.04 0.09,0 0.1,0.08 0.09,0 0.09,0.03 0.09,0 0.1,-0.02 0.09,0.06 0.09,-0.04 0.1,-0.02 0.09,-0.01 0.09,0.02 0.09,0.03 0.1,-0.02 0.09,0 0.09,-0.01 0.1,-0.03 0.09,0.03 0.09,-0.01 0.1,-0.01 0.09,0.02 0.09,-0.04 0.09,-0.06 0.1,0.01 0.09,0.02 0.09,-0.05 0.1,0.05 0.09,-0.03 0.09,0.04 0.09,-0.02 0.1,0 0.09,-0.02 0.09,-0.07 0.1,-0.02 0.09,-0.03 0.09,-0.01 0.1,-0.01 0.09,0.02 0.09,-0.02 0.09,0.03 0.1,0.01 0.09,-0.02 0.09,-0.06 0.1,-0.01 0.09,-0.04 0.09,0.01 0.09,0.04 0.1,0.03 0.09,0.02 0.09,-0.02 0.1,0.01 0.09,0.02 0.09,-0.04 0.1,-0.04 0.09,0.02 0.09,-0.04 0.09,-0.01 0.1,0.03 0.09,0.03 0.09,0.07 0.1,0.01 0.09,0.05 0.09,0.03 0.09,0.04 0.1,0.03 0.09,0.07 0.09,0.01 0.1,0.04 0.09,-0.03 0.09,0.04 0.09,0.05 0.1,-0.03 0.09,-0.03 0.09,-0.01 0.1,0.01 0.09,0.04 0.09,0.02 0.1,0 0.09,0.06 0.09,-0.02 0.09,0.02 0.1,0.01 0.09,-0.05 0.09,-0.02 0.1,0.07 0.09,0 0.09,-0.06 0.09,0.01 0.1,0.01 0.09,0.02 0.09,0.02 0.1,0.05 0.09,0 0.09,0.02 0.1,0 0.09,-0.02 0.09,0.03 0.09,0 0.1,-0.03 0.09,0.07 0.09,-0.02 0.1,0.05 0.09,-0.03 0.09,0.02 0.09,0.08 0.1,0.01 0.09,-0.04 0.09,0.01 0.1,0.09 0.09,-0.02 0.09,-0.07 0.1,-0.01 0.09,-0.08 0.09,0.01 0.09,-0.01 0.1,-0.03 0.09,0 0.09,-0.01 0.1,0 0.09,0 0.09,0.04 0.09,0 0.1,0.04 0.09,-0.04 0.09,-0.04 0.1,-0.04 0.09,-0.02 0.09,-0.03 0.1,0 0.09,0.01 0.09,-0.02 0.09,-0.03 0.1,-0.01 0.09,0 0.09,-0.07 0.1,0.01 0.09,-0.02 0.09,-0.04 0.09,0.01 0.1,-0.07 0.09,-0.08 0.09,0.03 0.1,0 0.09,-0.03 0.09,-0.05 0.1,0.01 0.09,-0.01 0.09,0 0.09,0.01 0.1,-0.07 0.09,0.01 0.09,-0.02 0.1,0.03 0.09,0 0.09,-0.02 0.09,0.01 0.1,-0.03 0.09,-0.01 0.09,-0.04 0.1,0.01 0.09,-0.02 0.09,-0.04 0.1,-0.06 0.09,-0.05 0.09,0.03 0.09,-0.04 0.1,0.05 0.09,0.09 0.09,0.03 0.1,-0.03 0.09,0.02 0.09,0.01 0.09,0.01 0.1,-0.02 0.09,-0.02 0.09,0 0.1,0.01 0.09,-0.01 0.09,0.01 0.1,0.02 0.09,-0.03 0.09,-0.01 0.09,0.01 0.1,-0.06 0.09,0.01 0.09,0.02 0.1,0.01 0.09,0.02 0.09,-0.03 0.09,0.03 0.1,0.01 0.09,0.04 0.09,0.06 0.1,0.04 0.09,0 0.09,0 0.1,0.05 0.09,-0.01 0.09,-0.02 0.09,0.01 0.1,0.01 0.09,0.01 0.09,0.06 0.1,0.03 0.09,0.04 0.09,0.06 0.09,0 0.1,0.03 0.09,0 0.09,0.04 0.1,-0.02 0.09,0.03 0.09,0.02 0.1,0.01 0.09,0.06 0.09,-0.01 0.09,0.01 0.1,0.04 0.09,0.02 0.09,0.05 0.1,0 0.09,-0.01 0.09,0.06 0.09,0.04 0.1,0.05 0.09,0.04 0.09,-0.01 0.1,0.03 0.09,0.02 0.09,0 0.1,0.01 0.09,-0.02 0.09,-0.05 0.09,0.04 0.1,0.01 0.09,0 0.09,-0.01 0.1,-0.01 0.09,-0.01 0.09,0 0.09,-0.03 0.1,0.01 0.09,-0.02 0.09,0 0.1,-0.03 0.09,-0.02 0.09,0.01 0.1,-0.05 0.09,-0.03 0.09,-0.03 0.09,0 0.1,-0.02 0.09,-0.07 0.09,-0.02 0.1,-0.01 0.09,-0.02 0.09,-0.11 0.09,0.01 0.1,-0.06 0.09,-0.05 0.09,-0.02 0.1,-0.04 0.09,-0.03 0.09,-0.02 0.1,-0.02 0.09,0.02 0.09,-0.07 0.09,-0.05 0.1,-0.03 0.09,-0.03 0.09,-0.05 0.1,-0.01 0.09,-0.05 0.09,-0.02 0.09,0 0.1,-0.04 0.09,0.02 0.09,0.03 0.1,0.01 0.09,-0.01 0.09,-0.01 0.1,-0.03 0.09,-0.01 0.09,-0.03 0.09,0.03 0.1,0 0.09,0.01 0.09,0.05 0.1,0 0.09,-0.01 0.09,0.03 0.09,0.05 0.1,-0.01 0.09,0.05 0.09,-0.03 0.1,0 0.09,-0.01 0.09,0.04 0.1,0.03 0.09,0.03 0.09,0.03 0.09,0.02 0.1,0.08 0.09,-0.02 0.09,0.05 0.1,-0.01 0.09,0.1 0.09,0.04 0.09,0 0.1,0.01 0.09,0.03 0.09,0.06 0.1,0 0.09,0.05 0.09,0.06 0.09,0 0.1,-0.03 0.09,0.06 0.09,-0.02 0.1,-0.01 0.09,0 0.09,0.04 0.1,0.04 0.09,0.05 0.09,0.04 0.09,0.01 0.1,0.05 0.09,-0.05 0.09,0.04 0.1,0.05 0.09,-0.05 0.09,0.01 0.09,0 0.1,0.02 0.09,-0.08 0.09,0.01 0.1,-0.02 0.09,0.01 0.09,0.01 0.1,-0.03 0.09,-0.02 0.09,-0.05 0.09,0.01 0.1,-0.03 0.09,-0.01 0.09,-0.03 0.1,-0.06 0.09,0.01 0.09,-0.03 0.09,-0.03 0.1,-0.06 0.09,-0.04 0.09,-0.04 0.1,0.02 0.09,-0.06 0.09,0.05 0.1,0.03 0.09,-0.03 0.09,0.03 0.09,0 0.1,0.03 0.09,-0.03 0.09,0 0.1,-0.03 0.09,0 0.09,0 0.09,0.05 0.1,-0.03 0.09,-0.03 0.09,0.05 0.1,-0.04 0.09,0.01 0.09,-0.03 0.1,0 0.09,-0.02 0.09,-0.01 0.09,-0.02 0.1,-0.01 0.09,-0.01 0.09,0.02 0.1,-0.01 0.09,-0.01 0.09,-0.01 0.09,-0.01 0.1,-0.03 0.09,0.03 0.09,0 0.1,-0.01 0.09,0 0.09,-0.02 0.1,0.05 0.09,-0.03 0.09,0 0.09,0.01 0.1,0.01 0.09,0.03 0.09,-0.04 0.1,0.07 0.09,-0.03 0.09,0.06 0.09,0.01 0.1,-0.04 0.09,0.01 0.09,-0.03 0.1,-0.02 0.09,0 0.09,0.01 0.1,0 0.09,0.02 0.09,0.02 0.09,0 0.1,0.09 0.09,-0.01 0.09,-0.01 0.1,-0.03 0.09,-0.04 0.09,0 0.09,-0.06 0.1,0.06 0.09,0 0.09,-0.03 0.1,-0.03 0.09,0.02 0.09,0.04 0.1,0.03 0.09,-0.01 0.09,-0.05 0.09,0 0.1,-0.01 0.09,0.03 0.09,0 0.1,-0.03 0.09,0.05 0.09,0 0.09,-0.02 0.1,-0.02 0.09,0.04 0.09,-0.05 0.1,0.02 0.09,-0.03 0.09,0.02 0.1,-0.01 0.09,-0.02 0.09,-0.03 0.09,-0.01 0.1,-0.02 0.09,0 0.09,-0.01 0.1,0.01 0.09,0 0.09,-0.03 0.09,-0.03 0.1,-0.01 0.09,-0.03 0.09,0.03 0.1,0.02 0.09,-0.04 0.09,0.05 0.1,0.02 0.09,-0.01 0.09,0.02 0.09,0 0.1,-0.02 0.09,-0.05 0.09,0 0.1,-0.02 0.09,-0.01 0.09,-0.03 0.09,0.01 0.1,-0.01 0.09,0 0.09,-0.02 0.1,0.03 0.09,0.05 0.09,0.05 0.1,0.05 0.09,0.03 0.09,-0.05 0.09,0.01 0.1,0.05 0.09,-0.03 0.09,0.04 0.1,0.01 0.09,0.06 0.09,0 0.09,0.04 0.1,0.01 0.09,0.03 0.09,0.03 0.1,-0.02 0.09,0.03 0.09,0.02 0.1,0.08 0.09,-0.01 0.09,-0.01 0.09,0 0.1,-0.03 0.09,-0.01 0.09,0.06 0.1,-0.04 0.09,0.01 0.09,-0.03 0.09,-0.02 0.1,-0.01 0.09,-0.01 0.09,0.01 0.1,0.01 0.09,0.02 0.09,0.04 0.1,0.02 0.09,0.05 0.09,0.05 0.09,-0.02 0.1,-0.01 0.09,0 0.09,-0.08 0.1,0.01 0.09,-0.01 0.09,0 0.09,0.05 0.1,-0.01 0.09,0.06 0.09,0 0.1,0.05 0.09,0.02 0.09,-0.01 0.1,-0.03 0.09,0 0.09,-0.03 0.09,0.04 0.1,0.05 0.09,0.02 0.09,-0.04 0.1,-0.02 0.09,0 0.09,0 0.09,-0.03 0.1,-0.06 0.09,0 0.09,0.04 0.1,-0.01 0.09,-0.02 0.09,-0.04 0.09,-0.06 0.1,-0.1 0.09,0.01 0.09,-0.05 0.1,0 0.09,-0.03 0.09,0.06 0.1,-0.02 0.09,0 0.09,-0.03 0.09,-0.08 0.1,-0.01 0.09,-0.05 0.09,-0.06 0.1,-0.03 0.09,-0.02 0.09,-0.04 0.09,-0.06 0.1,0.01 0.09,-0.04 0.09,-0.04 0.1,0.01 0.09,0.02 0.09,0.03 0.1,-0.02 0.09,0.05 0.09,-0.05 0.09,0.01 0.1,0.01 0.09,-0.01 0.09,0.01 0.1,-0.01 0.09,-0.05 0.09,0.04 0.09,0.01 0.1,0.04 0.09,0.04 0.09,0.03 0.1,-0.01 0.09,0.01 0.09,-0.02 0.1,-0.04 0.09,0.06 0.09,0.02 0.09,-0.03 0.1,0 0.09,0 0.09,0 0.1,-0.03 0.09,-0.01 0.09,0.02 0.09,-0.04 0.1,0.03 0.09,0.01 0.09,-0.02 0.1,0.03 0.09,0.03 0.09,-0.03 0.1,0.02 0.09,0.05 0.09,0 0.09,0.07 0.1,0.01 0.09,0 0.09,0.02 0.1,0.05 0.09,0.05 0.09,0 0.09,0.04 0.1,0.02 0.09,-0.01 0.09,0.02 0.1,-0.03 0.09,-0.01 0.09,0 0.1,0.01 0.09,0.09 0.09,0.03 0.09,0 0.1,0.04 0.09,-0.01 0.09,0.02 0.1,0.01 0.09,0.03 0.09,0.01 0.09,0.03 0.1,0.01 0.09,-0.02 0.09,-0.01 0.1,-0.01 0.09,0.07 0.09,-0.01 0.1,0.01 0.09,0.01 0.09,0.03 0.09,0.04 0.1,0.03 0.09,-0.02 0.09,-0.04 0.1,0.03 0.09,0 0.09,-0.01 0.09,-0.07 0.1,0.02 0.09,-0.06 0.09,-0.01 0.1,0.04 0.09,-0.04 0.09,0 0.1,0 0.09,0.02 0.09,0.01 0.09,-0.03 0.1,-0.04 0.09,-0.01 0.09,-0.02 0.1,-0.06 0.09,-0.06 0.09,-0.03 0.09,-0.07 0.1,0.03 0.09,-0.02 0.09,0.01 0.1,-0.03 0.09,-0.04 0.09,-0.03 0.1,0.01 0.09,-0.02 0.09,0 0.09,-0.01 0.1,-0.01 0.09,0.04 0.09,-0.04 0.1,0.05 0.09,0.01 0.09,0.03 0.09,0.03 0.1,-0.02 0.09,0 0.09,-0.07 0.1,0.05 0.09,-0.07 0.09,0 0.1,0 0.09,0.03 0.09,0.01 0.09,-0.02 0.1,-0.01 0.09,-0.03 0.09,-0.01 0.1,0.02 0.09,-0.04 0.09,0.02 0.09,-0.04 0.1,0 0.09,-0.01 0.09,0.02 0.1,0.04 0.09,0.01 0.09,-0.01 0.1,-0.01 0.09,0.02 0.09,-0.02 0.09,0 0.1,-0.02 0.09,-0.02 0.09,0.04 0.1,-0.02 0.09,-0.03 0.09,-0.01 0.09,-0.01 0.1,0 0.09,0.01 0.09,-0.01 0.1,0.01 0.09,-0.03 0.09,-0.01 0.1,-0.06 0.09,0.01 0.09,0.04 0.09,0.02 0.1,0.01 0.09,0.04 0.09,0.01 0.1,0.03 0.09,-0.01 0.09,0.02 0.09,-0.01 0.1,0 0.09,0.01 0.09,0 0.1,0 0.09,0.03 0.09,-0.01 0.1,0.04 0.09,-0.01 0.09,0 0.09,0.01 0.1,-0.01 0.09,0.03 0.09,0.04 0.1,-0.04 0.09,0.06 0.09,-0.01 0.09,0.04 0.1,0.01 0.09,-0.06 0.09,0.02 0.1,0 0.09,0.01 0.09,-0.02 0.1,0.03 0.09,0 0.09,0.01 0.09,-0.01 0.1,0.02 0.09,0.01 0.09,-0.01 0.1,-0.01 0.09,0.02 0.09,-0.03 0.09,0.04 0.1,0.08 0.09,-0.02 0.09,0.04 0.1,0.06 0.09,-0.02 0.09,0 0.1,0.02 0.09,0.09 0.09,0.01 0.09,0 0.1,-0.04 0.09,-0.01 0.09,0.01 0.1,0 0.09,0.02 0.09,-0.01 0.09,0.02 0.1,0.01 0.09,-0.02 0.09,0.02 0.1,-0.01 0.09,-0.06 0.09,0.01 0.09,0.02 0.1,0.04 0.09,-0.05 0.09,-0.02 0.1,0.01 0.09,-0.04 0.09,0.02 0.1,0.02 0.09,0.02 0.09,-0.02 0.09,-0.03 0.1,0 0.09,0 0.09,0 0.1,0.01 0.09,-0.02 0.09,-0.03 0.09,-0.06 0.1,0.01 0.09,0.05 0.09,-0.06 0.1,-0.03 0.09,0.05 0.09,0.02 0.1,-0.05 0.09,0.03 0.09,-0.08 0.09,-0.01 0.1,-0.01 0.09,-0.07 0.09,-0.02 0.1,0.02 0.09,-0.02 0.09,0 0.09,-0.09 0.1,-0.03 0.09,0.02 0.09,-0.05 0.1,-0.06 0.09,0.01 0.09,-0.05 0.1,-0.07 0.09,0 0.09,-0.03 0.09,-0.03 0.1,-0.01 0.09,-0.01 0.09,0.01 0.1,-0.07 0.09,-0.02 0.09,-0.04 0.09,-0.02 0.1,0.01 0.09,0.02 0.09,-0.01 0.1,-0.01 0.09,0.01 0.09,-0.02 0.1,0 0.09,0.07 0.09,-0.06 0.09,0.02 0.1,0.02 0.09,-0.03 0.09,-0.01 0.1,0.06 0.09,0 0.09,0.05 0.09,-0.01 0.1,0.04 0.09,0.02 0.09,-0.01 0.1,0.01 0.09,-0.02 0.09,0.04 0.1,0 0.09,0.07 0.09,0.04 0.09,0.01 0.1,-0.01 0.09,0.07 0.09,0.06 0.1,0.04 0.09,0.06 0.09,0.03 0.09,0.06 0.1,0.07 0.09,0.03 0.09,0.08 0.1,0.03 0.09,0.06 0.09,0 0.1,0.05 0.09,-0.01 0.09,0.02 0.09,0.04 0.1,-0.01 0.09,0.04 0.09,0.07 0.1,0.03 0.09,0.03 0.09,-0.01 0.09,0.02 0.1,-0.05 0.09,-0.01 0.09,0.02 0.1,0.09 0.09,0 0.09,0.04 0.1,0.04 0.09,0.03 0.09,0.03 0.09,0 0.1,0.01 0.09,0.01 0.09,-0.02 0.1,-0.02 0.09,0.02 0.09,-0.02 0.09,-0.05 0.1,-0.03 0.09,0.02 0.09,-0.03 0.1,-0.06 0.09,0.01 0.09,-0.06 0.1,-0.07 0.09,0.01 0.09,-0.03 0.09,-0.03 0.1,-0.03 0.09,-0.05 0.09,-0.04 0.1,-0.03 0.09,-0.06 0.09,-0.09 0.09,-0.03 0.1,-0.06 0.09,-0.02 0.09,-0.02 0.1,-0.01 0.09,-0.08 0.09,-0.05 0.1,-0.06 0.09,-0.04 0.09,-0.1 0.09,-0.07 0.1,-0.04 0.09,-0.06 0.09,-0.06 0.1,-0.05 0.09,0 0.09,0 0.09,-0.07 0.1,-0.01 0.09,0.03 0.09,0 0.1,0.01 0.09,-0.04 0.09,-0.05 0.1,0.04 0.09,-0.04 0.09,-0.05 0.09,0 0.1,-0.01 0.09,0.01 0.09,0.04 0.1,-0.03 0.09,0 0.09,0.04 0.09,0.01 0.1,-0.01 0.09,0.04 0.09,0.03 0.1,0.02 0.09,0.02 0.09,0.02 0.1,0.01 0.09,0.04 0.09,0.02 0.09,0.05 0.1,0.04 0.09,0.03 0.09,0.1 0.1,-0.05 0.09,0.06 0.09,0 0.09,0.06 0.1,0.04 0.09,0.05 0.09,0.02 0.1,0.09 0.09,0 0.09,0.06 0.1,-0.02 0.09,0.05 0.09,0.02 0.09,0.05 0.1,-0.05 0.09,0.02 0.09,0.01 0.1,0.09 0.09,0 0.09,0.03 0.09,0.04 0.1,0.05 0.09,0.05 0.09,0.05 0.1,-0.01 0.09,0.05 0.09,0.1 0.1,0.06 0.09,0.07 0.09,-0.01 0.09,0.02 0.1,0.03 0.09,0.08 0.09,-0.02 0.1,0.07 0.09,0 0.09,-0.02 0.09,0.04 0.1,-0.02 0.09,-0.02 0.09,-0.05 0.1,-0.03 0.09,-0.06 0.09,0 0.1,-0.02 0.09,0.01 0.09,0 0.09,-0.04 0.1,-0.04 0.09,-0.02 0.09,-0.05 0.1,-0.05 0.09,-0.03 0.09,-0.04 0.09,0 0.1,-0.01 0.09,0.01 0.09,0.02 0.1,-0.02 0.09,-0.01 0.09,-0.03 0.09,-0.08 0.1,-0.09 0.09,0 0.09,-0.08 0.1,0 0.09,-0.04 0.09,-0.04 0.1,-0.05 0.09,-0.04 0.09,-0.02 0.09,-0.02 0.1,-0.06 0.09,-0.09 0.09,-0.01 0.1,0 0.09,-0.09 0.09,-0.07 0.09,0 0.1,0.01 0.09,-0.05 0.09,-0.01 0.1,-0.04 0.09,-0.02 0.09,-0.1 0.1,0.02 0.09,0 0.09,0.01 0.09,-0.04 0.1,-0.01 0.09,0.05 0.09,-0.02 0.1,-0.02 0.09,0 0.09,0.05 0.09,-0.05 0.1,0.03 0.09,-0.06 0.09,-0.01 0.1,0.03 0.09,-0.01 0.09,-0.01 0.1,0 0.09,0.02 0.09,-0.01 0.09,0 0.1,0.04 0.09,0.03 0.09,-0.01 0.1,0.02 0.09,0 0.09,-0.02 0.09,0.01 0.1,0.03 0.09,-0.01 0.09,-0.02 0.1,0.03 0.09,-0.01 0.09,0.04 0.1,0.04 0.09,0.04 0.09,0.06 0.09,0.03 0.1,0.05 0.09,0.05 0.09,0.02 0.1,0.05 0.09,0.06 0.09,0.05 0.09,0.06 0.1,0.08 0.09,0.01 0.09,0.02 0.1,0.02 0.09,0.05 0.09,0.07 0.1,0.08 0.09,0.04 0.09,0.04 0.09,-0.02 0.1,0.02 0.09,0.02 0.09,0.05 0.1,0.04 0.09,-0.02 0.09,0.01 0.09,-0.03 0.1,0.05 0.09,0.03 0.09,-0.06 0.1,0.08 0.09,-0.03 0.09,0.03 0.1,0.01 0.09,0.09 0.09,0.01 0.09,-0.05 0.1,0.04 0.09,-0.05 0.09,-0.03 0.1,-0.02 0.09,-0.06 0.09,0.02 0.09,-0.06 0.1,-0.02 0.09,-0.04 0.09,-0.01 0.1,0.02 0.09,-0.01 0.09,0.03 0.1,0 0.09,-0.02 0.09,-0.01 0.09,-0.03 0.1,-0.05 0.09,-0.02 0.09,-0.03 0.1,-0.1 0.09,-0.01 0.09,-0.02 0.09,-0.01 0.1,-0.02 0.09,0 0.09,-0.02 0.1,0 0.09,-0.01 0.09,-0.04 0.1,-0.02 0.09,-0.02 0.09,-0.01 0.09,-0.02 0.1,0.04 0.09,-0.04 0.09,0.03 0.1,-0.02 0.09,0.07 0.09,-0.09 0.09,-0.02 0.1,0.02 0.09,-0.03 0.09,-0.03 0.1,-0.01 0.09,-0.05 0.09,-0.01 0.1,0 0.09,-0.06 0.09,-0.05 0.09,-0.03 0.1,0 0.09,0.03 0.09,-0.07 0.1,0.02 0.09,-0.02 0.09,-0.06 0.09,-0.05 0.1,-0.03 0.09,0.03 0.09,-0.02 0.1,0.04 0.09,-0.01 0.09,0 0.1,0.02 0.09,0.05 0.09,-0.05 0.09,-0.01 0.1,-0.03 0.09,0.01 0.09,0.02 0.1,-0.02 0.09,-0.01 0.09,0.02 0.09,0.03 0.1,0.01 0.09,-0.03 0.09,0.06 0.1,0.03 0.09,-0.01 0.09,0.04 0.1,0.01 0.09,0.02 0.09,0.07 0.09,0.03 0.1,0.03 0.09,0.03 0.09,0 0.1,0.08 0.09,-0.02 0.09,0.01 0.09,0.01 0.1,0.01 0.09,0.07 0.09,-0.01 0.1,0.07 0.09,0 0.09,0.01 0.1,0.01 0.09,0 0.09,-0.02 0.09,0.01 0.1,0.02 0.09,-0.06 0.09,-0.03 0.1,0.01 0.09,0.06 0.09,0.03 0.09,0 0.1,-0.04 0.09,0.02 0.09,0.04 0.1,-0.05 0.09,-0.04 0.09,0.07 0.1,0.02 0.09,0.02 0.09,0.03 0.09,0.05 0.1,0.01 0.09,0.05 0.09,0.06 0.1,0.03 0.09,0.02 0.09,0.02 0.09,0.04 0.1,0.02 0.09,0.01 0.09,-0.02 0.1,0.02 0.09,-0.01 0.09,-0.03 0.1,-0.05 0.09,-0.04 0.09,-0.01 0.09,-0.03 0.1,0.01 0.09,-0.04 0.09,-0.01 0.1,-0.06 0.09,-0.03 0.09,-0.06 0.09,0 0.1,-0.03 0.09,0.02 0.09,-0.07 0.1,-0.01 0.09,-0.02 0.09,-0.01 0.09,-0.04 0.1,-0.06 0.09,-0.03 0.09,-0.02 0.1,-0.03 0.09,-0.07 0.09,-0.02 0.1,-0.06 0.09,-0.04 0.09,0 0.09,-0.03 0.1,-0.02 0.09,-0.03 0.09,0.04 0.1,-0.04 0.09,-0.02 0.09,0.03 0.09,-0.04 0.1,-0.02 0.09,-0.06 0.09,-0.01 0.1,0.05 0.09,-0.01 0.09,0.01 0.1,0.03 0.09,-0.03 0.09,0 0.09,0 0.1,0.05 0.09,-0.03 0.09,0.01 0.1,0.03 0.09,0.03 0.09,0 0.09,0.03 0.1,0.02 0.09,0.04 0.09,0.03 0.1,0 0.09,0.05 0.09,-0.03 0.1,-0.02 0.09,0.04 0.09,0.06 0.09,0.01 0.1,0.01 0.09,0.05 0.09,0.06 0.1,0.02 0.09,-0.02 0.09,0.07 0.09,0.02 0.1,0.02 0.09,0.05 0.09,0.08 0.1,0 0.09,0.07 0.09,-0.01 0.1,0.02 0.09,0.02 0.09,-0.03 0.09,0.02 0.1,0 0.09,0.01 0.09,-0.01 0.1,-0.05 0.09,0.03 0.09,-0.06 0.09,-0.05 0.1,0.05 0.09,0.05 0.09,0.03 0.1,0 0.09,0.01 0.09,0.03 0.1,0.07 0.09,0 0.09,-0.01 0.09,0.02 0.1,-0.06 0.09,0.01 0.09,-0.03 0.1,0.03 0.09,-0.06 0.09,0 0.09,-0.06 0.1,0 0.09,0 0.09,-0.02 0.1,-0.03 0.09,-0.01 0.09,0.02 0.1,0 0.09,0.01 0.09,-0.01 0.09,-0.05 0.1,0 0.09,0 0.09,-0.06 0.1,-0.04 0.09,-0.04 0.09,-0.01 0.09,0.01 0.1,0 0.09,0.02 0.09,-0.01 0.1,-0.03 0.09,-0.04 0.09,-0.02 0.1,0.02 0.09,-0.02 0.09,-0.01 0.09,0.01 0.1,0.03 0.09,0.02 0.09,0.02 0.1,-0.07 0.09,0.02 0.09,-0.05 0.09,-0.06 0.1,0 0.09,-0.02 0.09,0.02 0.1,0.03 0.09,-0.01 0.09,-0.01 0.1,0.02 0.09,0.01 0.09,0.02 0.09,0.03 0.1,0.01 0.09,0.03 0.09,-0.01 0.1,-0.01 0.09,0.01 0.09,0.07 0.09,-0.01 0.1,0 0.09,-0.05 0.09,0.02 0.1,-0.01 0.09,0.07 0.09,0.05 0.1,0.06 0.09,0.02 0.09,-0.03 0.09,0.05 0.1,-0.02 0.09,0.01 0.09,0 0.1,-0.03 0.09,0 0.09,0.06 0.09,-0.02 0.1,0.01 0.09,-0.04 0.09,0.01 0.1,-0.02 0.09,0.03 0.09,0.02 0.1,-0.02 0.09,0 0.09,-0.03 0.09,-0.02 0.1,0 0.09,-0.07 0.09,0.02 0.1,-0.03 0.09,-0.05 0.09,0.01 0.09,-0.05 0.1,-0.03 0.09,0 0.09,-0.01 0.1,0.03 0.09,-0.02 0.09,-0.03 0.1,0.02 0.09,0.02 0.09,0.01 0.09,0.02 0.1,-0.02 0.09,-0.1 0.09,0 0.1,-0.05 0.09,-0.01 0.09,-0.02 0.09,0.01 0.1,-0.01 0.09,0.01 0.09,-0.05 0.1,-0.02 0.09,0 0.09,-0.01 0.1,-0.01 0.09,0 0.09,0.03 0.09,0.03 0.1,-0.02 0.09,0.02 0.09,0.04 0.1,0 0.09,0.05 0.09,-0.02 0.09,-0.02 0.1,-0.01 0.09,0.01 0.09,0.06 0.1,0.01 0.09,-0.01 0.09,-0.01 0.1,0.02 0.09,-0.01 0.09,0 0.09,-0.01 0.1,0.07 0.09,0.03 0.09,-0.06 0.1,-0.03 0.09,-0.01 0.09,-0.02 0.09,0.04 0.1,-0.05 0.09,0.01 0.09,0.03 0.1,0.03 0.09,0.03 0.09,0.05 0.09,-0.01 0.1,0.02 0.09,0.03 0.09,0.04 0.1,-0.01 0.09,0.03 0.09,0 0.1,0.01 0.09,0.04 0.09,-0.02 0.09,0.01 0.1,0.01 0.09,-0.01 0.09,-0.02 0.1,-0.02 0.09,-0.03 0.09,-0.01 0.09,0 0.1,0.01 0.09,-0.04 0.09,-0.01 0.1,0.01 0.09,-0.01 0.09,-0.06 0.1,0.03 0.09,0 0.09,0.02 0.09,-0.03 0.1,-0.03 0.09,0.01 0.09,-0.03 0.1,-0.03 0.09,0.02 0.09,-0.01 0.09,0 0.1,0.04 0.09,-0.04 0.09,0.05 0.1,0.01 0.09,0.05 0.09,0.05 0.1,-0.02 0.09,0.01 0.09,0.07 0.09,0.03 0.1,0.09 0.09,0.01 0.09,0.02 0.1,-0.01 0.09,0.02 0.09,0.01 0.09,0.02 0.1,0.02 0.09,0.03 0.09,0.02 0.1,-0.02 0.09,-0.03 0.09,0.07 0.1,-0.01 0.09,-0.02 0.09,0.03 0.09,-0.05 0.1,-0.03 0.09,0.02 0.09,-0.01 0.1,0.01 0.09,-0.04 0.09,-0.02 0.09,0.01 0.1,-0.01 0.09,0.01 0.09,-0.01 0.1,-0.08 0.09,0.04 0.09,-0.01 0.1,-0.04 0.09,0.02 0.09,-0.02 0.09,-0.03 0.1,-0.01 0.09,-0.03 0.09,-0.03 0.1,0.01 0.09,-0.03 0.09,-0.02 0.09,-0.01 0.1,-0.03 0.09,-0.03 0.09,0.01 0.1,-0.02 0.09,-0.01 0.09,-0.05 0.1,0.05 0.09,0.01 0.09,0.04 0.09,-0.04 0.1,0.03 0.09,-0.05 0.09,-0.04 0.1,-0.05 0.09,0.01 0.09,0 0.09,0.02 0.1,-0.03 0.09,0 0.09,-0.03 0.1,0.04 0.09,0.02 0.09,-0.02 0.1,0.02 0.09,0 0.09,-0.01 0.09,-0.06 0.1,0.02 0.09,0 0.09,0.06 0.1,0.04 0.09,-0.05 0.09,-0.01 0.09,0.03 0.1,0.01 0.09,-0.01 0.09,0.05 0.1,-0.02 0.09,0.02 0.09,-0.03 0.1,-0.03 0.09,0 0.09,-0.03 0.09,-0.02 0.1,0.02 0.09,0.01 0.09,-0.01 0.1,-0.02 0.09,0.01 0.09,0 0.09,-0.01 0.1,0.02 0.09,0.01 0.09,0.03 0.1,0.03 0.09,-0.03 0.09,0.02 0.1,0.03 0.09,0.04 0.09,0.01 0.09,-0.02 0.1,-0.01 0.09,0.02 0.09,0 0.1,0 0.09,0.01 0.09,0.04 0.09,-0.03 0.1,-0.04 0.09,-0.03 0.09,0.01 0.1,-0.02 0.09,0.01 0.09,0.08 0.1,-0.02 0.09,0.01 0.09,-0.04 0.09,-0.01 0.1,0.02 0.09,0.03 0.09,-0.04 0.1,-0.02 0.09,0.01 0.09,-0.04 0.09,0 0.1,-0.02 0.09,0.05 0.09,0.01 0.1,0.03 0.09,0 0.09,0.02 0.1,0 0.09,0.02 0.09,0.01" /></g></g><g
       id="g46" /><g
       id="g48"><path
         id="path50"
         style="fill:none;stroke:#000000;stroke-width:1.05999994;stroke-linecap:butt;stroke-linejoin:round;stroke-miterlimit:10;stroke-dasharray:none;stroke-opacity:1"
         d="m 49.56,37.28 0,236.32" /></g><g
       id="g52"><text
         id="text54"
         style="font-variant:normal;font-weight:normal;font-size:10px;font-family:Helvetica;-inkscape-font-specification:Helvetica;writing-mode:lr-tb;fill:#000000;fill-opacity:1;fill-rule:nonzero;stroke:none"
         transform="matrix(1,0,0,-1,23.02,44.43)"><tspan
           id="tspan56"
           y="0"
           x="0 5.5599999 8.3400002 13.9">0.00</tspan></text>
<text
         id="text58"
         style="font-variant:normal;font-weight:normal;font-size:10px;font-family:Helvetica;-inkscape-font-specification:Helvetica;writing-mode:lr-tb;fill:#000000;fill-opacity:1;fill-rule:nonzero;stroke:none"
         transform="matrix(1,0,0,-1,23.02,86.39)"><tspan
           id="tspan60"
           y="0"
           x="0 5.5599999 8.3400002 13.9">0.01</tspan></text>
<text
         id="text62"
         style="font-variant:normal;font-weight:normal;font-size:10px;font-family:Helvetica;-inkscape-font-specification:Helvetica;writing-mode:lr-tb;fill:#000000;fill-opacity:1;fill-rule:nonzero;stroke:none"
         transform="matrix(1,0,0,-1,23.02,128.34)"><tspan
           id="tspan64"
           y="0"
           x="0 5.5599999 8.3400002 13.9">0.02</tspan></text>
<text
         id="text66"
         style="font-variant:normal;font-weight:normal;font-size:10px;font-family:Helvetica;-inkscape-font-specification:Helvetica;writing-mode:lr-tb;fill:#000000;fill-opacity:1;fill-rule:nonzero;stroke:none"
         transform="matrix(1,0,0,-1,23.02,170.29)"><tspan
           id="tspan68"
           y="0"
           x="0 5.5599999 8.3400002 13.9">0.03</tspan></text>
<text
         id="text70"
         style="font-variant:normal;font-weight:normal;font-size:10px;font-family:Helvetica;-inkscape-font-specification:Helvetica;writing-mode:lr-tb;fill:#000000;fill-opacity:1;fill-rule:nonzero;stroke:none"
         transform="matrix(1,0,0,-1,23.02,212.25)"><tspan
           id="tspan72"
           y="0"
           x="0 5.5599999 8.3400002 13.9">0.04</tspan></text>
<text
         id="text74"
         style="font-variant:normal;font-weight:normal;font-size:10px;font-family:Helvetica;-inkscape-font-specification:Helvetica;writing-mode:lr-tb;fill:#000000;fill-opacity:1;fill-rule:nonzero;stroke:none"
         transform="matrix(1,0,0,-1,23.02,254.2)"><tspan
           id="tspan76"
           y="0"
           x="0 5.5599999 8.3400002 13.9">0.05</tspan></text>
</g><g
       id="g78" /><g
       id="g80"><path
         id="path82"
         style="fill:none;stroke:#000000;stroke-width:1.05999994;stroke-linecap:butt;stroke-linejoin:round;stroke-miterlimit:10;stroke-dasharray:none;stroke-opacity:1"
         d="m 45.31,48.02 4.25,0" /><path
         id="path84"
         style="fill:none;stroke:#000000;stroke-width:1.05999994;stroke-linecap:butt;stroke-linejoin:round;stroke-miterlimit:10;stroke-dasharray:none;stroke-opacity:1"
         d="m 45.31,89.98 4.25,0" /><path
         id="path86"
         style="fill:none;stroke:#000000;stroke-width:1.05999994;stroke-linecap:butt;stroke-linejoin:round;stroke-miterlimit:10;stroke-dasharray:none;stroke-opacity:1"
         d="m 45.31,131.93 4.25,0" /><path
         id="path88"
         style="fill:none;stroke:#000000;stroke-width:1.05999994;stroke-linecap:butt;stroke-linejoin:round;stroke-miterlimit:10;stroke-dasharray:none;stroke-opacity:1"
         d="m 45.31,173.88 4.25,0" /><path
         id="path90"
         style="fill:none;stroke:#000000;stroke-width:1.05999994;stroke-linecap:butt;stroke-linejoin:round;stroke-miterlimit:10;stroke-dasharray:none;stroke-opacity:1"
         d="m 45.31,215.84 4.25,0" /><path
         id="path92"
         style="fill:none;stroke:#000000;stroke-width:1.05999994;stroke-linecap:butt;stroke-linejoin:round;stroke-miterlimit:10;stroke-dasharray:none;stroke-opacity:1"
         d="m 45.31,257.79 4.25,0" /></g><g
       id="g94" /><g
       id="g96" /><g
       id="g98" /><g
       id="g100" /><g
       id="g102"><path
         id="path104"
         style="fill:none;stroke:#000000;stroke-width:1.05999994;stroke-linecap:butt;stroke-linejoin:round;stroke-miterlimit:10;stroke-dasharray:none;stroke-opacity:1"
         d="m 49.56,37.28 368.04,0" /></g><g
       id="g106"><path
         id="path108"
         style="fill:none;stroke:#000000;stroke-width:1.05999994;stroke-linecap:butt;stroke-linejoin:round;stroke-miterlimit:10;stroke-dasharray:none;stroke-opacity:1"
         d="m 66.2,33.03 0,4.25" /><path
         id="path110"
         style="fill:none;stroke:#000000;stroke-width:1.05999994;stroke-linecap:butt;stroke-linejoin:round;stroke-miterlimit:10;stroke-dasharray:none;stroke-opacity:1"
         d="m 177.73,33.03 0,4.25" /><path
         id="path112"
         style="fill:none;stroke:#000000;stroke-width:1.05999994;stroke-linecap:butt;stroke-linejoin:round;stroke-miterlimit:10;stroke-dasharray:none;stroke-opacity:1"
         d="m 289.25,33.03 0,4.25" /><path
         id="path114"
         style="fill:none;stroke:#000000;stroke-width:1.05999994;stroke-linecap:butt;stroke-linejoin:round;stroke-miterlimit:10;stroke-dasharray:none;stroke-opacity:1"
         d="m 400.78,33.03 0,4.25" /></g><g
       id="g116" /><g
       id="g118"><text
         id="text120"
         style="font-variant:normal;font-weight:normal;font-size:10px;font-family:Helvetica;-inkscape-font-specification:Helvetica;writing-mode:lr-tb;fill:#000000;fill-opacity:1;fill-rule:nonzero;stroke:none"
         transform="matrix(1,0,0,-1,63.42,23.02)"><tspan
           id="tspan122"
           y="0"
           x="0">0</tspan></text>
<text
         id="text124"
         style="font-variant:normal;font-weight:normal;font-size:10px;font-family:Helvetica;-inkscape-font-specification:Helvetica;writing-mode:lr-tb;fill:#000000;fill-opacity:1;fill-rule:nonzero;stroke:none"
         transform="matrix(1,0,0,-1,169.39,23.02)"><tspan
           id="tspan126"
           y="0"
           x="0 5.5599999 11.12">100</tspan></text>
<text
         id="text128"
         style="font-variant:normal;font-weight:normal;font-size:10px;font-family:Helvetica;-inkscape-font-specification:Helvetica;writing-mode:lr-tb;fill:#000000;fill-opacity:1;fill-rule:nonzero;stroke:none"
         transform="matrix(1,0,0,-1,280.91,23.02)"><tspan
           id="tspan130"
           y="0"
           x="0 5.5599999 11.12">200</tspan></text>
<text
         id="text132"
         style="font-variant:normal;font-weight:normal;font-size:10px;font-family:Helvetica;-inkscape-font-specification:Helvetica;writing-mode:lr-tb;fill:#000000;fill-opacity:1;fill-rule:nonzero;stroke:none"
         transform="matrix(1,0,0,-1,392.44,23.02)"><tspan
           id="tspan134"
           y="0"
           x="0 5.5599999 11.12">300</tspan></text>
</g><g
       id="g136" /><g
       id="g138" /><g
       id="g140" /><g
       id="g142" /><g
       id="g144"><text
         id="text146"
         style="font-variant:normal;font-weight:normal;font-size:12px;font-family:Helvetica;-inkscape-font-specification:Helvetica;writing-mode:lr-tb;fill:#000000;fill-opacity:1;fill-rule:nonzero;stroke:none"
         transform="matrix(1,0,0,-1,202.03,10.8)"><tspan
           id="tspan148"
           y="0"
           x="0 3.336 6 15.996 22.667999 26.004 30 35.759998 42.431999 49.104 53.099998 59.099998">time (years)</tspan></text>
</g><g
       id="g150" /><g
       id="g152"><text
         id="text154"
         style="font-variant:normal;font-weight:normal;font-size:12px;font-family:Helvetica;-inkscape-font-specification:Helvetica;writing-mode:lr-tb;fill:#000000;fill-opacity:1;fill-rule:nonzero;stroke:none"
         transform="matrix(0,1,1,0,19.42,107.42)"><tspan
           id="tspan156"
           y="0"
           x="0 9.9960003 16.667999 23.34 26.676001 33.348 36.012001 42.012001 45.348 48.012001 54.683998 60.683998 63.348 70.019997 76.692001 83.363998 89.363998">monthly incidence</tspan></text>
</g><g
       id="g158" /><g
       id="g160" /><g
       id="g162" /><g
       id="g164" /><g
       id="g166" /><g
       id="g168"><path
         id="path170"
         style="fill:#ffffff;fill-opacity:1;fill-rule:nonzero;stroke:none"
         d="m 360.72,131.75 40.16,0 0,47.38 -40.16,0 0,-47.38 z" /></g><g
       id="g172" /><g
       id="g174" /><g
       id="g176" /><g
       id="g178" /><g
       id="g180" /><g
       id="g182"><path
         id="path184"
         style="fill:none;stroke:#f8766d;stroke-width:1.05999994;stroke-linecap:butt;stroke-linejoin:round;stroke-miterlimit:10;stroke-dasharray:none;stroke-opacity:1"
         d="m 366.7,161.92 13.82,0" /></g><g
       id="g186" /><g
       id="g188" /><g
       id="g190" /><g
       id="g192"><path
         id="path194"
         style="fill:none;stroke:#00bfc4;stroke-width:1.05999994;stroke-linecap:butt;stroke-linejoin:round;stroke-miterlimit:10;stroke-dasharray:2.13, 2.13;stroke-dashoffset:0;stroke-opacity:1"
         d="m 366.7,144.64 13.82,0" /></g><g
       id="g196" /><g
       id="g198"><text
         id="text200"
         style="font-style:oblique;font-variant:normal;font-size:10px;font-family:Helvetica;-inkscape-font-specification:Helvetica-Oblique;writing-mode:lr-tb;fill:#000000;fill-opacity:1;fill-rule:nonzero;stroke:none"
         transform="matrix(1,0,0,-1,384.41,159.15)"><tspan
           id="tspan202"
           y="0"
           x="0">C</tspan></text>
<text
         id="text204"
         style="font-variant:normal;font-weight:normal;font-size:7px;font-family:Helvetica;-inkscape-font-specification:Helvetica;writing-mode:lr-tb;fill:#000000;fill-opacity:1;fill-rule:nonzero;stroke:none"
         transform="matrix(1,0,0,-1,392.73,157.32)"><tspan
           id="tspan206"
           y="0"
           x="0">1</tspan></text>
</g><g
       id="g208" /><g
       id="g210"><text
         id="text212"
         style="font-style:oblique;font-variant:normal;font-size:10px;font-family:Helvetica;-inkscape-font-specification:Helvetica-Oblique;writing-mode:lr-tb;fill:#000000;fill-opacity:1;fill-rule:nonzero;stroke:none"
         transform="matrix(1,0,0,-1,384.41,141.87)"><tspan
           id="tspan214"
           y="0"
           x="0">C</tspan></text>
<text
         id="text216"
         style="font-variant:normal;font-weight:normal;font-size:7px;font-family:Helvetica;-inkscape-font-specification:Helvetica;writing-mode:lr-tb;fill:#000000;fill-opacity:1;fill-rule:nonzero;stroke:none"
         transform="matrix(1,0,0,-1,392.73,140.04)"><tspan
           id="tspan218"
           y="0"
           x="0">2</tspan></text>
</g><g
       id="g220" /><g
       id="g222" /><g
       id="g224" /><g
       id="g226" /><g
       id="g228" /><g
       id="g230" /><g
       id="g232" /><g
       id="g234" /><g
       id="g236" /><g
       id="g238" /><g
       id="g240" /><g
       id="g242" /></g></svg>